M48
INCH,LZ
;FILE_FORMAT=2:4
;TYPE=PLATED
;Layer: Drill PTH
;EasyEDA v6.4.25, 2021-09-22T10:01:34+05:30
;8cc9cb2f6d7c45b292ba83ed26aff0c4,f7b9aed3ca5c4f10b20383f968238e49,10
;Gerber Generator version 0.2
;Holesize 1 = 0.0120 inch
T01C0.0120
%
G05
G90
T01
X003150Y004016
X002853Y003562
X001654Y003937
X002598Y000699
X000472Y000699
X002323Y005600
X000315Y005600
X003937Y000702
X006063Y000702
X005118Y003898
X006614Y004016
X006181Y003346
X008583Y003858
X010039Y004016
X009646Y003345
X009528Y000698
X007418Y000698
X009265Y005601
X007156Y005601
X010608Y005596
X012717Y005596
X013576Y004016
X013243Y003365
X012966Y000699
X010856Y000699
X014985Y000894
X017437Y003486
X016682Y004551
X017918Y000916
X017051Y001319
X018228Y002874
X019099Y000512
X002821Y002923
X013894Y003149
X006252Y002952
X009712Y002952
X001004Y002775
X004349Y002686
X007640Y002914
X011184Y002914
X016205Y003505
X012090Y003918
X015181Y003229
X000433Y004972
X000729Y004700
X001777Y004700
X002147Y004921
X002419Y005256
X000887Y004263
X001777Y004283
X000898Y003830
X000993Y003507
X001143Y002285
X001147Y001931
X001052Y001572
X002041Y001560
X002002Y001935
X001998Y002360
X000603Y001328
X002459Y001304
X002746Y001028
X000449Y000303
X002644Y000303
X000883Y003144
X003432Y003349
X002147Y004507
X002549Y004523
X003105Y004444
X003428Y003645
X003932Y000315
X004117Y001411
X004511Y001552
X004523Y001946
X004539Y002317
X006028Y000197
X005827Y001438
X005457Y001820
X005449Y002191
X005528Y002431
X006627Y003562
X006639Y004519
X006190Y004531
X005748Y004543
X005209Y004283
X005217Y004673
X005551Y004972
X005819Y005291
X005863Y005666
X005843Y006009
X003613Y006009
X003629Y005658
X003629Y005201
X003865Y004823
X004216Y004673
X004271Y004251
X004295Y003771
X004314Y003400
X003767Y002892
X003763Y003518
X003444Y004239
X002975Y005390
X002762Y005047
X003396Y004917
X002746Y002329
X003495Y002348
X003889Y002013
X003353Y001600
X002853Y001828
X003195Y002065
X003030Y001284
X007458Y001367
X007852Y001489
X008065Y002005
X008038Y002376
X008924Y002277
X008924Y001868
X009007Y001497
X009428Y001359
X009692Y001048
X007352Y000284
X009618Y000347
X007092Y005981
X007116Y005157
X007344Y004799
X007687Y004570
X007734Y004243
X007715Y003873
X007766Y003479
X008629Y004188
X008680Y004622
X008944Y004850
X009287Y005185
X009255Y006028
X009070Y004499
X009570Y004570
X009980Y004499
X010201Y003711
X009531Y002384
X010863Y000303
X010863Y001080
X011016Y001430
X011371Y001604
X011422Y002013
X011434Y002368
X011142Y002573
X012356Y002388
X012356Y002049
X012458Y001619
X012785Y001367
X013041Y001095
X013022Y000244
X012781Y002407
X013652Y003589
X013581Y004468
X013152Y004563
X012907Y005071
X012092Y004354
X012159Y004689
X012612Y004933
X013026Y005378
X010539Y005953
X010567Y005209
X010803Y004846
X011103Y004689
X011241Y004346
X011213Y003881
X010800Y003656
X010508Y004027
X010272Y004941
X011190Y003542
X012746Y005993
X010583Y002053
X010563Y002612
X009901Y002061
X010473Y001450
X007112Y003593
X007100Y004169
X006631Y005142
X006403Y005504
X006127Y005189
X006785Y005429
X013353Y005362
X014003Y005374
X013692Y005004
X013278Y004893
X014373Y005942
X013900Y004622
X014223Y003585
X013849Y001379
X013345Y001391
X012974Y002033
X014779Y002415
X015287Y002427
X015622Y002360
X015776Y001497
X013825Y000244
X013975Y000642
X014369Y000299
X015204Y000307
X015862Y000323
X016418Y000280
X016954Y000299
X017876Y001418
X016477Y002506
X018246Y003987
X018254Y003629
X018628Y000276
X019696Y000299
X019992Y000654
X019984Y001095
X019956Y001600
X019972Y002376
X019964Y003680
X019952Y004180
X019925Y005429
X016997Y006052
X016379Y006048
X015764Y006048
X015378Y005733
X014779Y006012
X013672Y005559
X013928Y004232
X000252Y006024
X000272Y004622
X000260Y004196
X000256Y003747
X000260Y003184
X000260Y002671
X000252Y002143
X000248Y001564
X000256Y001001
X000630Y001860
X000603Y002529
X000812Y002230
X000603Y003621
X002482Y001781
X003842Y001592
X004074Y002332
X003191Y000930
X003601Y000579
X002344Y006052
X013581Y006075
X009850Y006072
X006430Y006064
X002896Y006064
M30
