G04 Layer: BottomLayer*
G04 EasyEDA v6.4.25, 2021-09-22T10:01:34+05:30*
G04 8cc9cb2f6d7c45b292ba83ed26aff0c4,f7b9aed3ca5c4f10b20383f968238e49,10*
G04 Gerber Generator version 0.2*
G04 Scale: 100 percent, Rotated: No, Reflected: No *
G04 Dimensions in inches *
G04 leading zeros omitted , absolute positions ,3 integer and 6 decimal *
%FSLAX36Y36*%
%MOIN*%

%ADD14C,0.0250*%

%LPD*%
G36*
X13839Y9840D02*
G01*
X12320Y10140D01*
X11020Y11020D01*
X10140Y12320D01*
X9840Y13839D01*
X9840Y615720D01*
X10140Y617260D01*
X11020Y618540D01*
X12320Y619420D01*
X13839Y619720D01*
X91780Y619720D01*
X93280Y619420D01*
X94560Y618600D01*
X95420Y617340D01*
X95760Y615860D01*
X95200Y612660D01*
X95200Y550600D01*
X95399Y549200D01*
X95399Y533100D01*
X95800Y532720D01*
X100900Y532720D01*
X102300Y532920D01*
X162399Y532920D01*
X163320Y533540D01*
X163400Y533900D01*
X163400Y611600D01*
X163560Y612700D01*
X164020Y613720D01*
X163500Y615300D01*
X163680Y616960D01*
X164500Y618400D01*
X165859Y619380D01*
X167480Y619720D01*
X437400Y619720D01*
X438900Y619420D01*
X440180Y618600D01*
X441040Y617340D01*
X441400Y615860D01*
X441160Y614360D01*
X440840Y613500D01*
X440680Y612280D01*
X440680Y550240D01*
X440880Y548840D01*
X440880Y532740D01*
X441280Y532340D01*
X446400Y532340D01*
X447800Y532540D01*
X507900Y532540D01*
X508820Y533180D01*
X508880Y533540D01*
X508880Y611220D01*
X509040Y612320D01*
X509400Y613500D01*
X508760Y615100D01*
X508860Y616800D01*
X509680Y618320D01*
X511040Y619360D01*
X512720Y619720D01*
X782980Y619720D01*
X784479Y619420D01*
X785759Y618600D01*
X786640Y617340D01*
X786979Y615860D01*
X786740Y614360D01*
X786460Y613600D01*
X786320Y612400D01*
X786320Y550340D01*
X786520Y548940D01*
X786520Y532840D01*
X786900Y532460D01*
X792020Y532460D01*
X793420Y532660D01*
X853520Y532660D01*
X854440Y533280D01*
X854520Y533640D01*
X854520Y611320D01*
X854659Y612440D01*
X855080Y613500D01*
X854460Y615100D01*
X854560Y616800D01*
X855380Y618320D01*
X856740Y619360D01*
X858420Y619720D01*
X1127980Y619720D01*
X1129480Y619420D01*
X1130760Y618600D01*
X1131620Y617340D01*
X1131980Y615860D01*
X1131560Y613080D01*
X1131560Y551040D01*
X1131760Y549640D01*
X1131760Y533540D01*
X1132160Y533140D01*
X1137260Y533140D01*
X1138660Y533340D01*
X1198760Y533340D01*
X1199680Y533960D01*
X1199760Y534340D01*
X1199760Y612020D01*
X1199920Y613120D01*
X1200360Y614140D01*
X1200200Y614880D01*
X1200220Y616660D01*
X1201000Y618240D01*
X1202400Y619320D01*
X1204120Y619720D01*
X2013360Y619720D01*
X2014880Y619420D01*
X2016180Y618540D01*
X2017060Y617260D01*
X2017360Y615720D01*
X2017360Y13839D01*
X2017060Y12320D01*
X2016180Y11020D01*
X2014880Y10140D01*
X2013360Y9840D01*
X1228380Y9840D01*
X1226720Y10200D01*
X1225360Y11220D01*
X1224540Y12720D01*
X1224440Y14420D01*
X1225100Y16379D01*
X1225100Y94060D01*
X1225260Y95140D01*
X1225680Y96140D01*
X1225420Y96199D01*
X1209420Y96199D01*
X1207220Y96700D01*
X1157340Y96700D01*
X1157060Y96340D01*
X1156900Y95140D01*
X1156900Y33080D01*
X1157100Y31680D01*
X1157100Y15580D01*
X1157300Y14620D01*
X1157260Y12880D01*
X1156460Y11299D01*
X1155080Y10220D01*
X1153380Y9840D01*
X882720Y9840D01*
X881200Y10140D01*
X879900Y11020D01*
X879020Y12320D01*
X878720Y13839D01*
X879020Y15380D01*
X880300Y17180D01*
X880380Y17540D01*
X880380Y95220D01*
X880520Y96300D01*
X880939Y97300D01*
X864700Y97340D01*
X862480Y97840D01*
X812620Y97840D01*
X812320Y97500D01*
X812180Y96300D01*
X812180Y34240D01*
X812380Y32840D01*
X812380Y16740D01*
X813280Y14460D01*
X813180Y12760D01*
X812380Y11240D01*
X811000Y10220D01*
X809320Y9840D01*
X534780Y9840D01*
X533160Y10200D01*
X531800Y11180D01*
X530980Y12620D01*
X530800Y14300D01*
X531340Y15880D01*
X532460Y17100D01*
X535060Y18160D01*
X535320Y18820D01*
X535320Y96500D01*
X535480Y97579D01*
X535900Y98580D01*
X535640Y98640D01*
X519660Y98640D01*
X517440Y99140D01*
X467560Y99140D01*
X467280Y98780D01*
X467120Y97579D01*
X467120Y35520D01*
X467320Y34120D01*
X467320Y18020D01*
X467400Y17680D01*
X468820Y16920D01*
X469840Y15640D01*
X470260Y14080D01*
X470020Y12480D01*
X469180Y11100D01*
X467860Y10180D01*
X466260Y9840D01*
X189640Y9840D01*
X188039Y10180D01*
X186700Y11140D01*
X185859Y12540D01*
X185660Y14180D01*
X186140Y15740D01*
X187200Y17000D01*
X189040Y17980D01*
X189300Y18640D01*
X189300Y96340D01*
X189460Y97400D01*
X189880Y98400D01*
X189620Y98460D01*
X173640Y98460D01*
X171420Y98960D01*
X121540Y98960D01*
X121260Y98620D01*
X121100Y97400D01*
X121100Y35340D01*
X121300Y33960D01*
X121300Y17840D01*
X123059Y15960D01*
X123620Y14360D01*
X123480Y12680D01*
X122660Y11200D01*
X121300Y10200D01*
X119660Y9840D01*
G37*

%LPC*%
G36*
X283060Y269680D02*
G01*
X286880Y270180D01*
X290560Y271300D01*
X294000Y273040D01*
X297100Y275320D01*
X299760Y278100D01*
X301900Y281280D01*
X303500Y284800D01*
X304460Y288520D01*
X304780Y292340D01*
X304460Y296180D01*
X303500Y299900D01*
X301900Y303420D01*
X299760Y306600D01*
X297100Y309380D01*
X294000Y311660D01*
X290560Y313400D01*
X286880Y314520D01*
X283060Y315020D01*
X279220Y314840D01*
X275460Y314040D01*
X271900Y312600D01*
X268620Y310580D01*
X265720Y308040D01*
X263300Y305060D01*
X261439Y301700D01*
X260159Y298060D01*
X259500Y294280D01*
X259500Y290420D01*
X260159Y286640D01*
X261439Y283000D01*
X263300Y279640D01*
X265720Y276660D01*
X268620Y274100D01*
X271900Y272100D01*
X275460Y270660D01*
X279220Y269840D01*
G37*
G36*
X1621440Y327819D02*
G01*
X1625260Y328300D01*
X1628940Y329440D01*
X1632380Y331160D01*
X1635480Y333459D01*
X1638140Y336240D01*
X1640300Y339420D01*
X1641879Y342920D01*
X1642840Y346640D01*
X1643180Y350480D01*
X1642840Y354320D01*
X1641879Y358040D01*
X1640300Y361540D01*
X1638140Y364739D01*
X1635480Y367520D01*
X1632380Y369799D01*
X1628940Y371540D01*
X1625260Y372660D01*
X1621440Y373140D01*
X1617600Y372980D01*
X1613839Y372180D01*
X1610280Y370740D01*
X1607000Y368720D01*
X1604100Y366180D01*
X1601699Y363180D01*
X1599820Y359820D01*
X1598540Y356200D01*
X1597880Y352400D01*
X1597880Y348560D01*
X1598540Y344760D01*
X1599820Y341140D01*
X1601699Y337780D01*
X1604100Y334780D01*
X1607000Y332239D01*
X1610280Y330220D01*
X1613839Y328800D01*
X1617600Y327980D01*
G37*
G36*
X1390380Y292220D02*
G01*
X1394180Y292700D01*
X1397860Y293840D01*
X1401300Y295560D01*
X1404400Y297860D01*
X1407060Y300620D01*
X1409220Y303820D01*
X1410800Y307320D01*
X1411759Y311040D01*
X1412100Y314880D01*
X1411759Y318720D01*
X1410800Y322440D01*
X1409220Y325940D01*
X1407060Y329140D01*
X1404400Y331900D01*
X1401300Y334200D01*
X1397860Y335920D01*
X1394180Y337060D01*
X1390380Y337540D01*
X1386519Y337380D01*
X1382760Y336580D01*
X1379199Y335140D01*
X1375920Y333120D01*
X1373040Y330580D01*
X1370620Y327580D01*
X1368740Y324219D01*
X1367460Y320600D01*
X1366800Y316800D01*
X1366800Y312960D01*
X1367460Y309160D01*
X1368740Y305540D01*
X1370620Y302180D01*
X1373040Y299180D01*
X1375920Y296640D01*
X1379199Y294620D01*
X1382760Y293180D01*
X1386519Y292380D01*
G37*
G36*
X626200Y272580D02*
G01*
X630020Y273060D01*
X633700Y274200D01*
X637120Y275920D01*
X640220Y278220D01*
X642880Y280980D01*
X645040Y284180D01*
X646620Y287680D01*
X647600Y291400D01*
X647920Y295240D01*
X647600Y299080D01*
X646620Y302800D01*
X645040Y306300D01*
X642880Y309500D01*
X640220Y312260D01*
X637120Y314560D01*
X633700Y316280D01*
X630020Y317420D01*
X626200Y317900D01*
X622360Y317740D01*
X618580Y316940D01*
X615020Y315500D01*
X611740Y313480D01*
X608860Y310940D01*
X606440Y307940D01*
X604560Y304580D01*
X603280Y300960D01*
X602620Y297160D01*
X602620Y293320D01*
X603280Y289520D01*
X604560Y285900D01*
X606440Y282540D01*
X608860Y279540D01*
X611740Y277000D01*
X615020Y274980D01*
X618580Y273540D01*
X622360Y272740D01*
G37*
G36*
X435900Y245960D02*
G01*
X439700Y246460D01*
X443380Y247580D01*
X446820Y249320D01*
X449920Y251600D01*
X452580Y254380D01*
X454739Y257560D01*
X456320Y261080D01*
X457280Y264800D01*
X457620Y268640D01*
X457280Y272460D01*
X456320Y276180D01*
X454739Y279700D01*
X452580Y282880D01*
X449920Y285660D01*
X446820Y287940D01*
X443380Y289680D01*
X439700Y290800D01*
X435900Y291300D01*
X432040Y291140D01*
X428280Y290320D01*
X424720Y288880D01*
X421440Y286880D01*
X418560Y284320D01*
X416140Y281340D01*
X414260Y277980D01*
X412980Y274340D01*
X412320Y270560D01*
X412320Y266700D01*
X412980Y262920D01*
X414260Y259280D01*
X416140Y255920D01*
X418560Y252940D01*
X421440Y250400D01*
X424720Y248380D01*
X428280Y246940D01*
X432040Y246140D01*
G37*
G36*
X101340Y254820D02*
G01*
X105140Y255320D01*
X108820Y256439D01*
X112260Y258180D01*
X115360Y260460D01*
X118020Y263240D01*
X120180Y266420D01*
X121760Y269940D01*
X122720Y273660D01*
X123059Y277480D01*
X122720Y281320D01*
X121760Y285040D01*
X120180Y288560D01*
X118020Y291740D01*
X115360Y294520D01*
X112260Y296800D01*
X108820Y298540D01*
X105140Y299660D01*
X101340Y300160D01*
X97480Y299980D01*
X93720Y299180D01*
X90160Y297740D01*
X86880Y295720D01*
X84000Y293180D01*
X81580Y290200D01*
X79700Y286840D01*
X78420Y283200D01*
X77760Y279420D01*
X77760Y275560D01*
X78420Y271780D01*
X79700Y268140D01*
X81580Y264780D01*
X84000Y261800D01*
X86880Y259240D01*
X90160Y257240D01*
X93720Y255799D01*
X97480Y254980D01*
G37*
G36*
X764940Y268740D02*
G01*
X768760Y269240D01*
X772440Y270360D01*
X775860Y272100D01*
X778960Y274380D01*
X781620Y277160D01*
X783780Y280340D01*
X785360Y283860D01*
X786340Y287580D01*
X786660Y291420D01*
X786340Y295240D01*
X785360Y298960D01*
X783780Y302480D01*
X781620Y305660D01*
X778960Y308440D01*
X775860Y310720D01*
X772440Y312460D01*
X768760Y313580D01*
X764940Y314080D01*
X761100Y313920D01*
X757320Y313100D01*
X753760Y311660D01*
X750480Y309660D01*
X747600Y307100D01*
X745180Y304120D01*
X743300Y300760D01*
X742020Y297120D01*
X741360Y293340D01*
X741360Y289480D01*
X742020Y285700D01*
X743300Y282060D01*
X745180Y278700D01*
X747600Y275720D01*
X750480Y273180D01*
X753760Y271160D01*
X757320Y269720D01*
X761100Y268920D01*
G37*
G36*
X1119360Y268740D02*
G01*
X1123180Y269240D01*
X1126860Y270360D01*
X1130280Y272100D01*
X1133380Y274380D01*
X1136040Y277160D01*
X1138200Y280340D01*
X1139780Y283860D01*
X1140760Y287580D01*
X1141080Y291420D01*
X1140760Y295240D01*
X1139780Y298960D01*
X1138200Y302480D01*
X1136040Y305660D01*
X1133380Y308440D01*
X1130280Y310720D01*
X1126860Y312460D01*
X1123180Y313580D01*
X1119360Y314080D01*
X1115520Y313920D01*
X1111740Y313100D01*
X1108180Y311660D01*
X1104900Y309660D01*
X1102020Y307100D01*
X1099600Y304120D01*
X1097720Y300760D01*
X1096440Y297120D01*
X1095780Y293340D01*
X1095780Y289480D01*
X1096440Y285700D01*
X1097720Y282060D01*
X1099600Y278700D01*
X1102020Y275720D01*
X1104900Y273180D01*
X1108180Y271160D01*
X1111740Y269720D01*
X1115520Y268920D01*
G37*
G36*
X972180Y272540D02*
G01*
X975980Y273020D01*
X979659Y274160D01*
X983100Y275880D01*
X986200Y278180D01*
X988860Y280940D01*
X991020Y284140D01*
X992600Y287640D01*
X993560Y291360D01*
X993900Y295200D01*
X993560Y299040D01*
X992600Y302760D01*
X991020Y306260D01*
X988860Y309460D01*
X986200Y312220D01*
X983100Y314520D01*
X979659Y316240D01*
X975980Y317380D01*
X972180Y317860D01*
X968319Y317700D01*
X964560Y316900D01*
X961000Y315460D01*
X957720Y313440D01*
X954820Y310900D01*
X952420Y307900D01*
X950540Y304540D01*
X949260Y300920D01*
X948600Y297120D01*
X948600Y293280D01*
X949260Y289480D01*
X950540Y285860D01*
X952420Y282500D01*
X954820Y279500D01*
X957720Y276960D01*
X961000Y274940D01*
X964560Y273500D01*
X968319Y272700D01*
G37*

%LPD*%
D14*
G01*
X314960Y401574D03*
G01*
X285255Y356176D03*
G01*
X165354Y393700D03*
G01*
X259842Y69924D03*
G01*
X47244Y69924D03*
G01*
X232283Y560019D03*
G01*
X31496Y560019D03*
G01*
X393700Y70194D03*
G01*
X606298Y70194D03*
G01*
X511810Y389763D03*
G01*
X661416Y401574D03*
G01*
X618108Y334645D03*
G01*
X858265Y385826D03*
G01*
X1003935Y401574D03*
G01*
X964564Y334511D03*
G01*
X952753Y69790D03*
G01*
X741846Y69790D03*
G01*
X926527Y560140D03*
G01*
X715619Y560140D03*
G01*
X1060786Y559621D03*
G01*
X1271694Y559621D03*
G01*
X1357555Y401574D03*
G01*
X1324284Y336500D03*
G01*
X1296554Y69890D03*
G01*
X1085646Y69890D03*
G01*
X1498534Y89438D03*
G01*
X1743681Y348618D03*
G01*
X1668200Y455113D03*
G01*
X1791790Y91592D03*
G01*
X1705140Y131941D03*
G01*
X1822831Y287368D03*
G01*
X1909929Y51181D03*
G01*
X282104Y292348D03*
G01*
X1389407Y314880D03*
G01*
X625232Y295240D03*
G01*
X971208Y295199D03*
G01*
X100368Y277488D03*
G01*
X434928Y268632D03*
G01*
X763971Y291412D03*
G01*
X1118391Y291412D03*
G01*
X1620486Y350482D03*
G01*
X1208966Y391831D03*
G01*
X1518089Y322916D03*
G01*
X43340Y497228D03*
G01*
X72890Y470042D03*
G01*
X177694Y470042D03*
G01*
X214729Y492106D03*
G01*
X241916Y525596D03*
G01*
X88650Y426308D03*
G01*
X177694Y428278D03*
G01*
X89832Y382968D03*
G01*
X99288Y350660D03*
G01*
X114260Y228520D03*
G01*
X114654Y193060D03*
G01*
X105198Y157206D03*
G01*
X204092Y156024D03*
G01*
X200152Y193454D03*
G01*
X199758Y236006D03*
G01*
X60282Y132778D03*
G01*
X245856Y130414D03*
G01*
X274618Y102834D03*
G01*
X44916Y30338D03*
G01*
X264374Y30338D03*
G01*
X88256Y314412D03*
G01*
X343174Y334900D03*
G01*
X214729Y450736D03*
G01*
X254918Y452312D03*
G01*
X310471Y444432D03*
G01*
X342779Y364450D03*
G01*
X393211Y31520D03*
G01*
X411730Y141051D03*
G01*
X451129Y155235D03*
G01*
X452311Y194636D03*
G01*
X453888Y231672D03*
G01*
X602820Y19700D03*
G01*
X582725Y143810D03*
G01*
X545689Y182028D03*
G01*
X544901Y219064D03*
G01*
X552782Y243097D03*
G01*
X662707Y356176D03*
G01*
X663890Y451918D03*
G01*
X618974Y453099D03*
G01*
X574846Y454282D03*
G01*
X520868Y428278D03*
G01*
X521655Y467283D03*
G01*
X555145Y497228D03*
G01*
X581938Y529142D03*
G01*
X586272Y566572D03*
G01*
X584302Y600850D03*
G01*
X361298Y600850D03*
G01*
X362874Y565784D03*
G01*
X362874Y520080D03*
G01*
X386514Y482256D03*
G01*
X421579Y467283D03*
G01*
X427096Y425126D03*
G01*
X429460Y377058D03*
G01*
X431430Y340022D03*
G01*
X376664Y289196D03*
G01*
X376269Y351842D03*
G01*
X344356Y423944D03*
G01*
X297470Y538992D03*
G01*
X276194Y504714D03*
G01*
X339627Y491712D03*
G01*
X274618Y232854D03*
G01*
X349478Y234824D03*
G01*
X388877Y201334D03*
G01*
X335293Y159963D03*
G01*
X285255Y182816D03*
G01*
X319534Y206456D03*
G01*
X302986Y128443D03*
G01*
X745841Y136718D03*
G01*
X785242Y148931D03*
G01*
X806518Y200545D03*
G01*
X803759Y237582D03*
G01*
X892410Y227732D03*
G01*
X892410Y186756D03*
G01*
X900684Y149720D03*
G01*
X942842Y135930D03*
G01*
X969240Y104804D03*
G01*
X735203Y28368D03*
G01*
X961754Y34672D03*
G01*
X709200Y598092D03*
G01*
X711564Y515746D03*
G01*
X734416Y479891D03*
G01*
X768694Y457040D03*
G01*
X773422Y424338D03*
G01*
X771452Y387301D03*
G01*
X776574Y347902D03*
G01*
X862860Y418822D03*
G01*
X867981Y462162D03*
G01*
X894380Y485014D03*
G01*
X928658Y518504D03*
G01*
X925506Y602820D03*
G01*
X906988Y449947D03*
G01*
X957026Y457040D03*
G01*
X998002Y449947D03*
G01*
X1020066Y371148D03*
G01*
X953085Y238369D03*
G01*
X1086258Y30338D03*
G01*
X1086258Y107956D03*
G01*
X1101624Y143022D03*
G01*
X1137083Y160358D03*
G01*
X1142206Y201334D03*
G01*
X1143388Y236793D03*
G01*
X1114231Y257282D03*
G01*
X1235584Y238764D03*
G01*
X1235584Y204880D03*
G01*
X1245828Y161934D03*
G01*
X1278530Y136718D03*
G01*
X1304140Y109532D03*
G01*
X1302170Y24428D03*
G01*
X1278135Y240734D03*
G01*
X1365210Y358934D03*
G01*
X1358117Y446795D03*
G01*
X1315171Y456251D03*
G01*
X1290743Y507078D03*
G01*
X1209186Y435370D03*
G01*
X1215884Y468859D03*
G01*
X1261194Y493288D03*
G01*
X1302563Y537809D03*
G01*
X1053949Y595334D03*
G01*
X1056708Y520868D03*
G01*
X1080347Y484619D03*
G01*
X1110292Y468859D03*
G01*
X1124082Y434582D03*
G01*
X1121323Y388090D03*
G01*
X1079954Y365632D03*
G01*
X1050797Y402668D03*
G01*
X1027158Y494076D03*
G01*
X1118960Y354206D03*
G01*
X1274590Y599274D03*
G01*
X1058283Y205273D03*
G01*
X1056313Y261222D03*
G01*
X990122Y206062D03*
G01*
X1047252Y144992D03*
G01*
X711169Y359328D03*
G01*
X709987Y416852D03*
G01*
X663102Y514170D03*
G01*
X640250Y550417D03*
G01*
X612670Y518898D03*
G01*
X678467Y542932D03*
G01*
X1335266Y536233D03*
G01*
X1400275Y537416D03*
G01*
X1369150Y500380D03*
G01*
X1327779Y489347D03*
G01*
X1437311Y594152D03*
G01*
X1390032Y462162D03*
G01*
X1422339Y358540D03*
G01*
X1384910Y137899D03*
G01*
X1334478Y139082D03*
G01*
X1297442Y203304D03*
G01*
X1477894Y241521D03*
G01*
X1528719Y242704D03*
G01*
X1562210Y236006D03*
G01*
X1577576Y149720D03*
G01*
X1382545Y24428D03*
G01*
X1397518Y64221D03*
G01*
X1436918Y29944D03*
G01*
X1520445Y30732D03*
G01*
X1586244Y32308D03*
G01*
X1641798Y27974D03*
G01*
X1695382Y29944D03*
G01*
X1787577Y141840D03*
G01*
X1647707Y250584D03*
G01*
X1824614Y398728D03*
G01*
X1825401Y362874D03*
G01*
X1862832Y27580D03*
G01*
X1969605Y29944D03*
G01*
X1999155Y65404D03*
G01*
X1998368Y109532D03*
G01*
X1995610Y159963D03*
G01*
X1997186Y237582D03*
G01*
X1996398Y367996D03*
G01*
X1995216Y418034D03*
G01*
X1992458Y542932D03*
G01*
X1699716Y605184D03*
G01*
X1637858Y604790D03*
G01*
X1576394Y604790D03*
G01*
X1537782Y573270D03*
G01*
X1477894Y601244D03*
G01*
X1367180Y555934D03*
G01*
X1392790Y423156D03*
G01*
X25216Y602426D03*
G01*
X27186Y462162D03*
G01*
X26004Y419610D03*
G01*
X25610Y374693D03*
G01*
X26004Y318351D03*
G01*
X26004Y267132D03*
G01*
X25216Y214336D03*
G01*
X24822Y156418D03*
G01*
X25610Y100076D03*
G01*
X63040Y185968D03*
G01*
X60282Y252948D03*
G01*
X81164Y223004D03*
G01*
X60282Y362085D03*
G01*
X248220Y178088D03*
G01*
X384150Y159176D03*
G01*
X407396Y233248D03*
G01*
X319140Y92984D03*
G01*
X360116Y57917D03*
G01*
X234430Y605184D03*
G01*
X1358117Y607548D03*
G01*
X985000Y607154D03*
G01*
X643008Y606366D03*
G01*
X289590Y606366D03*
M02*
