G04 Layer: TopSilkLayer*
G04 EasyEDA v6.4.25, 2021-09-22T10:01:34+05:30*
G04 8cc9cb2f6d7c45b292ba83ed26aff0c4,f7b9aed3ca5c4f10b20383f968238e49,10*
G04 Gerber Generator version 0.2*
G04 Scale: 100 percent, Rotated: No, Reflected: No *
G04 Dimensions in inches *
G04 leading zeros omitted , absolute positions ,3 integer and 6 decimal *
%FSLAX36Y36*%
%MOIN*%

%ADD10C,0.0100*%
%ADD13C,0.0060*%
%ADD26C,0.0139*%
%ADD27C,0.0050*%
%ADD28C,0.0040*%

%LPD*%
D28*
X2248532Y0D02*
G01*
X2248532Y158775D01*
X2248532Y471145D02*
G01*
X2248532Y629920D01*
X2263532Y60000D02*
G01*
X2248532Y0D01*
X2233532Y60000D01*
X2263532Y569920D02*
G01*
X2248532Y629920D01*
X2233532Y569920D01*
X2281127Y451176D02*
G01*
X2282927Y447576D01*
X2288227Y442175D01*
X2250727Y442175D01*
X2282927Y408876D02*
G01*
X2286426Y410676D01*
X2288227Y416076D01*
X2288227Y419675D01*
X2286426Y424976D01*
X2281127Y428576D01*
X2272127Y430376D01*
X2263227Y430376D01*
X2256026Y428576D01*
X2252427Y424976D01*
X2250727Y419675D01*
X2250727Y417876D01*
X2252427Y412476D01*
X2256026Y408876D01*
X2261426Y407076D01*
X2263227Y407076D01*
X2268526Y408876D01*
X2272127Y412476D01*
X2273926Y417876D01*
X2273926Y419675D01*
X2272127Y424976D01*
X2268526Y428576D01*
X2263227Y430376D01*
X2259627Y393476D02*
G01*
X2257827Y395276D01*
X2256026Y393476D01*
X2257827Y391775D01*
X2259627Y393476D01*
X2288227Y369176D02*
G01*
X2286426Y374576D01*
X2281127Y378176D01*
X2272127Y379876D01*
X2266826Y379876D01*
X2257827Y378176D01*
X2252427Y374576D01*
X2250727Y369176D01*
X2250727Y365576D01*
X2252427Y360276D01*
X2257827Y356676D01*
X2266826Y354876D01*
X2272127Y354876D01*
X2281127Y356676D01*
X2286426Y360276D01*
X2288227Y365576D01*
X2288227Y369176D01*
X2288227Y332276D02*
G01*
X2286426Y337676D01*
X2281127Y341276D01*
X2272127Y343076D01*
X2266826Y343076D01*
X2257827Y341276D01*
X2252427Y337676D01*
X2250727Y332276D01*
X2250727Y328776D01*
X2252427Y323376D01*
X2257827Y319776D01*
X2266826Y317976D01*
X2272127Y317976D01*
X2281127Y319776D01*
X2286426Y323376D01*
X2288227Y328776D01*
X2288227Y332276D01*
X2288227Y295476D02*
G01*
X2286426Y300776D01*
X2281127Y304376D01*
X2272127Y306176D01*
X2266826Y306176D01*
X2257827Y304376D01*
X2252427Y300776D01*
X2250727Y295476D01*
X2250727Y291876D01*
X2252427Y286476D01*
X2257827Y282976D01*
X2266826Y281176D01*
X2272127Y281176D01*
X2281127Y282976D01*
X2286426Y286476D01*
X2288227Y291876D01*
X2288227Y295476D01*
X2275727Y269376D02*
G01*
X2250727Y269376D01*
X2268526Y269376D02*
G01*
X2273926Y263976D01*
X2275727Y260376D01*
X2275727Y254976D01*
X2273926Y251476D01*
X2268526Y249675D01*
X2250727Y249675D01*
X2268526Y249675D02*
G01*
X2273926Y244275D01*
X2275727Y240676D01*
X2275727Y235276D01*
X2273926Y231775D01*
X2268526Y229976D01*
X2250727Y229976D01*
X2275727Y218176D02*
G01*
X2250727Y218176D01*
X2268526Y218176D02*
G01*
X2273926Y212776D01*
X2275727Y209176D01*
X2275727Y203876D01*
X2273926Y200276D01*
X2268526Y198476D01*
X2250727Y198476D01*
X2268526Y198476D02*
G01*
X2273926Y193076D01*
X2275727Y189475D01*
X2275727Y184176D01*
X2273926Y180576D01*
X2268526Y178776D01*
X2250727Y178776D01*
X2248773Y0D02*
G01*
X2148532Y0D01*
X2248773Y629920D02*
G01*
X2148532Y629920D01*
X0Y-172431D02*
G01*
X788157Y-172431D01*
X1239397Y-172431D02*
G01*
X2027554Y-172431D01*
X60000Y-187431D02*
G01*
X0Y-172431D01*
X60000Y-157431D01*
X1967554Y-187431D02*
G01*
X2027554Y-172431D01*
X1967554Y-157431D01*
X840400Y-112790D02*
G01*
X813499Y-112790D01*
X810800Y-136990D01*
X813499Y-134290D01*
X821600Y-131590D01*
X829600Y-131590D01*
X837699Y-134290D01*
X843099Y-139690D01*
X845700Y-147690D01*
X845700Y-153090D01*
X843099Y-161190D01*
X837699Y-166490D01*
X829600Y-169190D01*
X821600Y-169190D01*
X813499Y-166490D01*
X810800Y-163890D01*
X808200Y-158490D01*
X863499Y-123590D02*
G01*
X868800Y-120890D01*
X876900Y-112790D01*
X876900Y-169190D01*
X897300Y-155790D02*
G01*
X894600Y-158490D01*
X897300Y-161190D01*
X900000Y-158490D01*
X897300Y-155790D01*
X949900Y-112790D02*
G01*
X922999Y-112790D01*
X920400Y-136990D01*
X922999Y-134290D01*
X931100Y-131590D01*
X939200Y-131590D01*
X947199Y-134290D01*
X952599Y-139690D01*
X955300Y-147690D01*
X955300Y-153090D01*
X952599Y-161190D01*
X947199Y-166490D01*
X939200Y-169190D01*
X931100Y-169190D01*
X922999Y-166490D01*
X920400Y-163890D01*
X917699Y-158490D01*
X989100Y-112790D02*
G01*
X980999Y-115490D01*
X975700Y-123590D01*
X972999Y-136990D01*
X972999Y-145090D01*
X975700Y-158490D01*
X980999Y-166490D01*
X989100Y-169190D01*
X994500Y-169190D01*
X1002500Y-166490D01*
X1007900Y-158490D01*
X1010599Y-145090D01*
X1010599Y-136990D01*
X1007900Y-123590D01*
X1002500Y-115490D01*
X994500Y-112790D01*
X989100Y-112790D01*
X1044400Y-112790D02*
G01*
X1036300Y-115490D01*
X1030999Y-123590D01*
X1028300Y-136990D01*
X1028300Y-145090D01*
X1030999Y-158490D01*
X1036300Y-166490D01*
X1044400Y-169190D01*
X1049699Y-169190D01*
X1057800Y-166490D01*
X1063200Y-158490D01*
X1065900Y-145090D01*
X1065900Y-136990D01*
X1063200Y-123590D01*
X1057800Y-115490D01*
X1049699Y-112790D01*
X1044400Y-112790D01*
X1083600Y-131590D02*
G01*
X1083600Y-169190D01*
X1083600Y-142390D02*
G01*
X1091600Y-134290D01*
X1097000Y-131590D01*
X1105000Y-131590D01*
X1110400Y-134290D01*
X1113099Y-142390D01*
X1113099Y-169190D01*
X1113099Y-142390D02*
G01*
X1121200Y-134290D01*
X1126500Y-131590D01*
X1134600Y-131590D01*
X1139900Y-134290D01*
X1142599Y-142390D01*
X1142599Y-169190D01*
X1160300Y-131590D02*
G01*
X1160300Y-169190D01*
X1160300Y-142390D02*
G01*
X1168400Y-134290D01*
X1173800Y-131590D01*
X1181799Y-131590D01*
X1187199Y-134290D01*
X1189900Y-142390D01*
X1189900Y-169190D01*
X1189900Y-142390D02*
G01*
X1197900Y-134290D01*
X1203300Y-131590D01*
X1211300Y-131590D01*
X1216700Y-134290D01*
X1219400Y-142390D01*
X1219400Y-169190D01*
X0Y-236453D02*
G01*
X0Y-72431D01*
X2027554Y-227988D02*
G01*
X2027554Y-72431D01*
X0Y848699D02*
G01*
X788157Y848699D01*
X1239397Y848699D02*
G01*
X2027554Y848699D01*
X60000Y833699D02*
G01*
X0Y848699D01*
X60000Y863699D01*
X1967554Y833699D02*
G01*
X2027554Y848699D01*
X1967554Y863699D01*
X840400Y908340D02*
G01*
X813499Y908340D01*
X810800Y884140D01*
X813499Y886840D01*
X821600Y889540D01*
X829600Y889540D01*
X837699Y886840D01*
X843099Y881440D01*
X845700Y873440D01*
X845700Y868040D01*
X843099Y859940D01*
X837699Y854639D01*
X829600Y851939D01*
X821600Y851939D01*
X813499Y854639D01*
X810800Y857240D01*
X808200Y862640D01*
X863499Y897540D02*
G01*
X868800Y900240D01*
X876900Y908340D01*
X876900Y851939D01*
X897300Y865340D02*
G01*
X894600Y862640D01*
X897300Y859940D01*
X900000Y862640D01*
X897300Y865340D01*
X949900Y908340D02*
G01*
X922999Y908340D01*
X920400Y884140D01*
X922999Y886840D01*
X931100Y889540D01*
X939200Y889540D01*
X947199Y886840D01*
X952599Y881440D01*
X955300Y873440D01*
X955300Y868040D01*
X952599Y859940D01*
X947199Y854639D01*
X939200Y851939D01*
X931100Y851939D01*
X922999Y854639D01*
X920400Y857240D01*
X917699Y862640D01*
X989100Y908340D02*
G01*
X980999Y905640D01*
X975700Y897540D01*
X972999Y884140D01*
X972999Y876040D01*
X975700Y862640D01*
X980999Y854639D01*
X989100Y851939D01*
X994500Y851939D01*
X1002500Y854639D01*
X1007900Y862640D01*
X1010599Y876040D01*
X1010599Y884140D01*
X1007900Y897540D01*
X1002500Y905640D01*
X994500Y908340D01*
X989100Y908340D01*
X1044400Y908340D02*
G01*
X1036300Y905640D01*
X1030999Y897540D01*
X1028300Y884140D01*
X1028300Y876040D01*
X1030999Y862640D01*
X1036300Y854639D01*
X1044400Y851939D01*
X1049699Y851939D01*
X1057800Y854639D01*
X1063200Y862640D01*
X1065900Y876040D01*
X1065900Y884140D01*
X1063200Y897540D01*
X1057800Y905640D01*
X1049699Y908340D01*
X1044400Y908340D01*
X1083600Y889540D02*
G01*
X1083600Y851939D01*
X1083600Y878740D02*
G01*
X1091600Y886840D01*
X1097000Y889540D01*
X1105000Y889540D01*
X1110400Y886840D01*
X1113099Y878740D01*
X1113099Y851939D01*
X1113099Y878740D02*
G01*
X1121200Y886840D01*
X1126500Y889540D01*
X1134600Y889540D01*
X1139900Y886840D01*
X1142599Y878740D01*
X1142599Y851939D01*
X1160300Y889540D02*
G01*
X1160300Y851939D01*
X1160300Y878740D02*
G01*
X1168400Y886840D01*
X1173800Y889540D01*
X1181799Y889540D01*
X1187199Y886840D01*
X1189900Y878740D01*
X1189900Y851939D01*
X1189900Y878740D02*
G01*
X1197900Y886840D01*
X1203300Y889540D01*
X1211300Y889540D01*
X1216700Y886840D01*
X1219400Y878740D01*
X1219400Y851939D01*
X0Y784677D02*
G01*
X0Y948699D01*
X2027554Y793143D02*
G01*
X2027554Y948699D01*
D13*
X1985803Y277606D02*
G01*
X1982203Y275806D01*
X1978703Y272306D01*
X1976902Y268706D01*
X1976902Y261505D01*
X1978703Y258006D01*
X1982203Y254406D01*
X1985803Y252606D01*
X1991203Y250806D01*
X2000103Y250806D01*
X2005503Y252606D01*
X2009103Y254406D01*
X2012703Y258006D01*
X2014402Y261505D01*
X2014402Y268706D01*
X2012703Y272306D01*
X2009103Y275806D01*
X2005503Y277606D01*
X2000103Y277606D01*
X2000103Y268706D02*
G01*
X2000103Y277606D01*
X1976902Y289406D02*
G01*
X2014402Y289406D01*
X1976902Y289406D02*
G01*
X2014402Y314506D01*
X1976902Y314506D02*
G01*
X2014402Y314506D01*
X1976902Y326305D02*
G01*
X2014402Y326305D01*
X1976902Y326305D02*
G01*
X1976902Y338805D01*
X1978703Y344206D01*
X1982203Y347806D01*
X1985803Y349606D01*
X1991203Y351406D01*
X2000103Y351406D01*
X2005503Y349606D01*
X2009103Y347806D01*
X2012703Y344206D01*
X2014402Y338805D01*
X2014402Y326305D01*
X1885993Y52940D02*
G01*
X1884193Y56539D01*
X1880593Y60140D01*
X1876893Y62040D01*
X1869693Y62040D01*
X1865993Y60140D01*
X1862392Y56539D01*
X1860593Y52940D01*
X1858692Y47440D01*
X1858692Y38340D01*
X1860593Y32940D01*
X1862392Y29239D01*
X1865993Y25640D01*
X1869693Y23840D01*
X1876893Y23840D01*
X1880593Y25640D01*
X1884193Y29239D01*
X1885993Y32940D01*
X1885993Y38340D01*
X1876893Y38340D02*
G01*
X1885993Y38340D01*
X1897993Y62040D02*
G01*
X1897993Y23840D01*
X1897993Y62040D02*
G01*
X1923493Y23840D01*
X1923493Y62040D02*
G01*
X1923493Y23840D01*
X1935493Y62040D02*
G01*
X1935493Y23840D01*
X1935493Y62040D02*
G01*
X1948193Y62040D01*
X1953692Y60140D01*
X1957293Y56539D01*
X1959092Y52940D01*
X1960893Y47440D01*
X1960893Y38340D01*
X1959092Y32940D01*
X1957293Y29239D01*
X1953692Y25640D01*
X1948193Y23840D01*
X1935493Y23840D01*
X1976903Y116706D02*
G01*
X1976903Y136406D01*
X1991204Y125606D01*
X1991204Y131006D01*
X1993004Y134606D01*
X1994803Y136406D01*
X2000104Y138106D01*
X2003704Y138106D01*
X2009104Y136406D01*
X2012703Y132806D01*
X2014403Y127406D01*
X2014403Y122006D01*
X2012703Y116706D01*
X2010904Y114906D01*
X2007303Y113106D01*
X2005504Y151706D02*
G01*
X2007303Y150006D01*
X2009104Y151706D01*
X2007303Y153506D01*
X2005504Y151706D01*
X1976903Y168906D02*
G01*
X1976903Y188605D01*
X1991204Y177906D01*
X1991204Y183206D01*
X1993004Y186806D01*
X1994803Y188605D01*
X2000104Y190406D01*
X2003704Y190406D01*
X2009104Y188605D01*
X2012703Y185006D01*
X2014403Y179706D01*
X2014403Y174306D01*
X2012703Y168906D01*
X2010904Y167106D01*
X2007303Y165306D01*
X1976903Y202206D02*
G01*
X2014403Y216505D01*
X1976903Y230806D02*
G01*
X2014403Y216505D01*
X315152Y1933099D02*
G01*
X315152Y1894900D01*
X302452Y1933099D02*
G01*
X327952Y1933099D01*
X348952Y1920300D02*
G01*
X345351Y1918500D01*
X341752Y1914900D01*
X339951Y1909400D01*
X339951Y1905800D01*
X341752Y1900300D01*
X345351Y1896700D01*
X348952Y1894900D01*
X354452Y1894900D01*
X358052Y1896700D01*
X361752Y1900300D01*
X363552Y1905800D01*
X363552Y1909400D01*
X361752Y1914900D01*
X358052Y1918500D01*
X354452Y1920300D01*
X348952Y1920300D01*
X375552Y1920300D02*
G01*
X375552Y1882200D01*
X375552Y1914900D02*
G01*
X379151Y1918500D01*
X382851Y1920300D01*
X388251Y1920300D01*
X391952Y1918500D01*
X395552Y1914900D01*
X397352Y1909400D01*
X397352Y1905800D01*
X395552Y1900300D01*
X391952Y1896700D01*
X388251Y1894900D01*
X382851Y1894900D01*
X379151Y1896700D01*
X375552Y1900300D01*
X437352Y1933099D02*
G01*
X437352Y1894900D01*
X471151Y1920300D02*
G01*
X471151Y1894900D01*
X471151Y1914900D02*
G01*
X467552Y1918500D01*
X463952Y1920300D01*
X458452Y1920300D01*
X454852Y1918500D01*
X451151Y1914900D01*
X449352Y1909400D01*
X449352Y1905800D01*
X451151Y1900300D01*
X454852Y1896700D01*
X458452Y1894900D01*
X463952Y1894900D01*
X467552Y1896700D01*
X471151Y1900300D01*
X484951Y1920300D02*
G01*
X495952Y1894900D01*
X506852Y1920300D02*
G01*
X495952Y1894900D01*
X492252Y1887600D01*
X488651Y1884000D01*
X484951Y1882200D01*
X483152Y1882200D01*
X518852Y1909400D02*
G01*
X540652Y1909400D01*
X540652Y1913099D01*
X538852Y1916700D01*
X536952Y1918500D01*
X533351Y1920300D01*
X527952Y1920300D01*
X524252Y1918500D01*
X520652Y1914900D01*
X518852Y1909400D01*
X518852Y1905800D01*
X520652Y1900300D01*
X524252Y1896700D01*
X527952Y1894900D01*
X533351Y1894900D01*
X536952Y1896700D01*
X540652Y1900300D01*
X552652Y1920300D02*
G01*
X552652Y1894900D01*
X552652Y1909400D02*
G01*
X554452Y1914900D01*
X558052Y1918500D01*
X561752Y1920300D01*
X567152Y1920300D01*
X302452Y1851700D02*
G01*
X302452Y1813500D01*
X302452Y1851700D02*
G01*
X315152Y1851700D01*
X320652Y1849800D01*
X324252Y1846200D01*
X326051Y1842600D01*
X327952Y1837100D01*
X327952Y1828000D01*
X326051Y1822600D01*
X324252Y1818900D01*
X320652Y1815300D01*
X315152Y1813500D01*
X302452Y1813500D01*
X339951Y1851700D02*
G01*
X341752Y1849800D01*
X343552Y1851700D01*
X341752Y1853500D01*
X339951Y1851700D01*
X341752Y1838900D02*
G01*
X341752Y1813500D01*
X355552Y1828000D02*
G01*
X377352Y1828000D01*
X377352Y1831700D01*
X375552Y1835300D01*
X373751Y1837100D01*
X370052Y1838900D01*
X364652Y1838900D01*
X360952Y1837100D01*
X357352Y1833500D01*
X355552Y1828000D01*
X355552Y1824400D01*
X357352Y1818900D01*
X360952Y1815300D01*
X364652Y1813500D01*
X370052Y1813500D01*
X373751Y1815300D01*
X377352Y1818900D01*
X389352Y1851700D02*
G01*
X389352Y1813500D01*
X401352Y1828000D02*
G01*
X423152Y1828000D01*
X423152Y1831700D01*
X421352Y1835300D01*
X419551Y1837100D01*
X415952Y1838900D01*
X410452Y1838900D01*
X406852Y1837100D01*
X403152Y1833500D01*
X401352Y1828000D01*
X401352Y1824400D01*
X403152Y1818900D01*
X406852Y1815300D01*
X410452Y1813500D01*
X415952Y1813500D01*
X419551Y1815300D01*
X423152Y1818900D01*
X456952Y1833500D02*
G01*
X453351Y1837100D01*
X449752Y1838900D01*
X444252Y1838900D01*
X440652Y1837100D01*
X436952Y1833500D01*
X435152Y1828000D01*
X435152Y1824400D01*
X436952Y1818900D01*
X440652Y1815300D01*
X444252Y1813500D01*
X449752Y1813500D01*
X453351Y1815300D01*
X456952Y1818900D01*
X474452Y1851700D02*
G01*
X474452Y1820800D01*
X476251Y1815300D01*
X479951Y1813500D01*
X483552Y1813500D01*
X468952Y1838900D02*
G01*
X481752Y1838900D01*
X495552Y1838900D02*
G01*
X495552Y1813500D01*
X495552Y1828000D02*
G01*
X497352Y1833500D01*
X500952Y1837100D01*
X504652Y1838900D01*
X510052Y1838900D01*
X522051Y1851700D02*
G01*
X523952Y1849800D01*
X525751Y1851700D01*
X523952Y1853500D01*
X522051Y1851700D01*
X523952Y1838900D02*
G01*
X523952Y1813500D01*
X559551Y1833500D02*
G01*
X555952Y1837100D01*
X552252Y1838900D01*
X546852Y1838900D01*
X543152Y1837100D01*
X539551Y1833500D01*
X537752Y1828000D01*
X537752Y1824400D01*
X539551Y1818900D01*
X543152Y1815300D01*
X546852Y1813500D01*
X552252Y1813500D01*
X555952Y1815300D01*
X559551Y1818900D01*
X302452Y1774400D02*
G01*
X302452Y1736200D01*
X302452Y1774400D02*
G01*
X316952Y1736200D01*
X331552Y1774400D02*
G01*
X316952Y1736200D01*
X331552Y1774400D02*
G01*
X331552Y1736200D01*
X343552Y1774400D02*
G01*
X345351Y1772500D01*
X347152Y1774400D01*
X345351Y1776200D01*
X343552Y1774400D01*
X345351Y1761600D02*
G01*
X345351Y1736200D01*
X380952Y1774400D02*
G01*
X380952Y1736200D01*
X380952Y1756200D02*
G01*
X377352Y1759800D01*
X373751Y1761600D01*
X368251Y1761600D01*
X364652Y1759800D01*
X360952Y1756200D01*
X359151Y1750700D01*
X359151Y1747100D01*
X360952Y1741600D01*
X364652Y1738000D01*
X368251Y1736200D01*
X373751Y1736200D01*
X377352Y1738000D01*
X380952Y1741600D01*
X392952Y1752500D02*
G01*
X425751Y1752500D01*
X437752Y1774400D02*
G01*
X437752Y1736200D01*
X471552Y1761600D02*
G01*
X471552Y1736200D01*
X471552Y1756200D02*
G01*
X467952Y1759800D01*
X464252Y1761600D01*
X458852Y1761600D01*
X455152Y1759800D01*
X451552Y1756200D01*
X449752Y1750700D01*
X449752Y1747100D01*
X451552Y1741600D01*
X455152Y1738000D01*
X458852Y1736200D01*
X464252Y1736200D01*
X467952Y1738000D01*
X471552Y1741600D01*
X485351Y1761600D02*
G01*
X496251Y1736200D01*
X507152Y1761600D02*
G01*
X496251Y1736200D01*
X492652Y1728900D01*
X488952Y1725300D01*
X485351Y1723500D01*
X483552Y1723500D01*
X519151Y1750700D02*
G01*
X540952Y1750700D01*
X540952Y1754400D01*
X539151Y1758000D01*
X537352Y1759800D01*
X533751Y1761600D01*
X528251Y1761600D01*
X524652Y1759800D01*
X520952Y1756200D01*
X519151Y1750700D01*
X519151Y1747100D01*
X520952Y1741600D01*
X524652Y1738000D01*
X528251Y1736200D01*
X533751Y1736200D01*
X537352Y1738000D01*
X540952Y1741600D01*
X552952Y1761600D02*
G01*
X552952Y1736200D01*
X552952Y1750700D02*
G01*
X554852Y1756200D01*
X558452Y1759800D01*
X562051Y1761600D01*
X567552Y1761600D01*
X607552Y1767100D02*
G01*
X611151Y1768900D01*
X616651Y1774400D01*
X616651Y1736200D01*
X280952Y1463700D02*
G01*
X280952Y1425500D01*
X280952Y1463700D02*
G01*
X297352Y1463700D01*
X302752Y1461800D01*
X304552Y1460000D01*
X306452Y1456400D01*
X306452Y1452800D01*
X304552Y1449100D01*
X302752Y1447300D01*
X297352Y1445500D01*
X280952Y1445500D02*
G01*
X297352Y1445500D01*
X302752Y1443700D01*
X304552Y1441800D01*
X306452Y1438200D01*
X306452Y1432800D01*
X304552Y1429100D01*
X302752Y1427300D01*
X297352Y1425500D01*
X280952Y1425500D01*
X327452Y1450900D02*
G01*
X323852Y1449100D01*
X320252Y1445500D01*
X318452Y1440000D01*
X318452Y1436400D01*
X320252Y1430900D01*
X323852Y1427300D01*
X327452Y1425500D01*
X332952Y1425500D01*
X336552Y1427300D01*
X340252Y1430900D01*
X342051Y1436400D01*
X342051Y1440000D01*
X340252Y1445500D01*
X336552Y1449100D01*
X332952Y1450900D01*
X327452Y1450900D01*
X359452Y1463700D02*
G01*
X359452Y1432800D01*
X361352Y1427300D01*
X364951Y1425500D01*
X368552Y1425500D01*
X354052Y1450900D02*
G01*
X366752Y1450900D01*
X386052Y1463700D02*
G01*
X386052Y1432800D01*
X387851Y1427300D01*
X391452Y1425500D01*
X395152Y1425500D01*
X380552Y1450900D02*
G01*
X393351Y1450900D01*
X416251Y1450900D02*
G01*
X412552Y1449100D01*
X408952Y1445500D01*
X407152Y1440000D01*
X407152Y1436400D01*
X408952Y1430900D01*
X412552Y1427300D01*
X416251Y1425500D01*
X421651Y1425500D01*
X425351Y1427300D01*
X428952Y1430900D01*
X430751Y1436400D01*
X430751Y1440000D01*
X428952Y1445500D01*
X425351Y1449100D01*
X421651Y1450900D01*
X416251Y1450900D01*
X442752Y1450900D02*
G01*
X442752Y1425500D01*
X442752Y1443700D02*
G01*
X448251Y1449100D01*
X451852Y1450900D01*
X457352Y1450900D01*
X460952Y1449100D01*
X462752Y1443700D01*
X462752Y1425500D01*
X462752Y1443700D02*
G01*
X468251Y1449100D01*
X471852Y1450900D01*
X477352Y1450900D01*
X480952Y1449100D01*
X482752Y1443700D01*
X482752Y1425500D01*
X522752Y1463700D02*
G01*
X522752Y1425500D01*
X522752Y1425500D02*
G01*
X544551Y1425500D01*
X578452Y1450900D02*
G01*
X578452Y1425500D01*
X578452Y1445500D02*
G01*
X574752Y1449100D01*
X571151Y1450900D01*
X565652Y1450900D01*
X562051Y1449100D01*
X558452Y1445500D01*
X556552Y1440000D01*
X556552Y1436400D01*
X558452Y1430900D01*
X562051Y1427300D01*
X565652Y1425500D01*
X571151Y1425500D01*
X574752Y1427300D01*
X578452Y1430900D01*
X592252Y1450900D02*
G01*
X603152Y1425500D01*
X614052Y1450900D02*
G01*
X603152Y1425500D01*
X599452Y1418200D01*
X595851Y1414600D01*
X592252Y1412800D01*
X590452Y1412800D01*
X626052Y1440000D02*
G01*
X647851Y1440000D01*
X647851Y1443700D01*
X646052Y1447300D01*
X644252Y1449100D01*
X640552Y1450900D01*
X635152Y1450900D01*
X631452Y1449100D01*
X627851Y1445500D01*
X626052Y1440000D01*
X626052Y1436400D01*
X627851Y1430900D01*
X631452Y1427300D01*
X635152Y1425500D01*
X640552Y1425500D01*
X644252Y1427300D01*
X647851Y1430900D01*
X659852Y1450900D02*
G01*
X659852Y1425500D01*
X659852Y1440000D02*
G01*
X661651Y1445500D01*
X665351Y1449100D01*
X668952Y1450900D01*
X674452Y1450900D01*
X317552Y2004100D02*
G01*
X317552Y1965900D01*
X304852Y2004100D02*
G01*
X330352Y2004100D01*
X351352Y1991300D02*
G01*
X347752Y1989500D01*
X344151Y1985900D01*
X342352Y1980399D01*
X342352Y1976800D01*
X344151Y1971300D01*
X347752Y1967699D01*
X351352Y1965900D01*
X356852Y1965900D01*
X360452Y1967699D01*
X364151Y1971300D01*
X365952Y1976800D01*
X365952Y1980399D01*
X364151Y1985900D01*
X360452Y1989500D01*
X356852Y1991300D01*
X351352Y1991300D01*
X377952Y1991300D02*
G01*
X377952Y1953200D01*
X377952Y1985900D02*
G01*
X381552Y1989500D01*
X385252Y1991300D01*
X390652Y1991300D01*
X394352Y1989500D01*
X397952Y1985900D01*
X399752Y1980399D01*
X399752Y1976800D01*
X397952Y1971300D01*
X394352Y1967699D01*
X390652Y1965900D01*
X385252Y1965900D01*
X381552Y1967699D01*
X377952Y1971300D01*
X459752Y1985900D02*
G01*
X457952Y1989500D01*
X452451Y1991300D01*
X447051Y1991300D01*
X441552Y1989500D01*
X439752Y1985900D01*
X441552Y1982200D01*
X445252Y1980399D01*
X454352Y1978600D01*
X457952Y1976800D01*
X459752Y1973200D01*
X459752Y1971300D01*
X457952Y1967699D01*
X452451Y1965900D01*
X447051Y1965900D01*
X441552Y1967699D01*
X439752Y1971300D01*
X480851Y1991300D02*
G01*
X477252Y1989500D01*
X473552Y1985900D01*
X471752Y1980399D01*
X471752Y1976800D01*
X473552Y1971300D01*
X477252Y1967699D01*
X480851Y1965900D01*
X486352Y1965900D01*
X489951Y1967699D01*
X493552Y1971300D01*
X495351Y1976800D01*
X495351Y1980399D01*
X493552Y1985900D01*
X489951Y1989500D01*
X486352Y1991300D01*
X480851Y1991300D01*
X507352Y2004100D02*
G01*
X507352Y1965900D01*
X541251Y2004100D02*
G01*
X541251Y1965900D01*
X541251Y1985900D02*
G01*
X537552Y1989500D01*
X533952Y1991300D01*
X528452Y1991300D01*
X524852Y1989500D01*
X521251Y1985900D01*
X519352Y1980399D01*
X519352Y1976800D01*
X521251Y1971300D01*
X524852Y1967699D01*
X528452Y1965900D01*
X533952Y1965900D01*
X537552Y1967699D01*
X541251Y1971300D01*
X553251Y1980399D02*
G01*
X575052Y1980399D01*
X575052Y1984100D01*
X573251Y1987699D01*
X571352Y1989500D01*
X567752Y1991300D01*
X562352Y1991300D01*
X558651Y1989500D01*
X555052Y1985900D01*
X553251Y1980399D01*
X553251Y1976800D01*
X555052Y1971300D01*
X558651Y1967699D01*
X562352Y1965900D01*
X567752Y1965900D01*
X571352Y1967699D01*
X575052Y1971300D01*
X587051Y1991300D02*
G01*
X587051Y1965900D01*
X587051Y1980399D02*
G01*
X588852Y1985900D01*
X592451Y1989500D01*
X596151Y1991300D01*
X601552Y1991300D01*
X302752Y2083700D02*
G01*
X302752Y2045500D01*
X290052Y2083700D02*
G01*
X315552Y2083700D01*
X336552Y2070900D02*
G01*
X332952Y2069100D01*
X329352Y2065500D01*
X327552Y2060000D01*
X327552Y2056400D01*
X329352Y2050900D01*
X332952Y2047300D01*
X336552Y2045500D01*
X342051Y2045500D01*
X345652Y2047300D01*
X349352Y2050900D01*
X351151Y2056400D01*
X351151Y2060000D01*
X349352Y2065500D01*
X345652Y2069100D01*
X342051Y2070900D01*
X336552Y2070900D01*
X363152Y2070900D02*
G01*
X363152Y2032800D01*
X363152Y2065500D02*
G01*
X366752Y2069100D01*
X370452Y2070900D01*
X375851Y2070900D01*
X379551Y2069100D01*
X383152Y2065500D01*
X384951Y2060000D01*
X384951Y2056400D01*
X383152Y2050900D01*
X379551Y2047300D01*
X375851Y2045500D01*
X370452Y2045500D01*
X366752Y2047300D01*
X363152Y2050900D01*
X435851Y2083700D02*
G01*
X432252Y2081800D01*
X428552Y2078200D01*
X426752Y2074600D01*
X424951Y2069100D01*
X424951Y2060000D01*
X426752Y2054600D01*
X428552Y2050900D01*
X432252Y2047300D01*
X435851Y2045500D01*
X443152Y2045500D01*
X446752Y2047300D01*
X450452Y2050900D01*
X452252Y2054600D01*
X454052Y2060000D01*
X454052Y2069100D01*
X452252Y2074600D01*
X450452Y2078200D01*
X446752Y2081800D01*
X443152Y2083700D01*
X435851Y2083700D01*
X466052Y2070900D02*
G01*
X476952Y2045500D01*
X487851Y2070900D02*
G01*
X476952Y2045500D01*
X499852Y2060000D02*
G01*
X521651Y2060000D01*
X521651Y2063700D01*
X519852Y2067300D01*
X518052Y2069100D01*
X514452Y2070900D01*
X508952Y2070900D01*
X505351Y2069100D01*
X501651Y2065500D01*
X499852Y2060000D01*
X499852Y2056400D01*
X501651Y2050900D01*
X505351Y2047300D01*
X508952Y2045500D01*
X514452Y2045500D01*
X518052Y2047300D01*
X521651Y2050900D01*
X533651Y2070900D02*
G01*
X533651Y2045500D01*
X533651Y2060000D02*
G01*
X535552Y2065500D01*
X539151Y2069100D01*
X542752Y2070900D01*
X548251Y2070900D01*
X560252Y2083700D02*
G01*
X560252Y2045500D01*
X594052Y2070900D02*
G01*
X594052Y2045500D01*
X594052Y2065500D02*
G01*
X590452Y2069100D01*
X586752Y2070900D01*
X581352Y2070900D01*
X577652Y2069100D01*
X574052Y2065500D01*
X572252Y2060000D01*
X572252Y2056400D01*
X574052Y2050900D01*
X577652Y2047300D01*
X581352Y2045500D01*
X586752Y2045500D01*
X590452Y2047300D01*
X594052Y2050900D01*
X607851Y2070900D02*
G01*
X618751Y2045500D01*
X629652Y2070900D02*
G01*
X618751Y2045500D01*
X615152Y2038200D01*
X611552Y2034600D01*
X607851Y2032800D01*
X606052Y2032800D01*
X275352Y1388000D02*
G01*
X275352Y1349800D01*
X275352Y1388000D02*
G01*
X291752Y1388000D01*
X297152Y1386100D01*
X298952Y1384300D01*
X300851Y1380700D01*
X300851Y1377100D01*
X298952Y1373400D01*
X297152Y1371600D01*
X291752Y1369800D01*
X275352Y1369800D02*
G01*
X291752Y1369800D01*
X297152Y1368000D01*
X298952Y1366100D01*
X300851Y1362500D01*
X300851Y1357100D01*
X298952Y1353400D01*
X297152Y1351600D01*
X291752Y1349800D01*
X275352Y1349800D01*
X321852Y1375199D02*
G01*
X318252Y1373400D01*
X314652Y1369800D01*
X312852Y1364300D01*
X312852Y1360700D01*
X314652Y1355199D01*
X318252Y1351600D01*
X321852Y1349800D01*
X327352Y1349800D01*
X330952Y1351600D01*
X334652Y1355199D01*
X336452Y1360700D01*
X336452Y1364300D01*
X334652Y1369800D01*
X330952Y1373400D01*
X327352Y1375199D01*
X321852Y1375199D01*
X353852Y1388000D02*
G01*
X353852Y1357100D01*
X355751Y1351600D01*
X359352Y1349800D01*
X362952Y1349800D01*
X348452Y1375199D02*
G01*
X361151Y1375199D01*
X380452Y1388000D02*
G01*
X380452Y1357100D01*
X382252Y1351600D01*
X385851Y1349800D01*
X389551Y1349800D01*
X374951Y1375199D02*
G01*
X387752Y1375199D01*
X410652Y1375199D02*
G01*
X406952Y1373400D01*
X403351Y1369800D01*
X401552Y1364300D01*
X401552Y1360700D01*
X403351Y1355199D01*
X406952Y1351600D01*
X410652Y1349800D01*
X416052Y1349800D01*
X419752Y1351600D01*
X423351Y1355199D01*
X425152Y1360700D01*
X425152Y1364300D01*
X423351Y1369800D01*
X419752Y1373400D01*
X416052Y1375199D01*
X410652Y1375199D01*
X437152Y1375199D02*
G01*
X437152Y1349800D01*
X437152Y1368000D02*
G01*
X442652Y1373400D01*
X446251Y1375199D01*
X451752Y1375199D01*
X455351Y1373400D01*
X457152Y1368000D01*
X457152Y1349800D01*
X457152Y1368000D02*
G01*
X462652Y1373400D01*
X466251Y1375199D01*
X471752Y1375199D01*
X475351Y1373400D01*
X477152Y1368000D01*
X477152Y1349800D01*
X542652Y1382500D02*
G01*
X538952Y1386100D01*
X533552Y1388000D01*
X526251Y1388000D01*
X520851Y1386100D01*
X517152Y1382500D01*
X517152Y1378900D01*
X518952Y1375199D01*
X520851Y1373400D01*
X524452Y1371600D01*
X535351Y1368000D01*
X538952Y1366100D01*
X540851Y1364300D01*
X542652Y1360700D01*
X542652Y1355199D01*
X538952Y1351600D01*
X533552Y1349800D01*
X526251Y1349800D01*
X520851Y1351600D01*
X517152Y1355199D01*
X563751Y1375199D02*
G01*
X560052Y1373400D01*
X556452Y1369800D01*
X554652Y1364300D01*
X554652Y1360700D01*
X556452Y1355199D01*
X560052Y1351600D01*
X563751Y1349800D01*
X569151Y1349800D01*
X572851Y1351600D01*
X576452Y1355199D01*
X578251Y1360700D01*
X578251Y1364300D01*
X576452Y1369800D01*
X572851Y1373400D01*
X569151Y1375199D01*
X563751Y1375199D01*
X590252Y1388000D02*
G01*
X590252Y1349800D01*
X624052Y1388000D02*
G01*
X624052Y1349800D01*
X624052Y1369800D02*
G01*
X620452Y1373400D01*
X616852Y1375199D01*
X611352Y1375199D01*
X607752Y1373400D01*
X604052Y1369800D01*
X602252Y1364300D01*
X602252Y1360700D01*
X604052Y1355199D01*
X607752Y1351600D01*
X611352Y1349800D01*
X616852Y1349800D01*
X620452Y1351600D01*
X624052Y1355199D01*
X636052Y1364300D02*
G01*
X657851Y1364300D01*
X657851Y1368000D01*
X656052Y1371600D01*
X654252Y1373400D01*
X650652Y1375199D01*
X645152Y1375199D01*
X641552Y1373400D01*
X637851Y1369800D01*
X636052Y1364300D01*
X636052Y1360700D01*
X637851Y1355199D01*
X641552Y1351600D01*
X645152Y1349800D01*
X650652Y1349800D01*
X654252Y1351600D01*
X657851Y1355199D01*
X669852Y1375199D02*
G01*
X669852Y1349800D01*
X669852Y1364300D02*
G01*
X671752Y1369800D01*
X675351Y1373400D01*
X678952Y1375199D01*
X684452Y1375199D01*
X268452Y1308300D02*
G01*
X268452Y1270100D01*
X268452Y1308300D02*
G01*
X284852Y1308300D01*
X290252Y1306400D01*
X292052Y1304600D01*
X293952Y1301000D01*
X293952Y1297400D01*
X292052Y1293700D01*
X290252Y1291900D01*
X284852Y1290100D01*
X268452Y1290100D02*
G01*
X284852Y1290100D01*
X290252Y1288300D01*
X292052Y1286400D01*
X293952Y1282800D01*
X293952Y1277400D01*
X292052Y1273700D01*
X290252Y1271900D01*
X284852Y1270100D01*
X268452Y1270100D01*
X314952Y1295500D02*
G01*
X311352Y1293700D01*
X307752Y1290100D01*
X305952Y1284600D01*
X305952Y1281000D01*
X307752Y1275500D01*
X311352Y1271900D01*
X314952Y1270100D01*
X320452Y1270100D01*
X324052Y1271900D01*
X327752Y1275500D01*
X329552Y1281000D01*
X329552Y1284600D01*
X327752Y1290100D01*
X324052Y1293700D01*
X320452Y1295500D01*
X314952Y1295500D01*
X346952Y1308300D02*
G01*
X346952Y1277400D01*
X348852Y1271900D01*
X352451Y1270100D01*
X356052Y1270100D01*
X341552Y1295500D02*
G01*
X354252Y1295500D01*
X373552Y1308300D02*
G01*
X373552Y1277400D01*
X375351Y1271900D01*
X378952Y1270100D01*
X382652Y1270100D01*
X368052Y1295500D02*
G01*
X380851Y1295500D01*
X403751Y1295500D02*
G01*
X400052Y1293700D01*
X396452Y1290100D01*
X394652Y1284600D01*
X394652Y1281000D01*
X396452Y1275500D01*
X400052Y1271900D01*
X403751Y1270100D01*
X409151Y1270100D01*
X412851Y1271900D01*
X416452Y1275500D01*
X418251Y1281000D01*
X418251Y1284600D01*
X416452Y1290100D01*
X412851Y1293700D01*
X409151Y1295500D01*
X403751Y1295500D01*
X430252Y1295500D02*
G01*
X430252Y1270100D01*
X430252Y1288300D02*
G01*
X435751Y1293700D01*
X439352Y1295500D01*
X444852Y1295500D01*
X448452Y1293700D01*
X450252Y1288300D01*
X450252Y1270100D01*
X450252Y1288300D02*
G01*
X455751Y1293700D01*
X459352Y1295500D01*
X464852Y1295500D01*
X468452Y1293700D01*
X470252Y1288300D01*
X470252Y1270100D01*
X521151Y1308300D02*
G01*
X517552Y1306400D01*
X513952Y1302800D01*
X512051Y1299200D01*
X510252Y1293700D01*
X510252Y1284600D01*
X512051Y1279200D01*
X513952Y1275500D01*
X517552Y1271900D01*
X521151Y1270100D01*
X528452Y1270100D01*
X532051Y1271900D01*
X535751Y1275500D01*
X537552Y1279200D01*
X539352Y1284600D01*
X539352Y1293700D01*
X537552Y1299200D01*
X535751Y1302800D01*
X532051Y1306400D01*
X528452Y1308300D01*
X521151Y1308300D01*
X551352Y1295500D02*
G01*
X562252Y1270100D01*
X573152Y1295500D02*
G01*
X562252Y1270100D01*
X585152Y1284600D02*
G01*
X606952Y1284600D01*
X606952Y1288300D01*
X605152Y1291900D01*
X603351Y1293700D01*
X599752Y1295500D01*
X594252Y1295500D01*
X590652Y1293700D01*
X586952Y1290100D01*
X585152Y1284600D01*
X585152Y1281000D01*
X586952Y1275500D01*
X590652Y1271900D01*
X594252Y1270100D01*
X599752Y1270100D01*
X603351Y1271900D01*
X606952Y1275500D01*
X618952Y1295500D02*
G01*
X618952Y1270100D01*
X618952Y1284600D02*
G01*
X620851Y1290100D01*
X624452Y1293700D01*
X628052Y1295500D01*
X633552Y1295500D01*
X645552Y1308300D02*
G01*
X645552Y1270100D01*
X679352Y1295500D02*
G01*
X679352Y1270100D01*
X679352Y1290100D02*
G01*
X675751Y1293700D01*
X672051Y1295500D01*
X666651Y1295500D01*
X662952Y1293700D01*
X659352Y1290100D01*
X657552Y1284600D01*
X657552Y1281000D01*
X659352Y1275500D01*
X662952Y1271900D01*
X666651Y1270100D01*
X672051Y1270100D01*
X675751Y1271900D01*
X679352Y1275500D01*
X693152Y1295500D02*
G01*
X704052Y1270100D01*
X714951Y1295500D02*
G01*
X704052Y1270100D01*
X700452Y1262800D01*
X696852Y1259200D01*
X693152Y1257400D01*
X691352Y1257400D01*
X7652Y2184800D02*
G01*
X7652Y2146600D01*
X7652Y2146600D02*
G01*
X29452Y2146600D01*
X63252Y2172000D02*
G01*
X63252Y2146600D01*
X63252Y2166600D02*
G01*
X59652Y2170200D01*
X56051Y2172000D01*
X50552Y2172000D01*
X46952Y2170200D01*
X43252Y2166600D01*
X41452Y2161100D01*
X41452Y2157500D01*
X43252Y2152000D01*
X46952Y2148400D01*
X50552Y2146600D01*
X56051Y2146600D01*
X59652Y2148400D01*
X63252Y2152000D01*
X77152Y2172000D02*
G01*
X88052Y2146600D01*
X98952Y2172000D02*
G01*
X88052Y2146600D01*
X84352Y2139300D01*
X80752Y2135700D01*
X77152Y2133900D01*
X75252Y2133900D01*
X110952Y2161100D02*
G01*
X132752Y2161100D01*
X132752Y2164800D01*
X130952Y2168400D01*
X129152Y2170200D01*
X125452Y2172000D01*
X120052Y2172000D01*
X116352Y2170200D01*
X112752Y2166600D01*
X110952Y2161100D01*
X110952Y2157500D01*
X112752Y2152000D01*
X116352Y2148400D01*
X120052Y2146600D01*
X125452Y2146600D01*
X129152Y2148400D01*
X132752Y2152000D01*
X144752Y2172000D02*
G01*
X144752Y2146600D01*
X144752Y2161100D02*
G01*
X146552Y2166600D01*
X150152Y2170200D01*
X153852Y2172000D01*
X159252Y2172000D01*
X59052Y1925900D02*
G01*
X62652Y1927699D01*
X68152Y1933200D01*
X68152Y1895000D01*
X814452Y1856900D02*
G01*
X814452Y1818700D01*
X814452Y1856900D02*
G01*
X830851Y1856900D01*
X836251Y1855000D01*
X838052Y1853200D01*
X839951Y1849600D01*
X839951Y1844100D01*
X838052Y1840500D01*
X836251Y1838700D01*
X830851Y1836900D01*
X814452Y1836900D01*
X851952Y1844100D02*
G01*
X851952Y1818700D01*
X851952Y1833200D02*
G01*
X853751Y1838700D01*
X857352Y1842300D01*
X860952Y1844100D01*
X866452Y1844100D01*
X878452Y1833200D02*
G01*
X900252Y1833200D01*
X900252Y1836900D01*
X898452Y1840500D01*
X896651Y1842300D01*
X892952Y1844100D01*
X887552Y1844100D01*
X883952Y1842300D01*
X880252Y1838700D01*
X878452Y1833200D01*
X878452Y1829600D01*
X880252Y1824100D01*
X883952Y1820500D01*
X887552Y1818700D01*
X892952Y1818700D01*
X896651Y1820500D01*
X900252Y1824100D01*
X912252Y1844100D02*
G01*
X912252Y1806000D01*
X912252Y1838700D02*
G01*
X915952Y1842300D01*
X919551Y1844100D01*
X924951Y1844100D01*
X928651Y1842300D01*
X932252Y1838700D01*
X934052Y1833200D01*
X934052Y1829600D01*
X932252Y1824100D01*
X928651Y1820500D01*
X924951Y1818700D01*
X919551Y1818700D01*
X915952Y1820500D01*
X912252Y1824100D01*
X946052Y1833200D02*
G01*
X967952Y1833200D01*
X967952Y1836900D01*
X966052Y1840500D01*
X964252Y1842300D01*
X960652Y1844100D01*
X955152Y1844100D01*
X951552Y1842300D01*
X947952Y1838700D01*
X946052Y1833200D01*
X946052Y1829600D01*
X947952Y1824100D01*
X951552Y1820500D01*
X955152Y1818700D01*
X960652Y1818700D01*
X964252Y1820500D01*
X967952Y1824100D01*
X1001752Y1844100D02*
G01*
X1001752Y1815000D01*
X999951Y1809600D01*
X998052Y1807800D01*
X994452Y1806000D01*
X988952Y1806000D01*
X985351Y1807800D01*
X1001752Y1838700D02*
G01*
X998052Y1842300D01*
X994452Y1844100D01*
X988952Y1844100D01*
X985351Y1842300D01*
X981752Y1838700D01*
X979951Y1833200D01*
X979951Y1829600D01*
X981752Y1824100D01*
X985351Y1820500D01*
X988952Y1818700D01*
X994452Y1818700D01*
X998052Y1820500D01*
X1001752Y1824100D01*
X1041752Y1835000D02*
G01*
X1074452Y1835000D01*
X1114452Y1856900D02*
G01*
X1114452Y1818700D01*
X1114452Y1856900D02*
G01*
X1138052Y1856900D01*
X1114452Y1838700D02*
G01*
X1128952Y1838700D01*
X1150052Y1856900D02*
G01*
X1150052Y1818700D01*
X1150052Y1856900D02*
G01*
X1166452Y1856900D01*
X1171952Y1855000D01*
X1173751Y1853200D01*
X1175552Y1849600D01*
X1175552Y1846000D01*
X1173751Y1842300D01*
X1171952Y1840500D01*
X1166452Y1838700D01*
X1150052Y1838700D01*
X1162851Y1838700D02*
G01*
X1175552Y1818700D01*
X1205751Y1856900D02*
G01*
X1187552Y1831400D01*
X1214852Y1831400D01*
X1205751Y1856900D02*
G01*
X1205751Y1818700D01*
X834452Y1931500D02*
G01*
X832652Y1935100D01*
X828952Y1938700D01*
X825351Y1940599D01*
X818052Y1940599D01*
X814452Y1938700D01*
X810751Y1935100D01*
X808952Y1931500D01*
X807152Y1926000D01*
X807152Y1916900D01*
X808952Y1911500D01*
X810751Y1907800D01*
X814452Y1904200D01*
X818052Y1902400D01*
X825351Y1902400D01*
X828952Y1904200D01*
X832652Y1907800D01*
X834452Y1911500D01*
X855552Y1927800D02*
G01*
X851852Y1926000D01*
X848251Y1922400D01*
X846452Y1916900D01*
X846452Y1913300D01*
X848251Y1907800D01*
X851852Y1904200D01*
X855552Y1902400D01*
X860952Y1902400D01*
X864652Y1904200D01*
X868251Y1907800D01*
X870052Y1913300D01*
X870052Y1916900D01*
X868251Y1922400D01*
X864652Y1926000D01*
X860952Y1927800D01*
X855552Y1927800D01*
X882051Y1927800D02*
G01*
X882051Y1889700D01*
X882051Y1922400D02*
G01*
X885652Y1926000D01*
X889352Y1927800D01*
X894752Y1927800D01*
X898452Y1926000D01*
X902051Y1922400D01*
X903852Y1916900D01*
X903852Y1913300D01*
X902051Y1907800D01*
X898452Y1904200D01*
X894752Y1902400D01*
X889352Y1902400D01*
X885652Y1904200D01*
X882051Y1907800D01*
X915851Y1927800D02*
G01*
X915851Y1889700D01*
X915851Y1922400D02*
G01*
X919551Y1926000D01*
X923152Y1927800D01*
X928651Y1927800D01*
X932252Y1926000D01*
X935851Y1922400D01*
X937652Y1916900D01*
X937652Y1913300D01*
X935851Y1907800D01*
X932252Y1904200D01*
X928651Y1902400D01*
X923152Y1902400D01*
X919551Y1904200D01*
X915851Y1907800D01*
X949652Y1916900D02*
G01*
X971552Y1916900D01*
X971552Y1920599D01*
X969652Y1924200D01*
X967851Y1926000D01*
X964252Y1927800D01*
X958751Y1927800D01*
X955152Y1926000D01*
X951552Y1922400D01*
X949652Y1916900D01*
X949652Y1913300D01*
X951552Y1907800D01*
X955152Y1904200D01*
X958751Y1902400D01*
X964252Y1902400D01*
X967851Y1904200D01*
X971552Y1907800D01*
X983552Y1927800D02*
G01*
X983552Y1902400D01*
X983552Y1916900D02*
G01*
X985351Y1922400D01*
X988952Y1926000D01*
X992652Y1927800D01*
X998052Y1927800D01*
X834452Y1768300D02*
G01*
X832652Y1771900D01*
X828952Y1775500D01*
X825351Y1777400D01*
X818052Y1777400D01*
X814452Y1775500D01*
X810751Y1771900D01*
X808952Y1768300D01*
X807152Y1762800D01*
X807152Y1753700D01*
X808952Y1748300D01*
X810751Y1744600D01*
X814452Y1741000D01*
X818052Y1739200D01*
X825351Y1739200D01*
X828952Y1741000D01*
X832652Y1744600D01*
X834452Y1748300D01*
X855552Y1764600D02*
G01*
X851852Y1762800D01*
X848251Y1759200D01*
X846452Y1753700D01*
X846452Y1750100D01*
X848251Y1744600D01*
X851852Y1741000D01*
X855552Y1739200D01*
X860952Y1739200D01*
X864652Y1741000D01*
X868251Y1744600D01*
X870052Y1750100D01*
X870052Y1753700D01*
X868251Y1759200D01*
X864652Y1762800D01*
X860952Y1764600D01*
X855552Y1764600D01*
X882051Y1764600D02*
G01*
X882051Y1726500D01*
X882051Y1759200D02*
G01*
X885652Y1762800D01*
X889352Y1764600D01*
X894752Y1764600D01*
X898452Y1762800D01*
X902051Y1759200D01*
X903852Y1753700D01*
X903852Y1750100D01*
X902051Y1744600D01*
X898452Y1741000D01*
X894752Y1739200D01*
X889352Y1739200D01*
X885652Y1741000D01*
X882051Y1744600D01*
X915851Y1764600D02*
G01*
X915851Y1726500D01*
X915851Y1759200D02*
G01*
X919551Y1762800D01*
X923152Y1764600D01*
X928651Y1764600D01*
X932252Y1762800D01*
X935851Y1759200D01*
X937652Y1753700D01*
X937652Y1750100D01*
X935851Y1744600D01*
X932252Y1741000D01*
X928651Y1739200D01*
X923152Y1739200D01*
X919551Y1741000D01*
X915851Y1744600D01*
X949652Y1753700D02*
G01*
X971552Y1753700D01*
X971552Y1757400D01*
X969652Y1761000D01*
X967851Y1762800D01*
X964252Y1764600D01*
X958751Y1764600D01*
X955152Y1762800D01*
X951552Y1759200D01*
X949652Y1753700D01*
X949652Y1750100D01*
X951552Y1744600D01*
X955152Y1741000D01*
X958751Y1739200D01*
X964252Y1739200D01*
X967851Y1741000D01*
X971552Y1744600D01*
X983552Y1764600D02*
G01*
X983552Y1739200D01*
X983552Y1753700D02*
G01*
X985351Y1759200D01*
X988952Y1762800D01*
X992652Y1764600D01*
X998052Y1764600D01*
X304552Y1703700D02*
G01*
X304552Y1665500D01*
X304552Y1703700D02*
G01*
X317252Y1703700D01*
X322752Y1701800D01*
X326352Y1698200D01*
X328152Y1694600D01*
X330052Y1689100D01*
X330052Y1680000D01*
X328152Y1674600D01*
X326352Y1670900D01*
X322752Y1667300D01*
X317252Y1665500D01*
X304552Y1665500D01*
X342051Y1703700D02*
G01*
X343852Y1701800D01*
X345652Y1703700D01*
X343852Y1705500D01*
X342051Y1703700D01*
X343852Y1690900D02*
G01*
X343852Y1665500D01*
X357652Y1680000D02*
G01*
X379452Y1680000D01*
X379452Y1683700D01*
X377652Y1687300D01*
X375851Y1689100D01*
X372152Y1690900D01*
X366752Y1690900D01*
X363052Y1689100D01*
X359452Y1685500D01*
X357652Y1680000D01*
X357652Y1676400D01*
X359452Y1670900D01*
X363052Y1667300D01*
X366752Y1665500D01*
X372152Y1665500D01*
X375851Y1667300D01*
X379452Y1670900D01*
X391452Y1703700D02*
G01*
X391452Y1665500D01*
X403452Y1680000D02*
G01*
X425252Y1680000D01*
X425252Y1683700D01*
X423452Y1687300D01*
X421651Y1689100D01*
X418052Y1690900D01*
X412552Y1690900D01*
X408952Y1689100D01*
X405252Y1685500D01*
X403452Y1680000D01*
X403452Y1676400D01*
X405252Y1670900D01*
X408952Y1667300D01*
X412552Y1665500D01*
X418052Y1665500D01*
X421651Y1667300D01*
X425252Y1670900D01*
X459052Y1685500D02*
G01*
X455452Y1689100D01*
X451852Y1690900D01*
X446352Y1690900D01*
X442752Y1689100D01*
X439052Y1685500D01*
X437252Y1680000D01*
X437252Y1676400D01*
X439052Y1670900D01*
X442752Y1667300D01*
X446352Y1665500D01*
X451852Y1665500D01*
X455452Y1667300D01*
X459052Y1670900D01*
X476552Y1703700D02*
G01*
X476552Y1672800D01*
X478351Y1667300D01*
X482051Y1665500D01*
X485652Y1665500D01*
X471052Y1690900D02*
G01*
X483852Y1690900D01*
X497652Y1690900D02*
G01*
X497652Y1665500D01*
X497652Y1680000D02*
G01*
X499452Y1685500D01*
X503052Y1689100D01*
X506752Y1690900D01*
X512152Y1690900D01*
X524151Y1703700D02*
G01*
X526052Y1701800D01*
X527851Y1703700D01*
X526052Y1705500D01*
X524151Y1703700D01*
X526052Y1690900D02*
G01*
X526052Y1665500D01*
X561651Y1685500D02*
G01*
X558052Y1689100D01*
X554352Y1690900D01*
X548952Y1690900D01*
X545252Y1689100D01*
X541651Y1685500D01*
X539852Y1680000D01*
X539852Y1676400D01*
X541651Y1670900D01*
X545252Y1667300D01*
X548952Y1665500D01*
X554352Y1665500D01*
X558052Y1667300D01*
X561651Y1670900D01*
X844951Y1694600D02*
G01*
X843152Y1698200D01*
X839452Y1701800D01*
X835851Y1703700D01*
X828552Y1703700D01*
X824951Y1701800D01*
X821251Y1698200D01*
X819452Y1694600D01*
X817652Y1689100D01*
X817652Y1680000D01*
X819452Y1674600D01*
X821251Y1670900D01*
X824951Y1667300D01*
X828552Y1665500D01*
X835851Y1665500D01*
X839452Y1667300D01*
X843152Y1670900D01*
X844951Y1674600D01*
X866052Y1690900D02*
G01*
X862352Y1689100D01*
X858751Y1685500D01*
X856952Y1680000D01*
X856952Y1676400D01*
X858751Y1670900D01*
X862352Y1667300D01*
X866052Y1665500D01*
X871452Y1665500D01*
X875152Y1667300D01*
X878751Y1670900D01*
X880552Y1676400D01*
X880552Y1680000D01*
X878751Y1685500D01*
X875152Y1689100D01*
X871452Y1690900D01*
X866052Y1690900D01*
X892552Y1690900D02*
G01*
X892552Y1665500D01*
X892552Y1680000D02*
G01*
X894352Y1685500D01*
X898052Y1689100D01*
X901651Y1690900D01*
X907152Y1690900D01*
X919151Y1680000D02*
G01*
X940952Y1680000D01*
X940952Y1683700D01*
X939151Y1687300D01*
X937252Y1689100D01*
X933651Y1690900D01*
X928152Y1690900D01*
X924551Y1689100D01*
X920952Y1685500D01*
X919151Y1680000D01*
X919151Y1676400D01*
X920952Y1670900D01*
X924551Y1667300D01*
X928152Y1665500D01*
X933651Y1665500D01*
X937252Y1667300D01*
X940952Y1670900D01*
X980952Y1681800D02*
G01*
X1013651Y1681800D01*
X1053651Y1703700D02*
G01*
X1053651Y1665500D01*
X1053651Y1703700D02*
G01*
X1077252Y1703700D01*
X1053651Y1685500D02*
G01*
X1068152Y1685500D01*
X1089252Y1703700D02*
G01*
X1089252Y1665500D01*
X1089252Y1703700D02*
G01*
X1105652Y1703700D01*
X1111151Y1701800D01*
X1112952Y1700000D01*
X1114752Y1696400D01*
X1114752Y1692800D01*
X1112952Y1689100D01*
X1111151Y1687300D01*
X1105652Y1685500D01*
X1089252Y1685500D01*
X1102051Y1685500D02*
G01*
X1114752Y1665500D01*
X1144951Y1703700D02*
G01*
X1126752Y1678200D01*
X1154052Y1678200D01*
X1144951Y1703700D02*
G01*
X1144951Y1665500D01*
X296652Y1627400D02*
G01*
X296652Y1589200D01*
X296652Y1627400D02*
G01*
X311152Y1589200D01*
X325752Y1627400D02*
G01*
X311152Y1589200D01*
X325752Y1627400D02*
G01*
X325752Y1589200D01*
X337752Y1627400D02*
G01*
X339551Y1625500D01*
X341352Y1627400D01*
X339551Y1629200D01*
X337752Y1627400D01*
X339551Y1614600D02*
G01*
X339551Y1589200D01*
X375152Y1627400D02*
G01*
X375152Y1589200D01*
X375152Y1609200D02*
G01*
X371552Y1612800D01*
X367952Y1614600D01*
X362451Y1614600D01*
X358852Y1612800D01*
X355152Y1609200D01*
X353351Y1603700D01*
X353351Y1600100D01*
X355152Y1594600D01*
X358852Y1591000D01*
X362451Y1589200D01*
X367952Y1589200D01*
X371552Y1591000D01*
X375152Y1594600D01*
X387152Y1605500D02*
G01*
X419951Y1605500D01*
X431952Y1627400D02*
G01*
X431952Y1589200D01*
X465751Y1614600D02*
G01*
X465751Y1589200D01*
X465751Y1609200D02*
G01*
X462152Y1612800D01*
X458452Y1614600D01*
X453052Y1614600D01*
X449352Y1612800D01*
X445751Y1609200D01*
X443952Y1603700D01*
X443952Y1600100D01*
X445751Y1594600D01*
X449352Y1591000D01*
X453052Y1589200D01*
X458452Y1589200D01*
X462152Y1591000D01*
X465751Y1594600D01*
X479551Y1614600D02*
G01*
X490452Y1589200D01*
X501352Y1614600D02*
G01*
X490452Y1589200D01*
X486852Y1581900D01*
X483152Y1578300D01*
X479551Y1576500D01*
X477752Y1576500D01*
X513351Y1603700D02*
G01*
X535152Y1603700D01*
X535152Y1607400D01*
X533351Y1611000D01*
X531552Y1612800D01*
X527952Y1614600D01*
X522451Y1614600D01*
X518852Y1612800D01*
X515152Y1609200D01*
X513351Y1603700D01*
X513351Y1600100D01*
X515152Y1594600D01*
X518852Y1591000D01*
X522451Y1589200D01*
X527952Y1589200D01*
X531552Y1591000D01*
X535152Y1594600D01*
X547152Y1614600D02*
G01*
X547152Y1589200D01*
X547152Y1603700D02*
G01*
X549052Y1609200D01*
X552652Y1612800D01*
X556251Y1614600D01*
X561752Y1614600D01*
X603552Y1618300D02*
G01*
X603552Y1620100D01*
X605351Y1623700D01*
X607152Y1625500D01*
X610851Y1627400D01*
X618152Y1627400D01*
X621752Y1625500D01*
X623552Y1623700D01*
X625351Y1620100D01*
X625351Y1616500D01*
X623552Y1612800D01*
X619951Y1607400D01*
X601752Y1589200D01*
X627152Y1589200D01*
X844951Y1618300D02*
G01*
X843152Y1621900D01*
X839452Y1625500D01*
X835851Y1627400D01*
X828552Y1627400D01*
X824951Y1625500D01*
X821251Y1621900D01*
X819452Y1618300D01*
X817652Y1612800D01*
X817652Y1603700D01*
X819452Y1598300D01*
X821251Y1594600D01*
X824951Y1591000D01*
X828552Y1589200D01*
X835851Y1589200D01*
X839452Y1591000D01*
X843152Y1594600D01*
X844951Y1598300D01*
X866052Y1614600D02*
G01*
X862352Y1612800D01*
X858751Y1609200D01*
X856952Y1603700D01*
X856952Y1600100D01*
X858751Y1594600D01*
X862352Y1591000D01*
X866052Y1589200D01*
X871452Y1589200D01*
X875152Y1591000D01*
X878751Y1594600D01*
X880552Y1600100D01*
X880552Y1603700D01*
X878751Y1609200D01*
X875152Y1612800D01*
X871452Y1614600D01*
X866052Y1614600D01*
X892552Y1614600D02*
G01*
X892552Y1576500D01*
X892552Y1609200D02*
G01*
X896151Y1612800D01*
X899852Y1614600D01*
X905252Y1614600D01*
X908952Y1612800D01*
X912552Y1609200D01*
X914352Y1603700D01*
X914352Y1600100D01*
X912552Y1594600D01*
X908952Y1591000D01*
X905252Y1589200D01*
X899852Y1589200D01*
X896151Y1591000D01*
X892552Y1594600D01*
X926352Y1614600D02*
G01*
X926352Y1576500D01*
X926352Y1609200D02*
G01*
X930052Y1612800D01*
X933651Y1614600D01*
X939151Y1614600D01*
X942752Y1612800D01*
X946352Y1609200D01*
X948152Y1603700D01*
X948152Y1600100D01*
X946352Y1594600D01*
X942752Y1591000D01*
X939151Y1589200D01*
X933651Y1589200D01*
X930052Y1591000D01*
X926352Y1594600D01*
X960152Y1603700D02*
G01*
X982051Y1603700D01*
X982051Y1607400D01*
X980152Y1611000D01*
X978351Y1612800D01*
X974752Y1614600D01*
X969252Y1614600D01*
X965652Y1612800D01*
X962051Y1609200D01*
X960152Y1603700D01*
X960152Y1600100D01*
X962051Y1594600D01*
X965652Y1591000D01*
X969252Y1589200D01*
X974752Y1589200D01*
X978351Y1591000D01*
X982051Y1594600D01*
X994052Y1614600D02*
G01*
X994052Y1589200D01*
X994052Y1603700D02*
G01*
X995851Y1609200D01*
X999452Y1612800D01*
X1003152Y1614600D01*
X1008552Y1614600D01*
X299252Y1548400D02*
G01*
X299252Y1510199D01*
X299252Y1548400D02*
G01*
X311952Y1548400D01*
X317452Y1546500D01*
X321051Y1542899D01*
X322852Y1539300D01*
X324752Y1533800D01*
X324752Y1524700D01*
X322852Y1519300D01*
X321051Y1515599D01*
X317452Y1512000D01*
X311952Y1510199D01*
X299252Y1510199D01*
X336752Y1548400D02*
G01*
X338552Y1546500D01*
X340351Y1548400D01*
X338552Y1550199D01*
X336752Y1548400D01*
X338552Y1535599D02*
G01*
X338552Y1510199D01*
X352352Y1524700D02*
G01*
X374151Y1524700D01*
X374151Y1528400D01*
X372352Y1532000D01*
X370552Y1533800D01*
X366852Y1535599D01*
X361452Y1535599D01*
X357752Y1533800D01*
X354151Y1530199D01*
X352352Y1524700D01*
X352352Y1521100D01*
X354151Y1515599D01*
X357752Y1512000D01*
X361452Y1510199D01*
X366852Y1510199D01*
X370552Y1512000D01*
X374151Y1515599D01*
X386151Y1548400D02*
G01*
X386151Y1510199D01*
X398152Y1524700D02*
G01*
X419951Y1524700D01*
X419951Y1528400D01*
X418152Y1532000D01*
X416352Y1533800D01*
X412752Y1535599D01*
X407252Y1535599D01*
X403651Y1533800D01*
X399951Y1530199D01*
X398152Y1524700D01*
X398152Y1521100D01*
X399951Y1515599D01*
X403651Y1512000D01*
X407252Y1510199D01*
X412752Y1510199D01*
X416352Y1512000D01*
X419951Y1515599D01*
X453751Y1530199D02*
G01*
X450152Y1533800D01*
X446552Y1535599D01*
X441052Y1535599D01*
X437451Y1533800D01*
X433751Y1530199D01*
X431952Y1524700D01*
X431952Y1521100D01*
X433751Y1515599D01*
X437451Y1512000D01*
X441052Y1510199D01*
X446552Y1510199D01*
X450152Y1512000D01*
X453751Y1515599D01*
X471251Y1548400D02*
G01*
X471251Y1517500D01*
X473052Y1512000D01*
X476752Y1510199D01*
X480351Y1510199D01*
X465751Y1535599D02*
G01*
X478552Y1535599D01*
X492352Y1535599D02*
G01*
X492352Y1510199D01*
X492352Y1524700D02*
G01*
X494151Y1530199D01*
X497752Y1533800D01*
X501452Y1535599D01*
X506852Y1535599D01*
X518852Y1548400D02*
G01*
X520751Y1546500D01*
X522552Y1548400D01*
X520751Y1550199D01*
X518852Y1548400D01*
X520751Y1535599D02*
G01*
X520751Y1510199D01*
X556352Y1530199D02*
G01*
X552752Y1533800D01*
X549052Y1535599D01*
X543651Y1535599D01*
X539951Y1533800D01*
X536352Y1530199D01*
X534551Y1524700D01*
X534551Y1521100D01*
X536352Y1515599D01*
X539951Y1512000D01*
X543651Y1510199D01*
X549052Y1510199D01*
X552752Y1512000D01*
X556352Y1515599D01*
X811251Y1553600D02*
G01*
X811251Y1515399D01*
X811251Y1553600D02*
G01*
X827652Y1553600D01*
X833052Y1551700D01*
X834852Y1549900D01*
X836752Y1546300D01*
X836752Y1540800D01*
X834852Y1537200D01*
X833052Y1535399D01*
X827652Y1533600D01*
X811251Y1533600D01*
X848751Y1540800D02*
G01*
X848751Y1515399D01*
X848751Y1529900D02*
G01*
X850552Y1535399D01*
X854151Y1539000D01*
X857752Y1540800D01*
X863251Y1540800D01*
X875252Y1529900D02*
G01*
X897051Y1529900D01*
X897051Y1533600D01*
X895252Y1537200D01*
X893452Y1539000D01*
X889752Y1540800D01*
X884352Y1540800D01*
X880751Y1539000D01*
X877051Y1535399D01*
X875252Y1529900D01*
X875252Y1526300D01*
X877051Y1520800D01*
X880751Y1517200D01*
X884352Y1515399D01*
X889752Y1515399D01*
X893452Y1517200D01*
X897051Y1520800D01*
X909052Y1540800D02*
G01*
X909052Y1502699D01*
X909052Y1535399D02*
G01*
X912752Y1539000D01*
X916352Y1540800D01*
X921752Y1540800D01*
X925452Y1539000D01*
X929052Y1535399D01*
X930851Y1529900D01*
X930851Y1526300D01*
X929052Y1520800D01*
X925452Y1517200D01*
X921752Y1515399D01*
X916352Y1515399D01*
X912752Y1517200D01*
X909052Y1520800D01*
X942851Y1529900D02*
G01*
X964752Y1529900D01*
X964752Y1533600D01*
X962851Y1537200D01*
X961052Y1539000D01*
X957451Y1540800D01*
X951952Y1540800D01*
X948351Y1539000D01*
X944752Y1535399D01*
X942851Y1529900D01*
X942851Y1526300D01*
X944752Y1520800D01*
X948351Y1517200D01*
X951952Y1515399D01*
X957451Y1515399D01*
X961052Y1517200D01*
X964752Y1520800D01*
X998552Y1540800D02*
G01*
X998552Y1511700D01*
X996752Y1506300D01*
X994852Y1504500D01*
X991251Y1502699D01*
X985751Y1502699D01*
X982152Y1504500D01*
X998552Y1535399D02*
G01*
X994852Y1539000D01*
X991251Y1540800D01*
X985751Y1540800D01*
X982152Y1539000D01*
X978552Y1535399D01*
X976752Y1529900D01*
X976752Y1526300D01*
X978552Y1520800D01*
X982152Y1517200D01*
X985751Y1515399D01*
X991251Y1515399D01*
X994852Y1517200D01*
X998552Y1520800D01*
X1038552Y1531700D02*
G01*
X1071251Y1531700D01*
X1111251Y1553600D02*
G01*
X1111251Y1515399D01*
X1111251Y1553600D02*
G01*
X1134852Y1553600D01*
X1111251Y1535399D02*
G01*
X1125751Y1535399D01*
X1146852Y1553600D02*
G01*
X1146852Y1515399D01*
X1146852Y1553600D02*
G01*
X1163251Y1553600D01*
X1168751Y1551700D01*
X1170552Y1549900D01*
X1172352Y1546300D01*
X1172352Y1542699D01*
X1170552Y1539000D01*
X1168751Y1537200D01*
X1163251Y1535399D01*
X1146852Y1535399D01*
X1159652Y1535399D02*
G01*
X1172352Y1515399D01*
X1202552Y1553600D02*
G01*
X1184352Y1528099D01*
X1211651Y1528099D01*
X1202552Y1553600D02*
G01*
X1202552Y1515399D01*
X57452Y1764300D02*
G01*
X57452Y1766100D01*
X59252Y1769700D01*
X61152Y1771500D01*
X64752Y1773400D01*
X72052Y1773400D01*
X75652Y1771500D01*
X77452Y1769700D01*
X79252Y1766100D01*
X79252Y1762500D01*
X77452Y1758800D01*
X73852Y1753400D01*
X55652Y1735199D01*
X81152Y1735199D01*
X60952Y1628400D02*
G01*
X80952Y1628400D01*
X70052Y1613800D01*
X75552Y1613800D01*
X79152Y1612000D01*
X80952Y1610199D01*
X82852Y1604700D01*
X82852Y1601100D01*
X80952Y1595599D01*
X77352Y1592000D01*
X71852Y1590199D01*
X66452Y1590199D01*
X60952Y1592000D01*
X59152Y1593800D01*
X57352Y1597500D01*
X74552Y1465199D02*
G01*
X56352Y1439700D01*
X83652Y1439700D01*
X74552Y1465199D02*
G01*
X74552Y1427000D01*
X337152Y2188400D02*
G01*
X337152Y2150200D01*
X337152Y2188400D02*
G01*
X362652Y2150200D01*
X362652Y2188400D02*
G01*
X362652Y2150200D01*
X389151Y2188400D02*
G01*
X374652Y2150200D01*
X389151Y2188400D02*
G01*
X403651Y2150200D01*
X380052Y2162899D02*
G01*
X398251Y2162899D01*
X415652Y2188400D02*
G01*
X415652Y2150200D01*
X415652Y2188400D02*
G01*
X430252Y2150200D01*
X444752Y2188400D02*
G01*
X430252Y2150200D01*
X444752Y2188400D02*
G01*
X444752Y2150200D01*
X456752Y2188400D02*
G01*
X456752Y2150200D01*
X456752Y2188400D02*
G01*
X480452Y2188400D01*
X456752Y2170200D02*
G01*
X471352Y2170200D01*
X456752Y2150200D02*
G01*
X480452Y2150200D01*
X807252Y2182500D02*
G01*
X807252Y2144300D01*
X807252Y2182500D02*
G01*
X821752Y2144300D01*
X836352Y2182500D02*
G01*
X821752Y2144300D01*
X836352Y2182500D02*
G01*
X836352Y2144300D01*
X862851Y2182500D02*
G01*
X848351Y2144300D01*
X862851Y2182500D02*
G01*
X877451Y2144300D01*
X853751Y2157000D02*
G01*
X871952Y2157000D01*
X902152Y2182500D02*
G01*
X902152Y2144300D01*
X889452Y2182500D02*
G01*
X914852Y2182500D01*
X926852Y2182500D02*
G01*
X926852Y2144300D01*
X926852Y2182500D02*
G01*
X950552Y2182500D01*
X926852Y2164300D02*
G01*
X941452Y2164300D01*
X926852Y2144300D02*
G01*
X950552Y2144300D01*
X962552Y2182500D02*
G01*
X962552Y2144300D01*
X962552Y2182500D02*
G01*
X978852Y2182500D01*
X984352Y2180599D01*
X986151Y2178800D01*
X987952Y2175200D01*
X987952Y2171600D01*
X986151Y2167899D01*
X984352Y2166100D01*
X978852Y2164300D01*
X962552Y2164300D01*
X975252Y2164300D02*
G01*
X987952Y2144300D01*
X999951Y2182500D02*
G01*
X999951Y2144300D01*
X1026552Y2182500D02*
G01*
X1011952Y2144300D01*
X1026552Y2182500D02*
G01*
X1041052Y2144300D01*
X1017451Y2157000D02*
G01*
X1035652Y2157000D01*
X1053052Y2182500D02*
G01*
X1053052Y2144300D01*
X1053052Y2144300D02*
G01*
X1074852Y2144300D01*
X1112352Y2177000D02*
G01*
X1108751Y2180599D01*
X1103251Y2182500D01*
X1095952Y2182500D01*
X1090552Y2180599D01*
X1086852Y2177000D01*
X1086852Y2173400D01*
X1088751Y2169700D01*
X1090552Y2167899D01*
X1094151Y2166100D01*
X1105052Y2162500D01*
X1108751Y2160599D01*
X1110552Y2158800D01*
X1112352Y2155200D01*
X1112352Y2149700D01*
X1108751Y2146100D01*
X1103251Y2144300D01*
X1095952Y2144300D01*
X1090552Y2146100D01*
X1086852Y2149700D01*
X1335751Y2183700D02*
G01*
X1335751Y2145500D01*
X1323052Y2183700D02*
G01*
X1348552Y2183700D01*
X1360552Y2183700D02*
G01*
X1360552Y2145500D01*
X1385952Y2183700D02*
G01*
X1385952Y2145500D01*
X1360552Y2165500D02*
G01*
X1385952Y2165500D01*
X1397952Y2183700D02*
G01*
X1397952Y2145500D01*
X1437252Y2174600D02*
G01*
X1435452Y2178200D01*
X1431752Y2181800D01*
X1428152Y2183700D01*
X1420851Y2183700D01*
X1417252Y2181800D01*
X1413552Y2178200D01*
X1411752Y2174600D01*
X1409951Y2169100D01*
X1409951Y2160000D01*
X1411752Y2154600D01*
X1413552Y2150900D01*
X1417252Y2147300D01*
X1420851Y2145500D01*
X1428152Y2145500D01*
X1431752Y2147300D01*
X1435452Y2150900D01*
X1437252Y2154600D01*
X1449252Y2183700D02*
G01*
X1449252Y2145500D01*
X1474652Y2183700D02*
G01*
X1449252Y2158200D01*
X1458351Y2167300D02*
G01*
X1474652Y2145500D01*
X1486651Y2183700D02*
G01*
X1486651Y2145500D01*
X1486651Y2183700D02*
G01*
X1512152Y2145500D01*
X1512152Y2183700D02*
G01*
X1512152Y2145500D01*
X1524151Y2183700D02*
G01*
X1524151Y2145500D01*
X1524151Y2183700D02*
G01*
X1547752Y2183700D01*
X1524151Y2165500D02*
G01*
X1538651Y2165500D01*
X1524151Y2145500D02*
G01*
X1547752Y2145500D01*
X1585252Y2178200D02*
G01*
X1581552Y2181800D01*
X1576151Y2183700D01*
X1568852Y2183700D01*
X1563452Y2181800D01*
X1559752Y2178200D01*
X1559752Y2174600D01*
X1561552Y2170900D01*
X1563452Y2169100D01*
X1567051Y2167300D01*
X1577952Y2163700D01*
X1581552Y2161800D01*
X1583452Y2160000D01*
X1585252Y2156400D01*
X1585252Y2150900D01*
X1581552Y2147300D01*
X1576151Y2145500D01*
X1568852Y2145500D01*
X1563452Y2147300D01*
X1559752Y2150900D01*
X1622652Y2178200D02*
G01*
X1619052Y2181800D01*
X1613552Y2183700D01*
X1606352Y2183700D01*
X1600851Y2181800D01*
X1597252Y2178200D01*
X1597252Y2174600D01*
X1599052Y2170900D01*
X1600851Y2169100D01*
X1604551Y2167300D01*
X1615452Y2163700D01*
X1619052Y2161800D01*
X1620851Y2160000D01*
X1622652Y2156400D01*
X1622652Y2150900D01*
X1619052Y2147300D01*
X1613552Y2145500D01*
X1606352Y2145500D01*
X1600851Y2147300D01*
X1597252Y2150900D01*
X1402451Y2007300D02*
G01*
X1397051Y2005399D01*
X1393351Y2000000D01*
X1391552Y1990900D01*
X1391552Y1985399D01*
X1393351Y1976400D01*
X1397051Y1970900D01*
X1402451Y1969100D01*
X1406052Y1969100D01*
X1411552Y1970900D01*
X1415152Y1976400D01*
X1417051Y1985399D01*
X1417051Y1990900D01*
X1415152Y2000000D01*
X1411552Y2005399D01*
X1406052Y2007300D01*
X1402451Y2007300D01*
X1430851Y1978200D02*
G01*
X1429052Y1976400D01*
X1430851Y1974500D01*
X1432652Y1976400D01*
X1430851Y1978200D01*
X1466452Y2007300D02*
G01*
X1448251Y2007300D01*
X1446452Y1990900D01*
X1448251Y1992699D01*
X1453751Y1994500D01*
X1459151Y1994500D01*
X1464652Y1992699D01*
X1468251Y1989100D01*
X1470052Y1983600D01*
X1470052Y1980000D01*
X1468251Y1974500D01*
X1464652Y1970900D01*
X1459151Y1969100D01*
X1453751Y1969100D01*
X1448251Y1970900D01*
X1446452Y1972699D01*
X1444652Y1976400D01*
X1482051Y2007300D02*
G01*
X1482051Y1969100D01*
X1482051Y2007300D02*
G01*
X1496651Y1969100D01*
X1511151Y2007300D02*
G01*
X1496651Y1969100D01*
X1511151Y2007300D02*
G01*
X1511151Y1969100D01*
X1523152Y2007300D02*
G01*
X1523152Y1969100D01*
X1535152Y2007300D02*
G01*
X1535152Y1969100D01*
X1535152Y1969100D02*
G01*
X1557051Y1969100D01*
X1391452Y1928099D02*
G01*
X1395052Y1929900D01*
X1400552Y1935399D01*
X1400552Y1897200D01*
X1414352Y1906300D02*
G01*
X1412552Y1904500D01*
X1414352Y1902600D01*
X1416151Y1904500D01*
X1414352Y1906300D01*
X1446352Y1935399D02*
G01*
X1428152Y1909900D01*
X1455452Y1909900D01*
X1446352Y1935399D02*
G01*
X1446352Y1897200D01*
X1467451Y1935399D02*
G01*
X1467451Y1897200D01*
X1467451Y1935399D02*
G01*
X1481952Y1897200D01*
X1496552Y1935399D02*
G01*
X1481952Y1897200D01*
X1496552Y1935399D02*
G01*
X1496552Y1897200D01*
X1508552Y1935399D02*
G01*
X1508552Y1897200D01*
X1520552Y1935399D02*
G01*
X1520552Y1897200D01*
X1520552Y1897200D02*
G01*
X1542352Y1897200D01*
X1403952Y1855199D02*
G01*
X1398452Y1853300D01*
X1396651Y1849700D01*
X1396651Y1846100D01*
X1398452Y1842400D01*
X1402152Y1840599D01*
X1409352Y1838800D01*
X1414852Y1837000D01*
X1418452Y1833300D01*
X1420351Y1829700D01*
X1420351Y1824300D01*
X1418452Y1820599D01*
X1416651Y1818800D01*
X1411251Y1817000D01*
X1403952Y1817000D01*
X1398452Y1818800D01*
X1396651Y1820599D01*
X1394852Y1824300D01*
X1394852Y1829700D01*
X1396651Y1833300D01*
X1400351Y1837000D01*
X1405751Y1838800D01*
X1413052Y1840599D01*
X1416651Y1842400D01*
X1418452Y1846100D01*
X1418452Y1849700D01*
X1416651Y1853300D01*
X1411251Y1855199D01*
X1403952Y1855199D01*
X1434151Y1826100D02*
G01*
X1432352Y1824300D01*
X1434151Y1822400D01*
X1435952Y1824300D01*
X1434151Y1826100D01*
X1449752Y1846100D02*
G01*
X1449752Y1847899D01*
X1451552Y1851500D01*
X1453351Y1853300D01*
X1457051Y1855199D01*
X1464352Y1855199D01*
X1467952Y1853300D01*
X1469752Y1851500D01*
X1471552Y1847899D01*
X1471552Y1844300D01*
X1469752Y1840599D01*
X1466151Y1835199D01*
X1447952Y1817000D01*
X1473351Y1817000D01*
X1485351Y1855199D02*
G01*
X1485351Y1817000D01*
X1485351Y1855199D02*
G01*
X1499951Y1817000D01*
X1514452Y1855199D02*
G01*
X1499951Y1817000D01*
X1514452Y1855199D02*
G01*
X1514452Y1817000D01*
X1526452Y1855199D02*
G01*
X1526452Y1817000D01*
X1538452Y1855199D02*
G01*
X1538452Y1817000D01*
X1538452Y1817000D02*
G01*
X1560351Y1817000D01*
X1405800Y1779239D02*
G01*
X1400300Y1777440D01*
X1396700Y1772040D01*
X1394900Y1762940D01*
X1394900Y1757440D01*
X1396700Y1748340D01*
X1400300Y1742940D01*
X1405800Y1741040D01*
X1409400Y1741040D01*
X1414900Y1742940D01*
X1418499Y1748340D01*
X1420300Y1757440D01*
X1420300Y1762940D01*
X1418499Y1772040D01*
X1414900Y1777440D01*
X1409400Y1779239D01*
X1405800Y1779239D01*
X1434100Y1750140D02*
G01*
X1432300Y1748340D01*
X1434100Y1746540D01*
X1435900Y1748340D01*
X1434100Y1750140D01*
X1473400Y1779239D02*
G01*
X1455199Y1741040D01*
X1447900Y1779239D02*
G01*
X1473400Y1779239D01*
X1485400Y1779239D02*
G01*
X1485400Y1741040D01*
X1485400Y1779239D02*
G01*
X1499900Y1741040D01*
X1514500Y1779239D02*
G01*
X1499900Y1741040D01*
X1514500Y1779239D02*
G01*
X1514500Y1741040D01*
X1526500Y1779239D02*
G01*
X1526500Y1741040D01*
X1538499Y1779239D02*
G01*
X1538499Y1741040D01*
X1538499Y1741040D02*
G01*
X1560300Y1741040D01*
X1413052Y1701500D02*
G01*
X1394852Y1676000D01*
X1422152Y1676000D01*
X1413052Y1701500D02*
G01*
X1413052Y1663300D01*
X1445052Y1701500D02*
G01*
X1439551Y1699600D01*
X1435952Y1694200D01*
X1434151Y1685100D01*
X1434151Y1679600D01*
X1435952Y1670599D01*
X1439551Y1665100D01*
X1445052Y1663300D01*
X1448651Y1663300D01*
X1454151Y1665100D01*
X1457752Y1670599D01*
X1459551Y1679600D01*
X1459551Y1685100D01*
X1457752Y1694200D01*
X1454151Y1699600D01*
X1448651Y1701500D01*
X1445052Y1701500D01*
X1471552Y1701500D02*
G01*
X1471552Y1663300D01*
X1471552Y1701500D02*
G01*
X1486151Y1663300D01*
X1500652Y1701500D02*
G01*
X1486151Y1663300D01*
X1500652Y1701500D02*
G01*
X1500652Y1663300D01*
X1512652Y1701500D02*
G01*
X1512652Y1663300D01*
X1524652Y1701500D02*
G01*
X1524652Y1663300D01*
X1524652Y1663300D02*
G01*
X1546452Y1663300D01*
X1402599Y1628540D02*
G01*
X1397199Y1626739D01*
X1393499Y1621340D01*
X1391700Y1612240D01*
X1391700Y1606739D01*
X1393499Y1597640D01*
X1397199Y1592240D01*
X1402599Y1590340D01*
X1406200Y1590340D01*
X1411700Y1592240D01*
X1415300Y1597640D01*
X1417199Y1606739D01*
X1417199Y1612240D01*
X1415300Y1621340D01*
X1411700Y1626739D01*
X1406200Y1628540D01*
X1402599Y1628540D01*
X1430999Y1599439D02*
G01*
X1429200Y1597640D01*
X1430999Y1595840D01*
X1432800Y1597640D01*
X1430999Y1599439D01*
X1470199Y1628540D02*
G01*
X1452100Y1590340D01*
X1444800Y1628540D02*
G01*
X1470199Y1628540D01*
X1482199Y1628540D02*
G01*
X1482199Y1590340D01*
X1482199Y1628540D02*
G01*
X1496799Y1590340D01*
X1511300Y1628540D02*
G01*
X1496799Y1590340D01*
X1511300Y1628540D02*
G01*
X1511300Y1590340D01*
X1523300Y1628540D02*
G01*
X1523300Y1590340D01*
X1535300Y1628540D02*
G01*
X1535300Y1590340D01*
X1535300Y1590340D02*
G01*
X1557199Y1590340D01*
X1403952Y1546000D02*
G01*
X1398452Y1544100D01*
X1396651Y1540500D01*
X1396651Y1536900D01*
X1398452Y1533200D01*
X1402152Y1531400D01*
X1409352Y1529600D01*
X1414852Y1527800D01*
X1418452Y1524100D01*
X1420351Y1520500D01*
X1420351Y1515100D01*
X1418452Y1511400D01*
X1416651Y1509600D01*
X1411251Y1507800D01*
X1403952Y1507800D01*
X1398452Y1509600D01*
X1396651Y1511400D01*
X1394852Y1515100D01*
X1394852Y1520500D01*
X1396651Y1524100D01*
X1400351Y1527800D01*
X1405751Y1529600D01*
X1413052Y1531400D01*
X1416651Y1533200D01*
X1418452Y1536900D01*
X1418452Y1540500D01*
X1416651Y1544100D01*
X1411251Y1546000D01*
X1403952Y1546000D01*
X1434151Y1516900D02*
G01*
X1432352Y1515100D01*
X1434151Y1513200D01*
X1435952Y1515100D01*
X1434151Y1516900D01*
X1449752Y1536900D02*
G01*
X1449752Y1538700D01*
X1451552Y1542300D01*
X1453351Y1544100D01*
X1457051Y1546000D01*
X1464352Y1546000D01*
X1467952Y1544100D01*
X1469752Y1542300D01*
X1471552Y1538700D01*
X1471552Y1535100D01*
X1469752Y1531400D01*
X1466151Y1526000D01*
X1447952Y1507800D01*
X1473351Y1507800D01*
X1485351Y1546000D02*
G01*
X1485351Y1507800D01*
X1485351Y1546000D02*
G01*
X1499951Y1507800D01*
X1514452Y1546000D02*
G01*
X1499951Y1507800D01*
X1514452Y1546000D02*
G01*
X1514452Y1507800D01*
X1526452Y1546000D02*
G01*
X1526452Y1507800D01*
X1538452Y1546000D02*
G01*
X1538452Y1507800D01*
X1538452Y1507800D02*
G01*
X1560351Y1507800D01*
X1400351Y1457200D02*
G01*
X1403952Y1459000D01*
X1409452Y1464500D01*
X1409452Y1426300D01*
X1423251Y1435399D02*
G01*
X1421452Y1433600D01*
X1423251Y1431700D01*
X1425052Y1433600D01*
X1423251Y1435399D01*
X1455252Y1464500D02*
G01*
X1437051Y1439000D01*
X1464352Y1439000D01*
X1455252Y1464500D02*
G01*
X1455252Y1426300D01*
X1476352Y1464500D02*
G01*
X1476352Y1426300D01*
X1476352Y1464500D02*
G01*
X1490851Y1426300D01*
X1505452Y1464500D02*
G01*
X1490851Y1426300D01*
X1505452Y1464500D02*
G01*
X1505452Y1426300D01*
X1517451Y1464500D02*
G01*
X1517451Y1426300D01*
X1529452Y1464500D02*
G01*
X1529452Y1426300D01*
X1529452Y1426300D02*
G01*
X1551251Y1426300D01*
X1403852Y1386700D02*
G01*
X1398452Y1384800D01*
X1394752Y1379400D01*
X1392952Y1370300D01*
X1392952Y1364800D01*
X1394752Y1355800D01*
X1398452Y1350300D01*
X1403852Y1348500D01*
X1407451Y1348500D01*
X1412952Y1350300D01*
X1416552Y1355800D01*
X1418452Y1364800D01*
X1418452Y1370300D01*
X1416552Y1379400D01*
X1412952Y1384800D01*
X1407451Y1386700D01*
X1403852Y1386700D01*
X1432252Y1357600D02*
G01*
X1430452Y1355800D01*
X1432252Y1353900D01*
X1434052Y1355800D01*
X1432252Y1357600D01*
X1467851Y1386700D02*
G01*
X1449652Y1386700D01*
X1447851Y1370300D01*
X1449652Y1372100D01*
X1455152Y1373900D01*
X1460552Y1373900D01*
X1466052Y1372100D01*
X1469652Y1368500D01*
X1471452Y1363000D01*
X1471452Y1359400D01*
X1469652Y1353900D01*
X1466052Y1350300D01*
X1460552Y1348500D01*
X1455152Y1348500D01*
X1449652Y1350300D01*
X1447851Y1352100D01*
X1446052Y1355800D01*
X1483452Y1386700D02*
G01*
X1483452Y1348500D01*
X1483452Y1386700D02*
G01*
X1498052Y1348500D01*
X1512552Y1386700D02*
G01*
X1498052Y1348500D01*
X1512552Y1386700D02*
G01*
X1512552Y1348500D01*
X1524551Y1386700D02*
G01*
X1524551Y1348500D01*
X1536552Y1386700D02*
G01*
X1536552Y1348500D01*
X1536552Y1348500D02*
G01*
X1558452Y1348500D01*
X1822152Y2171900D02*
G01*
X1822152Y2133700D01*
X1822152Y2171900D02*
G01*
X1834852Y2171900D01*
X1840351Y2170000D01*
X1843952Y2166400D01*
X1845751Y2162800D01*
X1847652Y2157300D01*
X1847652Y2148200D01*
X1845751Y2142800D01*
X1843952Y2139100D01*
X1840351Y2135500D01*
X1834852Y2133700D01*
X1822152Y2133700D01*
X1859652Y2171900D02*
G01*
X1859652Y2133700D01*
X1877752Y2159100D02*
G01*
X1859652Y2141000D01*
X1866852Y2148200D02*
G01*
X1879652Y2133700D01*
X1802952Y2006800D02*
G01*
X1822952Y2006800D01*
X1812051Y1992200D01*
X1817552Y1992200D01*
X1821151Y1990399D01*
X1822952Y1988600D01*
X1824852Y1983099D01*
X1824852Y1979500D01*
X1822952Y1974000D01*
X1819352Y1970399D01*
X1813852Y1968600D01*
X1808452Y1968600D01*
X1802952Y1970399D01*
X1801151Y1972200D01*
X1799352Y1975900D01*
X1838651Y1977699D02*
G01*
X1836852Y1975900D01*
X1838651Y1974000D01*
X1840452Y1975900D01*
X1838651Y1977699D01*
X1874252Y2006800D02*
G01*
X1856052Y2006800D01*
X1854252Y1990399D01*
X1856052Y1992200D01*
X1861552Y1994000D01*
X1866952Y1994000D01*
X1872451Y1992200D01*
X1876052Y1988600D01*
X1877851Y1983099D01*
X1877851Y1979500D01*
X1876052Y1974000D01*
X1872451Y1970399D01*
X1866952Y1968600D01*
X1861552Y1968600D01*
X1856052Y1970399D01*
X1854252Y1972200D01*
X1852451Y1975900D01*
X1820152Y1851500D02*
G01*
X1801952Y1826000D01*
X1829252Y1826000D01*
X1820152Y1851500D02*
G01*
X1820152Y1813300D01*
X1843052Y1822400D02*
G01*
X1841251Y1820599D01*
X1843052Y1818700D01*
X1844852Y1820599D01*
X1843052Y1822400D01*
X1858651Y1842400D02*
G01*
X1858651Y1844200D01*
X1860452Y1847800D01*
X1862352Y1849600D01*
X1865952Y1851500D01*
X1873251Y1851500D01*
X1876852Y1849600D01*
X1878651Y1847800D01*
X1880452Y1844200D01*
X1880452Y1840599D01*
X1878651Y1836900D01*
X1875052Y1831500D01*
X1856852Y1813300D01*
X1882352Y1813300D01*
X1817552Y1701500D02*
G01*
X1799352Y1676000D01*
X1826651Y1676000D01*
X1817552Y1701500D02*
G01*
X1817552Y1663300D01*
X1840452Y1672400D02*
G01*
X1838651Y1670599D01*
X1840452Y1668700D01*
X1842252Y1670599D01*
X1840452Y1672400D01*
X1856052Y1692400D02*
G01*
X1856052Y1694200D01*
X1857851Y1697800D01*
X1859752Y1699600D01*
X1863351Y1701500D01*
X1870652Y1701500D01*
X1874252Y1699600D01*
X1876052Y1697800D01*
X1877851Y1694200D01*
X1877851Y1690599D01*
X1876052Y1686900D01*
X1872451Y1681500D01*
X1854252Y1663300D01*
X1879752Y1663300D01*
X1822851Y1543600D02*
G01*
X1804652Y1518099D01*
X1831952Y1518099D01*
X1822851Y1543600D02*
G01*
X1822851Y1505399D01*
X1845751Y1514500D02*
G01*
X1843952Y1512699D01*
X1845751Y1510800D01*
X1847552Y1512699D01*
X1845751Y1514500D01*
X1861352Y1534500D02*
G01*
X1861352Y1536300D01*
X1863152Y1539900D01*
X1865052Y1541700D01*
X1868651Y1543600D01*
X1875952Y1543600D01*
X1879551Y1541700D01*
X1881352Y1539900D01*
X1883152Y1536300D01*
X1883152Y1532699D01*
X1881352Y1529000D01*
X1877752Y1523600D01*
X1859551Y1505399D01*
X1885052Y1505399D01*
X1821452Y1383099D02*
G01*
X1841452Y1383099D01*
X1830552Y1368500D01*
X1836052Y1368500D01*
X1839652Y1366700D01*
X1841452Y1364900D01*
X1843351Y1359400D01*
X1843351Y1355800D01*
X1841452Y1350300D01*
X1837851Y1346700D01*
X1832352Y1344900D01*
X1826952Y1344900D01*
X1821452Y1346700D01*
X1819652Y1348500D01*
X1817851Y1352200D01*
X1857152Y1354000D02*
G01*
X1855351Y1352200D01*
X1857152Y1350300D01*
X1858952Y1352200D01*
X1857152Y1354000D01*
X1892752Y1383099D02*
G01*
X1874551Y1383099D01*
X1872752Y1366700D01*
X1874551Y1368500D01*
X1880052Y1370300D01*
X1885452Y1370300D01*
X1890952Y1368500D01*
X1894551Y1364900D01*
X1896352Y1359400D01*
X1896352Y1355800D01*
X1894551Y1350300D01*
X1890952Y1346700D01*
X1885452Y1344900D01*
X1880052Y1344900D01*
X1874551Y1346700D01*
X1872752Y1348500D01*
X1870952Y1352200D01*
X847752Y1457800D02*
G01*
X845952Y1461400D01*
X842252Y1465000D01*
X838651Y1466900D01*
X831352Y1466900D01*
X827752Y1465000D01*
X824052Y1461400D01*
X822252Y1457800D01*
X820452Y1452300D01*
X820452Y1443200D01*
X822252Y1437800D01*
X824052Y1434100D01*
X827752Y1430500D01*
X831352Y1428700D01*
X838651Y1428700D01*
X842252Y1430500D01*
X845952Y1434100D01*
X847752Y1437800D01*
X868852Y1454100D02*
G01*
X865152Y1452300D01*
X861552Y1448700D01*
X859752Y1443200D01*
X859752Y1439600D01*
X861552Y1434100D01*
X865152Y1430500D01*
X868852Y1428700D01*
X874252Y1428700D01*
X877952Y1430500D01*
X881552Y1434100D01*
X883351Y1439600D01*
X883351Y1443200D01*
X881552Y1448700D01*
X877952Y1452300D01*
X874252Y1454100D01*
X868852Y1454100D01*
X895351Y1454100D02*
G01*
X895351Y1416000D01*
X895351Y1448700D02*
G01*
X898952Y1452300D01*
X902652Y1454100D01*
X908052Y1454100D01*
X911752Y1452300D01*
X915351Y1448700D01*
X917152Y1443200D01*
X917152Y1439600D01*
X915351Y1434100D01*
X911752Y1430500D01*
X908052Y1428700D01*
X902652Y1428700D01*
X898952Y1430500D01*
X895351Y1434100D01*
X929151Y1454100D02*
G01*
X929151Y1416000D01*
X929151Y1448700D02*
G01*
X932851Y1452300D01*
X936452Y1454100D01*
X941952Y1454100D01*
X945552Y1452300D01*
X949151Y1448700D01*
X950952Y1443200D01*
X950952Y1439600D01*
X949151Y1434100D01*
X945552Y1430500D01*
X941952Y1428700D01*
X936452Y1428700D01*
X932851Y1430500D01*
X929151Y1434100D01*
X962952Y1443200D02*
G01*
X984852Y1443200D01*
X984852Y1446900D01*
X982952Y1450500D01*
X981151Y1452300D01*
X977552Y1454100D01*
X972051Y1454100D01*
X968452Y1452300D01*
X964852Y1448700D01*
X962952Y1443200D01*
X962952Y1439600D01*
X964852Y1434100D01*
X968452Y1430500D01*
X972051Y1428700D01*
X977552Y1428700D01*
X981151Y1430500D01*
X984852Y1434100D01*
X996852Y1454100D02*
G01*
X996852Y1428700D01*
X996852Y1443200D02*
G01*
X998651Y1448700D01*
X1002252Y1452300D01*
X1005952Y1454100D01*
X1011352Y1454100D01*
X849652Y1385500D02*
G01*
X845952Y1389100D01*
X840552Y1391000D01*
X833251Y1391000D01*
X827752Y1389100D01*
X824151Y1385500D01*
X824151Y1381900D01*
X825952Y1378200D01*
X827752Y1376400D01*
X831452Y1374600D01*
X842352Y1371000D01*
X845952Y1369100D01*
X847752Y1367300D01*
X849652Y1363700D01*
X849652Y1358200D01*
X845952Y1354600D01*
X840552Y1352800D01*
X833251Y1352800D01*
X827752Y1354600D01*
X824151Y1358200D01*
X870652Y1378200D02*
G01*
X867051Y1376400D01*
X863452Y1372800D01*
X861651Y1367300D01*
X861651Y1363700D01*
X863452Y1358200D01*
X867051Y1354600D01*
X870652Y1352800D01*
X876151Y1352800D01*
X879752Y1354600D01*
X883452Y1358200D01*
X885252Y1363700D01*
X885252Y1367300D01*
X883452Y1372800D01*
X879752Y1376400D01*
X876151Y1378200D01*
X870652Y1378200D01*
X897252Y1391000D02*
G01*
X897252Y1352800D01*
X931052Y1391000D02*
G01*
X931052Y1352800D01*
X931052Y1372800D02*
G01*
X927451Y1376400D01*
X923751Y1378200D01*
X918351Y1378200D01*
X914652Y1376400D01*
X911052Y1372800D01*
X909252Y1367300D01*
X909252Y1363700D01*
X911052Y1358200D01*
X914652Y1354600D01*
X918351Y1352800D01*
X923751Y1352800D01*
X927451Y1354600D01*
X931052Y1358200D01*
X943052Y1367300D02*
G01*
X964852Y1367300D01*
X964852Y1371000D01*
X963052Y1374600D01*
X961251Y1376400D01*
X957652Y1378200D01*
X952152Y1378200D01*
X948552Y1376400D01*
X944852Y1372800D01*
X943052Y1367300D01*
X943052Y1363700D01*
X944852Y1358200D01*
X948552Y1354600D01*
X952152Y1352800D01*
X957652Y1352800D01*
X961251Y1354600D01*
X964852Y1358200D01*
X976852Y1378200D02*
G01*
X976852Y1352800D01*
X976852Y1367300D02*
G01*
X978651Y1372800D01*
X982352Y1376400D01*
X985952Y1378200D01*
X991452Y1378200D01*
X1031452Y1378200D02*
G01*
X1031452Y1352800D01*
X1031452Y1367300D02*
G01*
X1033251Y1372800D01*
X1036852Y1376400D01*
X1040552Y1378200D01*
X1045952Y1378200D01*
X1057952Y1367300D02*
G01*
X1079752Y1367300D01*
X1079752Y1371000D01*
X1077952Y1374600D01*
X1076151Y1376400D01*
X1072552Y1378200D01*
X1067051Y1378200D01*
X1063452Y1376400D01*
X1059752Y1372800D01*
X1057952Y1367300D01*
X1057952Y1363700D01*
X1059752Y1358200D01*
X1063452Y1354600D01*
X1067051Y1352800D01*
X1072552Y1352800D01*
X1076151Y1354600D01*
X1079752Y1358200D01*
X1111752Y1372800D02*
G01*
X1109951Y1376400D01*
X1104551Y1378200D01*
X1099052Y1378200D01*
X1093651Y1376400D01*
X1091752Y1372800D01*
X1093651Y1369100D01*
X1097252Y1367300D01*
X1106352Y1365500D01*
X1109951Y1363700D01*
X1111752Y1360100D01*
X1111752Y1358200D01*
X1109951Y1354600D01*
X1104551Y1352800D01*
X1099052Y1352800D01*
X1093651Y1354600D01*
X1091752Y1358200D01*
X1123751Y1391000D02*
G01*
X1125652Y1389100D01*
X1127451Y1391000D01*
X1125652Y1392800D01*
X1123751Y1391000D01*
X1125652Y1378200D02*
G01*
X1125652Y1352800D01*
X1159452Y1372800D02*
G01*
X1157652Y1376400D01*
X1152152Y1378200D01*
X1146651Y1378200D01*
X1141251Y1376400D01*
X1139452Y1372800D01*
X1141251Y1369100D01*
X1144852Y1367300D01*
X1153952Y1365500D01*
X1157652Y1363700D01*
X1159452Y1360100D01*
X1159452Y1358200D01*
X1157652Y1354600D01*
X1152152Y1352800D01*
X1146651Y1352800D01*
X1141251Y1354600D01*
X1139452Y1358200D01*
X1176852Y1391000D02*
G01*
X1176852Y1360100D01*
X1178651Y1354600D01*
X1182352Y1352800D01*
X1185952Y1352800D01*
X1171452Y1378200D02*
G01*
X1184151Y1378200D01*
X834852Y2005900D02*
G01*
X831151Y2009500D01*
X825751Y2011400D01*
X818452Y2011400D01*
X812952Y2009500D01*
X809352Y2005900D01*
X809352Y2002300D01*
X811151Y1998600D01*
X812952Y1996800D01*
X816651Y1995000D01*
X827552Y1991400D01*
X831151Y1989500D01*
X832952Y1987699D01*
X834852Y1984100D01*
X834852Y1978600D01*
X831151Y1975000D01*
X825751Y1973200D01*
X818452Y1973200D01*
X812952Y1975000D01*
X809352Y1978600D01*
X855851Y1998600D02*
G01*
X852252Y1996800D01*
X848651Y1993200D01*
X846852Y1987699D01*
X846852Y1984100D01*
X848651Y1978600D01*
X852252Y1975000D01*
X855851Y1973200D01*
X861352Y1973200D01*
X864951Y1975000D01*
X868651Y1978600D01*
X870452Y1984100D01*
X870452Y1987699D01*
X868651Y1993200D01*
X864951Y1996800D01*
X861352Y1998600D01*
X855851Y1998600D01*
X882451Y2011400D02*
G01*
X882451Y1973200D01*
X916251Y2011400D02*
G01*
X916251Y1973200D01*
X916251Y1993200D02*
G01*
X912652Y1996800D01*
X908952Y1998600D01*
X903552Y1998600D01*
X899852Y1996800D01*
X896251Y1993200D01*
X894452Y1987699D01*
X894452Y1984100D01*
X896251Y1978600D01*
X899852Y1975000D01*
X903552Y1973200D01*
X908952Y1973200D01*
X912652Y1975000D01*
X916251Y1978600D01*
X928251Y1987699D02*
G01*
X950052Y1987699D01*
X950052Y1991400D01*
X948251Y1995000D01*
X946452Y1996800D01*
X942851Y1998600D01*
X937352Y1998600D01*
X933751Y1996800D01*
X930052Y1993200D01*
X928251Y1987699D01*
X928251Y1984100D01*
X930052Y1978600D01*
X933751Y1975000D01*
X937352Y1973200D01*
X942851Y1973200D01*
X946452Y1975000D01*
X950052Y1978600D01*
X962051Y1998600D02*
G01*
X962051Y1973200D01*
X962051Y1987699D02*
G01*
X963852Y1993200D01*
X967552Y1996800D01*
X971151Y1998600D01*
X976651Y1998600D01*
X1016651Y1998600D02*
G01*
X1016651Y1973200D01*
X1016651Y1987699D02*
G01*
X1018452Y1993200D01*
X1022051Y1996800D01*
X1025751Y1998600D01*
X1031151Y1998600D01*
X1043152Y1987699D02*
G01*
X1064951Y1987699D01*
X1064951Y1991400D01*
X1063152Y1995000D01*
X1061352Y1996800D01*
X1057752Y1998600D01*
X1052252Y1998600D01*
X1048651Y1996800D01*
X1044951Y1993200D01*
X1043152Y1987699D01*
X1043152Y1984100D01*
X1044951Y1978600D01*
X1048651Y1975000D01*
X1052252Y1973200D01*
X1057752Y1973200D01*
X1061352Y1975000D01*
X1064951Y1978600D01*
X1096952Y1993200D02*
G01*
X1095152Y1996800D01*
X1089752Y1998600D01*
X1084252Y1998600D01*
X1078852Y1996800D01*
X1076952Y1993200D01*
X1078852Y1989500D01*
X1082451Y1987699D01*
X1091552Y1985900D01*
X1095152Y1984100D01*
X1096952Y1980500D01*
X1096952Y1978600D01*
X1095152Y1975000D01*
X1089752Y1973200D01*
X1084252Y1973200D01*
X1078852Y1975000D01*
X1076952Y1978600D01*
X1108952Y2011400D02*
G01*
X1110851Y2009500D01*
X1112652Y2011400D01*
X1110851Y2013200D01*
X1108952Y2011400D01*
X1110851Y1998600D02*
G01*
X1110851Y1973200D01*
X1144652Y1993200D02*
G01*
X1142851Y1996800D01*
X1137352Y1998600D01*
X1131852Y1998600D01*
X1126452Y1996800D01*
X1124652Y1993200D01*
X1126452Y1989500D01*
X1130052Y1987699D01*
X1139151Y1985900D01*
X1142851Y1984100D01*
X1144652Y1980500D01*
X1144652Y1978600D01*
X1142851Y1975000D01*
X1137352Y1973200D01*
X1131852Y1973200D01*
X1126452Y1975000D01*
X1124652Y1978600D01*
X1162051Y2011400D02*
G01*
X1162051Y1980500D01*
X1163852Y1975000D01*
X1167552Y1973200D01*
X1171151Y1973200D01*
X1156651Y1998600D02*
G01*
X1169352Y1998600D01*
X2598762Y2189510D02*
G01*
X2598762Y2151410D01*
X2598762Y2189510D02*
G01*
X2622462Y2189510D01*
X2598762Y2171410D02*
G01*
X2613362Y2171410D01*
X2656262Y2176810D02*
G01*
X2656262Y2151410D01*
X2656262Y2171410D02*
G01*
X2652662Y2175010D01*
X2648962Y2176810D01*
X2643561Y2176810D01*
X2639861Y2175010D01*
X2636262Y2171410D01*
X2634461Y2165910D01*
X2634461Y2162310D01*
X2636262Y2156810D01*
X2639861Y2153210D01*
X2643561Y2151410D01*
X2648962Y2151410D01*
X2652662Y2153210D01*
X2656262Y2156810D01*
X2668261Y2189510D02*
G01*
X2668261Y2151410D01*
X2668261Y2171410D02*
G01*
X2671862Y2175010D01*
X2675562Y2176810D01*
X2680962Y2176810D01*
X2684662Y2175010D01*
X2688261Y2171410D01*
X2690062Y2165910D01*
X2690062Y2162310D01*
X2688261Y2156810D01*
X2684662Y2153210D01*
X2680962Y2151410D01*
X2675562Y2151410D01*
X2671862Y2153210D01*
X2668261Y2156810D01*
X2702062Y2176810D02*
G01*
X2702062Y2151410D01*
X2702062Y2165910D02*
G01*
X2703862Y2171410D01*
X2707562Y2175010D01*
X2711161Y2176810D01*
X2716662Y2176810D01*
X2728661Y2189510D02*
G01*
X2730462Y2187710D01*
X2732262Y2189510D01*
X2730462Y2191410D01*
X2728661Y2189510D01*
X2730462Y2176810D02*
G01*
X2730462Y2151410D01*
X2766061Y2171410D02*
G01*
X2762462Y2175010D01*
X2758762Y2176810D01*
X2753362Y2176810D01*
X2749762Y2175010D01*
X2746061Y2171410D01*
X2744262Y2165910D01*
X2744262Y2162310D01*
X2746061Y2156810D01*
X2749762Y2153210D01*
X2753362Y2151410D01*
X2758762Y2151410D01*
X2762462Y2153210D01*
X2766061Y2156810D01*
X2799861Y2176810D02*
G01*
X2799861Y2151410D01*
X2799861Y2171410D02*
G01*
X2796262Y2175010D01*
X2792662Y2176810D01*
X2787162Y2176810D01*
X2783561Y2175010D01*
X2779861Y2171410D01*
X2778062Y2165910D01*
X2778062Y2162310D01*
X2779861Y2156810D01*
X2783561Y2153210D01*
X2787162Y2151410D01*
X2792662Y2151410D01*
X2796262Y2153210D01*
X2799861Y2156810D01*
X2817361Y2189510D02*
G01*
X2817361Y2158610D01*
X2819162Y2153210D01*
X2822761Y2151410D01*
X2826462Y2151410D01*
X2811862Y2176810D02*
G01*
X2824662Y2176810D01*
X2838462Y2189510D02*
G01*
X2840261Y2187710D01*
X2842062Y2189510D01*
X2840261Y2191410D01*
X2838462Y2189510D01*
X2840261Y2176810D02*
G01*
X2840261Y2151410D01*
X2863161Y2176810D02*
G01*
X2859562Y2175010D01*
X2855862Y2171410D01*
X2854061Y2165910D01*
X2854061Y2162310D01*
X2855862Y2156810D01*
X2859562Y2153210D01*
X2863161Y2151410D01*
X2868661Y2151410D01*
X2872262Y2153210D01*
X2875862Y2156810D01*
X2877761Y2162310D01*
X2877761Y2165910D01*
X2875862Y2171410D01*
X2872262Y2175010D01*
X2868661Y2176810D01*
X2863161Y2176810D01*
X2889762Y2176810D02*
G01*
X2889762Y2151410D01*
X2889762Y2169510D02*
G01*
X2895162Y2175010D01*
X2898762Y2176810D01*
X2904262Y2176810D01*
X2907862Y2175010D01*
X2909762Y2169510D01*
X2909762Y2151410D01*
X2949762Y2189510D02*
G01*
X2949762Y2151410D01*
X2949762Y2189510D02*
G01*
X2975162Y2151410D01*
X2975162Y2189510D02*
G01*
X2975162Y2151410D01*
X2996262Y2176810D02*
G01*
X2992662Y2175010D01*
X2988962Y2171410D01*
X2987162Y2165910D01*
X2987162Y2162310D01*
X2988962Y2156810D01*
X2992662Y2153210D01*
X2996262Y2151410D01*
X3001762Y2151410D01*
X3005362Y2153210D01*
X3008962Y2156810D01*
X3010761Y2162310D01*
X3010761Y2165910D01*
X3008962Y2171410D01*
X3005362Y2175010D01*
X3001762Y2176810D01*
X2996262Y2176810D01*
X3028261Y2189510D02*
G01*
X3028261Y2158610D01*
X3030062Y2153210D01*
X3033762Y2151410D01*
X3037361Y2151410D01*
X3022761Y2176810D02*
G01*
X3035562Y2176810D01*
X3049362Y2165910D02*
G01*
X3071161Y2165910D01*
X3071161Y2169510D01*
X3069362Y2173210D01*
X3067562Y2175010D01*
X3063862Y2176810D01*
X3058462Y2176810D01*
X3054762Y2175010D01*
X3051161Y2171410D01*
X3049362Y2165910D01*
X3049362Y2162310D01*
X3051161Y2156810D01*
X3054762Y2153210D01*
X3058462Y2151410D01*
X3063862Y2151410D01*
X3067562Y2153210D01*
X3071161Y2156810D01*
X3103161Y2171410D02*
G01*
X3101362Y2175010D01*
X3095862Y2176810D01*
X3090462Y2176810D01*
X3084962Y2175010D01*
X3083161Y2171410D01*
X3084962Y2167710D01*
X3088661Y2165910D01*
X3097761Y2164110D01*
X3101362Y2162310D01*
X3103161Y2158610D01*
X3103161Y2156810D01*
X3101362Y2153210D01*
X3095862Y2151410D01*
X3090462Y2151410D01*
X3084962Y2153210D01*
X3083161Y2156810D01*
X2609400Y2059940D02*
G01*
X2612999Y2061840D01*
X2618499Y2067240D01*
X2618499Y2029040D01*
X2632300Y2038140D02*
G01*
X2630499Y2036340D01*
X2632300Y2034540D01*
X2634100Y2036340D01*
X2632300Y2038140D01*
X2674100Y2067240D02*
G01*
X2674100Y2029040D01*
X2674100Y2067240D02*
G01*
X2690499Y2067240D01*
X2695999Y2065440D01*
X2697800Y2063640D01*
X2699600Y2059940D01*
X2699600Y2056340D01*
X2697800Y2052740D01*
X2695999Y2050840D01*
X2690499Y2049040D01*
X2674100Y2049040D02*
G01*
X2690499Y2049040D01*
X2695999Y2047240D01*
X2697800Y2045440D01*
X2699600Y2041840D01*
X2699600Y2036340D01*
X2697800Y2032740D01*
X2695999Y2030840D01*
X2690499Y2029040D01*
X2674100Y2029040D01*
X2720700Y2054540D02*
G01*
X2717000Y2052740D01*
X2713400Y2049040D01*
X2711600Y2043640D01*
X2711600Y2039940D01*
X2713400Y2034540D01*
X2717000Y2030840D01*
X2720700Y2029040D01*
X2726100Y2029040D01*
X2729800Y2030840D01*
X2733400Y2034540D01*
X2735200Y2039940D01*
X2735200Y2043640D01*
X2733400Y2049040D01*
X2729800Y2052740D01*
X2726100Y2054540D01*
X2720700Y2054540D01*
X2769000Y2054540D02*
G01*
X2769000Y2029040D01*
X2769000Y2049040D02*
G01*
X2765400Y2052740D01*
X2761799Y2054540D01*
X2756300Y2054540D01*
X2752700Y2052740D01*
X2749000Y2049040D01*
X2747199Y2043640D01*
X2747199Y2039940D01*
X2749000Y2034540D01*
X2752700Y2030840D01*
X2756300Y2029040D01*
X2761799Y2029040D01*
X2765400Y2030840D01*
X2769000Y2034540D01*
X2780999Y2054540D02*
G01*
X2780999Y2029040D01*
X2780999Y2043640D02*
G01*
X2782900Y2049040D01*
X2786500Y2052740D01*
X2790099Y2054540D01*
X2795599Y2054540D01*
X2829400Y2067240D02*
G01*
X2829400Y2029040D01*
X2829400Y2049040D02*
G01*
X2825800Y2052740D01*
X2822100Y2054540D01*
X2816700Y2054540D01*
X2812999Y2052740D01*
X2809400Y2049040D01*
X2807599Y2043640D01*
X2807599Y2039940D01*
X2809400Y2034540D01*
X2812999Y2030840D01*
X2816700Y2029040D01*
X2822100Y2029040D01*
X2825800Y2030840D01*
X2829400Y2034540D01*
X2874900Y2067240D02*
G01*
X2874900Y2036340D01*
X2876700Y2030840D01*
X2880300Y2029040D01*
X2884000Y2029040D01*
X2869400Y2054540D02*
G01*
X2882100Y2054540D01*
X2895999Y2067240D02*
G01*
X2895999Y2029040D01*
X2895999Y2047240D02*
G01*
X2901399Y2052740D01*
X2905000Y2054540D01*
X2910499Y2054540D01*
X2914100Y2052740D01*
X2915999Y2047240D01*
X2915999Y2029040D01*
X2927999Y2067240D02*
G01*
X2929800Y2065440D01*
X2931600Y2067240D01*
X2929800Y2069040D01*
X2927999Y2067240D01*
X2929800Y2054540D02*
G01*
X2929800Y2029040D01*
X2965400Y2049040D02*
G01*
X2961799Y2052740D01*
X2958099Y2054540D01*
X2952700Y2054540D01*
X2949000Y2052740D01*
X2945400Y2049040D01*
X2943600Y2043640D01*
X2943600Y2039940D01*
X2945400Y2034540D01*
X2949000Y2030840D01*
X2952700Y2029040D01*
X2958099Y2029040D01*
X2961799Y2030840D01*
X2965400Y2034540D01*
X2977400Y2067240D02*
G01*
X2977400Y2029040D01*
X2995599Y2054540D02*
G01*
X2977400Y2036340D01*
X2984699Y2043640D02*
G01*
X2997400Y2029040D01*
X3009400Y2054540D02*
G01*
X3009400Y2029040D01*
X3009400Y2047240D02*
G01*
X3014900Y2052740D01*
X3018499Y2054540D01*
X3024000Y2054540D01*
X3027599Y2052740D01*
X3029400Y2047240D01*
X3029400Y2029040D01*
X3041399Y2043640D02*
G01*
X3063200Y2043640D01*
X3063200Y2047240D01*
X3061399Y2050840D01*
X3059600Y2052740D01*
X3055999Y2054540D01*
X3050499Y2054540D01*
X3046900Y2052740D01*
X3043200Y2049040D01*
X3041399Y2043640D01*
X3041399Y2039940D01*
X3043200Y2034540D01*
X3046900Y2030840D01*
X3050499Y2029040D01*
X3055999Y2029040D01*
X3059600Y2030840D01*
X3063200Y2034540D01*
X3095200Y2049040D02*
G01*
X3093400Y2052740D01*
X3087999Y2054540D01*
X3082500Y2054540D01*
X3077000Y2052740D01*
X3075200Y2049040D01*
X3077000Y2045440D01*
X3080700Y2043640D01*
X3089800Y2041840D01*
X3093400Y2039940D01*
X3095200Y2036340D01*
X3095200Y2034540D01*
X3093400Y2030840D01*
X3087999Y2029040D01*
X3082500Y2029040D01*
X3077000Y2030840D01*
X3075200Y2034540D01*
X3127199Y2049040D02*
G01*
X3125400Y2052740D01*
X3120000Y2054540D01*
X3114500Y2054540D01*
X3109000Y2052740D01*
X3107199Y2049040D01*
X3109000Y2045440D01*
X3112700Y2043640D01*
X3121799Y2041840D01*
X3125400Y2039940D01*
X3127199Y2036340D01*
X3127199Y2034540D01*
X3125400Y2030840D01*
X3120000Y2029040D01*
X3114500Y2029040D01*
X3109000Y2030840D01*
X3107199Y2034540D01*
X3167199Y2050840D02*
G01*
X3200000Y2050840D01*
X3167199Y2039940D02*
G01*
X3200000Y2039940D01*
X3250900Y2067240D02*
G01*
X3245400Y2065440D01*
X3241799Y2059940D01*
X3240000Y2050840D01*
X3240000Y2045440D01*
X3241799Y2036340D01*
X3245400Y2030840D01*
X3250900Y2029040D01*
X3254500Y2029040D01*
X3260000Y2030840D01*
X3263600Y2036340D01*
X3265400Y2045440D01*
X3265400Y2050840D01*
X3263600Y2059940D01*
X3260000Y2065440D01*
X3254500Y2067240D01*
X3250900Y2067240D01*
X3279200Y2038140D02*
G01*
X3277400Y2036340D01*
X3279200Y2034540D01*
X3280999Y2036340D01*
X3279200Y2038140D01*
X3304000Y2067240D02*
G01*
X3298499Y2065440D01*
X3294900Y2059940D01*
X3292999Y2050840D01*
X3292999Y2045440D01*
X3294900Y2036340D01*
X3298499Y2030840D01*
X3304000Y2029040D01*
X3307599Y2029040D01*
X3312999Y2030840D01*
X3316700Y2036340D01*
X3318499Y2045440D01*
X3318499Y2050840D01*
X3316700Y2059940D01*
X3312999Y2065440D01*
X3307599Y2067240D01*
X3304000Y2067240D01*
X3352300Y2061840D02*
G01*
X3350499Y2065440D01*
X3345000Y2067240D01*
X3341399Y2067240D01*
X3335999Y2065440D01*
X3332300Y2059940D01*
X3330499Y2050840D01*
X3330499Y2041840D01*
X3332300Y2034540D01*
X3335999Y2030840D01*
X3341399Y2029040D01*
X3343200Y2029040D01*
X3348700Y2030840D01*
X3352300Y2034540D01*
X3354100Y2039940D01*
X3354100Y2041840D01*
X3352300Y2047240D01*
X3348700Y2050840D01*
X3343200Y2052740D01*
X3341399Y2052740D01*
X3335999Y2050840D01*
X3332300Y2047240D01*
X3330499Y2041840D01*
X3367999Y2058140D02*
G01*
X3367999Y2059940D01*
X3369800Y2063640D01*
X3371600Y2065440D01*
X3375200Y2067240D01*
X3382500Y2067240D01*
X3386100Y2065440D01*
X3387999Y2063640D01*
X3389800Y2059940D01*
X3389800Y2056340D01*
X3387999Y2052740D01*
X3384299Y2047240D01*
X3366100Y2029040D01*
X3391600Y2029040D01*
X3431600Y2067240D02*
G01*
X3433400Y2065440D01*
X3435200Y2067240D01*
X3433400Y2069040D01*
X3431600Y2067240D01*
X3433400Y2054540D02*
G01*
X3433400Y2029040D01*
X3447199Y2054540D02*
G01*
X3447199Y2029040D01*
X3447199Y2047240D02*
G01*
X3452700Y2052740D01*
X3456300Y2054540D01*
X3461799Y2054540D01*
X3465400Y2052740D01*
X3467199Y2047240D01*
X3467199Y2029040D01*
X3500999Y2049040D02*
G01*
X3497400Y2052740D01*
X3493800Y2054540D01*
X3488300Y2054540D01*
X3484699Y2052740D01*
X3480999Y2049040D01*
X3479200Y2043640D01*
X3479200Y2039940D01*
X3480999Y2034540D01*
X3484699Y2030840D01*
X3488300Y2029040D01*
X3493800Y2029040D01*
X3497400Y2030840D01*
X3500999Y2034540D01*
X3512999Y2067240D02*
G01*
X3512999Y2029040D01*
X3512999Y2047240D02*
G01*
X3518499Y2052740D01*
X3522100Y2054540D01*
X3527599Y2054540D01*
X3531200Y2052740D01*
X3532999Y2047240D01*
X3532999Y2029040D01*
X2611251Y1979000D02*
G01*
X2611251Y1980800D01*
X2613052Y1984400D01*
X2614852Y1986200D01*
X2618552Y1988099D01*
X2625751Y1988099D01*
X2629452Y1986200D01*
X2631251Y1984400D01*
X2633052Y1980800D01*
X2633052Y1977200D01*
X2631251Y1973500D01*
X2627552Y1968099D01*
X2609452Y1949900D01*
X2634852Y1949900D01*
X2648651Y1959000D02*
G01*
X2646852Y1957200D01*
X2648651Y1955300D01*
X2650552Y1957200D01*
X2648651Y1959000D01*
X2690552Y1988099D02*
G01*
X2690552Y1949900D01*
X2690552Y1988099D02*
G01*
X2706852Y1988099D01*
X2712352Y1986200D01*
X2714151Y1984400D01*
X2715952Y1980800D01*
X2715952Y1977200D01*
X2714151Y1973500D01*
X2712352Y1971700D01*
X2706852Y1969900D01*
X2690552Y1969900D02*
G01*
X2706852Y1969900D01*
X2712352Y1968099D01*
X2714151Y1966200D01*
X2715952Y1962600D01*
X2715952Y1957200D01*
X2714151Y1953500D01*
X2712352Y1951700D01*
X2706852Y1949900D01*
X2690552Y1949900D01*
X2737051Y1975300D02*
G01*
X2733452Y1973500D01*
X2729752Y1969900D01*
X2727952Y1964400D01*
X2727952Y1960800D01*
X2729752Y1955300D01*
X2733452Y1951700D01*
X2737051Y1949900D01*
X2742552Y1949900D01*
X2746151Y1951700D01*
X2749752Y1955300D01*
X2751552Y1960800D01*
X2751552Y1964400D01*
X2749752Y1969900D01*
X2746151Y1973500D01*
X2742552Y1975300D01*
X2737051Y1975300D01*
X2785452Y1975300D02*
G01*
X2785452Y1949900D01*
X2785452Y1969900D02*
G01*
X2781752Y1973500D01*
X2778152Y1975300D01*
X2772652Y1975300D01*
X2769052Y1973500D01*
X2765452Y1969900D01*
X2763552Y1964400D01*
X2763552Y1960800D01*
X2765452Y1955300D01*
X2769052Y1951700D01*
X2772652Y1949900D01*
X2778152Y1949900D01*
X2781752Y1951700D01*
X2785452Y1955300D01*
X2797451Y1975300D02*
G01*
X2797451Y1949900D01*
X2797451Y1964400D02*
G01*
X2799252Y1969900D01*
X2802851Y1973500D01*
X2806552Y1975300D01*
X2811952Y1975300D01*
X2845751Y1988099D02*
G01*
X2845751Y1949900D01*
X2845751Y1969900D02*
G01*
X2842152Y1973500D01*
X2838552Y1975300D01*
X2833052Y1975300D01*
X2829452Y1973500D01*
X2825751Y1969900D01*
X2823952Y1964400D01*
X2823952Y1960800D01*
X2825751Y1955300D01*
X2829452Y1951700D01*
X2833052Y1949900D01*
X2838552Y1949900D01*
X2842152Y1951700D01*
X2845751Y1955300D01*
X2885751Y1988099D02*
G01*
X2885751Y1949900D01*
X2885751Y1949900D02*
G01*
X2907552Y1949900D01*
X2941452Y1975300D02*
G01*
X2941452Y1949900D01*
X2941452Y1969900D02*
G01*
X2937752Y1973500D01*
X2934151Y1975300D01*
X2928651Y1975300D01*
X2925052Y1973500D01*
X2921452Y1969900D01*
X2919551Y1964400D01*
X2919551Y1960800D01*
X2921452Y1955300D01*
X2925052Y1951700D01*
X2928651Y1949900D01*
X2934151Y1949900D01*
X2937752Y1951700D01*
X2941452Y1955300D01*
X2955252Y1975300D02*
G01*
X2966151Y1949900D01*
X2977051Y1975300D02*
G01*
X2966151Y1949900D01*
X2962552Y1942600D01*
X2958852Y1939000D01*
X2955252Y1937200D01*
X2953452Y1937200D01*
X2989052Y1964400D02*
G01*
X3010852Y1964400D01*
X3010852Y1968099D01*
X3009052Y1971700D01*
X3007252Y1973500D01*
X3003552Y1975300D01*
X2998152Y1975300D01*
X2994551Y1973500D01*
X2990852Y1969900D01*
X2989052Y1964400D01*
X2989052Y1960800D01*
X2990852Y1955300D01*
X2994551Y1951700D01*
X2998152Y1949900D01*
X3003552Y1949900D01*
X3007252Y1951700D01*
X3010852Y1955300D01*
X3022851Y1975300D02*
G01*
X3022851Y1949900D01*
X3022851Y1964400D02*
G01*
X3024652Y1969900D01*
X3028352Y1973500D01*
X3031952Y1975300D01*
X3037451Y1975300D01*
X3069452Y1969900D02*
G01*
X3067552Y1973500D01*
X3062152Y1975300D01*
X3056651Y1975300D01*
X3051251Y1973500D01*
X3049452Y1969900D01*
X3051251Y1966200D01*
X3054852Y1964400D01*
X3063952Y1962600D01*
X3067552Y1960800D01*
X3069452Y1957200D01*
X3069452Y1955300D01*
X3067552Y1951700D01*
X3062152Y1949900D01*
X3056651Y1949900D01*
X3051251Y1951700D01*
X3049452Y1955300D01*
X3109452Y1971700D02*
G01*
X3142152Y1971700D01*
X3109452Y1960800D02*
G01*
X3142152Y1960800D01*
X3200351Y1988099D02*
G01*
X3182152Y1962600D01*
X3209452Y1962600D01*
X3200351Y1988099D02*
G01*
X3200351Y1949900D01*
X2621700Y1906939D02*
G01*
X2603499Y1881440D01*
X2630800Y1881440D01*
X2621700Y1906939D02*
G01*
X2621700Y1868740D01*
X2644600Y1877840D02*
G01*
X2642800Y1876040D01*
X2644600Y1874140D01*
X2646399Y1876040D01*
X2644600Y1877840D01*
X2697300Y1906939D02*
G01*
X2693700Y1905040D01*
X2690000Y1901440D01*
X2688200Y1897840D01*
X2686399Y1892340D01*
X2686399Y1883240D01*
X2688200Y1877840D01*
X2690000Y1874140D01*
X2693700Y1870540D01*
X2697300Y1868740D01*
X2704600Y1868740D01*
X2708200Y1870540D01*
X2711900Y1874140D01*
X2713700Y1877840D01*
X2715499Y1883240D01*
X2715499Y1892340D01*
X2713700Y1897840D01*
X2711900Y1901440D01*
X2708200Y1905040D01*
X2704600Y1906939D01*
X2697300Y1906939D01*
X2727500Y1894140D02*
G01*
X2727500Y1876040D01*
X2729299Y1870540D01*
X2732999Y1868740D01*
X2738400Y1868740D01*
X2742000Y1870540D01*
X2747500Y1876040D01*
X2747500Y1894140D02*
G01*
X2747500Y1868740D01*
X2765000Y1906939D02*
G01*
X2765000Y1876040D01*
X2766799Y1870540D01*
X2770400Y1868740D01*
X2774000Y1868740D01*
X2759500Y1894140D02*
G01*
X2772199Y1894140D01*
X2785999Y1883240D02*
G01*
X2807900Y1883240D01*
X2807900Y1886939D01*
X2805999Y1890540D01*
X2804200Y1892340D01*
X2800599Y1894140D01*
X2795099Y1894140D01*
X2791500Y1892340D01*
X2787900Y1888740D01*
X2785999Y1883240D01*
X2785999Y1879639D01*
X2787900Y1874140D01*
X2791500Y1870540D01*
X2795099Y1868740D01*
X2800599Y1868740D01*
X2804200Y1870540D01*
X2807900Y1874140D01*
X2819900Y1894140D02*
G01*
X2819900Y1868740D01*
X2819900Y1883240D02*
G01*
X2821700Y1888740D01*
X2825300Y1892340D01*
X2829000Y1894140D01*
X2834400Y1894140D01*
X2874400Y1906939D02*
G01*
X2874400Y1868740D01*
X2908200Y1894140D02*
G01*
X2908200Y1868740D01*
X2908200Y1888740D02*
G01*
X2904600Y1892340D01*
X2900999Y1894140D01*
X2895499Y1894140D01*
X2891900Y1892340D01*
X2888200Y1888740D01*
X2886399Y1883240D01*
X2886399Y1879639D01*
X2888200Y1874140D01*
X2891900Y1870540D01*
X2895499Y1868740D01*
X2900999Y1868740D01*
X2904600Y1870540D01*
X2908200Y1874140D01*
X2922000Y1894140D02*
G01*
X2932999Y1868740D01*
X2943899Y1894140D02*
G01*
X2932999Y1868740D01*
X2929299Y1861440D01*
X2925700Y1857840D01*
X2922000Y1856040D01*
X2920200Y1856040D01*
X2955900Y1883240D02*
G01*
X2977700Y1883240D01*
X2977700Y1886939D01*
X2975900Y1890540D01*
X2974000Y1892340D01*
X2970400Y1894140D01*
X2965000Y1894140D01*
X2961300Y1892340D01*
X2957700Y1888740D01*
X2955900Y1883240D01*
X2955900Y1879639D01*
X2957700Y1874140D01*
X2961300Y1870540D01*
X2965000Y1868740D01*
X2970400Y1868740D01*
X2974000Y1870540D01*
X2977700Y1874140D01*
X2989699Y1894140D02*
G01*
X2989699Y1868740D01*
X2989699Y1883240D02*
G01*
X2991500Y1888740D01*
X2995099Y1892340D01*
X2998800Y1894140D01*
X3004200Y1894140D01*
X3065999Y1888740D02*
G01*
X3062400Y1892340D01*
X3058800Y1894140D01*
X3053300Y1894140D01*
X3049699Y1892340D01*
X3045999Y1888740D01*
X3044200Y1883240D01*
X3044200Y1879639D01*
X3045999Y1874140D01*
X3049699Y1870540D01*
X3053300Y1868740D01*
X3058800Y1868740D01*
X3062400Y1870540D01*
X3065999Y1874140D01*
X3077999Y1894140D02*
G01*
X3077999Y1876040D01*
X3079900Y1870540D01*
X3083499Y1868740D01*
X3089000Y1868740D01*
X3092599Y1870540D01*
X3097999Y1876040D01*
X3097999Y1894140D02*
G01*
X3097999Y1868740D01*
X3143499Y1906939D02*
G01*
X3143499Y1876040D01*
X3145300Y1870540D01*
X3149000Y1868740D01*
X3152599Y1868740D01*
X3137999Y1894140D02*
G01*
X3150800Y1894140D01*
X3164600Y1906939D02*
G01*
X3164600Y1868740D01*
X3164600Y1886939D02*
G01*
X3170000Y1892340D01*
X3173700Y1894140D01*
X3179100Y1894140D01*
X3182800Y1892340D01*
X3184600Y1886939D01*
X3184600Y1868740D01*
X3196600Y1906939D02*
G01*
X3198400Y1905040D01*
X3200200Y1906939D01*
X3198400Y1908740D01*
X3196600Y1906939D01*
X3198400Y1894140D02*
G01*
X3198400Y1868740D01*
X3234000Y1888740D02*
G01*
X3230400Y1892340D01*
X3226799Y1894140D01*
X3221300Y1894140D01*
X3217700Y1892340D01*
X3214000Y1888740D01*
X3212199Y1883240D01*
X3212199Y1879639D01*
X3214000Y1874140D01*
X3217700Y1870540D01*
X3221300Y1868740D01*
X3226799Y1868740D01*
X3230400Y1870540D01*
X3234000Y1874140D01*
X3245999Y1906939D02*
G01*
X3245999Y1868740D01*
X3264200Y1894140D02*
G01*
X3245999Y1876040D01*
X3253300Y1883240D02*
G01*
X3265999Y1868740D01*
X3277999Y1894140D02*
G01*
X3277999Y1868740D01*
X3277999Y1886939D02*
G01*
X3283499Y1892340D01*
X3287100Y1894140D01*
X3292599Y1894140D01*
X3296200Y1892340D01*
X3297999Y1886939D01*
X3297999Y1868740D01*
X3310000Y1883240D02*
G01*
X3331900Y1883240D01*
X3331900Y1886939D01*
X3330000Y1890540D01*
X3328200Y1892340D01*
X3324600Y1894140D01*
X3319100Y1894140D01*
X3315499Y1892340D01*
X3311900Y1888740D01*
X3310000Y1883240D01*
X3310000Y1879639D01*
X3311900Y1874140D01*
X3315499Y1870540D01*
X3319100Y1868740D01*
X3324600Y1868740D01*
X3328200Y1870540D01*
X3331900Y1874140D01*
X3363899Y1888740D02*
G01*
X3362000Y1892340D01*
X3356600Y1894140D01*
X3351100Y1894140D01*
X3345700Y1892340D01*
X3343899Y1888740D01*
X3345700Y1885040D01*
X3349299Y1883240D01*
X3358400Y1881440D01*
X3362000Y1879639D01*
X3363899Y1876040D01*
X3363899Y1874140D01*
X3362000Y1870540D01*
X3356600Y1868740D01*
X3351100Y1868740D01*
X3345700Y1870540D01*
X3343899Y1874140D01*
X3395900Y1888740D02*
G01*
X3394000Y1892340D01*
X3388600Y1894140D01*
X3383099Y1894140D01*
X3377700Y1892340D01*
X3375900Y1888740D01*
X3377700Y1885040D01*
X3381300Y1883240D01*
X3390400Y1881440D01*
X3394000Y1879639D01*
X3395900Y1876040D01*
X3395900Y1874140D01*
X3394000Y1870540D01*
X3388600Y1868740D01*
X3383099Y1868740D01*
X3377700Y1870540D01*
X3375900Y1874140D01*
X3435900Y1890540D02*
G01*
X3468600Y1890540D01*
X3435900Y1879639D02*
G01*
X3468600Y1879639D01*
X3508600Y1899639D02*
G01*
X3512199Y1901440D01*
X3517700Y1906939D01*
X3517700Y1868740D01*
X3531500Y1877840D02*
G01*
X3529699Y1876040D01*
X3531500Y1874140D01*
X3533300Y1876040D01*
X3531500Y1877840D01*
X3563499Y1906939D02*
G01*
X3545300Y1881440D01*
X3572599Y1881440D01*
X3563499Y1906939D02*
G01*
X3563499Y1868740D01*
X3584600Y1894140D02*
G01*
X3584600Y1868740D01*
X3584600Y1886939D02*
G01*
X3590000Y1892340D01*
X3593700Y1894140D01*
X3599100Y1894140D01*
X3602800Y1892340D01*
X3604600Y1886939D01*
X3604600Y1868740D01*
X3604600Y1886939D02*
G01*
X3610000Y1892340D01*
X3613700Y1894140D01*
X3619100Y1894140D01*
X3622800Y1892340D01*
X3624600Y1886939D01*
X3624600Y1868740D01*
X3636600Y1906939D02*
G01*
X3638400Y1905040D01*
X3640200Y1906939D01*
X3638400Y1908740D01*
X3636600Y1906939D01*
X3638400Y1894140D02*
G01*
X3638400Y1868740D01*
X3652199Y1906939D02*
G01*
X3652199Y1868740D01*
X3684200Y1888740D02*
G01*
X3682400Y1892340D01*
X3677000Y1894140D01*
X3671500Y1894140D01*
X3665999Y1892340D01*
X3664200Y1888740D01*
X3665999Y1885040D01*
X3669699Y1883240D01*
X3678800Y1881440D01*
X3682400Y1879639D01*
X3684200Y1876040D01*
X3684200Y1874140D01*
X3682400Y1870540D01*
X3677000Y1868740D01*
X3671500Y1868740D01*
X3665999Y1870540D01*
X3664200Y1874140D01*
X2621612Y1766640D02*
G01*
X2603512Y1741240D01*
X2630711Y1741240D01*
X2621612Y1766640D02*
G01*
X2621612Y1728540D01*
X2644511Y1737540D02*
G01*
X2642712Y1735740D01*
X2644511Y1733940D01*
X2646412Y1735740D01*
X2644511Y1737540D01*
X2711812Y1761240D02*
G01*
X2708211Y1764840D01*
X2702712Y1766640D01*
X2695512Y1766640D01*
X2690012Y1764840D01*
X2686412Y1761240D01*
X2686412Y1757540D01*
X2688211Y1753940D01*
X2690012Y1752139D01*
X2693611Y1750340D01*
X2704511Y1746640D01*
X2708211Y1744840D01*
X2710012Y1743040D01*
X2711812Y1739439D01*
X2711812Y1733940D01*
X2708211Y1730340D01*
X2702712Y1728540D01*
X2695512Y1728540D01*
X2690012Y1730340D01*
X2686412Y1733940D01*
X2732912Y1753940D02*
G01*
X2729312Y1752139D01*
X2725612Y1748540D01*
X2723812Y1743040D01*
X2723812Y1739439D01*
X2725612Y1733940D01*
X2729312Y1730340D01*
X2732912Y1728540D01*
X2738412Y1728540D01*
X2742011Y1730340D01*
X2745612Y1733940D01*
X2747512Y1739439D01*
X2747512Y1743040D01*
X2745612Y1748540D01*
X2742011Y1752139D01*
X2738412Y1753940D01*
X2732912Y1753940D01*
X2759511Y1766640D02*
G01*
X2759511Y1728540D01*
X2793312Y1766640D02*
G01*
X2793312Y1728540D01*
X2793312Y1748540D02*
G01*
X2789612Y1752139D01*
X2786012Y1753940D01*
X2780512Y1753940D01*
X2776911Y1752139D01*
X2773312Y1748540D01*
X2771511Y1743040D01*
X2771511Y1739439D01*
X2773312Y1733940D01*
X2776911Y1730340D01*
X2780512Y1728540D01*
X2786012Y1728540D01*
X2789612Y1730340D01*
X2793312Y1733940D01*
X2805311Y1743040D02*
G01*
X2827112Y1743040D01*
X2827112Y1746640D01*
X2825311Y1750340D01*
X2823512Y1752139D01*
X2819811Y1753940D01*
X2814411Y1753940D01*
X2810711Y1752139D01*
X2807112Y1748540D01*
X2805311Y1743040D01*
X2805311Y1739439D01*
X2807112Y1733940D01*
X2810711Y1730340D01*
X2814411Y1728540D01*
X2819811Y1728540D01*
X2823512Y1730340D01*
X2827112Y1733940D01*
X2839112Y1753940D02*
G01*
X2839112Y1728540D01*
X2839112Y1743040D02*
G01*
X2840912Y1748540D01*
X2844511Y1752139D01*
X2848211Y1753940D01*
X2853611Y1753940D01*
X2893611Y1766640D02*
G01*
X2893611Y1728540D01*
X2893611Y1766640D02*
G01*
X2908211Y1728540D01*
X2922712Y1766640D02*
G01*
X2908211Y1728540D01*
X2922712Y1766640D02*
G01*
X2922712Y1728540D01*
X2956511Y1753940D02*
G01*
X2956511Y1728540D01*
X2956511Y1748540D02*
G01*
X2952912Y1752139D01*
X2949312Y1753940D01*
X2943812Y1753940D01*
X2940212Y1752139D01*
X2936511Y1748540D01*
X2934712Y1743040D01*
X2934712Y1739439D01*
X2936511Y1733940D01*
X2940212Y1730340D01*
X2943812Y1728540D01*
X2949312Y1728540D01*
X2952912Y1730340D01*
X2956511Y1733940D01*
X2988512Y1748540D02*
G01*
X2986712Y1752139D01*
X2981312Y1753940D01*
X2975812Y1753940D01*
X2970412Y1752139D01*
X2968512Y1748540D01*
X2970412Y1744840D01*
X2974011Y1743040D01*
X2983112Y1741240D01*
X2986712Y1739439D01*
X2988512Y1735740D01*
X2988512Y1733940D01*
X2986712Y1730340D01*
X2981312Y1728540D01*
X2975812Y1728540D01*
X2970412Y1730340D01*
X2968512Y1733940D01*
X3000512Y1766640D02*
G01*
X3000512Y1728540D01*
X3018712Y1753940D02*
G01*
X3000512Y1735740D01*
X3007811Y1743040D02*
G01*
X3020512Y1728540D01*
X3060512Y1750340D02*
G01*
X3093312Y1750340D01*
X3060512Y1739439D02*
G01*
X3093312Y1739439D01*
X3133312Y1766640D02*
G01*
X3133312Y1728540D01*
X3133312Y1766640D02*
G01*
X3149612Y1766640D01*
X3155112Y1764840D01*
X3156911Y1763040D01*
X3158712Y1759439D01*
X3158712Y1755740D01*
X3156911Y1752139D01*
X3155112Y1750340D01*
X3149612Y1748540D01*
X3133312Y1748540D02*
G01*
X3149612Y1748540D01*
X3155112Y1746640D01*
X3156911Y1744840D01*
X3158712Y1741240D01*
X3158712Y1735740D01*
X3156911Y1732139D01*
X3155112Y1730340D01*
X3149612Y1728540D01*
X3133312Y1728540D01*
X3170711Y1766640D02*
G01*
X3170711Y1728540D01*
X3182712Y1753940D02*
G01*
X3182712Y1735740D01*
X3184511Y1730340D01*
X3188211Y1728540D01*
X3193611Y1728540D01*
X3197311Y1730340D01*
X3202712Y1735740D01*
X3202712Y1753940D02*
G01*
X3202712Y1728540D01*
X3214712Y1743040D02*
G01*
X3236511Y1743040D01*
X3236511Y1746640D01*
X3234712Y1750340D01*
X3232912Y1752139D01*
X3229312Y1753940D01*
X3223812Y1753940D01*
X3220212Y1752139D01*
X3216511Y1748540D01*
X3214712Y1743040D01*
X3214712Y1739439D01*
X3216511Y1733940D01*
X3220212Y1730340D01*
X3223812Y1728540D01*
X3229312Y1728540D01*
X3232912Y1730340D01*
X3236511Y1733940D01*
X2627199Y1685140D02*
G01*
X2609100Y1685140D01*
X2607199Y1668740D01*
X2609100Y1670540D01*
X2614500Y1672340D01*
X2620000Y1672340D01*
X2625400Y1670540D01*
X2629100Y1666939D01*
X2630900Y1661440D01*
X2630900Y1657840D01*
X2629100Y1652340D01*
X2625400Y1648740D01*
X2620000Y1646939D01*
X2614500Y1646939D01*
X2609100Y1648740D01*
X2607199Y1650540D01*
X2605400Y1654239D01*
X2644699Y1656040D02*
G01*
X2642900Y1654239D01*
X2644699Y1652340D01*
X2646500Y1654239D01*
X2644699Y1656040D01*
X2686500Y1685140D02*
G01*
X2686500Y1646939D01*
X2686500Y1685140D02*
G01*
X2702900Y1685140D01*
X2708300Y1683340D01*
X2710200Y1681440D01*
X2712000Y1677840D01*
X2712000Y1672340D01*
X2710200Y1668740D01*
X2708300Y1666939D01*
X2702900Y1665140D01*
X2686500Y1665140D01*
X2745800Y1672340D02*
G01*
X2745800Y1646939D01*
X2745800Y1666939D02*
G01*
X2742199Y1670540D01*
X2738499Y1672340D01*
X2733099Y1672340D01*
X2729400Y1670540D01*
X2725800Y1666939D01*
X2724000Y1661440D01*
X2724000Y1657840D01*
X2725800Y1652340D01*
X2729400Y1648740D01*
X2733099Y1646939D01*
X2738499Y1646939D01*
X2742199Y1648740D01*
X2745800Y1652340D01*
X2757800Y1672340D02*
G01*
X2757800Y1646939D01*
X2757800Y1665140D02*
G01*
X2763200Y1670540D01*
X2766900Y1672340D01*
X2772300Y1672340D01*
X2775999Y1670540D01*
X2777800Y1665140D01*
X2777800Y1646939D01*
X2789800Y1661440D02*
G01*
X2811600Y1661440D01*
X2811600Y1665140D01*
X2809800Y1668740D01*
X2807999Y1670540D01*
X2804299Y1672340D01*
X2798899Y1672340D01*
X2795200Y1670540D01*
X2791600Y1666939D01*
X2789800Y1661440D01*
X2789800Y1657840D01*
X2791600Y1652340D01*
X2795200Y1648740D01*
X2798899Y1646939D01*
X2804299Y1646939D01*
X2807999Y1648740D01*
X2811600Y1652340D01*
X2823600Y1685140D02*
G01*
X2823600Y1646939D01*
X2835599Y1685140D02*
G01*
X2837400Y1683340D01*
X2839200Y1685140D01*
X2837400Y1686939D01*
X2835599Y1685140D01*
X2837400Y1672340D02*
G01*
X2837400Y1646939D01*
X2871200Y1672340D02*
G01*
X2851200Y1646939D01*
X2851200Y1672340D02*
G01*
X2871200Y1672340D01*
X2851200Y1646939D02*
G01*
X2871200Y1646939D01*
X2883200Y1661440D02*
G01*
X2905099Y1661440D01*
X2905099Y1665140D01*
X2903200Y1668740D01*
X2901399Y1670540D01*
X2897800Y1672340D01*
X2892300Y1672340D01*
X2888700Y1670540D01*
X2885099Y1666939D01*
X2883200Y1661440D01*
X2883200Y1657840D01*
X2885099Y1652340D01*
X2888700Y1648740D01*
X2892300Y1646939D01*
X2897800Y1646939D01*
X2901399Y1648740D01*
X2905099Y1652340D01*
X2963200Y1685140D02*
G01*
X2945099Y1659639D01*
X2972300Y1659639D01*
X2963200Y1685140D02*
G01*
X2963200Y1646939D01*
X3012300Y1672340D02*
G01*
X3032300Y1646939D01*
X3032300Y1672340D02*
G01*
X3012300Y1646939D01*
X3072300Y1677840D02*
G01*
X3075999Y1679639D01*
X3081399Y1685140D01*
X3081399Y1646939D01*
X3095200Y1676040D02*
G01*
X3095200Y1677840D01*
X3097100Y1681440D01*
X3098899Y1683340D01*
X3102500Y1685140D01*
X3109800Y1685140D01*
X3113400Y1683340D01*
X3115200Y1681440D01*
X3117100Y1677840D01*
X3117100Y1674239D01*
X3115200Y1670540D01*
X3111600Y1665140D01*
X3093400Y1646939D01*
X3118899Y1646939D01*
X3158899Y1663340D02*
G01*
X3191600Y1663340D01*
X3257100Y1679639D02*
G01*
X3253400Y1683340D01*
X3247999Y1685140D01*
X3240700Y1685140D01*
X3235200Y1683340D01*
X3231600Y1679639D01*
X3231600Y1676040D01*
X3233400Y1672340D01*
X3235200Y1670540D01*
X3238899Y1668740D01*
X3249800Y1665140D01*
X3253400Y1663340D01*
X3255200Y1661440D01*
X3257100Y1657840D01*
X3257100Y1652340D01*
X3253400Y1648740D01*
X3247999Y1646939D01*
X3240700Y1646939D01*
X3235200Y1648740D01*
X3231600Y1652340D01*
X3274500Y1685140D02*
G01*
X3274500Y1654239D01*
X3276300Y1648740D01*
X3280000Y1646939D01*
X3283600Y1646939D01*
X3269100Y1672340D02*
G01*
X3281799Y1672340D01*
X3317400Y1672340D02*
G01*
X3317400Y1646939D01*
X3317400Y1666939D02*
G01*
X3313800Y1670540D01*
X3310200Y1672340D01*
X3304699Y1672340D01*
X3301100Y1670540D01*
X3297400Y1666939D01*
X3295599Y1661440D01*
X3295599Y1657840D01*
X3297400Y1652340D01*
X3301100Y1648740D01*
X3304699Y1646939D01*
X3310200Y1646939D01*
X3313800Y1648740D01*
X3317400Y1652340D01*
X3329400Y1672340D02*
G01*
X3329400Y1646939D01*
X3329400Y1665140D02*
G01*
X3334900Y1670540D01*
X3338499Y1672340D01*
X3344000Y1672340D01*
X3347599Y1670540D01*
X3349400Y1665140D01*
X3349400Y1646939D01*
X3349400Y1665140D02*
G01*
X3354900Y1670540D01*
X3358499Y1672340D01*
X3364000Y1672340D01*
X3367599Y1670540D01*
X3369400Y1665140D01*
X3369400Y1646939D01*
X3381399Y1672340D02*
G01*
X3381399Y1634239D01*
X3381399Y1666939D02*
G01*
X3385099Y1670540D01*
X3388700Y1672340D01*
X3394200Y1672340D01*
X3397800Y1670540D01*
X3401399Y1666939D01*
X3403200Y1661440D01*
X3403200Y1657840D01*
X3401399Y1652340D01*
X3397800Y1648740D01*
X3394200Y1646939D01*
X3388700Y1646939D01*
X3385099Y1648740D01*
X3381399Y1652340D01*
X3443200Y1685140D02*
G01*
X3443200Y1646939D01*
X3468700Y1685140D02*
G01*
X3468700Y1646939D01*
X3443200Y1666939D02*
G01*
X3468700Y1666939D01*
X3489800Y1672340D02*
G01*
X3486200Y1670540D01*
X3482500Y1666939D01*
X3480700Y1661440D01*
X3480700Y1657840D01*
X3482500Y1652340D01*
X3486200Y1648740D01*
X3489800Y1646939D01*
X3495200Y1646939D01*
X3498899Y1648740D01*
X3502500Y1652340D01*
X3504299Y1657840D01*
X3504299Y1661440D01*
X3502500Y1666939D01*
X3498899Y1670540D01*
X3495200Y1672340D01*
X3489800Y1672340D01*
X3516300Y1685140D02*
G01*
X3516300Y1646939D01*
X3528300Y1661440D02*
G01*
X3550200Y1661440D01*
X3550200Y1665140D01*
X3548300Y1668740D01*
X3546500Y1670540D01*
X3542900Y1672340D01*
X3537400Y1672340D01*
X3533800Y1670540D01*
X3530200Y1666939D01*
X3528300Y1661440D01*
X3528300Y1657840D01*
X3530200Y1652340D01*
X3533800Y1648740D01*
X3537400Y1646939D01*
X3542900Y1646939D01*
X3546500Y1648740D01*
X3550200Y1652340D01*
X3582199Y1666939D02*
G01*
X3580300Y1670540D01*
X3574900Y1672340D01*
X3569400Y1672340D01*
X3564000Y1670540D01*
X3562199Y1666939D01*
X3564000Y1663340D01*
X3567599Y1661440D01*
X3576700Y1659639D01*
X3580300Y1657840D01*
X3582199Y1654239D01*
X3582199Y1652340D01*
X3580300Y1648740D01*
X3574900Y1646939D01*
X3569400Y1646939D01*
X3564000Y1648740D01*
X3562199Y1652340D01*
X2629100Y1599140D02*
G01*
X2627300Y1602740D01*
X2621799Y1604540D01*
X2618200Y1604540D01*
X2612800Y1602740D01*
X2609100Y1597340D01*
X2607300Y1588240D01*
X2607300Y1579140D01*
X2609100Y1571840D01*
X2612800Y1568240D01*
X2618200Y1566340D01*
X2620000Y1566340D01*
X2625499Y1568240D01*
X2629100Y1571840D01*
X2630900Y1577340D01*
X2630900Y1579140D01*
X2629100Y1584540D01*
X2625499Y1588240D01*
X2620000Y1590040D01*
X2618200Y1590040D01*
X2612800Y1588240D01*
X2609100Y1584540D01*
X2607300Y1579140D01*
X2644800Y1575440D02*
G01*
X2642900Y1573640D01*
X2644800Y1571840D01*
X2646600Y1573640D01*
X2644800Y1575440D01*
X2712000Y1599140D02*
G01*
X2708400Y1602740D01*
X2702900Y1604540D01*
X2695700Y1604540D01*
X2690200Y1602740D01*
X2686600Y1599140D01*
X2686600Y1595440D01*
X2688400Y1591840D01*
X2690200Y1590040D01*
X2693800Y1588240D01*
X2704800Y1584540D01*
X2708400Y1582740D01*
X2710200Y1580940D01*
X2712000Y1577340D01*
X2712000Y1571840D01*
X2708400Y1568240D01*
X2702900Y1566340D01*
X2695700Y1566340D01*
X2690200Y1568240D01*
X2686600Y1571840D01*
X2724000Y1591840D02*
G01*
X2724000Y1573640D01*
X2725800Y1568240D01*
X2729500Y1566340D01*
X2734900Y1566340D01*
X2738600Y1568240D01*
X2744000Y1573640D01*
X2744000Y1591840D02*
G01*
X2744000Y1566340D01*
X2755999Y1591840D02*
G01*
X2755999Y1566340D01*
X2755999Y1580940D02*
G01*
X2757800Y1586340D01*
X2761500Y1590040D01*
X2765099Y1591840D01*
X2770599Y1591840D01*
X2797100Y1604540D02*
G01*
X2793499Y1604540D01*
X2789800Y1602740D01*
X2787999Y1597340D01*
X2787999Y1566340D01*
X2782599Y1591840D02*
G01*
X2795300Y1591840D01*
X2830900Y1591840D02*
G01*
X2830900Y1566340D01*
X2830900Y1586340D02*
G01*
X2827300Y1590040D01*
X2823700Y1591840D01*
X2818200Y1591840D01*
X2814600Y1590040D01*
X2810900Y1586340D01*
X2809100Y1580940D01*
X2809100Y1577340D01*
X2810900Y1571840D01*
X2814600Y1568240D01*
X2818200Y1566340D01*
X2823700Y1566340D01*
X2827300Y1568240D01*
X2830900Y1571840D01*
X2864800Y1586340D02*
G01*
X2861100Y1590040D01*
X2857500Y1591840D01*
X2852000Y1591840D01*
X2848400Y1590040D01*
X2844800Y1586340D01*
X2842900Y1580940D01*
X2842900Y1577340D01*
X2844800Y1571840D01*
X2848400Y1568240D01*
X2852000Y1566340D01*
X2857500Y1566340D01*
X2861100Y1568240D01*
X2864800Y1571840D01*
X2876799Y1580940D02*
G01*
X2898600Y1580940D01*
X2898600Y1584540D01*
X2896799Y1588240D01*
X2894900Y1590040D01*
X2891300Y1591840D01*
X2885800Y1591840D01*
X2882199Y1590040D01*
X2878600Y1586340D01*
X2876799Y1580940D01*
X2876799Y1577340D01*
X2878600Y1571840D01*
X2882199Y1568240D01*
X2885800Y1566340D01*
X2891300Y1566340D01*
X2894900Y1568240D01*
X2898600Y1571840D01*
X2953099Y1604540D02*
G01*
X2949500Y1604540D01*
X2945800Y1602740D01*
X2944000Y1597340D01*
X2944000Y1566340D01*
X2938600Y1591840D02*
G01*
X2951300Y1591840D01*
X2965099Y1604540D02*
G01*
X2966900Y1602740D01*
X2968800Y1604540D01*
X2966900Y1606340D01*
X2965099Y1604540D01*
X2966900Y1591840D02*
G01*
X2966900Y1566340D01*
X2980800Y1591840D02*
G01*
X2980800Y1566340D01*
X2980800Y1584540D02*
G01*
X2986200Y1590040D01*
X2989800Y1591840D01*
X2995300Y1591840D01*
X2998899Y1590040D01*
X3000800Y1584540D01*
X3000800Y1566340D01*
X3012800Y1604540D02*
G01*
X3014600Y1602740D01*
X3016399Y1604540D01*
X3014600Y1606340D01*
X3012800Y1604540D01*
X3014600Y1591840D02*
G01*
X3014600Y1566340D01*
X3048400Y1586340D02*
G01*
X3046600Y1590040D01*
X3041100Y1591840D01*
X3035700Y1591840D01*
X3030200Y1590040D01*
X3028400Y1586340D01*
X3030200Y1582740D01*
X3033800Y1580940D01*
X3042900Y1579140D01*
X3046600Y1577340D01*
X3048400Y1573640D01*
X3048400Y1571840D01*
X3046600Y1568240D01*
X3041100Y1566340D01*
X3035700Y1566340D01*
X3030200Y1568240D01*
X3028400Y1571840D01*
X3060400Y1604540D02*
G01*
X3060400Y1566340D01*
X3060400Y1584540D02*
G01*
X3065800Y1590040D01*
X3069500Y1591840D01*
X3074900Y1591840D01*
X3078600Y1590040D01*
X3080400Y1584540D01*
X3080400Y1566340D01*
X3120400Y1588240D02*
G01*
X3153099Y1588240D01*
X3120400Y1577340D02*
G01*
X3153099Y1577340D01*
X3193099Y1591840D02*
G01*
X3193099Y1573640D01*
X3194900Y1568240D01*
X3198600Y1566340D01*
X3204000Y1566340D01*
X3207700Y1568240D01*
X3213099Y1573640D01*
X3213099Y1591840D02*
G01*
X3213099Y1566340D01*
X3245099Y1586340D02*
G01*
X3243300Y1590040D01*
X3237800Y1591840D01*
X3232400Y1591840D01*
X3226900Y1590040D01*
X3225099Y1586340D01*
X3226900Y1582740D01*
X3230599Y1580940D01*
X3239699Y1579140D01*
X3243300Y1577340D01*
X3245099Y1573640D01*
X3245099Y1571840D01*
X3243300Y1568240D01*
X3237800Y1566340D01*
X3232400Y1566340D01*
X3226900Y1568240D01*
X3225099Y1571840D01*
X3257100Y1580940D02*
G01*
X3278899Y1580940D01*
X3278899Y1584540D01*
X3277100Y1588240D01*
X3275300Y1590040D01*
X3271700Y1591840D01*
X3266200Y1591840D01*
X3262599Y1590040D01*
X3258899Y1586340D01*
X3257100Y1580940D01*
X3257100Y1577340D01*
X3258899Y1571840D01*
X3262599Y1568240D01*
X3266200Y1566340D01*
X3271700Y1566340D01*
X3275300Y1568240D01*
X3278899Y1571840D01*
X3318899Y1604540D02*
G01*
X3320800Y1602740D01*
X3322599Y1604540D01*
X3320800Y1606340D01*
X3318899Y1604540D01*
X3320800Y1591840D02*
G01*
X3320800Y1566340D01*
X3334600Y1591840D02*
G01*
X3334600Y1566340D01*
X3334600Y1584540D02*
G01*
X3340000Y1590040D01*
X3343700Y1591840D01*
X3349100Y1591840D01*
X3352800Y1590040D01*
X3354600Y1584540D01*
X3354600Y1566340D01*
X3354600Y1584540D02*
G01*
X3360000Y1590040D01*
X3363700Y1591840D01*
X3369100Y1591840D01*
X3372800Y1590040D01*
X3374600Y1584540D01*
X3374600Y1566340D01*
X3386600Y1591840D02*
G01*
X3386600Y1566340D01*
X3386600Y1584540D02*
G01*
X3392000Y1590040D01*
X3395700Y1591840D01*
X3401100Y1591840D01*
X3404800Y1590040D01*
X3406600Y1584540D01*
X3406600Y1566340D01*
X3406600Y1584540D02*
G01*
X3412000Y1590040D01*
X3415700Y1591840D01*
X3421100Y1591840D01*
X3424800Y1590040D01*
X3426600Y1584540D01*
X3426600Y1566340D01*
X3438600Y1580940D02*
G01*
X3460400Y1580940D01*
X3460400Y1584540D01*
X3458600Y1588240D01*
X3456799Y1590040D01*
X3453099Y1591840D01*
X3447700Y1591840D01*
X3444000Y1590040D01*
X3440400Y1586340D01*
X3438600Y1580940D01*
X3438600Y1577340D01*
X3440400Y1571840D01*
X3444000Y1568240D01*
X3447700Y1566340D01*
X3453099Y1566340D01*
X3456799Y1568240D01*
X3460400Y1571840D01*
X3472400Y1591840D02*
G01*
X3472400Y1566340D01*
X3472400Y1580940D02*
G01*
X3474200Y1586340D01*
X3477800Y1590040D01*
X3481500Y1591840D01*
X3486900Y1591840D01*
X3518899Y1586340D02*
G01*
X3517100Y1590040D01*
X3511700Y1591840D01*
X3506200Y1591840D01*
X3500800Y1590040D01*
X3498899Y1586340D01*
X3500800Y1582740D01*
X3504400Y1580940D01*
X3513499Y1579140D01*
X3517100Y1577340D01*
X3518899Y1573640D01*
X3518899Y1571840D01*
X3517100Y1568240D01*
X3511700Y1566340D01*
X3506200Y1566340D01*
X3500800Y1568240D01*
X3498899Y1571840D01*
X3530900Y1604540D02*
G01*
X3532800Y1602740D01*
X3534600Y1604540D01*
X3532800Y1606340D01*
X3530900Y1604540D01*
X3532800Y1591840D02*
G01*
X3532800Y1566340D01*
X3555700Y1591840D02*
G01*
X3552000Y1590040D01*
X3548400Y1586340D01*
X3546600Y1580940D01*
X3546600Y1577340D01*
X3548400Y1571840D01*
X3552000Y1568240D01*
X3555700Y1566340D01*
X3561100Y1566340D01*
X3564800Y1568240D01*
X3568400Y1571840D01*
X3570200Y1577340D01*
X3570200Y1580940D01*
X3568400Y1586340D01*
X3564800Y1590040D01*
X3561100Y1591840D01*
X3555700Y1591840D01*
X3582199Y1591840D02*
G01*
X3582199Y1566340D01*
X3582199Y1584540D02*
G01*
X3587700Y1590040D01*
X3591300Y1591840D01*
X3596799Y1591840D01*
X3600400Y1590040D01*
X3602199Y1584540D01*
X3602199Y1566340D01*
X3662199Y1586340D02*
G01*
X3660400Y1590040D01*
X3654900Y1591840D01*
X3649500Y1591840D01*
X3644000Y1590040D01*
X3642199Y1586340D01*
X3644000Y1582740D01*
X3647700Y1580940D01*
X3656799Y1579140D01*
X3660400Y1577340D01*
X3662199Y1573640D01*
X3662199Y1571840D01*
X3660400Y1568240D01*
X3654900Y1566340D01*
X3649500Y1566340D01*
X3644000Y1568240D01*
X3642199Y1571840D01*
X3674200Y1604540D02*
G01*
X3675999Y1602740D01*
X3677800Y1604540D01*
X3675999Y1606340D01*
X3674200Y1604540D01*
X3675999Y1591840D02*
G01*
X3675999Y1566340D01*
X3689800Y1604540D02*
G01*
X3689800Y1566340D01*
X3701799Y1591840D02*
G01*
X3712800Y1566340D01*
X3723700Y1591840D02*
G01*
X3712800Y1566340D01*
X3735700Y1580940D02*
G01*
X3757500Y1580940D01*
X3757500Y1584540D01*
X3755700Y1588240D01*
X3753800Y1590040D01*
X3750200Y1591840D01*
X3744800Y1591840D01*
X3741100Y1590040D01*
X3737500Y1586340D01*
X3735700Y1580940D01*
X3735700Y1577340D01*
X3737500Y1571840D01*
X3741100Y1568240D01*
X3744800Y1566340D01*
X3750200Y1566340D01*
X3753800Y1568240D01*
X3757500Y1571840D01*
X3769500Y1591840D02*
G01*
X3769500Y1566340D01*
X3769500Y1580940D02*
G01*
X3771300Y1586340D01*
X3774900Y1590040D01*
X3778600Y1591840D01*
X3784000Y1591840D01*
X3797800Y1575440D02*
G01*
X3795999Y1573640D01*
X3797800Y1571840D01*
X3799699Y1573640D01*
X3797800Y1575440D01*
X3839699Y1604540D02*
G01*
X3841500Y1602740D01*
X3843300Y1604540D01*
X3841500Y1606340D01*
X3839699Y1604540D01*
X3841500Y1591840D02*
G01*
X3841500Y1566340D01*
X3869800Y1604540D02*
G01*
X3866200Y1604540D01*
X3862599Y1602740D01*
X3860800Y1597340D01*
X3860800Y1566340D01*
X3855300Y1591840D02*
G01*
X3867999Y1591840D01*
X3909800Y1591840D02*
G01*
X3909800Y1566340D01*
X3909800Y1584540D02*
G01*
X3915300Y1590040D01*
X3918899Y1591840D01*
X3924400Y1591840D01*
X3927999Y1590040D01*
X3929800Y1584540D01*
X3929800Y1566340D01*
X3950900Y1591840D02*
G01*
X3947300Y1590040D01*
X3943700Y1586340D01*
X3941799Y1580940D01*
X3941799Y1577340D01*
X3943700Y1571840D01*
X3947300Y1568240D01*
X3950900Y1566340D01*
X3956399Y1566340D01*
X3960000Y1568240D01*
X3963700Y1571840D01*
X3965499Y1577340D01*
X3965499Y1580940D01*
X3963700Y1586340D01*
X3960000Y1590040D01*
X3956399Y1591840D01*
X3950900Y1591840D01*
X3982900Y1604540D02*
G01*
X3982900Y1573640D01*
X3984800Y1568240D01*
X3988400Y1566340D01*
X3992000Y1566340D01*
X3977500Y1591840D02*
G01*
X3990200Y1591840D01*
X4053800Y1591840D02*
G01*
X4053800Y1566340D01*
X4053800Y1586340D02*
G01*
X4050200Y1590040D01*
X4046600Y1591840D01*
X4041100Y1591840D01*
X4037500Y1590040D01*
X4033800Y1586340D01*
X4032000Y1580940D01*
X4032000Y1577340D01*
X4033800Y1571840D01*
X4037500Y1568240D01*
X4041100Y1566340D01*
X4046600Y1566340D01*
X4050200Y1568240D01*
X4053800Y1571840D01*
X4065800Y1591840D02*
G01*
X4076799Y1566340D01*
X4087700Y1591840D02*
G01*
X4076799Y1566340D01*
X4121500Y1591840D02*
G01*
X4121500Y1566340D01*
X4121500Y1586340D02*
G01*
X4117800Y1590040D01*
X4114200Y1591840D01*
X4108800Y1591840D01*
X4105099Y1590040D01*
X4101500Y1586340D01*
X4099699Y1580940D01*
X4099699Y1577340D01*
X4101500Y1571840D01*
X4105099Y1568240D01*
X4108800Y1566340D01*
X4114200Y1566340D01*
X4117800Y1568240D01*
X4121500Y1571840D01*
X4133499Y1604540D02*
G01*
X4135300Y1602740D01*
X4137100Y1604540D01*
X4135300Y1606340D01*
X4133499Y1604540D01*
X4135300Y1591840D02*
G01*
X4135300Y1566340D01*
X4149100Y1604540D02*
G01*
X4149100Y1566340D01*
X4182900Y1591840D02*
G01*
X4182900Y1566340D01*
X4182900Y1586340D02*
G01*
X4179299Y1590040D01*
X4175700Y1591840D01*
X4170200Y1591840D01*
X4166600Y1590040D01*
X4162900Y1586340D01*
X4161100Y1580940D01*
X4161100Y1577340D01*
X4162900Y1571840D01*
X4166600Y1568240D01*
X4170200Y1566340D01*
X4175700Y1566340D01*
X4179299Y1568240D01*
X4182900Y1571840D01*
X4194900Y1604540D02*
G01*
X4194900Y1566340D01*
X4194900Y1586340D02*
G01*
X4198600Y1590040D01*
X4202199Y1591840D01*
X4207700Y1591840D01*
X4211300Y1590040D01*
X4214900Y1586340D01*
X4216799Y1580940D01*
X4216799Y1577340D01*
X4214900Y1571840D01*
X4211300Y1568240D01*
X4207700Y1566340D01*
X4202199Y1566340D01*
X4198600Y1568240D01*
X4194900Y1571840D01*
X4228800Y1604540D02*
G01*
X4228800Y1566340D01*
X4240800Y1580940D02*
G01*
X4262599Y1580940D01*
X4262599Y1584540D01*
X4260800Y1588240D01*
X4258899Y1590040D01*
X4255300Y1591840D01*
X4249800Y1591840D01*
X4246200Y1590040D01*
X4242599Y1586340D01*
X4240800Y1580940D01*
X4240800Y1577340D01*
X4242599Y1571840D01*
X4246200Y1568240D01*
X4249800Y1566340D01*
X4255300Y1566340D01*
X4258899Y1568240D01*
X4262599Y1571840D01*
X4278200Y1573640D02*
G01*
X4276399Y1571840D01*
X4274600Y1573640D01*
X4276399Y1575440D01*
X4278200Y1573640D01*
X4278200Y1570040D01*
X4274600Y1566340D01*
X4318200Y1591840D02*
G01*
X4318200Y1573640D01*
X4320000Y1568240D01*
X4323700Y1566340D01*
X4329100Y1566340D01*
X4332800Y1568240D01*
X4338200Y1573640D01*
X4338200Y1591840D02*
G01*
X4338200Y1566340D01*
X4370200Y1586340D02*
G01*
X4368400Y1590040D01*
X4362900Y1591840D01*
X4357500Y1591840D01*
X4352000Y1590040D01*
X4350200Y1586340D01*
X4352000Y1582740D01*
X4355700Y1580940D01*
X4364800Y1579140D01*
X4368400Y1577340D01*
X4370200Y1573640D01*
X4370200Y1571840D01*
X4368400Y1568240D01*
X4362900Y1566340D01*
X4357500Y1566340D01*
X4352000Y1568240D01*
X4350200Y1571840D01*
X4382199Y1580940D02*
G01*
X4404000Y1580940D01*
X4404000Y1584540D01*
X4402199Y1588240D01*
X4400400Y1590040D01*
X4396799Y1591840D01*
X4391300Y1591840D01*
X4387700Y1590040D01*
X4384000Y1586340D01*
X4382199Y1580940D01*
X4382199Y1577340D01*
X4384000Y1571840D01*
X4387700Y1568240D01*
X4391300Y1566340D01*
X4396799Y1566340D01*
X4400400Y1568240D01*
X4404000Y1571840D01*
X4464000Y1586340D02*
G01*
X4462199Y1590040D01*
X4456799Y1591840D01*
X4451300Y1591840D01*
X4445800Y1590040D01*
X4444000Y1586340D01*
X4445800Y1582740D01*
X4449500Y1580940D01*
X4458600Y1579140D01*
X4462199Y1577340D01*
X4464000Y1573640D01*
X4464000Y1571840D01*
X4462199Y1568240D01*
X4456799Y1566340D01*
X4451300Y1566340D01*
X4445800Y1568240D01*
X4444000Y1571840D01*
X4475999Y1591840D02*
G01*
X4475999Y1573640D01*
X4477800Y1568240D01*
X4481500Y1566340D01*
X4486900Y1566340D01*
X4490599Y1568240D01*
X4495999Y1573640D01*
X4495999Y1591840D02*
G01*
X4495999Y1566340D01*
X4507999Y1591840D02*
G01*
X4507999Y1566340D01*
X4507999Y1580940D02*
G01*
X4509800Y1586340D01*
X4513499Y1590040D01*
X4517100Y1591840D01*
X4522599Y1591840D01*
X4549100Y1604540D02*
G01*
X4545499Y1604540D01*
X4541799Y1602740D01*
X4540000Y1597340D01*
X4540000Y1566340D01*
X4534600Y1591840D02*
G01*
X4547300Y1591840D01*
X4582900Y1591840D02*
G01*
X4582900Y1566340D01*
X4582900Y1586340D02*
G01*
X4579299Y1590040D01*
X4575700Y1591840D01*
X4570200Y1591840D01*
X4566600Y1590040D01*
X4562900Y1586340D01*
X4561100Y1580940D01*
X4561100Y1577340D01*
X4562900Y1571840D01*
X4566600Y1568240D01*
X4570200Y1566340D01*
X4575700Y1566340D01*
X4579299Y1568240D01*
X4582900Y1571840D01*
X4616799Y1586340D02*
G01*
X4613099Y1590040D01*
X4609500Y1591840D01*
X4604000Y1591840D01*
X4600400Y1590040D01*
X4596799Y1586340D01*
X4594900Y1580940D01*
X4594900Y1577340D01*
X4596799Y1571840D01*
X4600400Y1568240D01*
X4604000Y1566340D01*
X4609500Y1566340D01*
X4613099Y1568240D01*
X4616799Y1571840D01*
X4628800Y1580940D02*
G01*
X4650599Y1580940D01*
X4650599Y1584540D01*
X4648800Y1588240D01*
X4646900Y1590040D01*
X4643300Y1591840D01*
X4637800Y1591840D01*
X4634200Y1590040D01*
X4630599Y1586340D01*
X4628800Y1580940D01*
X4628800Y1577340D01*
X4630599Y1571840D01*
X4634200Y1568240D01*
X4637800Y1566340D01*
X4643300Y1566340D01*
X4646900Y1568240D01*
X4650599Y1571840D01*
X4705099Y1604540D02*
G01*
X4701500Y1604540D01*
X4697800Y1602740D01*
X4695999Y1597340D01*
X4695999Y1566340D01*
X4690599Y1591840D02*
G01*
X4703300Y1591840D01*
X4717100Y1604540D02*
G01*
X4718899Y1602740D01*
X4720800Y1604540D01*
X4718899Y1606340D01*
X4717100Y1604540D01*
X4718899Y1591840D02*
G01*
X4718899Y1566340D01*
X4732800Y1591840D02*
G01*
X4732800Y1566340D01*
X4732800Y1584540D02*
G01*
X4738200Y1590040D01*
X4741799Y1591840D01*
X4747300Y1591840D01*
X4750900Y1590040D01*
X4752800Y1584540D01*
X4752800Y1566340D01*
X4764800Y1604540D02*
G01*
X4766600Y1602740D01*
X4768400Y1604540D01*
X4766600Y1606340D01*
X4764800Y1604540D01*
X4766600Y1591840D02*
G01*
X4766600Y1566340D01*
X4800400Y1586340D02*
G01*
X4798600Y1590040D01*
X4793099Y1591840D01*
X4787700Y1591840D01*
X4782199Y1590040D01*
X4780400Y1586340D01*
X4782199Y1582740D01*
X4785800Y1580940D01*
X4794900Y1579140D01*
X4798600Y1577340D01*
X4800400Y1573640D01*
X4800400Y1571840D01*
X4798600Y1568240D01*
X4793099Y1566340D01*
X4787700Y1566340D01*
X4782199Y1568240D01*
X4780400Y1571840D01*
X4812400Y1604540D02*
G01*
X4812400Y1566340D01*
X4812400Y1584540D02*
G01*
X4817800Y1590040D01*
X4821500Y1591840D01*
X4826900Y1591840D01*
X4830599Y1590040D01*
X4832400Y1584540D01*
X4832400Y1566340D01*
X4872400Y1591840D02*
G01*
X4879699Y1566340D01*
X4886900Y1591840D02*
G01*
X4879699Y1566340D01*
X4886900Y1591840D02*
G01*
X4894200Y1566340D01*
X4901500Y1591840D02*
G01*
X4894200Y1566340D01*
X4913499Y1604540D02*
G01*
X4913499Y1566340D01*
X4913499Y1584540D02*
G01*
X4918899Y1590040D01*
X4922599Y1591840D01*
X4927999Y1591840D01*
X4931700Y1590040D01*
X4933499Y1584540D01*
X4933499Y1566340D01*
X4945499Y1604540D02*
G01*
X4947300Y1602740D01*
X4949100Y1604540D01*
X4947300Y1606340D01*
X4945499Y1604540D01*
X4947300Y1591840D02*
G01*
X4947300Y1566340D01*
X4982900Y1586340D02*
G01*
X4979299Y1590040D01*
X4975700Y1591840D01*
X4970200Y1591840D01*
X4966600Y1590040D01*
X4962900Y1586340D01*
X4961100Y1580940D01*
X4961100Y1577340D01*
X4962900Y1571840D01*
X4966600Y1568240D01*
X4970200Y1566340D01*
X4975700Y1566340D01*
X4979299Y1568240D01*
X4982900Y1571840D01*
X4994900Y1604540D02*
G01*
X4994900Y1566340D01*
X4994900Y1584540D02*
G01*
X5000400Y1590040D01*
X5004000Y1591840D01*
X5009500Y1591840D01*
X5013099Y1590040D01*
X5014900Y1584540D01*
X5014900Y1566340D01*
X5054900Y1604540D02*
G01*
X5054900Y1566340D01*
X5054900Y1584540D02*
G01*
X5060400Y1590040D01*
X5064000Y1591840D01*
X5069500Y1591840D01*
X5073099Y1590040D01*
X5074900Y1584540D01*
X5074900Y1566340D01*
X5108800Y1591840D02*
G01*
X5108800Y1566340D01*
X5108800Y1586340D02*
G01*
X5105099Y1590040D01*
X5101500Y1591840D01*
X5095999Y1591840D01*
X5092400Y1590040D01*
X5088800Y1586340D01*
X5086900Y1580940D01*
X5086900Y1577340D01*
X5088800Y1571840D01*
X5092400Y1568240D01*
X5095999Y1566340D01*
X5101500Y1566340D01*
X5105099Y1568240D01*
X5108800Y1571840D01*
X5140800Y1586340D02*
G01*
X5138899Y1590040D01*
X5133499Y1591840D01*
X5127999Y1591840D01*
X5122599Y1590040D01*
X5120800Y1586340D01*
X5122599Y1582740D01*
X5126200Y1580940D01*
X5135300Y1579140D01*
X5138899Y1577340D01*
X5140800Y1573640D01*
X5140800Y1571840D01*
X5138899Y1568240D01*
X5133499Y1566340D01*
X5127999Y1566340D01*
X5122599Y1568240D01*
X5120800Y1571840D01*
X5180800Y1604540D02*
G01*
X5180800Y1566340D01*
X5201799Y1591840D02*
G01*
X5198200Y1590040D01*
X5194600Y1586340D01*
X5192800Y1580940D01*
X5192800Y1577340D01*
X5194600Y1571840D01*
X5198200Y1568240D01*
X5201799Y1566340D01*
X5207300Y1566340D01*
X5210900Y1568240D01*
X5214600Y1571840D01*
X5216399Y1577340D01*
X5216399Y1580940D01*
X5214600Y1586340D01*
X5210900Y1590040D01*
X5207300Y1591840D01*
X5201799Y1591840D01*
X5228400Y1591840D02*
G01*
X5235700Y1566340D01*
X5242900Y1591840D02*
G01*
X5235700Y1566340D01*
X5242900Y1591840D02*
G01*
X5250200Y1566340D01*
X5257500Y1591840D02*
G01*
X5250200Y1566340D01*
X5317500Y1586340D02*
G01*
X5315700Y1590040D01*
X5310200Y1591840D01*
X5304800Y1591840D01*
X5299299Y1590040D01*
X5297500Y1586340D01*
X5299299Y1582740D01*
X5302900Y1580940D01*
X5312000Y1579140D01*
X5315700Y1577340D01*
X5317500Y1573640D01*
X5317500Y1571840D01*
X5315700Y1568240D01*
X5310200Y1566340D01*
X5304800Y1566340D01*
X5299299Y1568240D01*
X5297500Y1571840D01*
X5329500Y1604540D02*
G01*
X5329500Y1566340D01*
X5347700Y1591840D02*
G01*
X5329500Y1573640D01*
X5336799Y1580940D02*
G01*
X5349500Y1566340D01*
X5361500Y1604540D02*
G01*
X5363300Y1602740D01*
X5365099Y1604540D01*
X5363300Y1606340D01*
X5361500Y1604540D01*
X5363300Y1591840D02*
G01*
X5363300Y1566340D01*
X5377100Y1591840D02*
G01*
X5377100Y1566340D01*
X5377100Y1584540D02*
G01*
X5382599Y1590040D01*
X5386200Y1591840D01*
X5391700Y1591840D01*
X5395300Y1590040D01*
X5397100Y1584540D01*
X5397100Y1566340D01*
X5437100Y1580940D02*
G01*
X5458899Y1580940D01*
X5458899Y1584540D01*
X5457100Y1588240D01*
X5455300Y1590040D01*
X5451700Y1591840D01*
X5446200Y1591840D01*
X5442599Y1590040D01*
X5438899Y1586340D01*
X5437100Y1580940D01*
X5437100Y1577340D01*
X5438899Y1571840D01*
X5442599Y1568240D01*
X5446200Y1566340D01*
X5451700Y1566340D01*
X5455300Y1568240D01*
X5458899Y1571840D01*
X5485499Y1604540D02*
G01*
X5481799Y1604540D01*
X5478200Y1602740D01*
X5476399Y1597340D01*
X5476399Y1566340D01*
X5470900Y1591840D02*
G01*
X5483700Y1591840D01*
X5512000Y1604540D02*
G01*
X5508400Y1604540D01*
X5504800Y1602740D01*
X5502900Y1597340D01*
X5502900Y1566340D01*
X5497500Y1591840D02*
G01*
X5510200Y1591840D01*
X5524000Y1580940D02*
G01*
X5545800Y1580940D01*
X5545800Y1584540D01*
X5544000Y1588240D01*
X5542199Y1590040D01*
X5538600Y1591840D01*
X5533099Y1591840D01*
X5529500Y1590040D01*
X5525800Y1586340D01*
X5524000Y1580940D01*
X5524000Y1577340D01*
X5525800Y1571840D01*
X5529500Y1568240D01*
X5533099Y1566340D01*
X5538600Y1566340D01*
X5542199Y1568240D01*
X5545800Y1571840D01*
X5579699Y1586340D02*
G01*
X5575999Y1590040D01*
X5572400Y1591840D01*
X5566900Y1591840D01*
X5563300Y1590040D01*
X5559699Y1586340D01*
X5557800Y1580940D01*
X5557800Y1577340D01*
X5559699Y1571840D01*
X5563300Y1568240D01*
X5566900Y1566340D01*
X5572400Y1566340D01*
X5575999Y1568240D01*
X5579699Y1571840D01*
X5597100Y1604540D02*
G01*
X5597100Y1573640D01*
X5598899Y1568240D01*
X5602599Y1566340D01*
X5606200Y1566340D01*
X5591700Y1591840D02*
G01*
X5604400Y1591840D01*
X5620000Y1575440D02*
G01*
X5618200Y1573640D01*
X5620000Y1571840D01*
X5621799Y1573640D01*
X5620000Y1575440D01*
X2631100Y1514239D02*
G01*
X2612900Y1476040D01*
X2605599Y1514239D02*
G01*
X2631100Y1514239D01*
X2644900Y1485140D02*
G01*
X2643099Y1483340D01*
X2644900Y1481540D01*
X2646700Y1483340D01*
X2644900Y1485140D01*
X2686700Y1514239D02*
G01*
X2686700Y1476040D01*
X2686700Y1514239D02*
G01*
X2703099Y1514239D01*
X2708499Y1512440D01*
X2710300Y1510640D01*
X2712100Y1507040D01*
X2712100Y1501540D01*
X2710300Y1497940D01*
X2708499Y1496040D01*
X2703099Y1494239D01*
X2686700Y1494239D01*
X2751399Y1505140D02*
G01*
X2749600Y1508840D01*
X2745999Y1512440D01*
X2742300Y1514239D01*
X2735099Y1514239D01*
X2731399Y1512440D01*
X2727800Y1508840D01*
X2725999Y1505140D01*
X2724100Y1499740D01*
X2724100Y1490640D01*
X2725999Y1485140D01*
X2727800Y1481540D01*
X2731399Y1477940D01*
X2735099Y1476040D01*
X2742300Y1476040D01*
X2745999Y1477940D01*
X2749600Y1481540D01*
X2751399Y1485140D01*
X2763400Y1514239D02*
G01*
X2763400Y1476040D01*
X2763400Y1514239D02*
G01*
X2779800Y1514239D01*
X2785200Y1512440D01*
X2787100Y1510640D01*
X2788899Y1507040D01*
X2788899Y1503340D01*
X2787100Y1499740D01*
X2785200Y1497940D01*
X2779800Y1496040D01*
X2763400Y1496040D02*
G01*
X2779800Y1496040D01*
X2785200Y1494239D01*
X2787100Y1492440D01*
X2788899Y1488840D01*
X2788899Y1483340D01*
X2787100Y1479740D01*
X2785200Y1477940D01*
X2779800Y1476040D01*
X2763400Y1476040D01*
X2828899Y1514239D02*
G01*
X2828899Y1476040D01*
X2828899Y1514239D02*
G01*
X2843400Y1476040D01*
X2857999Y1514239D02*
G01*
X2843400Y1476040D01*
X2857999Y1514239D02*
G01*
X2857999Y1476040D01*
X2891799Y1501540D02*
G01*
X2891799Y1476040D01*
X2891799Y1496040D02*
G01*
X2888099Y1499740D01*
X2884500Y1501540D01*
X2879100Y1501540D01*
X2875400Y1499740D01*
X2871799Y1496040D01*
X2870000Y1490640D01*
X2870000Y1487040D01*
X2871799Y1481540D01*
X2875400Y1477940D01*
X2879100Y1476040D01*
X2884500Y1476040D01*
X2888099Y1477940D01*
X2891799Y1481540D01*
X2909200Y1514239D02*
G01*
X2909200Y1483340D01*
X2911100Y1477940D01*
X2914699Y1476040D01*
X2918300Y1476040D01*
X2903800Y1501540D02*
G01*
X2916500Y1501540D01*
X2930300Y1490640D02*
G01*
X2952100Y1490640D01*
X2952100Y1494239D01*
X2950300Y1497940D01*
X2948499Y1499740D01*
X2944900Y1501540D01*
X2939400Y1501540D01*
X2935800Y1499740D01*
X2932100Y1496040D01*
X2930300Y1490640D01*
X2930300Y1487040D01*
X2932100Y1481540D01*
X2935800Y1477940D01*
X2939400Y1476040D01*
X2944900Y1476040D01*
X2948499Y1477940D01*
X2952100Y1481540D01*
X2964100Y1501540D02*
G01*
X2964100Y1476040D01*
X2964100Y1490640D02*
G01*
X2965999Y1496040D01*
X2969600Y1499740D01*
X2973200Y1501540D01*
X2978700Y1501540D01*
X2990700Y1514239D02*
G01*
X2992500Y1512440D01*
X2994299Y1514239D01*
X2992500Y1516040D01*
X2990700Y1514239D01*
X2992500Y1501540D02*
G01*
X2992500Y1476040D01*
X3028099Y1501540D02*
G01*
X3028099Y1476040D01*
X3028099Y1496040D02*
G01*
X3024500Y1499740D01*
X3020900Y1501540D01*
X3015400Y1501540D01*
X3011799Y1499740D01*
X3008099Y1496040D01*
X3006300Y1490640D01*
X3006300Y1487040D01*
X3008099Y1481540D01*
X3011799Y1477940D01*
X3015400Y1476040D01*
X3020900Y1476040D01*
X3024500Y1477940D01*
X3028099Y1481540D01*
X3040099Y1514239D02*
G01*
X3040099Y1476040D01*
X3080099Y1497940D02*
G01*
X3112900Y1497940D01*
X3080099Y1487040D02*
G01*
X3112900Y1487040D01*
X3167400Y1514239D02*
G01*
X3152900Y1476040D01*
X3167400Y1514239D02*
G01*
X3182000Y1476040D01*
X3158300Y1488840D02*
G01*
X3176500Y1488840D01*
X3194000Y1501540D02*
G01*
X3194000Y1476040D01*
X3194000Y1494239D02*
G01*
X3199400Y1499740D01*
X3203099Y1501540D01*
X3208499Y1501540D01*
X3212100Y1499740D01*
X3214000Y1494239D01*
X3214000Y1476040D01*
X3227800Y1501540D02*
G01*
X3238700Y1476040D01*
X3249600Y1501540D02*
G01*
X3238700Y1476040D01*
X3235099Y1468840D01*
X3231399Y1465140D01*
X3227800Y1463340D01*
X3225999Y1463340D01*
X3289600Y1514239D02*
G01*
X3289600Y1476040D01*
X3315099Y1514239D02*
G01*
X3315099Y1476040D01*
X3289600Y1496040D02*
G01*
X3315099Y1496040D01*
X3327100Y1514239D02*
G01*
X3328899Y1512440D01*
X3330700Y1514239D01*
X3328899Y1516040D01*
X3327100Y1514239D01*
X3328899Y1501540D02*
G01*
X3328899Y1476040D01*
X3364500Y1501540D02*
G01*
X3364500Y1472440D01*
X3362700Y1467040D01*
X3360900Y1465140D01*
X3357199Y1463340D01*
X3351799Y1463340D01*
X3348099Y1465140D01*
X3364500Y1496040D02*
G01*
X3360900Y1499740D01*
X3357199Y1501540D01*
X3351799Y1501540D01*
X3348099Y1499740D01*
X3344500Y1496040D01*
X3342700Y1490640D01*
X3342700Y1487040D01*
X3344500Y1481540D01*
X3348099Y1477940D01*
X3351799Y1476040D01*
X3357199Y1476040D01*
X3360900Y1477940D01*
X3364500Y1481540D01*
X3376500Y1514239D02*
G01*
X3376500Y1476040D01*
X3376500Y1494239D02*
G01*
X3382000Y1499740D01*
X3385599Y1501540D01*
X3391100Y1501540D01*
X3394699Y1499740D01*
X3396500Y1494239D01*
X3396500Y1476040D01*
X3451100Y1514239D02*
G01*
X3447400Y1514239D01*
X3443800Y1512440D01*
X3442000Y1507040D01*
X3442000Y1476040D01*
X3436500Y1501540D02*
G01*
X3449200Y1501540D01*
X3463099Y1501540D02*
G01*
X3463099Y1476040D01*
X3463099Y1490640D02*
G01*
X3464900Y1496040D01*
X3468499Y1499740D01*
X3472100Y1501540D01*
X3477599Y1501540D01*
X3489600Y1490640D02*
G01*
X3511399Y1490640D01*
X3511399Y1494239D01*
X3509600Y1497940D01*
X3507800Y1499740D01*
X3504100Y1501540D01*
X3498700Y1501540D01*
X3495099Y1499740D01*
X3491399Y1496040D01*
X3489600Y1490640D01*
X3489600Y1487040D01*
X3491399Y1481540D01*
X3495099Y1477940D01*
X3498700Y1476040D01*
X3504100Y1476040D01*
X3507800Y1477940D01*
X3511399Y1481540D01*
X3545200Y1501540D02*
G01*
X3545200Y1463340D01*
X3545200Y1496040D02*
G01*
X3541600Y1499740D01*
X3537999Y1501540D01*
X3532500Y1501540D01*
X3528899Y1499740D01*
X3525200Y1496040D01*
X3523400Y1490640D01*
X3523400Y1487040D01*
X3525200Y1481540D01*
X3528899Y1477940D01*
X3532500Y1476040D01*
X3537999Y1476040D01*
X3541600Y1477940D01*
X3545200Y1481540D01*
X3557199Y1501540D02*
G01*
X3557199Y1483340D01*
X3559100Y1477940D01*
X3562700Y1476040D01*
X3568099Y1476040D01*
X3571799Y1477940D01*
X3577199Y1483340D01*
X3577199Y1501540D02*
G01*
X3577199Y1476040D01*
X3589200Y1490640D02*
G01*
X3611100Y1490640D01*
X3611100Y1494239D01*
X3609200Y1497940D01*
X3607400Y1499740D01*
X3603800Y1501540D01*
X3598300Y1501540D01*
X3594699Y1499740D01*
X3591100Y1496040D01*
X3589200Y1490640D01*
X3589200Y1487040D01*
X3591100Y1481540D01*
X3594699Y1477940D01*
X3598300Y1476040D01*
X3603800Y1476040D01*
X3607400Y1477940D01*
X3611100Y1481540D01*
X3623099Y1501540D02*
G01*
X3623099Y1476040D01*
X3623099Y1494239D02*
G01*
X3628499Y1499740D01*
X3632100Y1501540D01*
X3637599Y1501540D01*
X3641200Y1499740D01*
X3643099Y1494239D01*
X3643099Y1476040D01*
X3676900Y1496040D02*
G01*
X3673200Y1499740D01*
X3669600Y1501540D01*
X3664100Y1501540D01*
X3660499Y1499740D01*
X3656900Y1496040D01*
X3655099Y1490640D01*
X3655099Y1487040D01*
X3656900Y1481540D01*
X3660499Y1477940D01*
X3664100Y1476040D01*
X3669600Y1476040D01*
X3673200Y1477940D01*
X3676900Y1481540D01*
X3690700Y1501540D02*
G01*
X3701600Y1476040D01*
X3712500Y1501540D02*
G01*
X3701600Y1476040D01*
X3697999Y1468840D01*
X3694299Y1465140D01*
X3690700Y1463340D01*
X3688899Y1463340D01*
X3752500Y1501540D02*
G01*
X3752500Y1463340D01*
X3752500Y1496040D02*
G01*
X3756100Y1499740D01*
X3759800Y1501540D01*
X3765200Y1501540D01*
X3768899Y1499740D01*
X3772500Y1496040D01*
X3774299Y1490640D01*
X3774299Y1487040D01*
X3772500Y1481540D01*
X3768899Y1477940D01*
X3765200Y1476040D01*
X3759800Y1476040D01*
X3756100Y1477940D01*
X3752500Y1481540D01*
X3808099Y1496040D02*
G01*
X3804500Y1499740D01*
X3800900Y1501540D01*
X3795400Y1501540D01*
X3791799Y1499740D01*
X3788099Y1496040D01*
X3786300Y1490640D01*
X3786300Y1487040D01*
X3788099Y1481540D01*
X3791799Y1477940D01*
X3795400Y1476040D01*
X3800900Y1476040D01*
X3804500Y1477940D01*
X3808099Y1481540D01*
X3820099Y1514239D02*
G01*
X3820099Y1476040D01*
X3820099Y1496040D02*
G01*
X3823800Y1499740D01*
X3827400Y1501540D01*
X3832900Y1501540D01*
X3836500Y1499740D01*
X3840099Y1496040D01*
X3842000Y1490640D01*
X3842000Y1487040D01*
X3840099Y1481540D01*
X3836500Y1477940D01*
X3832900Y1476040D01*
X3827400Y1476040D01*
X3823800Y1477940D01*
X3820099Y1481540D01*
X3855800Y1485140D02*
G01*
X3854000Y1483340D01*
X3855800Y1481540D01*
X3857599Y1483340D01*
X3855800Y1485140D01*
X3897599Y1514239D02*
G01*
X3899400Y1512440D01*
X3901200Y1514239D01*
X3899400Y1516040D01*
X3897599Y1514239D01*
X3899400Y1501540D02*
G01*
X3899400Y1476040D01*
X3927800Y1514239D02*
G01*
X3924100Y1514239D01*
X3920499Y1512440D01*
X3918700Y1507040D01*
X3918700Y1476040D01*
X3913200Y1501540D02*
G01*
X3925999Y1501540D01*
X3967800Y1501540D02*
G01*
X3967800Y1476040D01*
X3967800Y1494239D02*
G01*
X3973200Y1499740D01*
X3976900Y1501540D01*
X3982300Y1501540D01*
X3985999Y1499740D01*
X3987800Y1494239D01*
X3987800Y1476040D01*
X4008899Y1501540D02*
G01*
X4005200Y1499740D01*
X4001600Y1496040D01*
X3999800Y1490640D01*
X3999800Y1487040D01*
X4001600Y1481540D01*
X4005200Y1477940D01*
X4008899Y1476040D01*
X4014299Y1476040D01*
X4017999Y1477940D01*
X4021600Y1481540D01*
X4023400Y1487040D01*
X4023400Y1490640D01*
X4021600Y1496040D01*
X4017999Y1499740D01*
X4014299Y1501540D01*
X4008899Y1501540D01*
X4040900Y1514239D02*
G01*
X4040900Y1483340D01*
X4042700Y1477940D01*
X4046300Y1476040D01*
X4050000Y1476040D01*
X4035400Y1501540D02*
G01*
X4048099Y1501540D01*
X4111799Y1501540D02*
G01*
X4111799Y1476040D01*
X4111799Y1496040D02*
G01*
X4108099Y1499740D01*
X4104500Y1501540D01*
X4099100Y1501540D01*
X4095400Y1499740D01*
X4091799Y1496040D01*
X4090000Y1490640D01*
X4090000Y1487040D01*
X4091799Y1481540D01*
X4095400Y1477940D01*
X4099100Y1476040D01*
X4104500Y1476040D01*
X4108099Y1477940D01*
X4111799Y1481540D01*
X4123800Y1501540D02*
G01*
X4134699Y1476040D01*
X4145599Y1501540D02*
G01*
X4134699Y1476040D01*
X4179400Y1501540D02*
G01*
X4179400Y1476040D01*
X4179400Y1496040D02*
G01*
X4175800Y1499740D01*
X4172100Y1501540D01*
X4166700Y1501540D01*
X4163099Y1499740D01*
X4159400Y1496040D01*
X4157599Y1490640D01*
X4157599Y1487040D01*
X4159400Y1481540D01*
X4163099Y1477940D01*
X4166700Y1476040D01*
X4172100Y1476040D01*
X4175800Y1477940D01*
X4179400Y1481540D01*
X4191399Y1514239D02*
G01*
X4193200Y1512440D01*
X4195099Y1514239D01*
X4193200Y1516040D01*
X4191399Y1514239D01*
X4193200Y1501540D02*
G01*
X4193200Y1476040D01*
X4207100Y1514239D02*
G01*
X4207100Y1476040D01*
X4240900Y1501540D02*
G01*
X4240900Y1476040D01*
X4240900Y1496040D02*
G01*
X4237199Y1499740D01*
X4233600Y1501540D01*
X4228099Y1501540D01*
X4224500Y1499740D01*
X4220900Y1496040D01*
X4219100Y1490640D01*
X4219100Y1487040D01*
X4220900Y1481540D01*
X4224500Y1477940D01*
X4228099Y1476040D01*
X4233600Y1476040D01*
X4237199Y1477940D01*
X4240900Y1481540D01*
X4252900Y1514239D02*
G01*
X4252900Y1476040D01*
X4252900Y1496040D02*
G01*
X4256500Y1499740D01*
X4260099Y1501540D01*
X4265599Y1501540D01*
X4269200Y1499740D01*
X4272900Y1496040D01*
X4274699Y1490640D01*
X4274699Y1487040D01*
X4272900Y1481540D01*
X4269200Y1477940D01*
X4265599Y1476040D01*
X4260099Y1476040D01*
X4256500Y1477940D01*
X4252900Y1481540D01*
X4286700Y1514239D02*
G01*
X4286700Y1476040D01*
X4298700Y1490640D02*
G01*
X4320499Y1490640D01*
X4320499Y1494239D01*
X4318700Y1497940D01*
X4316900Y1499740D01*
X4313200Y1501540D01*
X4307800Y1501540D01*
X4304100Y1499740D01*
X4300499Y1496040D01*
X4298700Y1490640D01*
X4298700Y1487040D01*
X4300499Y1481540D01*
X4304100Y1477940D01*
X4307800Y1476040D01*
X4313200Y1476040D01*
X4316900Y1477940D01*
X4320499Y1481540D01*
X4360499Y1501540D02*
G01*
X4360499Y1483340D01*
X4362300Y1477940D01*
X4365999Y1476040D01*
X4371399Y1476040D01*
X4375099Y1477940D01*
X4380499Y1483340D01*
X4380499Y1501540D02*
G01*
X4380499Y1476040D01*
X4412500Y1496040D02*
G01*
X4410700Y1499740D01*
X4405200Y1501540D01*
X4399800Y1501540D01*
X4394299Y1499740D01*
X4392500Y1496040D01*
X4394299Y1492440D01*
X4397999Y1490640D01*
X4407100Y1488840D01*
X4410700Y1487040D01*
X4412500Y1483340D01*
X4412500Y1481540D01*
X4410700Y1477940D01*
X4405200Y1476040D01*
X4399800Y1476040D01*
X4394299Y1477940D01*
X4392500Y1481540D01*
X4424500Y1490640D02*
G01*
X4446300Y1490640D01*
X4446300Y1494239D01*
X4444500Y1497940D01*
X4442700Y1499740D01*
X4439100Y1501540D01*
X4433600Y1501540D01*
X4430000Y1499740D01*
X4426300Y1496040D01*
X4424500Y1490640D01*
X4424500Y1487040D01*
X4426300Y1481540D01*
X4430000Y1477940D01*
X4433600Y1476040D01*
X4439100Y1476040D01*
X4442700Y1477940D01*
X4446300Y1481540D01*
X4486300Y1514239D02*
G01*
X4486300Y1476040D01*
X4486300Y1514239D02*
G01*
X4510000Y1514239D01*
X4486300Y1496040D02*
G01*
X4500900Y1496040D01*
X4522000Y1514239D02*
G01*
X4522000Y1476040D01*
X4522000Y1514239D02*
G01*
X4538300Y1514239D01*
X4543800Y1512440D01*
X4545599Y1510640D01*
X4547400Y1507040D01*
X4547400Y1503340D01*
X4545599Y1499740D01*
X4543800Y1497940D01*
X4538300Y1496040D01*
X4522000Y1496040D01*
X4534699Y1496040D02*
G01*
X4547400Y1476040D01*
X4577599Y1514239D02*
G01*
X4559400Y1488840D01*
X4586700Y1488840D01*
X4577599Y1514239D02*
G01*
X4577599Y1476040D01*
X4626700Y1507040D02*
G01*
X4630300Y1508840D01*
X4635800Y1514239D01*
X4635800Y1476040D01*
X4651399Y1514239D02*
G01*
X4671399Y1514239D01*
X4660499Y1499740D01*
X4665999Y1499740D01*
X4669600Y1497940D01*
X4671399Y1496040D01*
X4673200Y1490640D01*
X4673200Y1487040D01*
X4671399Y1481540D01*
X4667800Y1477940D01*
X4662300Y1476040D01*
X4656900Y1476040D01*
X4651399Y1477940D01*
X4649600Y1479740D01*
X4647800Y1483340D01*
X4707100Y1514239D02*
G01*
X4688899Y1514239D01*
X4687100Y1497940D01*
X4688899Y1499740D01*
X4694299Y1501540D01*
X4699800Y1501540D01*
X4705200Y1499740D01*
X4708899Y1496040D01*
X4710700Y1490640D01*
X4710700Y1487040D01*
X4708899Y1481540D01*
X4705200Y1477940D01*
X4699800Y1476040D01*
X4694299Y1476040D01*
X4688899Y1477940D01*
X4687100Y1479740D01*
X4685200Y1483340D01*
X4722700Y1492440D02*
G01*
X4755400Y1492440D01*
X4767400Y1507040D02*
G01*
X4771100Y1508840D01*
X4776500Y1514239D01*
X4776500Y1476040D01*
X4806700Y1514239D02*
G01*
X4788499Y1488840D01*
X4815800Y1488840D01*
X4806700Y1514239D02*
G01*
X4806700Y1476040D01*
X4838700Y1514239D02*
G01*
X4833200Y1512440D01*
X4829600Y1507040D01*
X4827800Y1497940D01*
X4827800Y1492440D01*
X4829600Y1483340D01*
X4833200Y1477940D01*
X4838700Y1476040D01*
X4842300Y1476040D01*
X4847800Y1477940D01*
X4851399Y1483340D01*
X4853200Y1492440D01*
X4853200Y1497940D01*
X4851399Y1507040D01*
X4847800Y1512440D01*
X4842300Y1514239D01*
X4838700Y1514239D01*
X4877999Y1514239D02*
G01*
X4877999Y1476040D01*
X4865200Y1514239D02*
G01*
X4890700Y1514239D01*
X4930000Y1505140D02*
G01*
X4928099Y1508840D01*
X4924500Y1512440D01*
X4920900Y1514239D01*
X4913600Y1514239D01*
X4910000Y1512440D01*
X4906300Y1508840D01*
X4904500Y1505140D01*
X4902700Y1499740D01*
X4902700Y1490640D01*
X4904500Y1485140D01*
X4906300Y1481540D01*
X4910000Y1477940D01*
X4913600Y1476040D01*
X4920900Y1476040D01*
X4924500Y1477940D01*
X4928099Y1481540D01*
X4930000Y1485140D01*
X4930000Y1490640D01*
X4920900Y1490640D02*
G01*
X4930000Y1490640D01*
X2620711Y1431440D02*
G01*
X2615212Y1429639D01*
X2613412Y1426040D01*
X2613412Y1422340D01*
X2615212Y1418740D01*
X2618912Y1416939D01*
X2626111Y1415140D01*
X2631612Y1413240D01*
X2635212Y1409639D01*
X2637011Y1406040D01*
X2637011Y1400540D01*
X2635212Y1396939D01*
X2633412Y1395140D01*
X2627912Y1393240D01*
X2620711Y1393240D01*
X2615212Y1395140D01*
X2613412Y1396939D01*
X2611612Y1400540D01*
X2611612Y1406040D01*
X2613412Y1409639D01*
X2617011Y1413240D01*
X2622512Y1415140D01*
X2629811Y1416939D01*
X2633412Y1418740D01*
X2635212Y1422340D01*
X2635212Y1426040D01*
X2633412Y1429639D01*
X2627912Y1431440D01*
X2620711Y1431440D01*
X2650912Y1402340D02*
G01*
X2649011Y1400540D01*
X2650912Y1398740D01*
X2652712Y1400540D01*
X2650912Y1402340D01*
X2692712Y1431440D02*
G01*
X2692712Y1393240D01*
X2692712Y1393240D02*
G01*
X2714511Y1393240D01*
X2726511Y1407840D02*
G01*
X2748312Y1407840D01*
X2748312Y1411440D01*
X2746511Y1415140D01*
X2744712Y1416939D01*
X2741012Y1418740D01*
X2735612Y1418740D01*
X2731911Y1416939D01*
X2728312Y1413240D01*
X2726511Y1407840D01*
X2726511Y1404239D01*
X2728312Y1398740D01*
X2731911Y1395140D01*
X2735612Y1393240D01*
X2741012Y1393240D01*
X2744712Y1395140D01*
X2748312Y1398740D01*
X2782112Y1418740D02*
G01*
X2782112Y1389639D01*
X2780311Y1384239D01*
X2778512Y1382340D01*
X2774911Y1380540D01*
X2769411Y1380540D01*
X2765812Y1382340D01*
X2782112Y1413240D02*
G01*
X2778512Y1416939D01*
X2774911Y1418740D01*
X2769411Y1418740D01*
X2765812Y1416939D01*
X2762112Y1413240D01*
X2760311Y1407840D01*
X2760311Y1404239D01*
X2762112Y1398740D01*
X2765812Y1395140D01*
X2769411Y1393240D01*
X2774911Y1393240D01*
X2778512Y1395140D01*
X2782112Y1398740D01*
X2794112Y1407840D02*
G01*
X2815912Y1407840D01*
X2815912Y1411440D01*
X2814112Y1415140D01*
X2812311Y1416939D01*
X2808712Y1418740D01*
X2803211Y1418740D01*
X2799612Y1416939D01*
X2795912Y1413240D01*
X2794112Y1407840D01*
X2794112Y1404239D01*
X2795912Y1398740D01*
X2799612Y1395140D01*
X2803211Y1393240D01*
X2808712Y1393240D01*
X2812311Y1395140D01*
X2815912Y1398740D01*
X2827912Y1418740D02*
G01*
X2827912Y1393240D01*
X2827912Y1411440D02*
G01*
X2833412Y1416939D01*
X2837011Y1418740D01*
X2842512Y1418740D01*
X2846111Y1416939D01*
X2847912Y1411440D01*
X2847912Y1393240D01*
X2881812Y1431440D02*
G01*
X2881812Y1393240D01*
X2881812Y1413240D02*
G01*
X2878112Y1416939D01*
X2874511Y1418740D01*
X2869011Y1418740D01*
X2865412Y1416939D01*
X2861812Y1413240D01*
X2859911Y1407840D01*
X2859911Y1404239D01*
X2861812Y1398740D01*
X2865412Y1395140D01*
X2869011Y1393240D01*
X2874511Y1393240D01*
X2878112Y1395140D01*
X2881812Y1398740D01*
X2921812Y1431440D02*
G01*
X2921812Y1393240D01*
X2921812Y1431440D02*
G01*
X2936312Y1393240D01*
X2950912Y1431440D02*
G01*
X2936312Y1393240D01*
X2950912Y1431440D02*
G01*
X2950912Y1393240D01*
X2984712Y1418740D02*
G01*
X2984712Y1393240D01*
X2984712Y1413240D02*
G01*
X2981012Y1416939D01*
X2977411Y1418740D01*
X2971911Y1418740D01*
X2968312Y1416939D01*
X2964712Y1413240D01*
X2962912Y1407840D01*
X2962912Y1404239D01*
X2964712Y1398740D01*
X2968312Y1395140D01*
X2971911Y1393240D01*
X2977411Y1393240D01*
X2981012Y1395140D01*
X2984712Y1398740D01*
X2996712Y1418740D02*
G01*
X2996712Y1393240D01*
X2996712Y1407840D02*
G01*
X2998512Y1413240D01*
X3002112Y1416939D01*
X3005812Y1418740D01*
X3011212Y1418740D01*
X3023211Y1431440D02*
G01*
X3023211Y1393240D01*
X3041412Y1418740D02*
G01*
X3023211Y1400540D01*
X3030512Y1407840D02*
G01*
X3043211Y1393240D01*
X3055212Y1431440D02*
G01*
X3057011Y1429639D01*
X3058912Y1431440D01*
X3057011Y1433240D01*
X3055212Y1431440D01*
X3057011Y1418740D02*
G01*
X3057011Y1393240D01*
X3070912Y1418740D02*
G01*
X3070912Y1393240D01*
X3070912Y1411440D02*
G01*
X3076312Y1416939D01*
X3079911Y1418740D01*
X3085412Y1418740D01*
X3089011Y1416939D01*
X3090912Y1411440D01*
X3090912Y1393240D01*
X3124712Y1418740D02*
G01*
X3124712Y1389639D01*
X3122912Y1384239D01*
X3121012Y1382340D01*
X3117411Y1380540D01*
X3111911Y1380540D01*
X3108312Y1382340D01*
X3124712Y1413240D02*
G01*
X3121012Y1416939D01*
X3117411Y1418740D01*
X3111911Y1418740D01*
X3108312Y1416939D01*
X3104712Y1413240D01*
X3102912Y1407840D01*
X3102912Y1404239D01*
X3104712Y1398740D01*
X3108312Y1395140D01*
X3111911Y1393240D01*
X3117411Y1393240D01*
X3121012Y1395140D01*
X3124712Y1398740D01*
X3164712Y1415140D02*
G01*
X3197411Y1415140D01*
X3164712Y1404239D02*
G01*
X3197411Y1404239D01*
X3237411Y1431440D02*
G01*
X3246511Y1393240D01*
X3255612Y1431440D02*
G01*
X3246511Y1393240D01*
X3255612Y1431440D02*
G01*
X3264712Y1393240D01*
X3273812Y1431440D02*
G01*
X3264712Y1393240D01*
X3285812Y1431440D02*
G01*
X3285812Y1393240D01*
X3285812Y1411440D02*
G01*
X3291212Y1416939D01*
X3294911Y1418740D01*
X3300311Y1418740D01*
X3303912Y1416939D01*
X3305812Y1411440D01*
X3305812Y1393240D01*
X3317811Y1431440D02*
G01*
X3319612Y1429639D01*
X3321412Y1431440D01*
X3319612Y1433240D01*
X3317811Y1431440D01*
X3319612Y1418740D02*
G01*
X3319612Y1393240D01*
X3338912Y1431440D02*
G01*
X3338912Y1400540D01*
X3340711Y1395140D01*
X3344312Y1393240D01*
X3347912Y1393240D01*
X3333412Y1418740D02*
G01*
X3346111Y1418740D01*
X3359911Y1407840D02*
G01*
X3381812Y1407840D01*
X3381812Y1411440D01*
X3379911Y1415140D01*
X3378112Y1416939D01*
X3374511Y1418740D01*
X3369011Y1418740D01*
X3365412Y1416939D01*
X3361812Y1413240D01*
X3359911Y1407840D01*
X3359911Y1404239D01*
X3361812Y1398740D01*
X3365412Y1395140D01*
X3369011Y1393240D01*
X3374511Y1393240D01*
X3378112Y1395140D01*
X3381812Y1398740D01*
D28*
X-78739Y0D02*
G01*
X-78739Y158775D01*
X-78739Y471145D02*
G01*
X-78739Y629920D01*
X-63739Y60000D02*
G01*
X-78739Y0D01*
X-93739Y60000D01*
X-63739Y569920D02*
G01*
X-78739Y629920D01*
X-93739Y569920D01*
X-46144Y451176D02*
G01*
X-44344Y447576D01*
X-39044Y442175D01*
X-76544Y442175D01*
X-44344Y408876D02*
G01*
X-40844Y410676D01*
X-39044Y416076D01*
X-39044Y419675D01*
X-40844Y424976D01*
X-46144Y428576D01*
X-55144Y430376D01*
X-64044Y430376D01*
X-71244Y428576D01*
X-74845Y424976D01*
X-76544Y419675D01*
X-76544Y417876D01*
X-74845Y412476D01*
X-71244Y408876D01*
X-65844Y407076D01*
X-64044Y407076D01*
X-58744Y408876D01*
X-55144Y412476D01*
X-53344Y417876D01*
X-53344Y419675D01*
X-55144Y424976D01*
X-58744Y428576D01*
X-64044Y430376D01*
X-67644Y393476D02*
G01*
X-69445Y395276D01*
X-71244Y393476D01*
X-69445Y391775D01*
X-67644Y393476D01*
X-39044Y369176D02*
G01*
X-40844Y374576D01*
X-46144Y378176D01*
X-55144Y379876D01*
X-60444Y379876D01*
X-69445Y378176D01*
X-74845Y374576D01*
X-76544Y369176D01*
X-76544Y365576D01*
X-74845Y360276D01*
X-69445Y356676D01*
X-60444Y354876D01*
X-55144Y354876D01*
X-46144Y356676D01*
X-40844Y360276D01*
X-39044Y365576D01*
X-39044Y369176D01*
X-39044Y332276D02*
G01*
X-40844Y337676D01*
X-46144Y341276D01*
X-55144Y343076D01*
X-60444Y343076D01*
X-69445Y341276D01*
X-74845Y337676D01*
X-76544Y332276D01*
X-76544Y328776D01*
X-74845Y323376D01*
X-69445Y319776D01*
X-60444Y317976D01*
X-55144Y317976D01*
X-46144Y319776D01*
X-40844Y323376D01*
X-39044Y328776D01*
X-39044Y332276D01*
X-39044Y295476D02*
G01*
X-40844Y300776D01*
X-46144Y304376D01*
X-55144Y306176D01*
X-60444Y306176D01*
X-69445Y304376D01*
X-74845Y300776D01*
X-76544Y295476D01*
X-76544Y291876D01*
X-74845Y286476D01*
X-69445Y282976D01*
X-60444Y281176D01*
X-55144Y281176D01*
X-46144Y282976D01*
X-40844Y286476D01*
X-39044Y291876D01*
X-39044Y295476D01*
X-51544Y269376D02*
G01*
X-76544Y269376D01*
X-58744Y269376D02*
G01*
X-53344Y263976D01*
X-51544Y260376D01*
X-51544Y254976D01*
X-53344Y251476D01*
X-58744Y249675D01*
X-76544Y249675D01*
X-58744Y249675D02*
G01*
X-53344Y244275D01*
X-51544Y240676D01*
X-51544Y235276D01*
X-53344Y231775D01*
X-58744Y229976D01*
X-76544Y229976D01*
X-51544Y218176D02*
G01*
X-76544Y218176D01*
X-58744Y218176D02*
G01*
X-53344Y212776D01*
X-51544Y209176D01*
X-51544Y203876D01*
X-53344Y200276D01*
X-58744Y198476D01*
X-76544Y198476D01*
X-58744Y198476D02*
G01*
X-53344Y193076D01*
X-51544Y189475D01*
X-51544Y184176D01*
X-53344Y180576D01*
X-58744Y178776D01*
X-76544Y178776D01*
X-78498Y0D02*
G01*
X-178739Y0D01*
X-78498Y629920D02*
G01*
X-178739Y629920D01*
D13*
X2625800Y1837540D02*
G01*
X2607599Y1837540D01*
X2605800Y1821240D01*
X2607599Y1823040D01*
X2613099Y1824840D01*
X2618499Y1824840D01*
X2624000Y1823040D01*
X2627599Y1819340D01*
X2629500Y1813940D01*
X2629500Y1810340D01*
X2627599Y1804840D01*
X2624000Y1801240D01*
X2618499Y1799340D01*
X2613099Y1799340D01*
X2607599Y1801240D01*
X2605800Y1803040D01*
X2604000Y1806640D01*
X2643300Y1808440D02*
G01*
X2641500Y1806640D01*
X2643300Y1804840D01*
X2645099Y1806640D01*
X2643300Y1808440D01*
X2685099Y1837540D02*
G01*
X2685099Y1799340D01*
X2697100Y1824840D02*
G01*
X2697100Y1799340D01*
X2697100Y1817540D02*
G01*
X2702500Y1823040D01*
X2706200Y1824840D01*
X2711600Y1824840D01*
X2715300Y1823040D01*
X2717100Y1817540D01*
X2717100Y1799340D01*
X2729100Y1824840D02*
G01*
X2729100Y1799340D01*
X2729100Y1817540D02*
G01*
X2734500Y1823040D01*
X2738200Y1824840D01*
X2743600Y1824840D01*
X2747300Y1823040D01*
X2749100Y1817540D01*
X2749100Y1799340D01*
X2761100Y1813940D02*
G01*
X2782900Y1813940D01*
X2782900Y1817540D01*
X2781100Y1821240D01*
X2779299Y1823040D01*
X2775599Y1824840D01*
X2770200Y1824840D01*
X2766500Y1823040D01*
X2762900Y1819340D01*
X2761100Y1813940D01*
X2761100Y1810340D01*
X2762900Y1804840D01*
X2766500Y1801240D01*
X2770200Y1799340D01*
X2775599Y1799340D01*
X2779299Y1801240D01*
X2782900Y1804840D01*
X2794900Y1824840D02*
G01*
X2794900Y1799340D01*
X2794900Y1813940D02*
G01*
X2796700Y1819340D01*
X2800400Y1823040D01*
X2804000Y1824840D01*
X2809500Y1824840D01*
X2849500Y1837540D02*
G01*
X2849500Y1799340D01*
X2883300Y1824840D02*
G01*
X2883300Y1799340D01*
X2883300Y1819340D02*
G01*
X2879600Y1823040D01*
X2875999Y1824840D01*
X2870499Y1824840D01*
X2866900Y1823040D01*
X2863300Y1819340D01*
X2861500Y1813940D01*
X2861500Y1810340D01*
X2863300Y1804840D01*
X2866900Y1801240D01*
X2870499Y1799340D01*
X2875999Y1799340D01*
X2879600Y1801240D01*
X2883300Y1804840D01*
X2897100Y1824840D02*
G01*
X2907999Y1799340D01*
X2918899Y1824840D02*
G01*
X2907999Y1799340D01*
X2904400Y1792139D01*
X2900700Y1788440D01*
X2897100Y1786640D01*
X2895300Y1786640D01*
X2930900Y1813940D02*
G01*
X2952700Y1813940D01*
X2952700Y1817540D01*
X2950900Y1821240D01*
X2949100Y1823040D01*
X2945499Y1824840D01*
X2940000Y1824840D01*
X2936399Y1823040D01*
X2932700Y1819340D01*
X2930900Y1813940D01*
X2930900Y1810340D01*
X2932700Y1804840D01*
X2936399Y1801240D01*
X2940000Y1799340D01*
X2945499Y1799340D01*
X2949100Y1801240D01*
X2952700Y1804840D01*
X2964699Y1824840D02*
G01*
X2964699Y1799340D01*
X2964699Y1813940D02*
G01*
X2966500Y1819340D01*
X2970200Y1823040D01*
X2973800Y1824840D01*
X2979299Y1824840D01*
X3041100Y1819340D02*
G01*
X3037500Y1823040D01*
X3033800Y1824840D01*
X3028400Y1824840D01*
X3024699Y1823040D01*
X3021100Y1819340D01*
X3019299Y1813940D01*
X3019299Y1810340D01*
X3021100Y1804840D01*
X3024699Y1801240D01*
X3028400Y1799340D01*
X3033800Y1799340D01*
X3037500Y1801240D01*
X3041100Y1804840D01*
X3053099Y1824840D02*
G01*
X3053099Y1806640D01*
X3054900Y1801240D01*
X3058499Y1799340D01*
X3064000Y1799340D01*
X3067599Y1801240D01*
X3073099Y1806640D01*
X3073099Y1824840D02*
G01*
X3073099Y1799340D01*
X3118499Y1837540D02*
G01*
X3118499Y1806640D01*
X3120400Y1801240D01*
X3124000Y1799340D01*
X3127599Y1799340D01*
X3113099Y1824840D02*
G01*
X3125800Y1824840D01*
X3139600Y1837540D02*
G01*
X3139600Y1799340D01*
X3139600Y1817540D02*
G01*
X3145099Y1823040D01*
X3148700Y1824840D01*
X3154200Y1824840D01*
X3157800Y1823040D01*
X3159600Y1817540D01*
X3159600Y1799340D01*
X3171600Y1837540D02*
G01*
X3173499Y1835740D01*
X3175300Y1837540D01*
X3173499Y1839340D01*
X3171600Y1837540D01*
X3173499Y1824840D02*
G01*
X3173499Y1799340D01*
X3209100Y1819340D02*
G01*
X3205499Y1823040D01*
X3201799Y1824840D01*
X3196399Y1824840D01*
X3192700Y1823040D01*
X3189100Y1819340D01*
X3187300Y1813940D01*
X3187300Y1810340D01*
X3189100Y1804840D01*
X3192700Y1801240D01*
X3196399Y1799340D01*
X3201799Y1799340D01*
X3205499Y1801240D01*
X3209100Y1804840D01*
X3221100Y1837540D02*
G01*
X3221100Y1799340D01*
X3239299Y1824840D02*
G01*
X3221100Y1806640D01*
X3228400Y1813940D02*
G01*
X3241100Y1799340D01*
X3253099Y1824840D02*
G01*
X3253099Y1799340D01*
X3253099Y1817540D02*
G01*
X3258499Y1823040D01*
X3262199Y1824840D01*
X3267599Y1824840D01*
X3271300Y1823040D01*
X3273099Y1817540D01*
X3273099Y1799340D01*
X3285099Y1813940D02*
G01*
X3306900Y1813940D01*
X3306900Y1817540D01*
X3305099Y1821240D01*
X3303300Y1823040D01*
X3299600Y1824840D01*
X3294200Y1824840D01*
X3290499Y1823040D01*
X3286900Y1819340D01*
X3285099Y1813940D01*
X3285099Y1810340D01*
X3286900Y1804840D01*
X3290499Y1801240D01*
X3294200Y1799340D01*
X3299600Y1799340D01*
X3303300Y1801240D01*
X3306900Y1804840D01*
X3338899Y1819340D02*
G01*
X3337100Y1823040D01*
X3331600Y1824840D01*
X3326200Y1824840D01*
X3320700Y1823040D01*
X3318899Y1819340D01*
X3320700Y1815740D01*
X3324400Y1813940D01*
X3333499Y1812139D01*
X3337100Y1810340D01*
X3338899Y1806640D01*
X3338899Y1804840D01*
X3337100Y1801240D01*
X3331600Y1799340D01*
X3326200Y1799340D01*
X3320700Y1801240D01*
X3318899Y1804840D01*
X3370900Y1819340D02*
G01*
X3369100Y1823040D01*
X3363600Y1824840D01*
X3358200Y1824840D01*
X3352700Y1823040D01*
X3350900Y1819340D01*
X3352700Y1815740D01*
X3356399Y1813940D01*
X3365499Y1812139D01*
X3369100Y1810340D01*
X3370900Y1806640D01*
X3370900Y1804840D01*
X3369100Y1801240D01*
X3363600Y1799340D01*
X3358200Y1799340D01*
X3352700Y1801240D01*
X3350900Y1804840D01*
X3410900Y1821240D02*
G01*
X3443600Y1821240D01*
X3410900Y1810340D02*
G01*
X3443600Y1810340D01*
X3494500Y1837540D02*
G01*
X3489100Y1835740D01*
X3485499Y1830340D01*
X3483600Y1821240D01*
X3483600Y1815740D01*
X3485499Y1806640D01*
X3489100Y1801240D01*
X3494500Y1799340D01*
X3498200Y1799340D01*
X3503600Y1801240D01*
X3507300Y1806640D01*
X3509100Y1815740D01*
X3509100Y1821240D01*
X3507300Y1830340D01*
X3503600Y1835740D01*
X3498200Y1837540D01*
X3494500Y1837540D01*
X3522900Y1808440D02*
G01*
X3521100Y1806640D01*
X3522900Y1804840D01*
X3524699Y1806640D01*
X3522900Y1808440D01*
X3562199Y1837540D02*
G01*
X3544000Y1799340D01*
X3536700Y1837540D02*
G01*
X3562199Y1837540D01*
X3574200Y1824840D02*
G01*
X3574200Y1799340D01*
X3574200Y1817540D02*
G01*
X3579600Y1823040D01*
X3583300Y1824840D01*
X3588700Y1824840D01*
X3592400Y1823040D01*
X3594200Y1817540D01*
X3594200Y1799340D01*
X3594200Y1817540D02*
G01*
X3599600Y1823040D01*
X3603300Y1824840D01*
X3608700Y1824840D01*
X3612400Y1823040D01*
X3614200Y1817540D01*
X3614200Y1799340D01*
X3626200Y1837540D02*
G01*
X3627999Y1835740D01*
X3629800Y1837540D01*
X3627999Y1839340D01*
X3626200Y1837540D01*
X3627999Y1824840D02*
G01*
X3627999Y1799340D01*
X3641799Y1837540D02*
G01*
X3641799Y1799340D01*
X3673800Y1819340D02*
G01*
X3672000Y1823040D01*
X3666500Y1824840D01*
X3661100Y1824840D01*
X3655599Y1823040D01*
X3653800Y1819340D01*
X3655599Y1815740D01*
X3659299Y1813940D01*
X3668400Y1812139D01*
X3672000Y1810340D01*
X3673800Y1806640D01*
X3673800Y1804840D01*
X3672000Y1801240D01*
X3666500Y1799340D01*
X3661100Y1799340D01*
X3655599Y1801240D01*
X3653800Y1804840D01*
X1243858Y477346D02*
G01*
X1243858Y439146D01*
X1243858Y477346D02*
G01*
X1260257Y477346D01*
X1265657Y475446D01*
X1267458Y473646D01*
X1269357Y470046D01*
X1269357Y466446D01*
X1267458Y462746D01*
X1265657Y460946D01*
X1260257Y459146D01*
X1243858Y459146D01*
X1256558Y459146D02*
G01*
X1269357Y439146D01*
X1303157Y477346D02*
G01*
X1284958Y477346D01*
X1283157Y460946D01*
X1284958Y462746D01*
X1290358Y464546D01*
X1295858Y464546D01*
X1301358Y462746D01*
X1304958Y459146D01*
X1306758Y453646D01*
X1306758Y450046D01*
X1304958Y444546D01*
X1301358Y440946D01*
X1295858Y439146D01*
X1290358Y439146D01*
X1284958Y440946D01*
X1283157Y442746D01*
X1281358Y446446D01*
X930628Y499410D02*
G01*
X930628Y461210D01*
X930628Y499410D02*
G01*
X947028Y499410D01*
X952428Y497510D01*
X954227Y495710D01*
X956128Y492110D01*
X956128Y488510D01*
X954227Y484810D01*
X952428Y483010D01*
X947028Y481210D01*
X930628Y481210D01*
X943328Y481210D02*
G01*
X956128Y461210D01*
X986228Y499410D02*
G01*
X968128Y473910D01*
X995328Y473910D01*
X986228Y499410D02*
G01*
X986228Y461210D01*
X577604Y502168D02*
G01*
X577604Y463967D01*
X577604Y502168D02*
G01*
X594003Y502168D01*
X599403Y500268D01*
X601204Y498468D01*
X603103Y494868D01*
X603103Y491268D01*
X601204Y487568D01*
X599403Y485768D01*
X594003Y483967D01*
X577604Y483967D01*
X590304Y483967D02*
G01*
X603103Y463967D01*
X618704Y502168D02*
G01*
X638704Y502168D01*
X627804Y487568D01*
X633204Y487568D01*
X636903Y485768D01*
X638704Y483967D01*
X640504Y478468D01*
X640504Y474868D01*
X638704Y469367D01*
X635104Y465768D01*
X629604Y463967D01*
X624104Y463967D01*
X618704Y465768D01*
X616903Y467568D01*
X615104Y471268D01*
X232065Y491924D02*
G01*
X232065Y453724D01*
X232065Y491924D02*
G01*
X248466Y491924D01*
X253866Y490024D01*
X255666Y488224D01*
X257566Y484624D01*
X257566Y481024D01*
X255666Y477324D01*
X253866Y475524D01*
X248466Y473724D01*
X232065Y473724D01*
X244765Y473724D02*
G01*
X257566Y453724D01*
X271366Y482824D02*
G01*
X271366Y484624D01*
X273166Y488224D01*
X274965Y490024D01*
X278566Y491924D01*
X285866Y491924D01*
X289565Y490024D01*
X291366Y488224D01*
X293166Y484624D01*
X293166Y481024D01*
X291366Y477324D01*
X287666Y471924D01*
X269565Y453724D01*
X294965Y453724D01*
X1359079Y322178D02*
G01*
X1362680Y323978D01*
X1366280Y327678D01*
X1368179Y331278D01*
X1368179Y338578D01*
X1366280Y342178D01*
X1362680Y345878D01*
X1359079Y347678D01*
X1353579Y349478D01*
X1344479Y349478D01*
X1339079Y347678D01*
X1335380Y345878D01*
X1331780Y342178D01*
X1329980Y338578D01*
X1329980Y331278D01*
X1331780Y327678D01*
X1335380Y323978D01*
X1339079Y322178D01*
X1368179Y288378D02*
G01*
X1368179Y306577D01*
X1351780Y308378D01*
X1353579Y306577D01*
X1355380Y301078D01*
X1355380Y295678D01*
X1353579Y290178D01*
X1349980Y286577D01*
X1344479Y284778D01*
X1340880Y284778D01*
X1335380Y286577D01*
X1331780Y290178D01*
X1329980Y295678D01*
X1329980Y301078D01*
X1331780Y306577D01*
X1333579Y308378D01*
X1337280Y310178D01*
X1012753Y322572D02*
G01*
X1016354Y324372D01*
X1019954Y328072D01*
X1021853Y331672D01*
X1021853Y338972D01*
X1019954Y342572D01*
X1016354Y346272D01*
X1012753Y348072D01*
X1007253Y349872D01*
X998153Y349872D01*
X992753Y348072D01*
X989054Y346272D01*
X985454Y342572D01*
X983654Y338972D01*
X983654Y331672D01*
X985454Y328072D01*
X989054Y324372D01*
X992753Y322572D01*
X1021853Y306972D02*
G01*
X1021853Y286972D01*
X1007253Y297872D01*
X1007253Y292372D01*
X1005454Y288772D01*
X1003654Y286972D01*
X998153Y285172D01*
X994554Y285172D01*
X989054Y286972D01*
X985454Y290572D01*
X983654Y296072D01*
X983654Y301472D01*
X985454Y306972D01*
X987253Y308772D01*
X990954Y310572D01*
X672732Y314298D02*
G01*
X676331Y316098D01*
X679932Y319798D01*
X681831Y323398D01*
X681831Y330698D01*
X679932Y334298D01*
X676331Y337998D01*
X672732Y339798D01*
X667231Y341598D01*
X658132Y341598D01*
X652732Y339798D01*
X649032Y337998D01*
X645432Y334298D01*
X643632Y330698D01*
X643632Y323398D01*
X645432Y319798D01*
X649032Y316098D01*
X652732Y314298D01*
X672732Y300498D02*
G01*
X674532Y300498D01*
X678132Y298697D01*
X679932Y296898D01*
X681831Y293198D01*
X681831Y285997D01*
X679932Y282298D01*
X678132Y280498D01*
X674532Y278697D01*
X670931Y278697D01*
X667231Y280498D01*
X661831Y284098D01*
X643632Y302298D01*
X643632Y276898D01*
X323647Y316269D02*
G01*
X327247Y318070D01*
X330846Y321770D01*
X332747Y325370D01*
X332747Y332670D01*
X330846Y336269D01*
X327247Y339970D01*
X323647Y341770D01*
X318147Y343569D01*
X309047Y343569D01*
X303647Y341770D01*
X299947Y339970D01*
X296347Y336269D01*
X294547Y332670D01*
X294547Y325370D01*
X296347Y321770D01*
X299947Y318070D01*
X303647Y316269D01*
X325447Y304270D02*
G01*
X327247Y300670D01*
X332747Y295170D01*
X294547Y295170D01*
X71094Y441954D02*
G01*
X74693Y443754D01*
X78294Y447454D01*
X80194Y451054D01*
X80194Y458353D01*
X78294Y461954D01*
X74693Y465653D01*
X71094Y467454D01*
X65594Y469254D01*
X56494Y469254D01*
X51094Y467454D01*
X47394Y465653D01*
X43794Y461954D01*
X41993Y458353D01*
X41993Y451054D01*
X43794Y447454D01*
X47394Y443754D01*
X51094Y441954D01*
X72894Y429954D02*
G01*
X74693Y426354D01*
X80194Y420853D01*
X41993Y420853D01*
X80194Y405253D02*
G01*
X80194Y385253D01*
X65594Y396154D01*
X65594Y390754D01*
X63794Y387054D01*
X61993Y385253D01*
X56494Y383454D01*
X52894Y383454D01*
X47394Y385253D01*
X43794Y388854D01*
X41993Y394354D01*
X41993Y399754D01*
X43794Y405253D01*
X45594Y407054D01*
X49293Y408854D01*
X1252082Y214889D02*
G01*
X1255683Y216689D01*
X1259283Y220389D01*
X1261183Y223989D01*
X1261183Y231289D01*
X1259283Y234889D01*
X1255683Y238589D01*
X1252082Y240389D01*
X1246583Y242189D01*
X1237482Y242189D01*
X1232082Y240389D01*
X1228382Y238589D01*
X1224783Y234889D01*
X1222982Y231289D01*
X1222982Y223989D01*
X1224783Y220389D01*
X1228382Y216689D01*
X1232082Y214889D01*
X1253883Y202889D02*
G01*
X1255683Y199289D01*
X1261183Y193789D01*
X1222982Y193789D01*
X1252082Y179989D02*
G01*
X1253883Y179989D01*
X1257482Y178189D01*
X1259283Y176389D01*
X1261183Y172689D01*
X1261183Y165489D01*
X1259283Y161789D01*
X1257482Y159989D01*
X1253883Y158189D01*
X1250283Y158189D01*
X1246583Y159989D01*
X1241183Y163688D01*
X1222982Y181789D01*
X1222982Y156389D01*
X935135Y215010D02*
G01*
X938736Y216810D01*
X942336Y220510D01*
X944236Y224110D01*
X944236Y231410D01*
X942336Y235010D01*
X938736Y238710D01*
X935135Y240510D01*
X929636Y242310D01*
X920535Y242310D01*
X915135Y240510D01*
X911435Y238710D01*
X907836Y235010D01*
X906035Y231410D01*
X906035Y224110D01*
X907836Y220510D01*
X911435Y216810D01*
X915135Y215010D01*
X936936Y203010D02*
G01*
X938736Y199410D01*
X944236Y193910D01*
X906035Y193910D01*
X936936Y181910D02*
G01*
X938736Y178310D01*
X944236Y172809D01*
X906035Y172809D01*
X588809Y221314D02*
G01*
X592410Y223114D01*
X596010Y226813D01*
X597909Y230414D01*
X597909Y237714D01*
X596010Y241314D01*
X592410Y245014D01*
X588809Y246813D01*
X583310Y248614D01*
X574209Y248614D01*
X568809Y246813D01*
X565109Y245014D01*
X561510Y241314D01*
X559710Y237714D01*
X559710Y230414D01*
X561510Y226813D01*
X565109Y223114D01*
X568809Y221314D01*
X590610Y209313D02*
G01*
X592410Y205714D01*
X597909Y200214D01*
X559710Y200214D01*
X597909Y177314D02*
G01*
X596010Y182814D01*
X590610Y186413D01*
X581510Y188214D01*
X576010Y188214D01*
X567010Y186413D01*
X561510Y182814D01*
X559710Y177314D01*
X559710Y173713D01*
X561510Y168214D01*
X567010Y164614D01*
X576010Y162814D01*
X581510Y162814D01*
X590610Y164614D01*
X596010Y168214D01*
X597909Y173713D01*
X597909Y177314D01*
X243273Y221712D02*
G01*
X246873Y223512D01*
X250473Y227211D01*
X252373Y230812D01*
X252373Y238112D01*
X250473Y241712D01*
X246873Y245412D01*
X243273Y247211D01*
X237773Y249012D01*
X228673Y249012D01*
X223273Y247211D01*
X219573Y245412D01*
X215973Y241712D01*
X214173Y238112D01*
X214173Y230812D01*
X215973Y227211D01*
X219573Y223512D01*
X223273Y221712D01*
X239573Y186112D02*
G01*
X234173Y187912D01*
X230473Y191512D01*
X228673Y197011D01*
X228673Y198812D01*
X230473Y204311D01*
X234173Y207912D01*
X239573Y209711D01*
X241473Y209711D01*
X246873Y207912D01*
X250473Y204311D01*
X252373Y198812D01*
X252373Y197011D01*
X250473Y191512D01*
X246873Y187912D01*
X239573Y186112D01*
X230473Y186112D01*
X221473Y187912D01*
X215973Y191512D01*
X214173Y197011D01*
X214173Y200612D01*
X215973Y206112D01*
X219573Y207912D01*
X1097464Y427770D02*
G01*
X1101064Y429570D01*
X1104663Y433270D01*
X1106564Y436870D01*
X1106564Y444170D01*
X1104663Y447770D01*
X1101064Y451469D01*
X1097464Y453270D01*
X1091964Y455070D01*
X1082864Y455070D01*
X1077464Y453270D01*
X1073764Y451469D01*
X1070163Y447770D01*
X1068364Y444170D01*
X1068364Y436870D01*
X1070163Y433270D01*
X1073764Y429570D01*
X1077464Y427770D01*
X1106564Y406670D02*
G01*
X1104663Y412170D01*
X1101064Y413969D01*
X1097464Y413969D01*
X1093764Y412170D01*
X1091964Y408569D01*
X1090163Y401269D01*
X1088364Y395770D01*
X1084663Y392170D01*
X1081064Y390370D01*
X1075664Y390370D01*
X1071964Y392170D01*
X1070163Y393969D01*
X1068364Y399470D01*
X1068364Y406670D01*
X1070163Y412170D01*
X1071964Y413969D01*
X1075664Y415770D01*
X1081064Y415770D01*
X1084663Y413969D01*
X1088364Y410370D01*
X1090163Y404870D01*
X1091964Y397570D01*
X1093764Y393969D01*
X1097464Y392170D01*
X1101064Y392170D01*
X1104663Y393969D01*
X1106564Y399470D01*
X1106564Y406670D01*
X754290Y427770D02*
G01*
X757890Y429570D01*
X761489Y433270D01*
X763390Y436870D01*
X763390Y444170D01*
X761489Y447770D01*
X757890Y451469D01*
X754290Y453270D01*
X748790Y455070D01*
X739690Y455070D01*
X734290Y453270D01*
X730589Y451469D01*
X726990Y447770D01*
X725189Y444170D01*
X725189Y436870D01*
X726990Y433270D01*
X730589Y429570D01*
X734290Y427770D01*
X763390Y390370D02*
G01*
X725189Y408569D01*
X763390Y415770D02*
G01*
X763390Y390370D01*
X403629Y430134D02*
G01*
X407230Y431934D01*
X410830Y435634D01*
X412730Y439234D01*
X412730Y446534D01*
X410830Y450134D01*
X407230Y453834D01*
X403629Y455634D01*
X398130Y457434D01*
X389029Y457434D01*
X383629Y455634D01*
X379929Y453834D01*
X376330Y450134D01*
X374529Y446534D01*
X374529Y439234D01*
X376330Y435634D01*
X379929Y431934D01*
X383629Y430134D01*
X412730Y399934D02*
G01*
X387230Y418134D01*
X387230Y390934D01*
X412730Y399934D02*
G01*
X374529Y399934D01*
X1931586Y601543D02*
G01*
X1931586Y563342D01*
X1931586Y601543D02*
G01*
X1947986Y601543D01*
X1953386Y599643D01*
X1955185Y597843D01*
X1957086Y594243D01*
X1957086Y590643D01*
X1955185Y586943D01*
X1953386Y585143D01*
X1947986Y583342D01*
X1931586Y583342D01*
X1944285Y583342D02*
G01*
X1957086Y563342D01*
X1969086Y594243D02*
G01*
X1972685Y596042D01*
X1978085Y601543D01*
X1978085Y563342D01*
X1993786Y601543D02*
G01*
X2013786Y601543D01*
X2002886Y586943D01*
X2008286Y586943D01*
X2011986Y585143D01*
X2013786Y583342D01*
X2015585Y577843D01*
X2015585Y574243D01*
X2013786Y568742D01*
X2010086Y565143D01*
X2004686Y563342D01*
X1999186Y563342D01*
X1993786Y565143D01*
X1991986Y566943D01*
X1990086Y570643D01*
X1287950Y78890D02*
G01*
X1287950Y40689D01*
X1287950Y78890D02*
G01*
X1304249Y78890D01*
X1309749Y77090D01*
X1311550Y75190D01*
X1313350Y71590D01*
X1313350Y67989D01*
X1311550Y64290D01*
X1309749Y62490D01*
X1304249Y60689D01*
X1287950Y60689D01*
X1300650Y60689D02*
G01*
X1313350Y40689D01*
X1325350Y78890D02*
G01*
X1350850Y40689D01*
X1350850Y78890D02*
G01*
X1325350Y40689D01*
X1380949Y78890D02*
G01*
X1362850Y53389D01*
X1390050Y53389D01*
X1380949Y78890D02*
G01*
X1380949Y40689D01*
X949058Y78536D02*
G01*
X949058Y40336D01*
X949058Y78536D02*
G01*
X965458Y78536D01*
X970858Y76736D01*
X972757Y74936D01*
X974558Y71236D01*
X974558Y67636D01*
X972757Y64036D01*
X970858Y62136D01*
X965458Y60336D01*
X949058Y60336D01*
X961857Y60336D02*
G01*
X974558Y40336D01*
X986558Y78536D02*
G01*
X1011957Y40336D01*
X1011957Y78536D02*
G01*
X986558Y40336D01*
X1027658Y78536D02*
G01*
X1047658Y78536D01*
X1036758Y64036D01*
X1042158Y64036D01*
X1045858Y62136D01*
X1047658Y60336D01*
X1049457Y54936D01*
X1049457Y51236D01*
X1047658Y45835D01*
X1043957Y42136D01*
X1038557Y40336D01*
X1033058Y40336D01*
X1027658Y42136D01*
X1025858Y44036D01*
X1023957Y47636D01*
X610400Y69800D02*
G01*
X610400Y31600D01*
X610400Y69800D02*
G01*
X626799Y69800D01*
X632199Y67899D01*
X634000Y66100D01*
X635900Y62500D01*
X635900Y58900D01*
X634000Y55199D01*
X632199Y53400D01*
X626799Y51600D01*
X610400Y51600D01*
X623099Y51600D02*
G01*
X635900Y31600D01*
X647900Y69800D02*
G01*
X673300Y31600D01*
X673300Y69800D02*
G01*
X647900Y31600D01*
X687100Y60700D02*
G01*
X687100Y62500D01*
X688899Y66100D01*
X690800Y67899D01*
X694400Y69800D01*
X701700Y69800D01*
X705300Y67899D01*
X707100Y66100D01*
X708899Y62500D01*
X708899Y58900D01*
X707100Y55199D01*
X703499Y49800D01*
X685300Y31600D01*
X710800Y31600D01*
X261150Y68530D02*
G01*
X261150Y30330D01*
X261150Y68530D02*
G01*
X277551Y68530D01*
X282951Y66630D01*
X284751Y64830D01*
X286651Y61230D01*
X286651Y57630D01*
X284751Y53930D01*
X282951Y52130D01*
X277551Y50330D01*
X261150Y50330D01*
X273850Y50330D02*
G01*
X286651Y30330D01*
X298650Y68530D02*
G01*
X324050Y30330D01*
X324050Y68530D02*
G01*
X298650Y30330D01*
X336051Y61230D02*
G01*
X339650Y63030D01*
X345151Y68530D01*
X345151Y30330D01*
X1275250Y606975D02*
G01*
X1260750Y568776D01*
X1275250Y606975D02*
G01*
X1289850Y568776D01*
X1266250Y581476D02*
G01*
X1284349Y581476D01*
X1301849Y606975D02*
G01*
X1301849Y568776D01*
X1301849Y606975D02*
G01*
X1327249Y568776D01*
X1327249Y606975D02*
G01*
X1327249Y568776D01*
X1352050Y606975D02*
G01*
X1352050Y568776D01*
X1339249Y606975D02*
G01*
X1364749Y606975D01*
X1394950Y606975D02*
G01*
X1376749Y581476D01*
X1404050Y581476D01*
X1394950Y606975D02*
G01*
X1394950Y568776D01*
X933818Y613323D02*
G01*
X919317Y575123D01*
X933818Y613323D02*
G01*
X948418Y575123D01*
X924818Y587823D02*
G01*
X942918Y587823D01*
X960418Y613323D02*
G01*
X960418Y575123D01*
X960418Y613323D02*
G01*
X985818Y575123D01*
X985818Y613323D02*
G01*
X985818Y575123D01*
X1010617Y613323D02*
G01*
X1010617Y575123D01*
X997818Y613323D02*
G01*
X1023318Y613323D01*
X1038917Y613323D02*
G01*
X1058917Y613323D01*
X1048017Y598723D01*
X1053517Y598723D01*
X1057118Y596923D01*
X1058917Y595123D01*
X1060818Y589623D01*
X1060818Y586023D01*
X1058917Y580523D01*
X1055318Y576923D01*
X1049818Y575123D01*
X1044418Y575123D01*
X1038917Y576923D01*
X1037118Y578723D01*
X1035318Y582423D01*
X589900Y612400D02*
G01*
X575400Y574200D01*
X589900Y612400D02*
G01*
X604500Y574200D01*
X580900Y586900D02*
G01*
X599000Y586900D01*
X616500Y612400D02*
G01*
X616500Y574200D01*
X616500Y612400D02*
G01*
X641900Y574200D01*
X641900Y612400D02*
G01*
X641900Y574200D01*
X666700Y612400D02*
G01*
X666700Y574200D01*
X653899Y612400D02*
G01*
X679400Y612400D01*
X693200Y603300D02*
G01*
X693200Y605100D01*
X695000Y608700D01*
X696900Y610500D01*
X700499Y612400D01*
X707800Y612400D01*
X711399Y610500D01*
X713200Y608700D01*
X715000Y605100D01*
X715000Y601500D01*
X713200Y597800D01*
X709600Y592400D01*
X691399Y574200D01*
X716900Y574200D01*
X242600Y613540D02*
G01*
X228101Y575340D01*
X242600Y613540D02*
G01*
X257201Y575340D01*
X233601Y588040D02*
G01*
X251701Y588040D01*
X269201Y613540D02*
G01*
X269201Y575340D01*
X269201Y613540D02*
G01*
X294601Y575340D01*
X294601Y613540D02*
G01*
X294601Y575340D01*
X319401Y613540D02*
G01*
X319401Y575340D01*
X306601Y613540D02*
G01*
X332100Y613540D01*
X344101Y606240D02*
G01*
X347701Y608040D01*
X353201Y613540D01*
X353201Y575340D01*
X1744533Y394800D02*
G01*
X1744533Y356600D01*
X1744533Y394800D02*
G01*
X1760934Y394800D01*
X1766334Y392899D01*
X1768134Y391100D01*
X1770034Y387500D01*
X1770034Y383900D01*
X1768134Y380199D01*
X1766334Y378400D01*
X1760934Y376600D01*
X1744533Y376600D01*
X1757234Y376600D02*
G01*
X1770034Y356600D01*
X1803834Y389300D02*
G01*
X1802033Y392899D01*
X1796534Y394800D01*
X1792934Y394800D01*
X1787433Y392899D01*
X1783834Y387500D01*
X1782033Y378400D01*
X1782033Y369300D01*
X1783834Y362000D01*
X1787433Y358400D01*
X1792934Y356600D01*
X1794734Y356600D01*
X1800134Y358400D01*
X1803834Y362000D01*
X1805634Y367500D01*
X1805634Y369300D01*
X1803834Y374800D01*
X1800134Y378400D01*
X1794734Y380199D01*
X1792934Y380199D01*
X1787433Y378400D01*
X1783834Y374800D01*
X1782033Y369300D01*
X1982630Y461667D02*
G01*
X1979029Y459868D01*
X1975430Y456168D01*
X1973530Y452568D01*
X1973530Y445268D01*
X1975430Y441667D01*
X1979029Y437968D01*
X1982630Y436168D01*
X1988130Y434367D01*
X1997230Y434367D01*
X2002630Y436168D01*
X2006330Y437968D01*
X2009929Y441667D01*
X2011730Y445268D01*
X2011730Y452568D01*
X2009929Y456168D01*
X2006330Y459868D01*
X2002630Y461667D01*
X1973530Y486368D02*
G01*
X2011730Y486368D01*
X1973530Y473668D02*
G01*
X1973530Y499068D01*
X1973530Y511068D02*
G01*
X2011730Y511068D01*
X2011730Y511068D02*
G01*
X2011730Y532868D01*
X1565351Y585767D02*
G01*
X1565351Y547567D01*
X1565351Y585767D02*
G01*
X1581750Y585767D01*
X1587150Y583967D01*
X1588951Y582166D01*
X1590850Y578467D01*
X1590850Y574867D01*
X1588951Y571167D01*
X1587150Y569367D01*
X1581750Y567567D01*
X1565351Y567567D01*
X1578051Y567567D02*
G01*
X1590850Y547567D01*
X1602851Y578467D02*
G01*
X1606451Y580267D01*
X1611851Y585767D01*
X1611851Y547567D01*
X1465268Y599202D02*
G01*
X1465268Y561002D01*
X1465268Y561002D02*
G01*
X1487068Y561002D01*
X1500967Y590102D02*
G01*
X1500967Y591902D01*
X1502768Y595502D01*
X1504568Y597301D01*
X1508168Y599202D01*
X1515468Y599202D01*
X1519068Y597301D01*
X1520967Y595502D01*
X1522768Y591902D01*
X1522768Y588302D01*
X1520967Y584601D01*
X1517267Y579202D01*
X1499068Y561002D01*
X1524568Y561002D01*
X1539726Y217591D02*
G01*
X1539726Y179392D01*
X1539726Y179392D02*
G01*
X1561525Y179392D01*
X1573525Y210291D02*
G01*
X1577226Y212092D01*
X1582626Y217591D01*
X1582626Y179392D01*
X1553814Y80423D02*
G01*
X1550115Y78623D01*
X1546515Y74923D01*
X1544715Y71323D01*
X1544715Y64023D01*
X1546515Y60423D01*
X1550115Y56822D01*
X1553814Y54923D01*
X1559214Y53123D01*
X1568314Y53123D01*
X1573814Y54923D01*
X1577415Y56822D01*
X1581015Y60423D01*
X1582815Y64023D01*
X1582815Y71323D01*
X1581015Y74923D01*
X1577415Y78623D01*
X1573814Y80423D01*
X1550115Y114223D02*
G01*
X1546515Y112423D01*
X1544715Y106923D01*
X1544715Y103323D01*
X1546515Y97823D01*
X1551915Y94223D01*
X1561015Y92423D01*
X1570115Y92423D01*
X1577415Y94223D01*
X1581015Y97823D01*
X1582815Y103323D01*
X1582815Y105123D01*
X1581015Y110623D01*
X1577415Y114223D01*
X1571915Y116023D01*
X1570115Y116023D01*
X1564715Y114223D01*
X1561015Y110623D01*
X1559214Y105123D01*
X1559214Y103323D01*
X1561015Y97823D01*
X1564715Y94223D01*
X1570115Y92423D01*
X1102896Y345932D02*
G01*
X1072195Y345932D01*
X1066096Y343931D01*
X1061996Y339832D01*
X1059996Y333632D01*
X1059996Y329532D01*
X1061996Y323432D01*
X1066096Y319331D01*
X1072195Y317332D01*
X1102896Y317332D01*
X1102896Y283332D02*
G01*
X1074295Y303832D01*
X1074295Y273132D01*
X1102896Y283332D02*
G01*
X1059996Y283332D01*
X754600Y341598D02*
G01*
X723899Y341598D01*
X717800Y339598D01*
X713700Y335498D01*
X711700Y329298D01*
X711700Y325198D01*
X713700Y319098D01*
X717800Y314998D01*
X723899Y312998D01*
X754600Y312998D01*
X754600Y295398D02*
G01*
X754600Y272898D01*
X738200Y285098D01*
X738200Y278998D01*
X736200Y274898D01*
X734200Y272898D01*
X727999Y270797D01*
X723899Y270797D01*
X717800Y272898D01*
X713700Y276998D01*
X711700Y283097D01*
X711700Y289198D01*
X713700Y295398D01*
X715700Y297398D01*
X719800Y299498D01*
X441878Y353058D02*
G01*
X411178Y353058D01*
X405077Y351058D01*
X400978Y346957D01*
X398978Y340758D01*
X398978Y336658D01*
X400978Y330558D01*
X405077Y326458D01*
X411178Y324457D01*
X441878Y324457D01*
X431677Y308858D02*
G01*
X433678Y308858D01*
X437778Y306858D01*
X439878Y304758D01*
X441878Y300658D01*
X441878Y292558D01*
X439878Y288458D01*
X437778Y286358D01*
X433678Y284358D01*
X429578Y284358D01*
X425477Y286358D01*
X419378Y290458D01*
X398978Y310958D01*
X398978Y282258D01*
X82042Y334506D02*
G01*
X51341Y334506D01*
X45242Y332506D01*
X41141Y328405D01*
X39142Y322206D01*
X39142Y318106D01*
X41141Y312006D01*
X45242Y307906D01*
X51341Y305905D01*
X82042Y305905D01*
X73841Y292406D02*
G01*
X75942Y288306D01*
X82042Y282106D01*
X39142Y282106D01*
X1419649Y98542D02*
G01*
X1419649Y55643D01*
X1419649Y98542D02*
G01*
X1438049Y98542D01*
X1444149Y96543D01*
X1446249Y94443D01*
X1448249Y90343D01*
X1448249Y86242D01*
X1446249Y82143D01*
X1444149Y80143D01*
X1438049Y78143D01*
X1419649Y78143D01*
X1433948Y78143D02*
G01*
X1448249Y55643D01*
X1461749Y90343D02*
G01*
X1465849Y92443D01*
X1472049Y98542D01*
X1472049Y55643D01*
X1487549Y88342D02*
G01*
X1487549Y90343D01*
X1489649Y94443D01*
X1491649Y96543D01*
X1495749Y98542D01*
X1503948Y98542D01*
X1508049Y96543D01*
X1510049Y94443D01*
X1512149Y90343D01*
X1512149Y86242D01*
X1510049Y82143D01*
X1505949Y76042D01*
X1485549Y55643D01*
X1514149Y55643D01*
X1740596Y338760D02*
G01*
X1740596Y295860D01*
X1740596Y338760D02*
G01*
X1758996Y338760D01*
X1765095Y336761D01*
X1767195Y334661D01*
X1769195Y330561D01*
X1769195Y326460D01*
X1767195Y322361D01*
X1765095Y320361D01*
X1758996Y318360D01*
X1740596Y318360D01*
X1754896Y318360D02*
G01*
X1769195Y295860D01*
X1782696Y330561D02*
G01*
X1786795Y332661D01*
X1792995Y338760D01*
X1792995Y295860D01*
X1806496Y330561D02*
G01*
X1810596Y332661D01*
X1816695Y338760D01*
X1816695Y295860D01*
X1619000Y273700D02*
G01*
X1661900Y273700D01*
X1619000Y273700D02*
G01*
X1619000Y292100D01*
X1620999Y298200D01*
X1623099Y300300D01*
X1627199Y302300D01*
X1631300Y302300D01*
X1635400Y300300D01*
X1637400Y298200D01*
X1639400Y292100D01*
X1639400Y273700D01*
X1639400Y288000D02*
G01*
X1661900Y302300D01*
X1627199Y315800D02*
G01*
X1625099Y319900D01*
X1619000Y326100D01*
X1661900Y326100D01*
X1619000Y351800D02*
G01*
X1620999Y345700D01*
X1627199Y341600D01*
X1637400Y339600D01*
X1643499Y339600D01*
X1653800Y341600D01*
X1659900Y345700D01*
X1661900Y351800D01*
X1661900Y355900D01*
X1659900Y362100D01*
X1653800Y366200D01*
X1643499Y368200D01*
X1637400Y368200D01*
X1627199Y366200D01*
X1620999Y362100D01*
X1619000Y355900D01*
X1619000Y351800D01*
X1329074Y218652D02*
G01*
X1329074Y175752D01*
X1329074Y218652D02*
G01*
X1347474Y218652D01*
X1353575Y216652D01*
X1355675Y214552D01*
X1357675Y210452D01*
X1357675Y206352D01*
X1355675Y202252D01*
X1353575Y200252D01*
X1347474Y198252D01*
X1329074Y198252D01*
X1343375Y198252D02*
G01*
X1357675Y175752D01*
X1397775Y204352D02*
G01*
X1395774Y198252D01*
X1391675Y194152D01*
X1385575Y192052D01*
X1383475Y192052D01*
X1377374Y194152D01*
X1373274Y198252D01*
X1371174Y204352D01*
X1371174Y206352D01*
X1373274Y212552D01*
X1377374Y216652D01*
X1383475Y218652D01*
X1385575Y218652D01*
X1391675Y216652D01*
X1395774Y212552D01*
X1397775Y204352D01*
X1397775Y194152D01*
X1395774Y183852D01*
X1391675Y177752D01*
X1385575Y175752D01*
X1381475Y175752D01*
X1375275Y177752D01*
X1373274Y181852D01*
X1374752Y408668D02*
G01*
X1370652Y406667D01*
X1366552Y402568D01*
X1364452Y398468D01*
X1362451Y392268D01*
X1362451Y382068D01*
X1364452Y375968D01*
X1366552Y371867D01*
X1370652Y367768D01*
X1374752Y365768D01*
X1382952Y365768D01*
X1386952Y367768D01*
X1391052Y371867D01*
X1393152Y375968D01*
X1395152Y382068D01*
X1395152Y392268D01*
X1393152Y398468D01*
X1391052Y402568D01*
X1386952Y406667D01*
X1382952Y408668D01*
X1374752Y408668D01*
X1380851Y373868D02*
G01*
X1393152Y361667D01*
X1408651Y400468D02*
G01*
X1412752Y402568D01*
X1418952Y408668D01*
X1418952Y365768D01*
X1752410Y277722D02*
G01*
X1752410Y234822D01*
X1752410Y277722D02*
G01*
X1766709Y277722D01*
X1772909Y275722D01*
X1776910Y271622D01*
X1779010Y267522D01*
X1781010Y261322D01*
X1781010Y251122D01*
X1779010Y245022D01*
X1776910Y240922D01*
X1772909Y236822D01*
X1766709Y234822D01*
X1752410Y234822D01*
X1796610Y267522D02*
G01*
X1796610Y269522D01*
X1798610Y273622D01*
X1800710Y275722D01*
X1804810Y277722D01*
X1812909Y277722D01*
X1817010Y275722D01*
X1819110Y273622D01*
X1821110Y269522D01*
X1821110Y265422D01*
X1819110Y261322D01*
X1815009Y255222D01*
X1794510Y234822D01*
X1823210Y234822D01*
X1724299Y603600D02*
G01*
X1724299Y560700D01*
X1724299Y603600D02*
G01*
X1738600Y603600D01*
X1744800Y601600D01*
X1748800Y597500D01*
X1750900Y593400D01*
X1752900Y587200D01*
X1752900Y577000D01*
X1750900Y570900D01*
X1748800Y566800D01*
X1744800Y562699D01*
X1738600Y560700D01*
X1724299Y560700D01*
X1766399Y595399D02*
G01*
X1770499Y597500D01*
X1776700Y603600D01*
X1776700Y560700D01*
D26*
X2554499Y2109823D02*
G01*
X2551799Y2109823D01*
X2551799Y2220599D01*
X5679000Y2220599D01*
X5679000Y2100191D01*
X3725700Y2109840D02*
G01*
X5679000Y2109840D01*
X5679000Y1364840D01*
X2552300Y1364840D01*
X2552300Y1852640D01*
X2552300Y2109840D01*
X3688899Y2109823D02*
G01*
X3725700Y2109823D01*
X2552300Y2109823D02*
G01*
X3688899Y2109823D01*
D10*
X2027554Y629920D02*
G01*
X2007869Y629920D01*
X2165350Y0D02*
G01*
X2440940Y0D01*
X2145665Y629920D02*
G01*
X2401570Y629920D01*
X0Y629920D02*
G01*
X2027554Y629920D01*
X2027554Y0D01*
X0Y0D01*
X0Y118110D01*
X0Y629920D01*
X-12247Y1954100D02*
G01*
X1484055Y1954100D01*
X1683552Y2115824D02*
G01*
X1683552Y2220799D01*
X1285515Y2117999D02*
G01*
X1285515Y2220799D01*
X758953Y2119000D02*
G01*
X758953Y2220799D01*
X187952Y2119698D02*
G01*
X187952Y2220799D01*
X-18246Y2116798D02*
G01*
X-18246Y2220799D01*
X2086653Y2220799D01*
X2086653Y2118198D01*
X1888957Y1571002D02*
G01*
X1683552Y1571002D01*
X1883723Y1648700D02*
G01*
X1683552Y1648700D01*
X1890857Y1719100D02*
G01*
X1683552Y1719100D01*
X1683552Y1793463D02*
G01*
X1896155Y1793463D01*
X1890857Y1876500D02*
G01*
X1669163Y1876500D01*
X1887156Y1954300D02*
G01*
X1683552Y1954300D01*
X1886359Y2026500D02*
G01*
X1683552Y2026500D01*
X1688953Y1327085D02*
G01*
X2080553Y1327085D01*
X1688953Y1408419D02*
G01*
X2086653Y1408419D01*
X1688953Y1476717D02*
G01*
X2086653Y1476717D01*
X1888957Y1571002D02*
G01*
X2086653Y1571002D01*
X1883723Y1648700D02*
G01*
X2086653Y1648700D01*
X1890857Y1719100D02*
G01*
X2086653Y1719100D01*
X1894558Y1795001D02*
G01*
X2086653Y1795001D01*
X1890857Y1876500D02*
G01*
X2086653Y1876500D01*
X1887156Y1954300D02*
G01*
X2086653Y1954300D01*
X1886359Y2026500D02*
G01*
X2086653Y2026500D01*
X1688953Y1248700D02*
G01*
X2021204Y1248700D01*
X1685354Y2118198D02*
G01*
X2086653Y2118198D01*
X2086653Y1249498D01*
X1982653Y1249498D01*
X1688953Y1484300D02*
G01*
X1688953Y1248700D01*
X1285851Y1326885D02*
G01*
X1677454Y1326885D01*
X1285851Y1408219D02*
G01*
X1683552Y1408219D01*
X1285851Y1476517D02*
G01*
X1683552Y1476517D01*
X1485857Y1570799D02*
G01*
X1683552Y1570799D01*
X1480623Y1648502D02*
G01*
X1683552Y1648502D01*
X1487756Y1718900D02*
G01*
X1683552Y1718900D01*
X1491457Y1794801D02*
G01*
X1683552Y1794801D01*
X1487756Y1876300D02*
G01*
X1683552Y1876300D01*
X1484055Y1954100D02*
G01*
X1683552Y1954100D01*
X1483259Y2026300D02*
G01*
X1683552Y2026300D01*
X1285851Y1248502D02*
G01*
X1618103Y1248502D01*
X1282253Y2117999D02*
G01*
X1683552Y2117999D01*
X1683552Y1249298D01*
X1579553Y1249298D01*
X-19547Y1327420D02*
G01*
X1285851Y1327420D01*
X-19447Y1341798D02*
G01*
X-19447Y1332755D01*
X-19447Y1407335D02*
G01*
X1285851Y1407335D01*
X758953Y2119000D02*
G01*
X759753Y1248502D01*
X187952Y2119698D02*
G01*
X187952Y1248502D01*
X1285851Y1484100D02*
G01*
X1285851Y1248502D01*
X-19547Y1248502D01*
X-19547Y1341798D01*
X-21549Y1570799D02*
G01*
X1485857Y1570799D01*
X-19447Y1489100D02*
G01*
X-19447Y1341798D01*
X-21549Y1648502D02*
G01*
X1485857Y1648502D01*
X-19650Y1718900D02*
G01*
X1487756Y1718900D01*
X-15949Y1794801D02*
G01*
X1491457Y1794801D01*
X-19650Y1876300D02*
G01*
X1487756Y1876300D01*
X-17848Y2026300D02*
G01*
X1489553Y2026300D01*
D13*
X1266682Y427582D02*
G01*
X1228930Y427582D01*
X1228930Y375566D01*
X1266682Y375566D01*
X1300242Y427582D02*
G01*
X1337993Y427582D01*
X1337993Y375566D01*
X1300242Y375566D01*
X928099Y427582D02*
G01*
X890349Y427582D01*
X890349Y375566D01*
X928099Y375566D01*
X961659Y427582D02*
G01*
X999411Y427582D01*
X999411Y375566D01*
X961659Y375566D01*
X581644Y427582D02*
G01*
X543893Y427582D01*
X543893Y375566D01*
X581644Y375566D01*
X615203Y427582D02*
G01*
X652954Y427582D01*
X652954Y375566D01*
X615203Y375566D01*
X235188Y427582D02*
G01*
X197436Y427582D01*
X197436Y375566D01*
X235188Y375566D01*
X268748Y427582D02*
G01*
X306499Y427582D01*
X306499Y375566D01*
X268748Y375566D01*
X1299479Y275028D02*
G01*
X1299479Y306134D01*
X1260220Y306134D02*
G01*
X1260220Y275028D01*
X1266219Y269028D02*
G01*
X1293480Y269028D01*
X1299479Y355052D02*
G01*
X1299479Y323946D01*
X1260220Y323946D02*
G01*
X1260220Y355052D01*
X1266219Y361051D02*
G01*
X1293480Y361051D01*
X954905Y273039D02*
G01*
X954905Y304145D01*
X915644Y304145D02*
G01*
X915644Y273039D01*
X921645Y267038D02*
G01*
X948904Y267038D01*
X954905Y353063D02*
G01*
X954905Y321957D01*
X915644Y321957D02*
G01*
X915644Y353063D01*
X921645Y359063D02*
G01*
X948904Y359063D01*
X608363Y273057D02*
G01*
X608363Y304163D01*
X569103Y304163D02*
G01*
X569103Y273057D01*
X575103Y267056D02*
G01*
X602363Y267056D01*
X608363Y353081D02*
G01*
X608363Y321975D01*
X569103Y321975D02*
G01*
X569103Y353081D01*
X575103Y359081D02*
G01*
X602363Y359081D01*
X262948Y276852D02*
G01*
X262948Y307958D01*
X223688Y307958D02*
G01*
X223688Y276852D01*
X229688Y270851D02*
G01*
X256948Y270851D01*
X262948Y356876D02*
G01*
X262948Y325770D01*
X223688Y325770D02*
G01*
X223688Y356876D01*
X229688Y362876D02*
G01*
X256948Y362876D01*
X149430Y381287D02*
G01*
X149430Y412394D01*
X110170Y412394D02*
G01*
X110170Y381287D01*
X116170Y375288D02*
G01*
X143430Y375288D01*
X149430Y461312D02*
G01*
X149430Y430206D01*
X110170Y430206D02*
G01*
X110170Y461312D01*
X116170Y467312D02*
G01*
X143430Y467312D01*
X1210875Y164764D02*
G01*
X1210875Y195869D01*
X1171615Y195869D02*
G01*
X1171615Y164764D01*
X1177615Y158764D02*
G01*
X1204874Y158764D01*
X1210875Y244788D02*
G01*
X1210875Y213682D01*
X1171615Y213682D02*
G01*
X1171615Y244788D01*
X1177615Y250788D02*
G01*
X1204874Y250788D01*
X865630Y164888D02*
G01*
X865630Y195994D01*
X826370Y195994D02*
G01*
X826370Y164888D01*
X832370Y158888D02*
G01*
X859630Y158888D01*
X865630Y244911D02*
G01*
X865630Y213805D01*
X826370Y213805D02*
G01*
X826370Y244911D01*
X832370Y250912D02*
G01*
X859630Y250912D01*
X519874Y164810D02*
G01*
X519874Y195916D01*
X480614Y195916D02*
G01*
X480614Y164810D01*
X486614Y158810D02*
G01*
X513874Y158810D01*
X519874Y244834D02*
G01*
X519874Y213728D01*
X480614Y213728D02*
G01*
X480614Y244834D01*
X486614Y250833D02*
G01*
X513874Y250833D01*
X175181Y164744D02*
G01*
X175181Y195850D01*
X135921Y195850D02*
G01*
X135921Y164744D01*
X141921Y158744D02*
G01*
X169181Y158744D01*
X175181Y244768D02*
G01*
X175181Y213661D01*
X135921Y213661D02*
G01*
X135921Y244768D01*
X141921Y250768D02*
G01*
X169181Y250768D01*
X1186264Y381962D02*
G01*
X1186264Y413068D01*
X1147004Y413068D02*
G01*
X1147004Y381962D01*
X1153004Y375961D02*
G01*
X1180264Y375961D01*
X1186264Y461986D02*
G01*
X1186264Y430880D01*
X1147004Y430880D02*
G01*
X1147004Y461986D01*
X1153004Y467986D02*
G01*
X1180264Y467986D01*
X840702Y381354D02*
G01*
X840702Y412460D01*
X801443Y412460D02*
G01*
X801443Y381354D01*
X807442Y375354D02*
G01*
X834703Y375354D01*
X840702Y461377D02*
G01*
X840702Y430271D01*
X801443Y430271D02*
G01*
X801443Y461377D01*
X807442Y467378D02*
G01*
X834703Y467378D01*
X494276Y381400D02*
G01*
X494276Y412506D01*
X455017Y412506D02*
G01*
X455017Y381400D01*
X461016Y375399D02*
G01*
X488277Y375399D01*
X494276Y461424D02*
G01*
X494276Y430318D01*
X455017Y430318D02*
G01*
X455017Y461424D01*
X461016Y467424D02*
G01*
X488277Y467424D01*
X1845894Y606843D02*
G01*
X1808143Y606843D01*
X1808143Y554827D01*
X1845894Y554827D01*
X1879454Y606843D02*
G01*
X1917204Y606843D01*
X1917204Y554827D01*
X1879454Y554827D01*
D10*
X1201780Y64380D02*
G01*
X1201780Y3750D01*
X1181309Y3750D01*
X1181309Y62800D01*
X1252170Y10840D02*
G01*
X1252170Y17480D01*
X1252170Y122300D02*
G01*
X1252170Y128949D01*
X1252170Y128949D02*
G01*
X1225840Y128949D01*
X1156460Y128949D02*
G01*
X1130130Y128949D01*
X1130130Y128949D02*
G01*
X1130130Y122300D01*
X1130130Y17480D02*
G01*
X1130130Y10840D01*
X1130130Y10840D02*
G01*
X1252170Y10840D01*
X857980Y64280D02*
G01*
X857980Y3650D01*
X837509Y3650D01*
X837509Y62699D01*
X908369Y10740D02*
G01*
X908369Y17380D01*
X908369Y122200D02*
G01*
X908369Y128850D01*
X908369Y128850D02*
G01*
X882040Y128850D01*
X812660Y128850D02*
G01*
X786330Y128850D01*
X786330Y128850D02*
G01*
X786330Y122200D01*
X786330Y17380D02*
G01*
X786330Y10740D01*
X786330Y10740D02*
G01*
X908369Y10740D01*
X510779Y64680D02*
G01*
X510779Y4050D01*
X490310Y4050D01*
X490310Y63099D01*
X561169Y11140D02*
G01*
X561169Y17780D01*
X561169Y122600D02*
G01*
X561169Y129250D01*
X561169Y129250D02*
G01*
X534839Y129250D01*
X465459Y129250D02*
G01*
X439130Y129250D01*
X439130Y129250D02*
G01*
X439130Y122600D01*
X439130Y17780D02*
G01*
X439130Y11140D01*
X439130Y11140D02*
G01*
X561169Y11140D01*
X166231Y64410D02*
G01*
X166231Y3780D01*
X145761Y3780D01*
X145761Y62830D01*
X216621Y10869D02*
G01*
X216621Y17510D01*
X216621Y122330D02*
G01*
X216621Y128980D01*
X216621Y128980D02*
G01*
X190291Y128980D01*
X120911Y128980D02*
G01*
X94581Y128980D01*
X94581Y128980D02*
G01*
X94581Y122330D01*
X94581Y17510D02*
G01*
X94581Y10869D01*
X94581Y10869D02*
G01*
X216621Y10869D01*
X1155560Y565132D02*
G01*
X1155560Y625761D01*
X1176030Y625761D01*
X1176030Y566712D01*
X1105170Y618672D02*
G01*
X1105170Y612032D01*
X1105170Y507211D02*
G01*
X1105170Y500561D01*
X1105170Y500561D02*
G01*
X1131500Y500561D01*
X1200880Y500561D02*
G01*
X1227210Y500561D01*
X1227210Y500561D02*
G01*
X1227210Y507211D01*
X1227210Y612032D02*
G01*
X1227210Y618672D01*
X1227210Y618672D02*
G01*
X1105170Y618672D01*
X810392Y565650D02*
G01*
X810392Y626280D01*
X830863Y626280D01*
X830863Y567229D01*
X760003Y619190D02*
G01*
X760003Y612550D01*
X760003Y507730D02*
G01*
X760003Y501080D01*
X760003Y501080D02*
G01*
X786332Y501080D01*
X855713Y501080D02*
G01*
X882042Y501080D01*
X882042Y501080D02*
G01*
X882042Y507730D01*
X882042Y612550D02*
G01*
X882042Y619190D01*
X882042Y619190D02*
G01*
X760003Y619190D01*
X464720Y566020D02*
G01*
X464720Y626649D01*
X485189Y626649D01*
X485189Y567600D01*
X414330Y619560D02*
G01*
X414330Y612920D01*
X414330Y508099D02*
G01*
X414330Y501449D01*
X414330Y501449D02*
G01*
X440660Y501449D01*
X510040Y501449D02*
G01*
X536370Y501449D01*
X536370Y501449D02*
G01*
X536370Y508099D01*
X536370Y612920D02*
G01*
X536370Y619560D01*
X536370Y619560D02*
G01*
X414330Y619560D01*
X119340Y565525D02*
G01*
X119340Y626156D01*
X139810Y626156D01*
X139810Y567106D01*
X68949Y619066D02*
G01*
X68949Y612426D01*
X68949Y507606D02*
G01*
X68949Y500956D01*
X68949Y500956D02*
G01*
X95280Y500956D01*
X164660Y500956D02*
G01*
X190990Y500956D01*
X190990Y500956D02*
G01*
X190990Y507606D01*
X190990Y612426D02*
G01*
X190990Y619066D01*
X190990Y619066D02*
G01*
X68949Y619066D01*
X1793751Y536421D02*
G01*
X1730758Y536421D01*
X1730958Y463562D02*
G01*
X1730958Y414351D01*
X1793953Y463562D02*
G01*
X1793953Y414351D01*
X1730758Y487207D02*
G01*
X1730758Y536421D01*
X1793751Y487207D02*
G01*
X1793751Y536421D01*
X1793953Y414351D02*
G01*
X1730958Y414351D01*
X1614573Y530514D02*
G01*
X1551579Y530514D01*
X1551780Y457654D02*
G01*
X1551780Y408443D01*
X1614774Y457654D02*
G01*
X1614774Y408443D01*
X1551579Y481300D02*
G01*
X1551579Y530514D01*
X1614573Y481300D02*
G01*
X1614573Y530514D01*
X1614774Y408443D02*
G01*
X1551780Y408443D01*
X1448013Y452854D02*
G01*
X1448013Y411517D01*
X1533053Y452854D02*
G01*
X1533053Y411517D01*
X1448013Y492225D02*
G01*
X1448013Y533563D01*
X1533053Y492225D02*
G01*
X1533053Y533563D01*
X1455100Y402462D02*
G01*
X1525966Y402462D01*
X1455100Y542618D02*
G01*
X1525966Y542618D01*
X1448013Y533563D02*
G01*
X1448013Y535531D01*
X1455099Y542618D01*
X1448013Y411517D02*
G01*
X1448013Y409550D01*
X1455100Y402462D01*
X1533053Y533563D02*
G01*
X1533053Y535531D01*
X1525966Y542618D01*
X1533053Y411517D02*
G01*
X1533053Y409549D01*
X1525966Y402462D01*
X1687428Y149343D02*
G01*
X1728766Y149343D01*
X1687428Y234383D02*
G01*
X1728766Y234383D01*
X1648058Y149343D02*
G01*
X1606720Y149343D01*
X1648058Y234383D02*
G01*
X1606720Y234383D01*
X1737820Y156431D02*
G01*
X1737820Y227296D01*
X1597665Y156431D02*
G01*
X1597665Y227296D01*
X1606720Y149343D02*
G01*
X1604752Y149343D01*
X1597665Y156430D01*
X1728766Y149343D02*
G01*
X1730733Y149343D01*
X1737820Y156431D01*
X1606720Y234383D02*
G01*
X1604752Y234383D01*
X1597665Y227296D01*
X1728766Y234383D02*
G01*
X1730733Y234383D01*
X1737820Y227296D01*
X1596875Y56009D02*
G01*
X1596875Y119002D01*
X1734672Y56009D02*
G01*
X1734672Y119003D01*
X1646088Y128451D02*
G01*
X1604751Y128451D01*
X1646088Y46561D02*
G01*
X1604751Y46561D01*
X1685459Y128451D02*
G01*
X1726797Y128451D01*
X1685459Y46561D02*
G01*
X1726797Y46561D01*
X1734672Y55225D02*
G01*
X1734672Y56009D01*
X1734672Y54437D02*
G01*
X1734672Y56009D01*
X1734672Y120576D02*
G01*
X1734672Y119003D01*
X1596875Y54437D02*
G01*
X1596875Y56009D01*
X1596875Y120575D02*
G01*
X1596875Y119002D01*
D27*
X1151179Y338661D02*
G01*
X1147937Y338661D01*
X1234551Y338661D02*
G01*
X1231309Y338661D01*
X1151179Y283542D02*
G01*
X1147937Y283542D01*
X1234551Y283542D02*
G01*
X1231309Y283542D01*
X1234551Y338661D02*
G01*
X1234551Y283542D01*
X1147937Y338661D02*
G01*
X1147937Y283542D01*
X806605Y338641D02*
G01*
X803363Y338641D01*
X889977Y338641D02*
G01*
X886735Y338641D01*
X806605Y283523D02*
G01*
X803363Y283523D01*
X889977Y283523D02*
G01*
X886735Y283523D01*
X889977Y338641D02*
G01*
X889977Y283523D01*
X803363Y338641D02*
G01*
X803363Y283523D01*
X460035Y338459D02*
G01*
X456793Y338459D01*
X543407Y338459D02*
G01*
X540165Y338459D01*
X460035Y283341D02*
G01*
X456793Y283341D01*
X543407Y283341D02*
G01*
X540165Y283341D01*
X543407Y338459D02*
G01*
X543407Y283341D01*
X456793Y338459D02*
G01*
X456793Y283341D01*
X116135Y339759D02*
G01*
X112893Y339759D01*
X199507Y339759D02*
G01*
X196265Y339759D01*
X116135Y284641D02*
G01*
X112893Y284641D01*
X199507Y284641D02*
G01*
X196265Y284641D01*
X199507Y339759D02*
G01*
X199507Y284641D01*
X112893Y339759D02*
G01*
X112893Y284641D01*
D13*
X1452094Y159880D02*
G01*
X1414343Y159880D01*
X1414343Y107863D01*
X1452094Y107863D01*
X1485653Y159880D02*
G01*
X1523404Y159880D01*
X1523404Y107863D01*
X1485653Y107863D01*
X1673238Y302178D02*
G01*
X1673238Y264427D01*
X1725255Y264427D01*
X1725255Y302178D01*
X1673238Y335738D02*
G01*
X1673238Y373488D01*
X1725255Y373488D01*
X1725255Y335738D01*
X1557068Y300208D02*
G01*
X1557068Y262458D01*
X1609083Y262458D01*
X1609083Y300208D01*
X1557068Y333769D02*
G01*
X1557068Y371520D01*
X1609083Y371520D01*
X1609083Y333769D01*
X1485653Y168903D02*
G01*
X1523404Y168903D01*
X1523404Y220919D01*
X1485653Y220919D01*
X1452094Y168903D02*
G01*
X1414343Y168903D01*
X1414343Y220919D01*
X1452094Y220919D01*
X1507310Y377076D02*
G01*
X1450127Y377076D01*
X1450127Y336460D01*
X1507310Y256902D02*
G01*
X1450127Y256902D01*
X1450127Y297517D01*
X1507310Y334918D02*
G01*
X1507310Y299059D01*
D10*
X1827222Y160349D02*
G01*
X1827222Y81609D01*
X1756357Y160349D02*
G01*
X1756357Y81609D01*
X1827222Y146065D02*
G01*
X1756357Y146065D01*
X1703633Y523870D02*
G01*
X1703633Y445130D01*
X1632766Y523870D02*
G01*
X1632766Y445130D01*
X1703633Y509585D02*
G01*
X1632766Y509585D01*
D13*
G75*
G01*
X1260220Y275028D02*
G03*
X1266220Y269028I6000J0D01*
G75*
G01*
X1293480Y269028D02*
G03*
X1299480Y275028I0J6000D01*
G75*
G01*
X1260220Y355052D02*
G02*
X1266220Y361052I6000J0D01*
G75*
G01*
X1293480Y361052D02*
G02*
X1299480Y355052I0J-6000D01*
G75*
G01*
X915645Y273039D02*
G03*
X921645Y267039I6000J0D01*
G75*
G01*
X948905Y267039D02*
G03*
X954905Y273039I0J6000D01*
G75*
G01*
X915645Y353063D02*
G02*
X921645Y359063I6000J0D01*
G75*
G01*
X948905Y359063D02*
G02*
X954905Y353063I0J-6000D01*
G75*
G01*
X569103Y273057D02*
G03*
X575103Y267057I6000J0D01*
G75*
G01*
X602363Y267057D02*
G03*
X608363Y273057I0J6000D01*
G75*
G01*
X569103Y353081D02*
G02*
X575103Y359081I6000J0D01*
G75*
G01*
X602363Y359081D02*
G02*
X608363Y353081I0J-6000D01*
G75*
G01*
X223688Y276852D02*
G03*
X229688Y270852I6000J0D01*
G75*
G01*
X256948Y270852D02*
G03*
X262948Y276852I0J6000D01*
G75*
G01*
X223688Y356876D02*
G02*
X229688Y362876I6000J0D01*
G75*
G01*
X256948Y362876D02*
G02*
X262948Y356876I0J-6000D01*
G75*
G01*
X110170Y381288D02*
G03*
X116170Y375288I6000J0D01*
G75*
G01*
X143430Y375288D02*
G03*
X149430Y381288I0J6000D01*
G75*
G01*
X110170Y461312D02*
G02*
X116170Y467312I6000J0D01*
G75*
G01*
X143430Y467312D02*
G02*
X149430Y461312I0J-6000D01*
G75*
G01*
X1171615Y164764D02*
G03*
X1177615Y158764I6000J0D01*
G75*
G01*
X1204875Y158764D02*
G03*
X1210875Y164764I0J6000D01*
G75*
G01*
X1171615Y244788D02*
G02*
X1177615Y250788I6000J0D01*
G75*
G01*
X1204875Y250788D02*
G02*
X1210875Y244788I0J-6000D01*
G75*
G01*
X826370Y164888D02*
G03*
X832370Y158888I6000J0D01*
G75*
G01*
X859630Y158888D02*
G03*
X865630Y164888I0J6000D01*
G75*
G01*
X826370Y244912D02*
G02*
X832370Y250912I6000J0D01*
G75*
G01*
X859630Y250912D02*
G02*
X865630Y244912I0J-6000D01*
G75*
G01*
X480614Y164810D02*
G03*
X486614Y158810I6000J0D01*
G75*
G01*
X513874Y158810D02*
G03*
X519874Y164810I0J6000D01*
G75*
G01*
X480614Y244834D02*
G02*
X486614Y250834I6000J0D01*
G75*
G01*
X513874Y250834D02*
G02*
X519874Y244834I0J-6000D01*
G75*
G01*
X135921Y164744D02*
G03*
X141921Y158744I6000J0D01*
G75*
G01*
X169181Y158744D02*
G03*
X175181Y164744I0J6000D01*
G75*
G01*
X135921Y244768D02*
G02*
X141921Y250768I6000J0D01*
G75*
G01*
X169181Y250768D02*
G02*
X175181Y244768I0J-6000D01*
G75*
G01*
X1147004Y381962D02*
G03*
X1153004Y375962I6000J0D01*
G75*
G01*
X1180264Y375962D02*
G03*
X1186264Y381962I0J6000D01*
G75*
G01*
X1147004Y461986D02*
G02*
X1153004Y467986I6000J0D01*
G75*
G01*
X1180264Y467986D02*
G02*
X1186264Y461986I0J-6000D01*
G75*
G01*
X801443Y381354D02*
G03*
X807443Y375354I6000J0D01*
G75*
G01*
X834703Y375354D02*
G03*
X840703Y381354I0J6000D01*
G75*
G01*
X801443Y461378D02*
G02*
X807443Y467378I6000J0D01*
G75*
G01*
X834703Y467378D02*
G02*
X840703Y461378I0J-6000D01*
G75*
G01*
X455017Y381400D02*
G03*
X461017Y375400I6000J0D01*
G75*
G01*
X488277Y375400D02*
G03*
X494277Y381400I0J6000D01*
G75*
G01*
X455017Y461424D02*
G02*
X461017Y467424I6000J0D01*
G75*
G01*
X488277Y467424D02*
G02*
X494277Y461424I0J-6000D01*
D10*
G75*
G01*
X1726797Y46561D02*
G03*
X1734673Y54437I0J7876D01*
G75*
G01*
X1726797Y128451D02*
G02*
X1734672Y120576I0J-7875D01*
G75*
G01*
X1604751Y46561D02*
G02*
X1596875Y54437I0J7876D01*
G75*
G01*
X1604751Y128451D02*
G03*
X1596875Y120575I0J-7876D01*
G75*
G01
X1202950Y69890D02*
G03X1202950Y69890I-11800J0D01*
G75*
G01
X859150Y69790D02*
G03X859150Y69790I-11800J0D01*
G75*
G01
X511951Y70194D02*
G03X511951Y70194I-11800J0D01*
G75*
G01
X167402Y69924D02*
G03X167402Y69924I-11800J0D01*
G75*
G01
X1177990Y559622D02*
G03X1177990Y559622I-11800J0D01*
G75*
G01
X832823Y560140D02*
G03X832823Y560140I-11800J0D01*
G75*
G01
X487150Y560510D02*
G03X487150Y560510I-11800J0D01*
G75*
G01
X141771Y560020D02*
G03X141771Y560020I-11800J0D01*
G75*
G01
X1246241Y351098D02*
G03X1246241Y351098I-5000J0D01*
G75*
G01
X901666Y351078D02*
G03X901666Y351078I-5000J0D01*
G75*
G01
X555096Y350896D02*
G03X555096Y350896I-5000J0D01*
G75*
G01
X211196Y352196D02*
G03X211196Y352196I-5000J0D01*
X-19749Y2116800D02*
G01*
X1285250Y2116800D01*
X1285250Y1477800D01*
X-19749Y1477800D01*
X-19749Y2116800D01*
M02*
