G04 Layer: TopPasteMaskLayer*
G04 EasyEDA v6.4.25, 2021-09-22T10:20:37+05:30*
G04 774fefb5d2d343239ab63bc48f8a28e3,f7b9aed3ca5c4f10b20383f968238e49,10*
G04 Gerber Generator version 0.2*
G04 Scale: 100 percent, Rotated: No, Reflected: No *
G04 Dimensions in inches *
G04 leading zeros omitted , absolute positions ,3 integer and 6 decimal *
%FSLAX36Y36*%
%MOIN*%

%ADD17R,0.0472X0.0866*%
%ADD18R,0.0512X0.0512*%
%ADD19R,0.0433X0.0394*%
%ADD20R,0.0610X0.0394*%
%ADD21R,0.0394X0.0610*%
%ADD22R,0.0157X0.0354*%
%ADD25R,0.0787X0.0492*%

%LPD*%
G36*
X1236420Y419300D02*
G01*
X1234440Y417320D01*
X1234440Y385820D01*
X1236420Y383860D01*
X1267900Y383860D01*
X1269880Y385820D01*
X1269880Y394799D01*
X1255320Y394799D01*
X1255320Y407800D01*
X1269880Y407800D01*
X1269880Y417320D01*
X1267900Y419300D01*
G37*
G36*
X1299400Y419300D02*
G01*
X1297440Y417320D01*
X1297440Y407800D01*
X1312400Y407800D01*
X1312400Y394799D01*
X1297440Y394799D01*
X1297440Y385820D01*
X1299400Y383860D01*
X1330500Y383860D01*
X1332480Y385820D01*
X1332480Y417320D01*
X1330500Y419300D01*
G37*
G36*
X897840Y419300D02*
G01*
X895860Y417320D01*
X895860Y385820D01*
X897840Y383860D01*
X929320Y383860D01*
X931300Y385820D01*
X931300Y394799D01*
X916740Y394799D01*
X916740Y407800D01*
X931300Y407800D01*
X931300Y417320D01*
X929320Y419300D01*
G37*
G36*
X960819Y419300D02*
G01*
X958860Y417320D01*
X958860Y407800D01*
X973820Y407800D01*
X973820Y394799D01*
X958860Y394799D01*
X958860Y385820D01*
X960819Y383860D01*
X991919Y383860D01*
X993900Y385820D01*
X993900Y417320D01*
X991919Y419300D01*
G37*
G36*
X551380Y419300D02*
G01*
X549400Y417320D01*
X549400Y385820D01*
X551380Y383860D01*
X582880Y383860D01*
X584840Y385820D01*
X584840Y394799D01*
X570280Y394799D01*
X570280Y407800D01*
X584840Y407800D01*
X584840Y417320D01*
X582880Y419300D01*
G37*
G36*
X614360Y419300D02*
G01*
X612400Y417320D01*
X612400Y407800D01*
X627360Y407800D01*
X627360Y394799D01*
X612400Y394799D01*
X612400Y385820D01*
X614360Y383860D01*
X645480Y383860D01*
X647440Y385820D01*
X647440Y417320D01*
X645480Y419300D01*
G37*
G36*
X204920Y419300D02*
G01*
X202960Y417320D01*
X202960Y385820D01*
X204920Y383860D01*
X236420Y383860D01*
X238380Y385820D01*
X238380Y394799D01*
X223820Y394799D01*
X223820Y407800D01*
X238380Y407800D01*
X238380Y417320D01*
X236420Y419300D01*
G37*
G36*
X267920Y419300D02*
G01*
X265940Y417320D01*
X265940Y407800D01*
X280900Y407800D01*
X280900Y394799D01*
X265940Y394799D01*
X265940Y385820D01*
X267920Y383860D01*
X299020Y383860D01*
X300980Y385820D01*
X300980Y417320D01*
X299020Y419300D01*
G37*
G36*
X1271000Y345760D02*
G01*
X1269020Y343780D01*
X1269020Y324880D01*
X1271000Y322120D01*
X1288700Y322120D01*
X1290680Y324880D01*
X1290680Y343780D01*
X1288700Y345760D01*
G37*
G36*
X1271000Y307960D02*
G01*
X1269020Y305200D01*
X1269020Y286300D01*
X1271000Y284340D01*
X1288700Y284340D01*
X1290680Y286300D01*
X1290680Y305200D01*
X1288700Y307960D01*
G37*
G36*
X926420Y343760D02*
G01*
X924440Y341800D01*
X924440Y322900D01*
X926420Y320140D01*
X944140Y320140D01*
X946100Y322900D01*
X946100Y341800D01*
X944140Y343760D01*
G37*
G36*
X926420Y305960D02*
G01*
X924440Y303200D01*
X924440Y284320D01*
X926420Y282340D01*
X944140Y282340D01*
X946100Y284320D01*
X946100Y303200D01*
X944140Y305960D01*
G37*
G36*
X579880Y343780D02*
G01*
X577900Y341820D01*
X577900Y322920D01*
X579880Y320160D01*
X597600Y320160D01*
X599560Y322920D01*
X599560Y341820D01*
X597600Y343780D01*
G37*
G36*
X579880Y305980D02*
G01*
X577900Y303220D01*
X577900Y284320D01*
X579880Y282360D01*
X597600Y282360D01*
X599560Y284320D01*
X599560Y303220D01*
X597600Y305980D01*
G37*
G36*
X234460Y347580D02*
G01*
X232500Y345600D01*
X232500Y326700D01*
X234460Y323960D01*
X252180Y323960D01*
X254140Y326700D01*
X254140Y345600D01*
X252180Y347580D01*
G37*
G36*
X234460Y309780D02*
G01*
X232500Y307020D01*
X232500Y288120D01*
X234460Y286160D01*
X252180Y286160D01*
X254140Y288120D01*
X254140Y307020D01*
X252180Y309780D01*
G37*
G36*
X120940Y452020D02*
G01*
X118980Y450040D01*
X118980Y431140D01*
X120940Y428380D01*
X138660Y428380D01*
X140620Y431140D01*
X140620Y450040D01*
X138660Y452020D01*
G37*
G36*
X120940Y414219D02*
G01*
X118980Y411460D01*
X118980Y392560D01*
X120940Y390600D01*
X138660Y390600D01*
X140620Y392560D01*
X140620Y411460D01*
X138660Y414219D01*
G37*
G36*
X1182380Y235479D02*
G01*
X1180420Y233520D01*
X1180420Y214620D01*
X1182380Y211860D01*
X1200100Y211860D01*
X1202080Y214620D01*
X1202080Y233520D01*
X1200100Y235479D01*
G37*
G36*
X1182380Y197700D02*
G01*
X1180420Y194940D01*
X1180420Y176040D01*
X1182380Y174060D01*
X1200100Y174060D01*
X1202080Y176040D01*
X1202080Y194940D01*
X1200100Y197700D01*
G37*
G36*
X837140Y235620D02*
G01*
X835180Y233640D01*
X835180Y214740D01*
X837140Y211980D01*
X854860Y211980D01*
X856820Y214740D01*
X856820Y233640D01*
X854860Y235620D01*
G37*
G36*
X837140Y197820D02*
G01*
X835180Y195060D01*
X835180Y176160D01*
X837140Y174200D01*
X854860Y174200D01*
X856820Y176160D01*
X856820Y195060D01*
X854860Y197820D01*
G37*
G36*
X491380Y235539D02*
G01*
X489420Y233560D01*
X489420Y214660D01*
X491380Y211920D01*
X509099Y211920D01*
X511079Y214660D01*
X511079Y233560D01*
X509099Y235539D01*
G37*
G36*
X491380Y197740D02*
G01*
X489420Y194980D01*
X489420Y176080D01*
X491380Y174120D01*
X509099Y174120D01*
X511079Y176080D01*
X511079Y194980D01*
X509099Y197740D01*
G37*
G36*
X146700Y235460D02*
G01*
X144720Y233500D01*
X144720Y214600D01*
X146700Y211840D01*
X164420Y211840D01*
X166380Y214600D01*
X166380Y233500D01*
X164420Y235460D01*
G37*
G36*
X146700Y197680D02*
G01*
X144720Y194920D01*
X144720Y176020D01*
X146700Y174040D01*
X164420Y174040D01*
X166380Y176020D01*
X166380Y194920D01*
X164420Y197680D01*
G37*
G36*
X1157780Y452680D02*
G01*
X1155800Y450720D01*
X1155800Y431820D01*
X1157780Y429060D01*
X1175500Y429060D01*
X1177460Y431820D01*
X1177460Y450720D01*
X1175500Y452680D01*
G37*
G36*
X1157780Y414880D02*
G01*
X1155800Y412140D01*
X1155800Y393240D01*
X1157780Y391260D01*
X1175500Y391260D01*
X1177460Y393240D01*
X1177460Y412140D01*
X1175500Y414880D01*
G37*
G36*
X812220Y452080D02*
G01*
X810240Y450100D01*
X810240Y431200D01*
X812220Y428459D01*
X829940Y428459D01*
X831900Y431200D01*
X831900Y450100D01*
X829940Y452080D01*
G37*
G36*
X812220Y414280D02*
G01*
X810240Y411520D01*
X810240Y392620D01*
X812220Y390660D01*
X829940Y390660D01*
X831900Y392620D01*
X831900Y411520D01*
X829940Y414280D01*
G37*
G36*
X465780Y452120D02*
G01*
X463820Y450160D01*
X463820Y431260D01*
X465780Y428500D01*
X483500Y428500D01*
X485480Y431260D01*
X485480Y450160D01*
X483500Y452120D01*
G37*
G36*
X465780Y414320D02*
G01*
X463820Y411580D01*
X463820Y392680D01*
X465780Y390700D01*
X483500Y390700D01*
X485480Y392680D01*
X485480Y411580D01*
X483500Y414320D01*
G37*
G36*
X1815620Y598560D02*
G01*
X1813660Y596580D01*
X1813660Y565080D01*
X1815620Y563120D01*
X1847120Y563120D01*
X1849100Y565080D01*
X1849100Y574060D01*
X1834520Y574060D01*
X1834520Y587060D01*
X1849100Y587060D01*
X1849100Y596580D01*
X1847120Y598560D01*
G37*
G36*
X1878620Y598560D02*
G01*
X1876660Y596580D01*
X1876660Y587060D01*
X1891620Y587060D01*
X1891620Y574060D01*
X1876660Y574060D01*
X1876660Y565080D01*
X1878620Y563120D01*
X1909720Y563120D01*
X1911680Y565080D01*
X1911680Y596580D01*
X1909720Y598560D01*
G37*
G36*
X1421819Y151580D02*
G01*
X1419860Y149620D01*
X1419860Y118120D01*
X1421819Y116160D01*
X1453320Y116160D01*
X1455300Y118120D01*
X1455300Y127100D01*
X1440720Y127100D01*
X1440720Y140100D01*
X1455300Y140100D01*
X1455300Y149620D01*
X1453320Y151580D01*
G37*
G36*
X1484820Y151580D02*
G01*
X1482860Y149620D01*
X1482860Y140100D01*
X1497820Y140100D01*
X1497820Y127100D01*
X1482860Y127100D01*
X1482860Y118120D01*
X1484820Y116160D01*
X1515920Y116160D01*
X1517880Y118120D01*
X1517880Y149620D01*
X1515920Y151580D01*
G37*
G36*
X1683500Y305380D02*
G01*
X1681519Y303400D01*
X1681519Y271920D01*
X1683500Y269940D01*
X1715000Y269940D01*
X1716960Y271920D01*
X1716960Y303400D01*
X1715000Y305380D01*
X1706020Y305380D01*
X1706020Y290800D01*
X1693020Y290800D01*
X1693020Y305380D01*
G37*
G36*
X1683500Y367980D02*
G01*
X1681519Y366000D01*
X1681519Y334900D01*
X1683500Y332939D01*
X1693020Y332939D01*
X1693020Y347900D01*
X1706020Y347900D01*
X1706020Y332939D01*
X1715000Y332939D01*
X1716960Y334900D01*
X1716960Y366000D01*
X1715000Y367980D01*
G37*
G36*
X1567320Y303400D02*
G01*
X1565360Y301440D01*
X1565360Y269940D01*
X1567320Y267980D01*
X1598820Y267980D01*
X1600800Y269940D01*
X1600800Y301440D01*
X1598820Y303400D01*
X1589840Y303400D01*
X1589840Y288840D01*
X1576860Y288840D01*
X1576860Y303400D01*
G37*
G36*
X1567320Y366000D02*
G01*
X1565360Y364040D01*
X1565360Y332939D01*
X1567320Y330959D01*
X1576860Y330959D01*
X1576860Y345920D01*
X1589840Y345920D01*
X1589840Y330959D01*
X1598820Y330959D01*
X1600800Y332939D01*
X1600800Y364040D01*
X1598820Y366000D01*
G37*
G36*
X1484420Y212620D02*
G01*
X1482460Y210660D01*
X1482460Y201680D01*
X1497020Y201680D01*
X1497020Y188700D01*
X1482460Y188700D01*
X1482460Y179160D01*
X1484420Y177200D01*
X1515920Y177200D01*
X1517900Y179160D01*
X1517900Y210660D01*
X1515920Y212620D01*
G37*
G36*
X1421819Y212620D02*
G01*
X1419860Y210660D01*
X1419860Y179160D01*
X1421819Y177200D01*
X1452940Y177200D01*
X1454900Y179160D01*
X1454900Y188700D01*
X1439940Y188700D01*
X1439940Y201680D01*
X1454900Y201680D01*
X1454900Y210660D01*
X1452940Y212620D01*
G37*
D17*
G01*
X1252120Y69890D03*
D18*
G01*
X1191150Y126910D03*
D17*
G01*
X1130080Y69890D03*
G01*
X908319Y69790D03*
D18*
G01*
X847350Y126810D03*
D17*
G01*
X786280Y69790D03*
G01*
X561120Y70194D03*
D18*
G01*
X500151Y127214D03*
D17*
G01*
X439081Y70194D03*
G01*
X216572Y69924D03*
D18*
G01*
X155602Y126944D03*
D17*
G01*
X94532Y69924D03*
G01*
X1105220Y559621D03*
D18*
G01*
X1166190Y502602D03*
D17*
G01*
X1227260Y559621D03*
G01*
X760053Y560140D03*
D18*
G01*
X821023Y503120D03*
D17*
G01*
X882092Y560140D03*
G01*
X414380Y560510D03*
D18*
G01*
X475350Y503490D03*
D17*
G01*
X536420Y560510D03*
G01*
X69001Y560019D03*
D18*
G01*
X129971Y503000D03*
D17*
G01*
X191041Y560019D03*
D19*
G01*
X1762255Y443899D03*
G01*
X1762255Y506889D03*
G36*
X1961119Y424215D02*
G01*
X1902059Y424215D01*
X1902059Y542335D01*
X1961119Y542335D01*
G37*
G36*
X1876119Y424215D02*
G01*
X1817059Y424215D01*
X1817059Y542335D01*
X1876119Y542335D01*
G37*
G36*
X1850870Y72838D02*
G01*
X1850870Y131898D01*
X1968989Y131898D01*
X1968989Y72838D01*
G37*
G36*
X1850870Y342838D02*
G01*
X1850870Y401898D01*
X1968989Y401898D01*
X1968989Y342838D01*
G37*
G36*
X1850870Y162838D02*
G01*
X1850870Y221898D01*
X1968989Y221898D01*
X1968989Y162838D01*
G37*
G01*
X1583076Y437992D03*
G01*
X1583076Y500982D03*
D20*
G01*
X1490536Y511909D03*
G01*
X1490536Y433169D03*
D21*
G01*
X1628373Y191867D03*
G01*
X1707114Y191867D03*
G01*
X1705140Y87507D03*
G01*
X1626399Y87507D03*
G36*
X1850870Y257838D02*
G01*
X1850870Y316898D01*
X1968989Y316898D01*
X1968989Y257838D01*
G37*
D22*
G01*
X1191241Y346528D03*
G01*
X1165651Y346528D03*
G01*
X1165651Y275668D03*
G01*
X1191241Y275668D03*
G01*
X1216830Y275668D03*
G01*
X1216830Y346528D03*
G01*
X846666Y346508D03*
G01*
X821075Y346508D03*
G01*
X821075Y275648D03*
G01*
X846666Y275648D03*
G01*
X872256Y275648D03*
G01*
X872256Y346508D03*
G01*
X500095Y346326D03*
G01*
X474506Y346326D03*
G01*
X474506Y275466D03*
G01*
X500095Y275466D03*
G01*
X525686Y275466D03*
G01*
X525686Y346326D03*
G01*
X156195Y347626D03*
G01*
X130606Y347626D03*
G01*
X130606Y276766D03*
G01*
X156195Y276766D03*
G01*
X181786Y276766D03*
G01*
X181786Y347626D03*
G36*
X1493483Y293369D02*
G01*
X1542694Y293369D01*
X1542694Y265809D01*
X1493483Y265809D01*
G37*
G36*
X1493483Y368168D02*
G01*
X1542694Y368168D01*
X1542694Y340609D01*
X1493483Y340609D01*
G37*
G36*
X1414743Y330768D02*
G01*
X1463955Y330768D01*
X1463955Y303209D01*
X1414743Y303209D01*
G37*
D25*
G01*
X1791790Y47157D03*
G01*
X1791790Y194798D03*
G01*
X1668200Y410679D03*
G01*
X1668200Y558319D03*
M02*
