G04 Layer: BoardOutline*
G04 EasyEDA v6.4.25, 2021-09-22T10:20:37+05:30*
G04 774fefb5d2d343239ab63bc48f8a28e3,f7b9aed3ca5c4f10b20383f968238e49,10*
G04 Gerber Generator version 0.2*
G04 Scale: 100 percent, Rotated: No, Reflected: No *
G04 Dimensions in inches *
G04 leading zeros omitted , absolute positions ,3 integer and 6 decimal *
%FSLAX36Y36*%
%MOIN*%

%ADD10C,0.0100*%
D10*
X1840000Y629920D02*
G01*
X2027554Y629920D01*
X2027554Y492125D01*
X2027554Y196849D01*
X2027554Y19684D01*
X1925700Y-1659D02*
G01*
X2027554Y-1659D01*
X2027554Y19684D01*
X1925700Y-1659D02*
G01*
X-699Y-1659D01*
X-699Y628740D01*
X0Y629920D02*
G01*
X1840000Y629920D01*
X3931246Y629920D02*
G01*
X4118801Y629920D01*
X4118801Y492125D01*
X4118801Y196849D01*
X4118801Y19684D01*
X4016946Y-1659D02*
G01*
X4118801Y-1659D01*
X4118801Y19684D01*
X4016946Y-1659D02*
G01*
X2090547Y-1659D01*
X2090547Y628740D01*
X2091246Y629920D02*
G01*
X3931246Y629920D01*
X6022493Y629920D02*
G01*
X6210048Y629920D01*
X6210048Y492125D01*
X6210048Y196849D01*
X6210048Y19684D01*
X6108193Y-1659D02*
G01*
X6210048Y-1659D01*
X6210048Y19684D01*
X6108193Y-1659D02*
G01*
X4181793Y-1659D01*
X4181793Y628740D01*
X4182493Y629920D02*
G01*
X6022493Y629920D01*
X8113740Y629920D02*
G01*
X8301295Y629920D01*
X8301295Y492125D01*
X8301295Y196849D01*
X8301295Y19684D01*
X8199440Y-1659D02*
G01*
X8301295Y-1659D01*
X8301295Y19684D01*
X8199440Y-1659D02*
G01*
X6273040Y-1659D01*
X6273040Y628740D01*
X6273740Y629920D02*
G01*
X8113740Y629920D01*
X1840000Y-64651D02*
G01*
X2027554Y-64651D01*
X2027554Y-202446D01*
X2027554Y-497721D01*
X2027554Y-674886D01*
X1925700Y-696231D02*
G01*
X2027554Y-696231D01*
X2027554Y-674886D01*
X1925700Y-696231D02*
G01*
X-699Y-696231D01*
X-699Y-65831D01*
X0Y-64651D02*
G01*
X1840000Y-64651D01*
X3931246Y-64651D02*
G01*
X4118801Y-64651D01*
X4118801Y-202446D01*
X4118801Y-497721D01*
X4118801Y-674886D01*
X4016946Y-696231D02*
G01*
X4118801Y-696231D01*
X4118801Y-674886D01*
X4016946Y-696231D02*
G01*
X2090547Y-696231D01*
X2090547Y-65831D01*
X2091246Y-64651D02*
G01*
X3931246Y-64651D01*
X6022493Y-64651D02*
G01*
X6210048Y-64651D01*
X6210048Y-202446D01*
X6210048Y-497721D01*
X6210048Y-674886D01*
X6108193Y-696231D02*
G01*
X6210048Y-696231D01*
X6210048Y-674886D01*
X6108193Y-696231D02*
G01*
X4181793Y-696231D01*
X4181793Y-65831D01*
X4182493Y-64651D02*
G01*
X6022493Y-64651D01*
X8113740Y-64651D02*
G01*
X8301295Y-64651D01*
X8301295Y-202446D01*
X8301295Y-497721D01*
X8301295Y-674886D01*
X8199440Y-696231D02*
G01*
X8301295Y-696231D01*
X8301295Y-674886D01*
X8199440Y-696231D02*
G01*
X6273040Y-696231D01*
X6273040Y-65831D01*
X6273740Y-64651D02*
G01*
X8113740Y-64651D01*
X1840000Y-759223D02*
G01*
X2027554Y-759223D01*
X2027554Y-897018D01*
X2027554Y-1192293D01*
X2027554Y-1369458D01*
X1925700Y-1390803D02*
G01*
X2027554Y-1390803D01*
X2027554Y-1369458D01*
X1925700Y-1390803D02*
G01*
X-699Y-1390803D01*
X-699Y-760403D01*
X0Y-759223D02*
G01*
X1840000Y-759223D01*
X3931246Y-759223D02*
G01*
X4118801Y-759223D01*
X4118801Y-897018D01*
X4118801Y-1192293D01*
X4118801Y-1369458D01*
X4016946Y-1390803D02*
G01*
X4118801Y-1390803D01*
X4118801Y-1369458D01*
X4016946Y-1390803D02*
G01*
X2090547Y-1390803D01*
X2090547Y-760403D01*
X2091246Y-759223D02*
G01*
X3931246Y-759223D01*
X6022493Y-759223D02*
G01*
X6210048Y-759223D01*
X6210048Y-897018D01*
X6210048Y-1192293D01*
X6210048Y-1369458D01*
X6108193Y-1390803D02*
G01*
X6210048Y-1390803D01*
X6210048Y-1369458D01*
X6108193Y-1390803D02*
G01*
X4181793Y-1390803D01*
X4181793Y-760403D01*
X4182493Y-759223D02*
G01*
X6022493Y-759223D01*
X8113740Y-759223D02*
G01*
X8301295Y-759223D01*
X8301295Y-897018D01*
X8301295Y-1192293D01*
X8301295Y-1369458D01*
X8199440Y-1390803D02*
G01*
X8301295Y-1390803D01*
X8301295Y-1369458D01*
X8199440Y-1390803D02*
G01*
X6273040Y-1390803D01*
X6273040Y-760403D01*
X6273740Y-759223D02*
G01*
X8113740Y-759223D01*
X1840000Y-1453795D02*
G01*
X2027554Y-1453795D01*
X2027554Y-1591590D01*
X2027554Y-1886866D01*
X2027554Y-2064030D01*
X1925700Y-2085375D02*
G01*
X2027554Y-2085375D01*
X2027554Y-2064030D01*
X1925700Y-2085375D02*
G01*
X-699Y-2085375D01*
X-699Y-1454975D01*
X0Y-1453795D02*
G01*
X1840000Y-1453795D01*
X3931246Y-1453795D02*
G01*
X4118801Y-1453795D01*
X4118801Y-1591590D01*
X4118801Y-1886866D01*
X4118801Y-2064030D01*
X4016946Y-2085375D02*
G01*
X4118801Y-2085375D01*
X4118801Y-2064030D01*
X4016946Y-2085375D02*
G01*
X2090547Y-2085375D01*
X2090547Y-1454975D01*
X2091246Y-1453795D02*
G01*
X3931246Y-1453795D01*
X6022493Y-1453795D02*
G01*
X6210048Y-1453795D01*
X6210048Y-1591590D01*
X6210048Y-1886866D01*
X6210048Y-2064030D01*
X6108193Y-2085375D02*
G01*
X6210048Y-2085375D01*
X6210048Y-2064030D01*
X6108193Y-2085375D02*
G01*
X4181793Y-2085375D01*
X4181793Y-1454975D01*
X4182493Y-1453795D02*
G01*
X6022493Y-1453795D01*
X8113740Y-1453795D02*
G01*
X8301295Y-1453795D01*
X8301295Y-1591590D01*
X8301295Y-1886866D01*
X8301295Y-2064030D01*
X8199440Y-2085375D02*
G01*
X8301295Y-2085375D01*
X8301295Y-2064030D01*
X8199440Y-2085375D02*
G01*
X6273040Y-2085375D01*
X6273040Y-1454975D01*
X6273740Y-1453795D02*
G01*
X8113740Y-1453795D01*
X1840000Y-2148367D02*
G01*
X2027554Y-2148367D01*
X2027554Y-2286162D01*
X2027554Y-2581437D01*
X2027554Y-2758602D01*
X1925700Y-2779947D02*
G01*
X2027554Y-2779947D01*
X2027554Y-2758602D01*
X1925700Y-2779947D02*
G01*
X-699Y-2779947D01*
X-699Y-2149547D01*
X0Y-2148367D02*
G01*
X1840000Y-2148367D01*
X3931246Y-2148367D02*
G01*
X4118801Y-2148367D01*
X4118801Y-2286162D01*
X4118801Y-2581437D01*
X4118801Y-2758602D01*
X4016946Y-2779947D02*
G01*
X4118801Y-2779947D01*
X4118801Y-2758602D01*
X4016946Y-2779947D02*
G01*
X2090547Y-2779947D01*
X2090547Y-2149547D01*
X2091246Y-2148367D02*
G01*
X3931246Y-2148367D01*
X6022493Y-2148367D02*
G01*
X6210048Y-2148367D01*
X6210048Y-2286162D01*
X6210048Y-2581437D01*
X6210048Y-2758602D01*
X6108193Y-2779947D02*
G01*
X6210048Y-2779947D01*
X6210048Y-2758602D01*
X6108193Y-2779947D02*
G01*
X4181793Y-2779947D01*
X4181793Y-2149547D01*
X4182493Y-2148367D02*
G01*
X6022493Y-2148367D01*
X8113740Y-2148367D02*
G01*
X8301295Y-2148367D01*
X8301295Y-2286162D01*
X8301295Y-2581437D01*
X8301295Y-2758602D01*
X8199440Y-2779947D02*
G01*
X8301295Y-2779947D01*
X8301295Y-2758602D01*
X8199440Y-2779947D02*
G01*
X6273040Y-2779947D01*
X6273040Y-2149547D01*
X6273740Y-2148367D02*
G01*
X8113740Y-2148367D01*
X1840000Y-2842939D02*
G01*
X2027554Y-2842939D01*
X2027554Y-2980734D01*
X2027554Y-3276009D01*
X2027554Y-3453174D01*
X1925700Y-3474519D02*
G01*
X2027554Y-3474519D01*
X2027554Y-3453174D01*
X1925700Y-3474519D02*
G01*
X-699Y-3474519D01*
X-699Y-2844119D01*
X0Y-2842939D02*
G01*
X1840000Y-2842939D01*
X3931246Y-2842939D02*
G01*
X4118801Y-2842939D01*
X4118801Y-2980734D01*
X4118801Y-3276009D01*
X4118801Y-3453174D01*
X4016946Y-3474519D02*
G01*
X4118801Y-3474519D01*
X4118801Y-3453174D01*
X4016946Y-3474519D02*
G01*
X2090547Y-3474519D01*
X2090547Y-2844119D01*
X2091246Y-2842939D02*
G01*
X3931246Y-2842939D01*
X6022493Y-2842939D02*
G01*
X6210048Y-2842939D01*
X6210048Y-2980734D01*
X6210048Y-3276009D01*
X6210048Y-3453174D01*
X6108193Y-3474519D02*
G01*
X6210048Y-3474519D01*
X6210048Y-3453174D01*
X6108193Y-3474519D02*
G01*
X4181793Y-3474519D01*
X4181793Y-2844119D01*
X4182493Y-2842939D02*
G01*
X6022493Y-2842939D01*
X8113740Y-2842939D02*
G01*
X8301295Y-2842939D01*
X8301295Y-2980734D01*
X8301295Y-3276009D01*
X8301295Y-3453174D01*
X8199440Y-3474519D02*
G01*
X8301295Y-3474519D01*
X8301295Y-3453174D01*
X8199440Y-3474519D02*
G01*
X6273040Y-3474519D01*
X6273040Y-2844119D01*
X6273740Y-2842939D02*
G01*
X8113740Y-2842939D01*
X1840000Y-3537511D02*
G01*
X2027554Y-3537511D01*
X2027554Y-3675306D01*
X2027554Y-3970581D01*
X2027554Y-4147746D01*
X1925700Y-4169091D02*
G01*
X2027554Y-4169091D01*
X2027554Y-4147746D01*
X1925700Y-4169091D02*
G01*
X-699Y-4169091D01*
X-699Y-3538691D01*
X0Y-3537511D02*
G01*
X1840000Y-3537511D01*
X3931246Y-3537511D02*
G01*
X4118801Y-3537511D01*
X4118801Y-3675306D01*
X4118801Y-3970581D01*
X4118801Y-4147746D01*
X4016946Y-4169091D02*
G01*
X4118801Y-4169091D01*
X4118801Y-4147746D01*
X4016946Y-4169091D02*
G01*
X2090547Y-4169091D01*
X2090547Y-3538691D01*
X2091246Y-3537511D02*
G01*
X3931246Y-3537511D01*
X6022493Y-3537511D02*
G01*
X6210048Y-3537511D01*
X6210048Y-3675306D01*
X6210048Y-3970581D01*
X6210048Y-4147746D01*
X6108193Y-4169091D02*
G01*
X6210048Y-4169091D01*
X6210048Y-4147746D01*
X6108193Y-4169091D02*
G01*
X4181793Y-4169091D01*
X4181793Y-3538691D01*
X4182493Y-3537511D02*
G01*
X6022493Y-3537511D01*
X8113740Y-3537511D02*
G01*
X8301295Y-3537511D01*
X8301295Y-3675306D01*
X8301295Y-3970581D01*
X8301295Y-4147746D01*
X8199440Y-4169091D02*
G01*
X8301295Y-4169091D01*
X8301295Y-4147746D01*
X8199440Y-4169091D02*
G01*
X6273040Y-4169091D01*
X6273040Y-3538691D01*
X6273740Y-3537511D02*
G01*
X8113740Y-3537511D01*
X1840000Y-4232083D02*
G01*
X2027554Y-4232083D01*
X2027554Y-4369878D01*
X2027554Y-4665153D01*
X2027554Y-4842318D01*
X1925700Y-4863663D02*
G01*
X2027554Y-4863663D01*
X2027554Y-4842318D01*
X1925700Y-4863663D02*
G01*
X-699Y-4863663D01*
X-699Y-4233263D01*
X0Y-4232083D02*
G01*
X1840000Y-4232083D01*
X3931246Y-4232083D02*
G01*
X4118801Y-4232083D01*
X4118801Y-4369878D01*
X4118801Y-4665153D01*
X4118801Y-4842318D01*
X4016946Y-4863663D02*
G01*
X4118801Y-4863663D01*
X4118801Y-4842318D01*
X4016946Y-4863663D02*
G01*
X2090547Y-4863663D01*
X2090547Y-4233263D01*
X2091246Y-4232083D02*
G01*
X3931246Y-4232083D01*
X6022493Y-4232083D02*
G01*
X6210048Y-4232083D01*
X6210048Y-4369878D01*
X6210048Y-4665153D01*
X6210048Y-4842318D01*
X6108193Y-4863663D02*
G01*
X6210048Y-4863663D01*
X6210048Y-4842318D01*
X6108193Y-4863663D02*
G01*
X4181793Y-4863663D01*
X4181793Y-4233263D01*
X4182493Y-4232083D02*
G01*
X6022493Y-4232083D01*
X8113740Y-4232083D02*
G01*
X8301295Y-4232083D01*
X8301295Y-4369878D01*
X8301295Y-4665153D01*
X8301295Y-4842318D01*
X8199440Y-4863663D02*
G01*
X8301295Y-4863663D01*
X8301295Y-4842318D01*
X8199440Y-4863663D02*
G01*
X6273040Y-4863663D01*
X6273040Y-4233263D01*
X6273740Y-4232083D02*
G01*
X8113740Y-4232083D01*
X1840000Y-4926655D02*
G01*
X2027554Y-4926655D01*
X2027554Y-5064450D01*
X2027554Y-5359725D01*
X2027554Y-5536890D01*
X1925700Y-5558235D02*
G01*
X2027554Y-5558235D01*
X2027554Y-5536890D01*
X1925700Y-5558235D02*
G01*
X-699Y-5558235D01*
X-699Y-4927835D01*
X0Y-4926655D02*
G01*
X1840000Y-4926655D01*
X3931246Y-4926655D02*
G01*
X4118801Y-4926655D01*
X4118801Y-5064450D01*
X4118801Y-5359725D01*
X4118801Y-5536890D01*
X4016946Y-5558235D02*
G01*
X4118801Y-5558235D01*
X4118801Y-5536890D01*
X4016946Y-5558235D02*
G01*
X2090547Y-5558235D01*
X2090547Y-4927835D01*
X2091246Y-4926655D02*
G01*
X3931246Y-4926655D01*
X6022493Y-4926655D02*
G01*
X6210048Y-4926655D01*
X6210048Y-5064450D01*
X6210048Y-5359725D01*
X6210048Y-5536890D01*
X6108193Y-5558235D02*
G01*
X6210048Y-5558235D01*
X6210048Y-5536890D01*
X6108193Y-5558235D02*
G01*
X4181793Y-5558235D01*
X4181793Y-4927835D01*
X4182493Y-4926655D02*
G01*
X6022493Y-4926655D01*
X8113740Y-4926655D02*
G01*
X8301295Y-4926655D01*
X8301295Y-5064450D01*
X8301295Y-5359725D01*
X8301295Y-5536890D01*
X8199440Y-5558235D02*
G01*
X8301295Y-5558235D01*
X8301295Y-5536890D01*
X8199440Y-5558235D02*
G01*
X6273040Y-5558235D01*
X6273040Y-4927835D01*
X6273740Y-4926655D02*
G01*
X8113740Y-4926655D01*
X1840000Y-5621227D02*
G01*
X2027554Y-5621227D01*
X2027554Y-5759022D01*
X2027554Y-6054297D01*
X2027554Y-6231462D01*
X1925700Y-6252807D02*
G01*
X2027554Y-6252807D01*
X2027554Y-6231462D01*
X1925700Y-6252807D02*
G01*
X-699Y-6252807D01*
X-699Y-5622407D01*
X0Y-5621227D02*
G01*
X1840000Y-5621227D01*
X3931246Y-5621227D02*
G01*
X4118801Y-5621227D01*
X4118801Y-5759022D01*
X4118801Y-6054297D01*
X4118801Y-6231462D01*
X4016946Y-6252807D02*
G01*
X4118801Y-6252807D01*
X4118801Y-6231462D01*
X4016946Y-6252807D02*
G01*
X2090547Y-6252807D01*
X2090547Y-5622407D01*
X2091246Y-5621227D02*
G01*
X3931246Y-5621227D01*
X6022493Y-5621227D02*
G01*
X6210048Y-5621227D01*
X6210048Y-5759022D01*
X6210048Y-6054297D01*
X6210048Y-6231462D01*
X6108193Y-6252807D02*
G01*
X6210048Y-6252807D01*
X6210048Y-6231462D01*
X6108193Y-6252807D02*
G01*
X4181793Y-6252807D01*
X4181793Y-5622407D01*
X4182493Y-5621227D02*
G01*
X6022493Y-5621227D01*
X8113740Y-5621227D02*
G01*
X8301295Y-5621227D01*
X8301295Y-5759022D01*
X8301295Y-6054297D01*
X8301295Y-6231462D01*
X8199440Y-6252807D02*
G01*
X8301295Y-6252807D01*
X8301295Y-6231462D01*
X8199440Y-6252807D02*
G01*
X6273040Y-6252807D01*
X6273040Y-5622407D01*
X6273740Y-5621227D02*
G01*
X8113740Y-5621227D01*
X1840000Y-6315799D02*
G01*
X2027554Y-6315799D01*
X2027554Y-6453594D01*
X2027554Y-6748869D01*
X2027554Y-6926034D01*
X1925700Y-6947379D02*
G01*
X2027554Y-6947379D01*
X2027554Y-6926034D01*
X1925700Y-6947379D02*
G01*
X-699Y-6947379D01*
X-699Y-6316979D01*
X0Y-6315799D02*
G01*
X1840000Y-6315799D01*
X3931246Y-6315799D02*
G01*
X4118801Y-6315799D01*
X4118801Y-6453594D01*
X4118801Y-6748869D01*
X4118801Y-6926034D01*
X4016946Y-6947379D02*
G01*
X4118801Y-6947379D01*
X4118801Y-6926034D01*
X4016946Y-6947379D02*
G01*
X2090547Y-6947379D01*
X2090547Y-6316979D01*
X2091246Y-6315799D02*
G01*
X3931246Y-6315799D01*
X6022493Y-6315799D02*
G01*
X6210048Y-6315799D01*
X6210048Y-6453594D01*
X6210048Y-6748869D01*
X6210048Y-6926034D01*
X6108193Y-6947379D02*
G01*
X6210048Y-6947379D01*
X6210048Y-6926034D01*
X6108193Y-6947379D02*
G01*
X4181793Y-6947379D01*
X4181793Y-6316979D01*
X4182493Y-6315799D02*
G01*
X6022493Y-6315799D01*
X8113740Y-6315799D02*
G01*
X8301295Y-6315799D01*
X8301295Y-6453594D01*
X8301295Y-6748869D01*
X8301295Y-6926034D01*
X8199440Y-6947379D02*
G01*
X8301295Y-6947379D01*
X8301295Y-6926034D01*
X8199440Y-6947379D02*
G01*
X6273040Y-6947379D01*
X6273040Y-6316979D01*
X6273740Y-6315799D02*
G01*
X8113740Y-6315799D01*
X1840000Y-7010371D02*
G01*
X2027554Y-7010371D01*
X2027554Y-7148166D01*
X2027554Y-7443441D01*
X2027554Y-7620606D01*
X1925700Y-7641951D02*
G01*
X2027554Y-7641951D01*
X2027554Y-7620606D01*
X1925700Y-7641951D02*
G01*
X-699Y-7641951D01*
X-699Y-7011551D01*
X0Y-7010371D02*
G01*
X1840000Y-7010371D01*
X3931246Y-7010371D02*
G01*
X4118801Y-7010371D01*
X4118801Y-7148166D01*
X4118801Y-7443441D01*
X4118801Y-7620606D01*
X4016946Y-7641951D02*
G01*
X4118801Y-7641951D01*
X4118801Y-7620606D01*
X4016946Y-7641951D02*
G01*
X2090547Y-7641951D01*
X2090547Y-7011551D01*
X2091246Y-7010371D02*
G01*
X3931246Y-7010371D01*
X6022493Y-7010371D02*
G01*
X6210048Y-7010371D01*
X6210048Y-7148166D01*
X6210048Y-7443441D01*
X6210048Y-7620606D01*
X6108193Y-7641951D02*
G01*
X6210048Y-7641951D01*
X6210048Y-7620606D01*
X6108193Y-7641951D02*
G01*
X4181793Y-7641951D01*
X4181793Y-7011551D01*
X4182493Y-7010371D02*
G01*
X6022493Y-7010371D01*
X8113740Y-7010371D02*
G01*
X8301295Y-7010371D01*
X8301295Y-7148166D01*
X8301295Y-7443441D01*
X8301295Y-7620606D01*
X8199440Y-7641951D02*
G01*
X8301295Y-7641951D01*
X8301295Y-7620606D01*
X8199440Y-7641951D02*
G01*
X6273040Y-7641951D01*
X6273040Y-7011551D01*
X6273740Y-7010371D02*
G01*
X8113740Y-7010371D01*
X-698Y889762D02*
G01*
X8301294Y889762D01*
X8301294Y-7901788D01*
X-698Y-7901788D01*
X-698Y889762D01*
X878781Y692913D02*
G01*
X-698Y692913D01*
X878781Y-7704937D02*
G01*
X-698Y-7704937D01*
X2970027Y692913D02*
G01*
X1148076Y692913D01*
X2970027Y-7704937D02*
G01*
X1148076Y-7704937D01*
X5061273Y692913D02*
G01*
X3239321Y692913D01*
X5061273Y-7704937D02*
G01*
X3239321Y-7704937D01*
X7152519Y692913D02*
G01*
X5330569Y692913D01*
X7152519Y-7704937D02*
G01*
X5330569Y-7704937D01*
X8301295Y692913D02*
G01*
X7421815Y692913D01*
X8301295Y-7704937D02*
G01*
X7421815Y-7704937D01*
X878781Y-61042D02*
G01*
X878781Y-5268D01*
X1148076Y-61042D02*
G01*
X1148076Y-5268D01*
X2970027Y-61042D02*
G01*
X2970027Y-5268D01*
X3239322Y-61042D02*
G01*
X3239322Y-5268D01*
X5061273Y-61042D02*
G01*
X5061273Y-5268D01*
X5330568Y-61042D02*
G01*
X5330568Y-5268D01*
X7152520Y-61042D02*
G01*
X7152520Y-5268D01*
X7421815Y-61042D02*
G01*
X7421815Y-5268D01*
X878781Y-755614D02*
G01*
X878781Y-699840D01*
X1148076Y-755614D02*
G01*
X1148076Y-699840D01*
X2970027Y-755614D02*
G01*
X2970027Y-699840D01*
X3239322Y-755614D02*
G01*
X3239322Y-699840D01*
X5061273Y-755614D02*
G01*
X5061273Y-699840D01*
X5330568Y-755614D02*
G01*
X5330568Y-699840D01*
X7152520Y-755614D02*
G01*
X7152520Y-699840D01*
X7421815Y-755614D02*
G01*
X7421815Y-699840D01*
X878781Y-1450186D02*
G01*
X878781Y-1394412D01*
X1148076Y-1450186D02*
G01*
X1148076Y-1394412D01*
X2970027Y-1450186D02*
G01*
X2970027Y-1394412D01*
X3239322Y-1450186D02*
G01*
X3239322Y-1394412D01*
X5061273Y-1450186D02*
G01*
X5061273Y-1394412D01*
X5330568Y-1450186D02*
G01*
X5330568Y-1394412D01*
X7152520Y-1450186D02*
G01*
X7152520Y-1394412D01*
X7421815Y-1450186D02*
G01*
X7421815Y-1394412D01*
X878781Y-2144757D02*
G01*
X878781Y-2088983D01*
X1148076Y-2144757D02*
G01*
X1148076Y-2088983D01*
X2970027Y-2144757D02*
G01*
X2970027Y-2088983D01*
X3239322Y-2144757D02*
G01*
X3239322Y-2088983D01*
X5061273Y-2144757D02*
G01*
X5061273Y-2088983D01*
X5330568Y-2144757D02*
G01*
X5330568Y-2088983D01*
X7152520Y-2144757D02*
G01*
X7152520Y-2088983D01*
X7421815Y-2144757D02*
G01*
X7421815Y-2088983D01*
X878781Y-2839329D02*
G01*
X878781Y-2783555D01*
X1148076Y-2839329D02*
G01*
X1148076Y-2783555D01*
X2970027Y-2839329D02*
G01*
X2970027Y-2783555D01*
X3239322Y-2839329D02*
G01*
X3239322Y-2783555D01*
X5061273Y-2839329D02*
G01*
X5061273Y-2783555D01*
X5330568Y-2839329D02*
G01*
X5330568Y-2783555D01*
X7152520Y-2839329D02*
G01*
X7152520Y-2783555D01*
X7421815Y-2839329D02*
G01*
X7421815Y-2783555D01*
X878781Y-3533900D02*
G01*
X878781Y-3478126D01*
X1148076Y-3533900D02*
G01*
X1148076Y-3478126D01*
X2970027Y-3533900D02*
G01*
X2970027Y-3478126D01*
X3239322Y-3533900D02*
G01*
X3239322Y-3478126D01*
X5061273Y-3533900D02*
G01*
X5061273Y-3478126D01*
X5330568Y-3533900D02*
G01*
X5330568Y-3478126D01*
X7152520Y-3533900D02*
G01*
X7152520Y-3478126D01*
X7421815Y-3533900D02*
G01*
X7421815Y-3478126D01*
X878781Y-4228472D02*
G01*
X878781Y-4172698D01*
X1148076Y-4228472D02*
G01*
X1148076Y-4172698D01*
X2970027Y-4228472D02*
G01*
X2970027Y-4172698D01*
X3239322Y-4228472D02*
G01*
X3239322Y-4172698D01*
X5061273Y-4228472D02*
G01*
X5061273Y-4172698D01*
X5330568Y-4228472D02*
G01*
X5330568Y-4172698D01*
X7152520Y-4228472D02*
G01*
X7152520Y-4172698D01*
X7421815Y-4228472D02*
G01*
X7421815Y-4172698D01*
X878781Y-4923044D02*
G01*
X878781Y-4867270D01*
X1148076Y-4923044D02*
G01*
X1148076Y-4867270D01*
X2970027Y-4923044D02*
G01*
X2970027Y-4867270D01*
X3239322Y-4923044D02*
G01*
X3239322Y-4867270D01*
X5061273Y-4923044D02*
G01*
X5061273Y-4867270D01*
X5330568Y-4923044D02*
G01*
X5330568Y-4867270D01*
X7152520Y-4923044D02*
G01*
X7152520Y-4867270D01*
X7421815Y-4923044D02*
G01*
X7421815Y-4867270D01*
X878781Y-5617615D02*
G01*
X878781Y-5561841D01*
X1148076Y-5617615D02*
G01*
X1148076Y-5561841D01*
X2970027Y-5617615D02*
G01*
X2970027Y-5561841D01*
X3239322Y-5617615D02*
G01*
X3239322Y-5561841D01*
X5061273Y-5617615D02*
G01*
X5061273Y-5561841D01*
X5330568Y-5617615D02*
G01*
X5330568Y-5561841D01*
X7152520Y-5617615D02*
G01*
X7152520Y-5561841D01*
X7421815Y-5617615D02*
G01*
X7421815Y-5561841D01*
X878781Y-6312187D02*
G01*
X878781Y-6256413D01*
X1148076Y-6312187D02*
G01*
X1148076Y-6256413D01*
X2970027Y-6312187D02*
G01*
X2970027Y-6256413D01*
X3239322Y-6312187D02*
G01*
X3239322Y-6256413D01*
X5061273Y-6312187D02*
G01*
X5061273Y-6256413D01*
X5330568Y-6312187D02*
G01*
X5330568Y-6256413D01*
X7152520Y-6312187D02*
G01*
X7152520Y-6256413D01*
X7421815Y-6312187D02*
G01*
X7421815Y-6256413D01*
X878781Y-7006758D02*
G01*
X878781Y-6950984D01*
X1148076Y-7006758D02*
G01*
X1148076Y-6950984D01*
X2970027Y-7006758D02*
G01*
X2970027Y-6950984D01*
X3239322Y-7006758D02*
G01*
X3239322Y-6950984D01*
X5061273Y-7006758D02*
G01*
X5061273Y-6950984D01*
X5330568Y-7006758D02*
G01*
X5330568Y-6950984D01*
X7152520Y-7006758D02*
G01*
X7152520Y-6950984D01*
X7421815Y-7006758D02*
G01*
X7421815Y-6950984D01*
X2086937Y448778D02*
G01*
X2031164Y448778D01*
X2086937Y179483D02*
G01*
X2031164Y179483D01*
X4178183Y448778D02*
G01*
X4122410Y448778D01*
X4178183Y179483D02*
G01*
X4122410Y179483D01*
X6269429Y448778D02*
G01*
X6213656Y448778D01*
X6269429Y179483D02*
G01*
X6213656Y179483D01*
X2086937Y-245793D02*
G01*
X2031164Y-245793D01*
X2086937Y-515088D02*
G01*
X2031164Y-515088D01*
X4178183Y-245793D02*
G01*
X4122410Y-245793D01*
X4178183Y-515088D02*
G01*
X4122410Y-515088D01*
X6269429Y-245793D02*
G01*
X6213656Y-245793D01*
X6269429Y-515088D02*
G01*
X6213656Y-515088D01*
X2086937Y-940365D02*
G01*
X2031164Y-940365D01*
X2086937Y-1209660D02*
G01*
X2031164Y-1209660D01*
X4178183Y-940365D02*
G01*
X4122410Y-940365D01*
X4178183Y-1209660D02*
G01*
X4122410Y-1209660D01*
X6269429Y-940365D02*
G01*
X6213656Y-940365D01*
X6269429Y-1209660D02*
G01*
X6213656Y-1209660D01*
X2086937Y-1634936D02*
G01*
X2031164Y-1634936D01*
X2086937Y-1904231D02*
G01*
X2031164Y-1904231D01*
X4178183Y-1634936D02*
G01*
X4122410Y-1634936D01*
X4178183Y-1904231D02*
G01*
X4122410Y-1904231D01*
X6269429Y-1634936D02*
G01*
X6213656Y-1634936D01*
X6269429Y-1904231D02*
G01*
X6213656Y-1904231D01*
X2086937Y-2329508D02*
G01*
X2031164Y-2329508D01*
X2086937Y-2598803D02*
G01*
X2031164Y-2598803D01*
X4178183Y-2329508D02*
G01*
X4122410Y-2329508D01*
X4178183Y-2598803D02*
G01*
X4122410Y-2598803D01*
X6269429Y-2329508D02*
G01*
X6213656Y-2329508D01*
X6269429Y-2598803D02*
G01*
X6213656Y-2598803D01*
X2086937Y-3024079D02*
G01*
X2031164Y-3024079D01*
X2086937Y-3293374D02*
G01*
X2031164Y-3293374D01*
X4178183Y-3024079D02*
G01*
X4122410Y-3024079D01*
X4178183Y-3293374D02*
G01*
X4122410Y-3293374D01*
X6269429Y-3024079D02*
G01*
X6213656Y-3024079D01*
X6269429Y-3293374D02*
G01*
X6213656Y-3293374D01*
X2086937Y-3718651D02*
G01*
X2031164Y-3718651D01*
X2086937Y-3987946D02*
G01*
X2031164Y-3987946D01*
X4178183Y-3718651D02*
G01*
X4122410Y-3718651D01*
X4178183Y-3987946D02*
G01*
X4122410Y-3987946D01*
X6269429Y-3718651D02*
G01*
X6213656Y-3718651D01*
X6269429Y-3987946D02*
G01*
X6213656Y-3987946D01*
X2086937Y-4413223D02*
G01*
X2031164Y-4413223D01*
X2086937Y-4682518D02*
G01*
X2031164Y-4682518D01*
X4178183Y-4413223D02*
G01*
X4122410Y-4413223D01*
X4178183Y-4682518D02*
G01*
X4122410Y-4682518D01*
X6269429Y-4413223D02*
G01*
X6213656Y-4413223D01*
X6269429Y-4682518D02*
G01*
X6213656Y-4682518D01*
X2086937Y-5107794D02*
G01*
X2031164Y-5107794D01*
X2086937Y-5377089D02*
G01*
X2031164Y-5377089D01*
X4178183Y-5107794D02*
G01*
X4122410Y-5107794D01*
X4178183Y-5377089D02*
G01*
X4122410Y-5377089D01*
X6269429Y-5107794D02*
G01*
X6213656Y-5107794D01*
X6269429Y-5377089D02*
G01*
X6213656Y-5377089D01*
X2086937Y-5802366D02*
G01*
X2031164Y-5802366D01*
X2086937Y-6071661D02*
G01*
X2031164Y-6071661D01*
X4178183Y-5802366D02*
G01*
X4122410Y-5802366D01*
X4178183Y-6071661D02*
G01*
X4122410Y-6071661D01*
X6269429Y-5802366D02*
G01*
X6213656Y-5802366D01*
X6269429Y-6071661D02*
G01*
X6213656Y-6071661D01*
X2086937Y-6496937D02*
G01*
X2031164Y-6496937D01*
X2086937Y-6766232D02*
G01*
X2031164Y-6766232D01*
X4178183Y-6496937D02*
G01*
X4122410Y-6496937D01*
X4178183Y-6766232D02*
G01*
X4122410Y-6766232D01*
X6269429Y-6496937D02*
G01*
X6213656Y-6496937D01*
X6269429Y-6766232D02*
G01*
X6213656Y-6766232D01*
X2086937Y-7191509D02*
G01*
X2031164Y-7191509D01*
X2086937Y-7460804D02*
G01*
X2031164Y-7460804D01*
X4178183Y-7191509D02*
G01*
X4122410Y-7191509D01*
X4178183Y-7460804D02*
G01*
X4122410Y-7460804D01*
X6269429Y-7191509D02*
G01*
X6213656Y-7191509D01*
X6269429Y-7460804D02*
G01*
X6213656Y-7460804D01*
X878781Y633529D02*
G01*
X878781Y692913D01*
X878781Y-7704937D02*
G01*
X878781Y-7645555D01*
X1148076Y633529D02*
G01*
X1148076Y692913D01*
X1148076Y-7704937D02*
G01*
X1148076Y-7645555D01*
X2970027Y633529D02*
G01*
X2970027Y692913D01*
X2970027Y-7704937D02*
G01*
X2970027Y-7645555D01*
X3239321Y633529D02*
G01*
X3239321Y692913D01*
X3239321Y-7704937D02*
G01*
X3239321Y-7645555D01*
X5061273Y633529D02*
G01*
X5061273Y692913D01*
X5061273Y-7704937D02*
G01*
X5061273Y-7645555D01*
X5330569Y633529D02*
G01*
X5330569Y692913D01*
X5330569Y-7704937D02*
G01*
X5330569Y-7645555D01*
X7152519Y633529D02*
G01*
X7152519Y692913D01*
X7152519Y-7704937D02*
G01*
X7152519Y-7645555D01*
X7421815Y633529D02*
G01*
X7421815Y692913D01*
X7421815Y-7704937D02*
G01*
X7421815Y-7645555D01*

%LPD*%
M02*
