G04 Layer: Inner2*
G04 EasyEDA v6.4.25, 2021-09-22T10:20:37+05:30*
G04 774fefb5d2d343239ab63bc48f8a28e3,f7b9aed3ca5c4f10b20383f968238e49,10*
G04 Gerber Generator version 0.2*
G04 Scale: 100 percent, Rotated: No, Reflected: No *
G04 Dimensions in inches *
G04 leading zeros omitted , absolute positions ,3 integer and 6 decimal *
%FSLAX36Y36*%
%MOIN*%

%ADD11C,0.0080*%
%ADD13C,0.0060*%
%ADD14C,0.0250*%

%LPD*%
G36*
X13839Y9840D02*
G01*
X12320Y10140D01*
X11020Y11020D01*
X10140Y12320D01*
X9840Y13839D01*
X9840Y615720D01*
X10140Y617260D01*
X11020Y618540D01*
X12320Y619420D01*
X13839Y619720D01*
X92460Y619720D01*
X93960Y619420D01*
X95239Y618600D01*
X96120Y617340D01*
X96460Y615840D01*
X96220Y614340D01*
X95300Y612720D01*
X95140Y611500D01*
X95140Y549460D01*
X95340Y548060D01*
X95340Y531960D01*
X95740Y531560D01*
X100860Y531560D01*
X102260Y531760D01*
X162360Y531760D01*
X163280Y532400D01*
X163340Y532760D01*
X163340Y610440D01*
X163500Y611540D01*
X163939Y612540D01*
X162880Y613800D01*
X162399Y615380D01*
X162600Y617000D01*
X163440Y618420D01*
X164780Y619380D01*
X166380Y619720D01*
X437239Y619720D01*
X438740Y619420D01*
X440020Y618600D01*
X440900Y617340D01*
X441240Y615860D01*
X440680Y612680D01*
X440680Y550640D01*
X440880Y549240D01*
X440880Y533140D01*
X441280Y532740D01*
X446400Y532740D01*
X447800Y532940D01*
X507900Y532940D01*
X508820Y533580D01*
X508880Y533940D01*
X508880Y611620D01*
X509040Y612740D01*
X509500Y613760D01*
X509000Y615340D01*
X509180Y616980D01*
X510020Y618400D01*
X511360Y619380D01*
X512980Y619720D01*
X783720Y619720D01*
X785220Y619420D01*
X786500Y618600D01*
X787380Y617340D01*
X787720Y615860D01*
X787480Y614360D01*
X787159Y613500D01*
X787020Y612300D01*
X787020Y550240D01*
X787220Y548840D01*
X787220Y532740D01*
X787600Y532360D01*
X792720Y532360D01*
X794120Y532560D01*
X854220Y532560D01*
X855140Y533180D01*
X855220Y533540D01*
X855220Y611220D01*
X855360Y612340D01*
X855720Y613500D01*
X855100Y615100D01*
X855200Y616800D01*
X856000Y618320D01*
X857380Y619360D01*
X859040Y619720D01*
X1128580Y619720D01*
X1130080Y619420D01*
X1131360Y618600D01*
X1132220Y617340D01*
X1132580Y615860D01*
X1132160Y613080D01*
X1132160Y551040D01*
X1132360Y549640D01*
X1132360Y533540D01*
X1132760Y533140D01*
X1137860Y533140D01*
X1139260Y533340D01*
X1199360Y533340D01*
X1200280Y533960D01*
X1200360Y534340D01*
X1200360Y612020D01*
X1200520Y613120D01*
X1200960Y614140D01*
X1200800Y614880D01*
X1200820Y616660D01*
X1201600Y618240D01*
X1203000Y619320D01*
X1204720Y619720D01*
X2013360Y619720D01*
X2014880Y619420D01*
X2016180Y618540D01*
X2017060Y617260D01*
X2017360Y615720D01*
X2017360Y13839D01*
X2017060Y12320D01*
X2016180Y11020D01*
X2014880Y10140D01*
X2013360Y9840D01*
X1228960Y9840D01*
X1227280Y10220D01*
X1225920Y11240D01*
X1225100Y12760D01*
X1225000Y14460D01*
X1226000Y16880D01*
X1226000Y94560D01*
X1226160Y95640D01*
X1226580Y96640D01*
X1226320Y96700D01*
X1210320Y96700D01*
X1208120Y97200D01*
X1158240Y97200D01*
X1157960Y96840D01*
X1157800Y95640D01*
X1157800Y33580D01*
X1158000Y32180D01*
X1158000Y16080D01*
X1158520Y14080D01*
X1158280Y12480D01*
X1157440Y11100D01*
X1156100Y10180D01*
X1154520Y9840D01*
X882260Y9840D01*
X880660Y10180D01*
X879340Y11120D01*
X878480Y12500D01*
X878259Y14120D01*
X878700Y15680D01*
X879740Y16940D01*
X880740Y17820D01*
X880819Y18200D01*
X880819Y95879D01*
X880960Y96960D01*
X881400Y97940D01*
X881120Y98000D01*
X865140Y98000D01*
X862920Y98500D01*
X813060Y98500D01*
X812780Y98160D01*
X812620Y96940D01*
X812620Y34900D01*
X812820Y33500D01*
X812820Y17400D01*
X812900Y17040D01*
X813980Y15800D01*
X814460Y14220D01*
X814280Y12580D01*
X813439Y11140D01*
X812099Y10180D01*
X810480Y9840D01*
X190980Y9840D01*
X189420Y10160D01*
X188120Y11060D01*
X187260Y12400D01*
X186980Y13959D01*
X187340Y15500D01*
X188880Y17440D01*
X188960Y17800D01*
X188960Y95480D01*
X189100Y96560D01*
X189540Y97560D01*
X173280Y97600D01*
X171060Y98100D01*
X121199Y98100D01*
X120920Y97760D01*
X120760Y96540D01*
X120760Y34500D01*
X120960Y33100D01*
X120960Y17000D01*
X122040Y14460D01*
X121940Y12760D01*
X121120Y11240D01*
X119760Y10220D01*
X118080Y9840D01*
G37*

%LPC*%
G36*
X468080Y18180D02*
G01*
X473180Y18180D01*
X474580Y18380D01*
X534680Y18380D01*
X535600Y19020D01*
X535680Y19380D01*
X535680Y97060D01*
X535820Y98140D01*
X536260Y99120D01*
X535980Y99179D01*
X520000Y99179D01*
X517780Y99680D01*
X467920Y99680D01*
X467640Y99340D01*
X467480Y98120D01*
X467480Y36080D01*
X467680Y34680D01*
X467680Y18580D01*
X467740Y18240D01*
G37*
G36*
X435900Y245960D02*
G01*
X439700Y246460D01*
X443380Y247580D01*
X446820Y249320D01*
X449920Y251600D01*
X452400Y254200D01*
X453720Y255120D01*
X455300Y255440D01*
X457500Y255440D01*
X460460Y255740D01*
X463080Y256600D01*
X465500Y258000D01*
X467160Y259400D01*
X488720Y280960D01*
X490020Y281840D01*
X491540Y282140D01*
X535520Y282140D01*
X537200Y281780D01*
X538560Y280740D01*
X558440Y257399D01*
X560600Y255360D01*
X562940Y253920D01*
X565520Y253020D01*
X568860Y252620D01*
X645620Y252620D01*
X648580Y252920D01*
X651200Y253780D01*
X653620Y255180D01*
X655280Y256600D01*
X675720Y277040D01*
X677020Y277900D01*
X678560Y278200D01*
X743660Y278200D01*
X745400Y277820D01*
X746780Y276720D01*
X747600Y275720D01*
X750480Y273180D01*
X753760Y271160D01*
X757320Y269720D01*
X761100Y268920D01*
X764940Y268740D01*
X768760Y269240D01*
X772440Y270360D01*
X775860Y272100D01*
X778960Y274380D01*
X781440Y276980D01*
X782760Y277900D01*
X784340Y278220D01*
X876960Y278220D01*
X878480Y277900D01*
X879780Y277040D01*
X900200Y256620D01*
X902500Y254760D01*
X904960Y253520D01*
X907660Y252780D01*
X909840Y252620D01*
X990200Y252620D01*
X993139Y252920D01*
X995759Y253780D01*
X998199Y255180D01*
X999860Y256600D01*
X1020300Y277040D01*
X1021600Y277900D01*
X1023120Y278220D01*
X1098080Y278220D01*
X1099820Y277820D01*
X1101200Y276720D01*
X1102020Y275720D01*
X1104900Y273180D01*
X1108180Y271160D01*
X1111740Y269720D01*
X1115520Y268920D01*
X1119360Y268740D01*
X1123180Y269240D01*
X1126860Y270360D01*
X1130280Y272100D01*
X1133380Y274380D01*
X1135860Y276980D01*
X1137180Y277900D01*
X1138760Y278220D01*
X1268780Y278220D01*
X1270320Y277900D01*
X1271620Y277040D01*
X1288080Y260560D01*
X1290400Y258700D01*
X1292840Y257460D01*
X1295560Y256720D01*
X1297720Y256560D01*
X1539540Y256560D01*
X1542500Y256860D01*
X1545120Y257719D01*
X1547540Y259120D01*
X1549199Y260539D01*
X1615440Y326780D01*
X1616819Y327680D01*
X1618440Y327939D01*
X1621440Y327819D01*
X1625260Y328300D01*
X1628940Y329440D01*
X1632380Y331160D01*
X1635480Y333459D01*
X1638140Y336240D01*
X1640300Y339420D01*
X1641879Y342920D01*
X1642840Y346640D01*
X1643180Y350480D01*
X1642840Y354320D01*
X1641879Y358040D01*
X1640300Y361540D01*
X1638140Y364739D01*
X1635480Y367520D01*
X1632380Y369799D01*
X1628940Y371540D01*
X1625260Y372660D01*
X1621440Y373140D01*
X1617600Y372980D01*
X1613839Y372180D01*
X1610280Y370740D01*
X1607000Y368720D01*
X1604100Y366180D01*
X1601699Y363180D01*
X1599820Y359820D01*
X1598540Y356200D01*
X1597880Y352400D01*
X1597880Y348200D01*
X1597580Y346680D01*
X1596720Y345379D01*
X1535460Y284120D01*
X1534160Y283260D01*
X1532640Y282960D01*
X1385840Y282960D01*
X1384300Y283260D01*
X1383000Y284120D01*
X1382140Y285420D01*
X1381840Y286960D01*
X1382140Y288480D01*
X1383000Y289780D01*
X1384400Y291180D01*
X1385780Y292080D01*
X1387400Y292340D01*
X1390380Y292220D01*
X1394180Y292700D01*
X1397860Y293840D01*
X1401300Y295560D01*
X1404400Y297860D01*
X1407060Y300620D01*
X1409220Y303820D01*
X1410800Y307320D01*
X1411759Y311040D01*
X1412100Y314880D01*
X1411759Y318720D01*
X1410800Y322440D01*
X1409220Y325940D01*
X1407060Y329140D01*
X1404400Y331900D01*
X1401300Y334200D01*
X1397860Y335920D01*
X1394180Y337060D01*
X1390380Y337540D01*
X1386519Y337380D01*
X1382760Y336580D01*
X1379199Y335140D01*
X1375920Y333120D01*
X1373040Y330580D01*
X1370620Y327580D01*
X1368740Y324219D01*
X1367460Y320600D01*
X1366800Y316800D01*
X1366800Y312620D01*
X1366600Y311380D01*
X1365900Y310080D01*
X1365020Y309200D01*
X1363899Y308640D01*
X1362680Y308440D01*
X1324199Y308440D01*
X1322680Y308740D01*
X1321380Y309600D01*
X1296860Y334040D01*
X1294560Y335900D01*
X1292100Y337160D01*
X1289379Y337879D01*
X1287240Y338040D01*
X1000500Y338040D01*
X997560Y337720D01*
X994940Y336880D01*
X992520Y335480D01*
X990780Y333980D01*
X976020Y318960D01*
X975040Y318240D01*
X973880Y317840D01*
X972180Y317860D01*
X968319Y317700D01*
X964560Y316900D01*
X961000Y315460D01*
X957720Y313440D01*
X954820Y310900D01*
X954040Y309920D01*
X952660Y308840D01*
X950939Y308440D01*
X928720Y308440D01*
X927200Y308740D01*
X925900Y309620D01*
X905380Y330120D01*
X903080Y332000D01*
X900620Y333240D01*
X897920Y333960D01*
X895740Y334140D01*
X651900Y334140D01*
X648960Y333820D01*
X646340Y332980D01*
X643900Y331560D01*
X642400Y330319D01*
X630600Y318860D01*
X629620Y318160D01*
X628500Y317780D01*
X626200Y317900D01*
X622360Y317740D01*
X618580Y316940D01*
X615020Y315500D01*
X611740Y313480D01*
X608860Y310940D01*
X608040Y309920D01*
X606660Y308840D01*
X604920Y308440D01*
X586120Y308440D01*
X584580Y308740D01*
X583300Y309620D01*
X568680Y324219D01*
X566380Y326100D01*
X563920Y327340D01*
X561200Y328060D01*
X559040Y328240D01*
X356599Y328240D01*
X353640Y327920D01*
X351019Y327080D01*
X348600Y325680D01*
X346940Y324260D01*
X329400Y306720D01*
X328100Y305860D01*
X326580Y305540D01*
X302460Y305540D01*
X300900Y305880D01*
X299580Y306780D01*
X297100Y309380D01*
X294000Y311660D01*
X290560Y313400D01*
X286880Y314520D01*
X283060Y315020D01*
X279220Y314840D01*
X275460Y314040D01*
X271900Y312600D01*
X268620Y310580D01*
X265720Y308040D01*
X263300Y305060D01*
X261439Y301700D01*
X260159Y298060D01*
X259500Y294280D01*
X259500Y290420D01*
X260159Y286640D01*
X261940Y281420D01*
X261740Y279780D01*
X260900Y278340D01*
X259560Y277380D01*
X257940Y277040D01*
X126760Y277040D01*
X125320Y277320D01*
X124060Y278100D01*
X123180Y279280D01*
X121760Y285040D01*
X120180Y288560D01*
X118020Y291740D01*
X115360Y294520D01*
X112260Y296800D01*
X108820Y298540D01*
X105140Y299660D01*
X101340Y300160D01*
X97480Y299980D01*
X93720Y299180D01*
X90160Y297740D01*
X86880Y295720D01*
X84000Y293180D01*
X81580Y290200D01*
X79700Y286840D01*
X78420Y283200D01*
X77760Y279420D01*
X77760Y275560D01*
X78420Y271780D01*
X79700Y268140D01*
X81580Y264780D01*
X84000Y261800D01*
X86880Y259240D01*
X90160Y257240D01*
X93720Y255799D01*
X97480Y254980D01*
X101340Y254820D01*
X102220Y254940D01*
X103820Y254820D01*
X105239Y254080D01*
X106840Y252780D01*
X109300Y251540D01*
X112000Y250820D01*
X114179Y250640D01*
X419900Y250640D01*
X421000Y250479D01*
X422000Y250040D01*
X424720Y248380D01*
X428280Y246940D01*
X432040Y246140D01*
G37*

%LPD*%
G36*
X346719Y277040D02*
G01*
X345180Y277340D01*
X343880Y278220D01*
X343020Y279500D01*
X342720Y281040D01*
X343020Y282580D01*
X343880Y283860D01*
X360680Y300660D01*
X361980Y301540D01*
X363519Y301840D01*
X462600Y301840D01*
X464120Y301540D01*
X465420Y300660D01*
X466300Y299380D01*
X466599Y297840D01*
X466300Y296300D01*
X465420Y295020D01*
X455820Y285400D01*
X454500Y284540D01*
X452939Y284240D01*
X451400Y284560D01*
X446820Y287940D01*
X443380Y289680D01*
X439700Y290800D01*
X435900Y291300D01*
X432040Y291140D01*
X428280Y290320D01*
X424720Y288880D01*
X421440Y286880D01*
X418560Y284320D01*
X416140Y281340D01*
X414880Y279080D01*
X413980Y278000D01*
X412780Y277280D01*
X411380Y277040D01*
G37*

%LPD*%
D13*
X1118391Y291412D02*
G01*
X1275912Y291412D01*
X1297571Y269753D01*
X1539758Y269753D01*
X1620486Y350482D01*
X282100Y292350D02*
G01*
X333697Y292350D01*
X356388Y315040D01*
X559195Y315040D01*
X578996Y295240D01*
X625230Y295240D01*
X434928Y268632D02*
G01*
X430135Y263840D01*
X114016Y263840D01*
X100368Y277488D01*
X625199Y295240D02*
G01*
X651700Y320940D01*
X895900Y320940D01*
X921600Y295240D01*
X971200Y295240D01*
X971200Y295240D02*
G01*
X1000300Y324840D01*
X1287400Y324840D01*
X1317100Y295240D01*
X1369800Y295240D01*
X1389400Y314840D01*
X1118391Y291412D02*
G01*
X1016003Y291412D01*
X1009751Y285159D01*
X763971Y291412D02*
G01*
X884081Y291412D01*
X909677Y265815D01*
X990407Y265815D01*
X1016003Y291412D01*
X763970Y291410D02*
G01*
X671428Y291410D01*
X645832Y265814D01*
X568629Y265814D01*
X543454Y295341D01*
X484420Y295341D01*
X457712Y268632D01*
X434928Y268632D01*
X971210Y295199D02*
G01*
X965259Y295199D01*
X964299Y294239D01*
D11*
X1909900Y51140D02*
G01*
X1905499Y51140D01*
X661399Y401539D02*
G01*
X661399Y405540D01*
D14*
G01*
X314960Y401574D03*
G01*
X285255Y356176D03*
G01*
X165354Y393700D03*
G01*
X259842Y69924D03*
G01*
X47244Y69924D03*
G01*
X232283Y560019D03*
G01*
X31496Y560019D03*
G01*
X393700Y70194D03*
G01*
X606298Y70194D03*
G01*
X511810Y389763D03*
G01*
X661416Y401574D03*
G01*
X618108Y334645D03*
G01*
X858265Y385826D03*
G01*
X1003935Y401574D03*
G01*
X964564Y334511D03*
G01*
X952753Y69790D03*
G01*
X741846Y69790D03*
G01*
X926527Y560140D03*
G01*
X715619Y560140D03*
G01*
X1060786Y559621D03*
G01*
X1271694Y559621D03*
G01*
X1357555Y401574D03*
G01*
X1324284Y336500D03*
G01*
X1296554Y69890D03*
G01*
X1085646Y69890D03*
G01*
X1498534Y89438D03*
G01*
X1743681Y348618D03*
G01*
X1668200Y455113D03*
G01*
X1791790Y91592D03*
G01*
X1705140Y131941D03*
G01*
X1822831Y287368D03*
G01*
X1909929Y51181D03*
G01*
X282104Y292348D03*
G01*
X1389407Y314880D03*
G01*
X625232Y295240D03*
G01*
X971208Y295199D03*
G01*
X100368Y277488D03*
G01*
X434928Y268632D03*
G01*
X763971Y291412D03*
G01*
X1118391Y291412D03*
G01*
X1620486Y350482D03*
G01*
X1208966Y391831D03*
G01*
X1518089Y322916D03*
G01*
X43340Y497228D03*
G01*
X72890Y470042D03*
G01*
X177694Y470042D03*
G01*
X214729Y492106D03*
G01*
X241916Y525596D03*
G01*
X88650Y426308D03*
G01*
X177694Y428278D03*
G01*
X89832Y382968D03*
G01*
X99288Y350660D03*
G01*
X114260Y228520D03*
G01*
X114654Y193060D03*
G01*
X105198Y157206D03*
G01*
X204092Y156024D03*
G01*
X200152Y193454D03*
G01*
X199758Y236006D03*
G01*
X60282Y132778D03*
G01*
X245856Y130414D03*
G01*
X274618Y102834D03*
G01*
X44916Y30338D03*
G01*
X264374Y30338D03*
G01*
X88256Y314412D03*
G01*
X343174Y334900D03*
G01*
X214729Y450736D03*
G01*
X254918Y452312D03*
G01*
X310471Y444432D03*
G01*
X342779Y364450D03*
G01*
X393211Y31520D03*
G01*
X411730Y141051D03*
G01*
X451129Y155235D03*
G01*
X452311Y194636D03*
G01*
X453888Y231672D03*
G01*
X602820Y19700D03*
G01*
X582725Y143810D03*
G01*
X545689Y182028D03*
G01*
X544901Y219064D03*
G01*
X552782Y243097D03*
G01*
X662707Y356176D03*
G01*
X663890Y451918D03*
G01*
X618974Y453099D03*
G01*
X574846Y454282D03*
G01*
X520868Y428278D03*
G01*
X521655Y467283D03*
G01*
X555145Y497228D03*
G01*
X581938Y529142D03*
G01*
X586272Y566572D03*
G01*
X584302Y600850D03*
G01*
X361298Y600850D03*
G01*
X362874Y565784D03*
G01*
X362874Y520080D03*
G01*
X386514Y482256D03*
G01*
X421579Y467283D03*
G01*
X427096Y425126D03*
G01*
X429460Y377058D03*
G01*
X431430Y340022D03*
G01*
X376664Y289196D03*
G01*
X376269Y351842D03*
G01*
X344356Y423944D03*
G01*
X297470Y538992D03*
G01*
X276194Y504714D03*
G01*
X339627Y491712D03*
G01*
X274618Y232854D03*
G01*
X349478Y234824D03*
G01*
X388877Y201334D03*
G01*
X335293Y159963D03*
G01*
X285255Y182816D03*
G01*
X319534Y206456D03*
G01*
X302986Y128443D03*
G01*
X745841Y136718D03*
G01*
X785242Y148931D03*
G01*
X806518Y200545D03*
G01*
X803759Y237582D03*
G01*
X892410Y227732D03*
G01*
X892410Y186756D03*
G01*
X900684Y149720D03*
G01*
X942842Y135930D03*
G01*
X969240Y104804D03*
G01*
X735203Y28368D03*
G01*
X961754Y34672D03*
G01*
X709200Y598092D03*
G01*
X711564Y515746D03*
G01*
X734416Y479891D03*
G01*
X768694Y457040D03*
G01*
X773422Y424338D03*
G01*
X771452Y387301D03*
G01*
X776574Y347902D03*
G01*
X862860Y418822D03*
G01*
X867981Y462162D03*
G01*
X894380Y485014D03*
G01*
X928658Y518504D03*
G01*
X925506Y602820D03*
G01*
X906988Y449947D03*
G01*
X957026Y457040D03*
G01*
X998002Y449947D03*
G01*
X1020066Y371148D03*
G01*
X953085Y238369D03*
G01*
X1086258Y30338D03*
G01*
X1086258Y107956D03*
G01*
X1101624Y143022D03*
G01*
X1137083Y160358D03*
G01*
X1142206Y201334D03*
G01*
X1143388Y236793D03*
G01*
X1114231Y257282D03*
G01*
X1235584Y238764D03*
G01*
X1235584Y204880D03*
G01*
X1245828Y161934D03*
G01*
X1278530Y136718D03*
G01*
X1304140Y109532D03*
G01*
X1302170Y24428D03*
G01*
X1278135Y240734D03*
G01*
X1365210Y358934D03*
G01*
X1358117Y446795D03*
G01*
X1315171Y456251D03*
G01*
X1290743Y507078D03*
G01*
X1209186Y435370D03*
G01*
X1215884Y468859D03*
G01*
X1261194Y493288D03*
G01*
X1302563Y537809D03*
G01*
X1053949Y595334D03*
G01*
X1056708Y520868D03*
G01*
X1080347Y484619D03*
G01*
X1110292Y468859D03*
G01*
X1124082Y434582D03*
G01*
X1121323Y388090D03*
G01*
X1079954Y365632D03*
G01*
X1050797Y402668D03*
G01*
X1027158Y494076D03*
G01*
X1118960Y354206D03*
G01*
X1274590Y599274D03*
G01*
X1058283Y205273D03*
G01*
X1056313Y261222D03*
G01*
X990122Y206062D03*
G01*
X1047252Y144992D03*
G01*
X711169Y359328D03*
G01*
X709987Y416852D03*
G01*
X663102Y514170D03*
G01*
X640250Y550417D03*
G01*
X612670Y518898D03*
G01*
X678467Y542932D03*
G01*
X1335266Y536233D03*
G01*
X1400275Y537416D03*
G01*
X1369150Y500380D03*
G01*
X1327779Y489347D03*
G01*
X1437311Y594152D03*
G01*
X1390032Y462162D03*
G01*
X1422339Y358540D03*
G01*
X1384910Y137899D03*
G01*
X1334478Y139082D03*
G01*
X1297442Y203304D03*
G01*
X1477894Y241521D03*
G01*
X1528719Y242704D03*
G01*
X1562210Y236006D03*
G01*
X1577576Y149720D03*
G01*
X1382545Y24428D03*
G01*
X1397518Y64221D03*
G01*
X1436918Y29944D03*
G01*
X1520445Y30732D03*
G01*
X1586244Y32308D03*
G01*
X1641798Y27974D03*
G01*
X1695382Y29944D03*
G01*
X1787577Y141840D03*
G01*
X1647707Y250584D03*
G01*
X1824614Y398728D03*
G01*
X1825401Y362874D03*
G01*
X1862832Y27580D03*
G01*
X1969605Y29944D03*
G01*
X1999155Y65404D03*
G01*
X1998368Y109532D03*
G01*
X1995610Y159963D03*
G01*
X1997186Y237582D03*
G01*
X1996398Y367996D03*
G01*
X1995216Y418034D03*
G01*
X1992458Y542932D03*
G01*
X1699716Y605184D03*
G01*
X1637858Y604790D03*
G01*
X1576394Y604790D03*
G01*
X1537782Y573270D03*
G01*
X1477894Y601244D03*
G01*
X1367180Y555934D03*
G01*
X1392790Y423156D03*
G01*
X25216Y602426D03*
G01*
X27186Y462162D03*
G01*
X26004Y419610D03*
G01*
X25610Y374693D03*
G01*
X26004Y318351D03*
G01*
X26004Y267132D03*
G01*
X25216Y214336D03*
G01*
X24822Y156418D03*
G01*
X25610Y100076D03*
G01*
X63040Y185968D03*
G01*
X60282Y252948D03*
G01*
X81164Y223004D03*
G01*
X60282Y362085D03*
G01*
X248220Y178088D03*
G01*
X384150Y159176D03*
G01*
X407396Y233248D03*
G01*
X319140Y92984D03*
G01*
X360116Y57917D03*
G01*
X234430Y605184D03*
G01*
X1358117Y607548D03*
G01*
X985000Y607154D03*
G01*
X643008Y606366D03*
G01*
X289590Y606366D03*
M02*
