M48
INCH,LZ
;FILE_FORMAT=2:4
;TYPE=NON_PLATED
;Layer: Drill NPTH
;EasyEDA v6.4.25, 2021-09-22T10:20:37+05:30
;774fefb5d2d343239ab63bc48f8a28e3,f7b9aed3ca5c4f10b20383f968238e49,10
;Gerber Generator version 0.2
;Holesize 1 = 0.0220 inch
T01C0.0220
;Holesize 2 = 0.0790 inch
T02C0.0790
%
G05
G90
T01
X008963Y-000610
X009298Y-000610
X009632Y-000610
X009967Y-000610
X010302Y-000610
X010636Y-000610
X010971Y-000610
X011306Y-000610
X008963Y-000053
X009298Y-000053
X009632Y-000053
X009967Y-000053
X010302Y-000053
X010636Y-000053
X010971Y-000053
X011306Y-000053
X029875Y-000610
X030210Y-000610
X030545Y-000610
X030879Y-000610
X031214Y-000610
X031549Y-000610
X031883Y-000610
X032218Y-000610
X029875Y-000053
X030210Y-000053
X030545Y-000053
X030879Y-000053
X031214Y-000053
X031549Y-000053
X031883Y-000053
X032218Y-000053
X050788Y-000610
X051123Y-000610
X051457Y-000610
X051792Y-000610
X052127Y-000610
X052461Y-000610
X052796Y-000610
X053130Y-000610
X050788Y-000053
X051123Y-000053
X051457Y-000053
X051792Y-000053
X052127Y-000053
X052461Y-000053
X052796Y-000053
X053130Y-000053
X071700Y-000610
X072035Y-000610
X072370Y-000610
X072704Y-000610
X073039Y-000610
X073374Y-000610
X073708Y-000610
X074043Y-000610
X071700Y-000053
X072035Y-000053
X072370Y-000053
X072704Y-000053
X073039Y-000053
X073374Y-000053
X073708Y-000053
X074043Y-000053
X008963Y-007556
X009298Y-007556
X009632Y-007556
X009967Y-007556
X010302Y-007556
X010636Y-007556
X010971Y-007556
X011306Y-007556
X008963Y-006998
X009298Y-006998
X009632Y-006998
X009967Y-006998
X010302Y-006998
X010636Y-006998
X010971Y-006998
X011306Y-006998
X029875Y-007556
X030210Y-007556
X030545Y-007556
X030879Y-007556
X031214Y-007556
X031549Y-007556
X031883Y-007556
X032218Y-007556
X029875Y-006998
X030210Y-006998
X030545Y-006998
X030879Y-006998
X031214Y-006998
X031549Y-006998
X031883Y-006998
X032218Y-006998
X050788Y-007556
X051123Y-007556
X051457Y-007556
X051792Y-007556
X052127Y-007556
X052461Y-007556
X052796Y-007556
X053130Y-007556
X050788Y-006998
X051123Y-006998
X051457Y-006998
X051792Y-006998
X052127Y-006998
X052461Y-006998
X052796Y-006998
X053130Y-006998
X071700Y-007556
X072035Y-007556
X072370Y-007556
X072704Y-007556
X073039Y-007556
X073374Y-007556
X073708Y-007556
X074043Y-007556
X071700Y-006998
X072035Y-006998
X072370Y-006998
X072704Y-006998
X073039Y-006998
X073374Y-006998
X073708Y-006998
X074043Y-006998
X008963Y-014502
X009298Y-014502
X009632Y-014502
X009967Y-014502
X010302Y-014502
X010636Y-014502
X010971Y-014502
X011306Y-014502
X008963Y-013944
X009298Y-013944
X009632Y-013944
X009967Y-013944
X010302Y-013944
X010636Y-013944
X010971Y-013944
X011306Y-013944
X029875Y-014502
X030210Y-014502
X030545Y-014502
X030879Y-014502
X031214Y-014502
X031549Y-014502
X031883Y-014502
X032218Y-014502
X029875Y-013944
X030210Y-013944
X030545Y-013944
X030879Y-013944
X031214Y-013944
X031549Y-013944
X031883Y-013944
X032218Y-013944
X050788Y-014502
X051123Y-014502
X051457Y-014502
X051792Y-014502
X052127Y-014502
X052461Y-014502
X052796Y-014502
X053130Y-014502
X050788Y-013944
X051123Y-013944
X051457Y-013944
X051792Y-013944
X052127Y-013944
X052461Y-013944
X052796Y-013944
X053130Y-013944
X071700Y-014502
X072035Y-014502
X072370Y-014502
X072704Y-014502
X073039Y-014502
X073374Y-014502
X073708Y-014502
X074043Y-014502
X071700Y-013944
X072035Y-013944
X072370Y-013944
X072704Y-013944
X073039Y-013944
X073374Y-013944
X073708Y-013944
X074043Y-013944
X008963Y-021448
X009298Y-021448
X009632Y-021448
X009967Y-021448
X010302Y-021448
X010636Y-021448
X010971Y-021448
X011306Y-021448
X008963Y-020890
X009298Y-020890
X009632Y-020890
X009967Y-020890
X010302Y-020890
X010636Y-020890
X010971Y-020890
X011306Y-020890
X029875Y-021448
X030210Y-021448
X030545Y-021448
X030879Y-021448
X031214Y-021448
X031549Y-021448
X031883Y-021448
X032218Y-021448
X029875Y-020890
X030210Y-020890
X030545Y-020890
X030879Y-020890
X031214Y-020890
X031549Y-020890
X031883Y-020890
X032218Y-020890
X050788Y-021448
X051123Y-021448
X051457Y-021448
X051792Y-021448
X052127Y-021448
X052461Y-021448
X052796Y-021448
X053130Y-021448
X050788Y-020890
X051123Y-020890
X051457Y-020890
X051792Y-020890
X052127Y-020890
X052461Y-020890
X052796Y-020890
X053130Y-020890
X071700Y-021448
X072035Y-021448
X072370Y-021448
X072704Y-021448
X073039Y-021448
X073374Y-021448
X073708Y-021448
X074043Y-021448
X071700Y-020890
X072035Y-020890
X072370Y-020890
X072704Y-020890
X073039Y-020890
X073374Y-020890
X073708Y-020890
X074043Y-020890
X008963Y-028393
X009298Y-028393
X009632Y-028393
X009967Y-028393
X010302Y-028393
X010636Y-028393
X010971Y-028393
X011306Y-028393
X008963Y-027836
X009298Y-027836
X009632Y-027836
X009967Y-027836
X010302Y-027836
X010636Y-027836
X010971Y-027836
X011306Y-027836
X029875Y-028393
X030210Y-028393
X030545Y-028393
X030879Y-028393
X031214Y-028393
X031549Y-028393
X031883Y-028393
X032218Y-028393
X029875Y-027836
X030210Y-027836
X030545Y-027836
X030879Y-027836
X031214Y-027836
X031549Y-027836
X031883Y-027836
X032218Y-027836
X050788Y-028393
X051123Y-028393
X051457Y-028393
X051792Y-028393
X052127Y-028393
X052461Y-028393
X052796Y-028393
X053130Y-028393
X050788Y-027836
X051123Y-027836
X051457Y-027836
X051792Y-027836
X052127Y-027836
X052461Y-027836
X052796Y-027836
X053130Y-027836
X071700Y-028393
X072035Y-028393
X072370Y-028393
X072704Y-028393
X073039Y-028393
X073374Y-028393
X073708Y-028393
X074043Y-028393
X071700Y-027836
X072035Y-027836
X072370Y-027836
X072704Y-027836
X073039Y-027836
X073374Y-027836
X073708Y-027836
X074043Y-027836
X008963Y-035339
X009298Y-035339
X009632Y-035339
X009967Y-035339
X010302Y-035339
X010636Y-035339
X010971Y-035339
X011306Y-035339
X008963Y-034781
X009298Y-034781
X009632Y-034781
X009967Y-034781
X010302Y-034781
X010636Y-034781
X010971Y-034781
X011306Y-034781
X029875Y-035339
X030210Y-035339
X030545Y-035339
X030879Y-035339
X031214Y-035339
X031549Y-035339
X031883Y-035339
X032218Y-035339
X029875Y-034781
X030210Y-034781
X030545Y-034781
X030879Y-034781
X031214Y-034781
X031549Y-034781
X031883Y-034781
X032218Y-034781
X050788Y-035339
X051123Y-035339
X051457Y-035339
X051792Y-035339
X052127Y-035339
X052461Y-035339
X052796Y-035339
X053130Y-035339
X050788Y-034781
X051123Y-034781
X051457Y-034781
X051792Y-034781
X052127Y-034781
X052461Y-034781
X052796Y-034781
X053130Y-034781
X071700Y-035339
X072035Y-035339
X072370Y-035339
X072704Y-035339
X073039Y-035339
X073374Y-035339
X073708Y-035339
X074043Y-035339
X071700Y-034781
X072035Y-034781
X072370Y-034781
X072704Y-034781
X073039Y-034781
X073374Y-034781
X073708Y-034781
X074043Y-034781
X008963Y-042285
X009298Y-042285
X009632Y-042285
X009967Y-042285
X010302Y-042285
X010636Y-042285
X010971Y-042285
X011306Y-042285
X008963Y-041727
X009298Y-041727
X009632Y-041727
X009967Y-041727
X010302Y-041727
X010636Y-041727
X010971Y-041727
X011306Y-041727
X029875Y-042285
X030210Y-042285
X030545Y-042285
X030879Y-042285
X031214Y-042285
X031549Y-042285
X031883Y-042285
X032218Y-042285
X029875Y-041727
X030210Y-041727
X030545Y-041727
X030879Y-041727
X031214Y-041727
X031549Y-041727
X031883Y-041727
X032218Y-041727
X050788Y-042285
X051123Y-042285
X051457Y-042285
X051792Y-042285
X052127Y-042285
X052461Y-042285
X052796Y-042285
X053130Y-042285
X050788Y-041727
X051123Y-041727
X051457Y-041727
X051792Y-041727
X052127Y-041727
X052461Y-041727
X052796Y-041727
X053130Y-041727
X071700Y-042285
X072035Y-042285
X072370Y-042285
X072704Y-042285
X073039Y-042285
X073374Y-042285
X073708Y-042285
X074043Y-042285
X071700Y-041727
X072035Y-041727
X072370Y-041727
X072704Y-041727
X073039Y-041727
X073374Y-041727
X073708Y-041727
X074043Y-041727
X008963Y-049230
X009298Y-049230
X009632Y-049230
X009967Y-049230
X010302Y-049230
X010636Y-049230
X010971Y-049230
X011306Y-049230
X008963Y-048673
X009298Y-048673
X009632Y-048673
X009967Y-048673
X010302Y-048673
X010636Y-048673
X010971Y-048673
X011306Y-048673
X029875Y-049230
X030210Y-049230
X030545Y-049230
X030879Y-049230
X031214Y-049230
X031549Y-049230
X031883Y-049230
X032218Y-049230
X029875Y-048673
X030210Y-048673
X030545Y-048673
X030879Y-048673
X031214Y-048673
X031549Y-048673
X031883Y-048673
X032218Y-048673
X050788Y-049230
X051123Y-049230
X051457Y-049230
X051792Y-049230
X052127Y-049230
X052461Y-049230
X052796Y-049230
X053130Y-049230
X050788Y-048673
X051123Y-048673
X051457Y-048673
X051792Y-048673
X052127Y-048673
X052461Y-048673
X052796Y-048673
X053130Y-048673
X071700Y-049230
X072035Y-049230
X072370Y-049230
X072704Y-049230
X073039Y-049230
X073374Y-049230
X073708Y-049230
X074043Y-049230
X071700Y-048673
X072035Y-048673
X072370Y-048673
X072704Y-048673
X073039Y-048673
X073374Y-048673
X073708Y-048673
X074043Y-048673
X008963Y-056176
X009298Y-056176
X009632Y-056176
X009967Y-056176
X010302Y-056176
X010636Y-056176
X010971Y-056176
X011306Y-056176
X008963Y-055618
X009298Y-055618
X009632Y-055618
X009967Y-055618
X010302Y-055618
X010636Y-055618
X010971Y-055618
X011306Y-055618
X029875Y-056176
X030210Y-056176
X030545Y-056176
X030879Y-056176
X031214Y-056176
X031549Y-056176
X031883Y-056176
X032218Y-056176
X029875Y-055618
X030210Y-055618
X030545Y-055618
X030879Y-055618
X031214Y-055618
X031549Y-055618
X031883Y-055618
X032218Y-055618
X050788Y-056176
X051123Y-056176
X051457Y-056176
X051792Y-056176
X052127Y-056176
X052461Y-056176
X052796Y-056176
X053130Y-056176
X050788Y-055618
X051123Y-055618
X051457Y-055618
X051792Y-055618
X052127Y-055618
X052461Y-055618
X052796Y-055618
X053130Y-055618
X071700Y-056176
X072035Y-056176
X072370Y-056176
X072704Y-056176
X073039Y-056176
X073374Y-056176
X073708Y-056176
X074043Y-056176
X071700Y-055618
X072035Y-055618
X072370Y-055618
X072704Y-055618
X073039Y-055618
X073374Y-055618
X073708Y-055618
X074043Y-055618
X008963Y-063122
X009298Y-063122
X009632Y-063122
X009967Y-063122
X010302Y-063122
X010636Y-063122
X010971Y-063122
X011306Y-063122
X008963Y-062564
X009298Y-062564
X009632Y-062564
X009967Y-062564
X010302Y-062564
X010636Y-062564
X010971Y-062564
X011306Y-062564
X029875Y-063122
X030210Y-063122
X030545Y-063122
X030879Y-063122
X031214Y-063122
X031549Y-063122
X031883Y-063122
X032218Y-063122
X029875Y-062564
X030210Y-062564
X030545Y-062564
X030879Y-062564
X031214Y-062564
X031549Y-062564
X031883Y-062564
X032218Y-062564
X050788Y-063122
X051123Y-063122
X051457Y-063122
X051792Y-063122
X052127Y-063122
X052461Y-063122
X052796Y-063122
X053130Y-063122
X050788Y-062564
X051123Y-062564
X051457Y-062564
X051792Y-062564
X052127Y-062564
X052461Y-062564
X052796Y-062564
X053130Y-062564
X071700Y-063122
X072035Y-063122
X072370Y-063122
X072704Y-063122
X073039Y-063122
X073374Y-063122
X073708Y-063122
X074043Y-063122
X071700Y-062564
X072035Y-062564
X072370Y-062564
X072704Y-062564
X073039Y-062564
X073374Y-062564
X073708Y-062564
X074043Y-062564
X008963Y-070068
X009298Y-070068
X009632Y-070068
X009967Y-070068
X010302Y-070068
X010636Y-070068
X010971Y-070068
X011306Y-070068
X008963Y-069510
X009298Y-069510
X009632Y-069510
X009967Y-069510
X010302Y-069510
X010636Y-069510
X010971Y-069510
X011306Y-069510
X029875Y-070068
X030210Y-070068
X030545Y-070068
X030879Y-070068
X031214Y-070068
X031549Y-070068
X031883Y-070068
X032218Y-070068
X029875Y-069510
X030210Y-069510
X030545Y-069510
X030879Y-069510
X031214Y-069510
X031549Y-069510
X031883Y-069510
X032218Y-069510
X050788Y-070068
X051123Y-070068
X051457Y-070068
X051792Y-070068
X052127Y-070068
X052461Y-070068
X052796Y-070068
X053130Y-070068
X050788Y-069510
X051123Y-069510
X051457Y-069510
X051792Y-069510
X052127Y-069510
X052461Y-069510
X052796Y-069510
X053130Y-069510
X071700Y-070068
X072035Y-070068
X072370Y-070068
X072704Y-070068
X073039Y-070068
X073374Y-070068
X073708Y-070068
X074043Y-070068
X071700Y-069510
X072035Y-069510
X072370Y-069510
X072704Y-069510
X073039Y-069510
X073374Y-069510
X073708Y-069510
X074043Y-069510
X020869Y004313
X020869Y003978
X020869Y003643
X020869Y003309
X020869Y002974
X020869Y002639
X020869Y002305
X020869Y001970
X020312Y004313
X020312Y003978
X020312Y003643
X020312Y003309
X020312Y002974
X020312Y002639
X020312Y002305
X020312Y001970
X041782Y004313
X041782Y003978
X041782Y003643
X041782Y003309
X041782Y002974
X041782Y002639
X041782Y002305
X041782Y001970
X041224Y004313
X041224Y003978
X041224Y003643
X041224Y003309
X041224Y002974
X041224Y002639
X041224Y002305
X041224Y001970
X062694Y004313
X062694Y003978
X062694Y003643
X062694Y003309
X062694Y002974
X062694Y002639
X062694Y002305
X062694Y001970
X062137Y004313
X062137Y003978
X062137Y003643
X062137Y003309
X062137Y002974
X062137Y002639
X062137Y002305
X062137Y001970
X020869Y-002633
X020869Y-002968
X020869Y-003302
X020869Y-003637
X020869Y-003972
X020869Y-004306
X020869Y-004641
X020869Y-004976
X020312Y-002633
X020312Y-002968
X020312Y-003302
X020312Y-003637
X020312Y-003972
X020312Y-004306
X020312Y-004641
X020312Y-004976
X041782Y-002633
X041782Y-002968
X041782Y-003302
X041782Y-003637
X041782Y-003972
X041782Y-004306
X041782Y-004641
X041782Y-004976
X041224Y-002633
X041224Y-002968
X041224Y-003302
X041224Y-003637
X041224Y-003972
X041224Y-004306
X041224Y-004641
X041224Y-004976
X062694Y-002633
X062694Y-002968
X062694Y-003302
X062694Y-003637
X062694Y-003972
X062694Y-004306
X062694Y-004641
X062694Y-004976
X062137Y-002633
X062137Y-002968
X062137Y-003302
X062137Y-003637
X062137Y-003972
X062137Y-004306
X062137Y-004641
X062137Y-004976
X020869Y-009579
X020869Y-009914
X020869Y-010248
X020869Y-010583
X020869Y-010917
X020869Y-011252
X020869Y-011587
X020869Y-011921
X020312Y-009579
X020312Y-009914
X020312Y-010248
X020312Y-010583
X020312Y-010917
X020312Y-011252
X020312Y-011587
X020312Y-011921
X041782Y-009579
X041782Y-009914
X041782Y-010248
X041782Y-010583
X041782Y-010917
X041782Y-011252
X041782Y-011587
X041782Y-011921
X041224Y-009579
X041224Y-009914
X041224Y-010248
X041224Y-010583
X041224Y-010917
X041224Y-011252
X041224Y-011587
X041224Y-011921
X062694Y-009579
X062694Y-009914
X062694Y-010248
X062694Y-010583
X062694Y-010917
X062694Y-011252
X062694Y-011587
X062694Y-011921
X062137Y-009579
X062137Y-009914
X062137Y-010248
X062137Y-010583
X062137Y-010917
X062137Y-011252
X062137Y-011587
X062137Y-011921
X020869Y-016525
X020869Y-016859
X020869Y-017194
X020869Y-017529
X020869Y-017863
X020869Y-018198
X020869Y-018532
X020869Y-018867
X020312Y-016525
X020312Y-016859
X020312Y-017194
X020312Y-017529
X020312Y-017863
X020312Y-018198
X020312Y-018532
X020312Y-018867
X041782Y-016525
X041782Y-016859
X041782Y-017194
X041782Y-017529
X041782Y-017863
X041782Y-018198
X041782Y-018532
X041782Y-018867
X041224Y-016525
X041224Y-016859
X041224Y-017194
X041224Y-017529
X041224Y-017863
X041224Y-018198
X041224Y-018532
X041224Y-018867
X062694Y-016525
X062694Y-016859
X062694Y-017194
X062694Y-017529
X062694Y-017863
X062694Y-018198
X062694Y-018532
X062694Y-018867
X062137Y-016525
X062137Y-016859
X062137Y-017194
X062137Y-017529
X062137Y-017863
X062137Y-018198
X062137Y-018532
X062137Y-018867
X020869Y-023470
X020869Y-023805
X020869Y-024140
X020869Y-024474
X020869Y-024809
X020869Y-025144
X020869Y-025478
X020869Y-025813
X020312Y-023470
X020312Y-023805
X020312Y-024140
X020312Y-024474
X020312Y-024809
X020312Y-025144
X020312Y-025478
X020312Y-025813
X041782Y-023470
X041782Y-023805
X041782Y-024140
X041782Y-024474
X041782Y-024809
X041782Y-025144
X041782Y-025478
X041782Y-025813
X041224Y-023470
X041224Y-023805
X041224Y-024140
X041224Y-024474
X041224Y-024809
X041224Y-025144
X041224Y-025478
X041224Y-025813
X062694Y-023470
X062694Y-023805
X062694Y-024140
X062694Y-024474
X062694Y-024809
X062694Y-025144
X062694Y-025478
X062694Y-025813
X062137Y-023470
X062137Y-023805
X062137Y-024140
X062137Y-024474
X062137Y-024809
X062137Y-025144
X062137Y-025478
X062137Y-025813
X020869Y-030416
X020869Y-030751
X020869Y-031085
X020869Y-031420
X020869Y-031755
X020869Y-032089
X020869Y-032424
X020869Y-032759
X020312Y-030416
X020312Y-030751
X020312Y-031085
X020312Y-031420
X020312Y-031755
X020312Y-032089
X020312Y-032424
X020312Y-032759
X041782Y-030416
X041782Y-030751
X041782Y-031085
X041782Y-031420
X041782Y-031755
X041782Y-032089
X041782Y-032424
X041782Y-032759
X041224Y-030416
X041224Y-030751
X041224Y-031085
X041224Y-031420
X041224Y-031755
X041224Y-032089
X041224Y-032424
X041224Y-032759
X062694Y-030416
X062694Y-030751
X062694Y-031085
X062694Y-031420
X062694Y-031755
X062694Y-032089
X062694Y-032424
X062694Y-032759
X062137Y-030416
X062137Y-030751
X062137Y-031085
X062137Y-031420
X062137Y-031755
X062137Y-032089
X062137Y-032424
X062137Y-032759
X020869Y-037362
X020869Y-037696
X020869Y-038031
X020869Y-038366
X020869Y-038700
X020869Y-039035
X020869Y-039370
X020869Y-039704
X020312Y-037362
X020312Y-037696
X020312Y-038031
X020312Y-038366
X020312Y-038700
X020312Y-039035
X020312Y-039370
X020312Y-039704
X041782Y-037362
X041782Y-037696
X041782Y-038031
X041782Y-038366
X041782Y-038700
X041782Y-039035
X041782Y-039370
X041782Y-039704
X041224Y-037362
X041224Y-037696
X041224Y-038031
X041224Y-038366
X041224Y-038700
X041224Y-039035
X041224Y-039370
X041224Y-039704
X062694Y-037362
X062694Y-037696
X062694Y-038031
X062694Y-038366
X062694Y-038700
X062694Y-039035
X062694Y-039370
X062694Y-039704
X062137Y-037362
X062137Y-037696
X062137Y-038031
X062137Y-038366
X062137Y-038700
X062137Y-039035
X062137Y-039370
X062137Y-039704
X020869Y-044307
X020869Y-044642
X020869Y-044977
X020869Y-045311
X020869Y-045646
X020869Y-045981
X020869Y-046315
X020869Y-046650
X020312Y-044307
X020312Y-044642
X020312Y-044977
X020312Y-045311
X020312Y-045646
X020312Y-045981
X020312Y-046315
X020312Y-046650
X041782Y-044307
X041782Y-044642
X041782Y-044977
X041782Y-045311
X041782Y-045646
X041782Y-045981
X041782Y-046315
X041782Y-046650
X041224Y-044307
X041224Y-044642
X041224Y-044977
X041224Y-045311
X041224Y-045646
X041224Y-045981
X041224Y-046315
X041224Y-046650
X062694Y-044307
X062694Y-044642
X062694Y-044977
X062694Y-045311
X062694Y-045646
X062694Y-045981
X062694Y-046315
X062694Y-046650
X062137Y-044307
X062137Y-044642
X062137Y-044977
X062137Y-045311
X062137Y-045646
X062137Y-045981
X062137Y-046315
X062137Y-046650
X020869Y-051253
X020869Y-051588
X020869Y-051922
X020869Y-052257
X020869Y-052592
X020869Y-052926
X020869Y-053261
X020869Y-053596
X020312Y-051253
X020312Y-051588
X020312Y-051922
X020312Y-052257
X020312Y-052592
X020312Y-052926
X020312Y-053261
X020312Y-053596
X041782Y-051253
X041782Y-051588
X041782Y-051922
X041782Y-052257
X041782Y-052592
X041782Y-052926
X041782Y-053261
X041782Y-053596
X041224Y-051253
X041224Y-051588
X041224Y-051922
X041224Y-052257
X041224Y-052592
X041224Y-052926
X041224Y-053261
X041224Y-053596
X062694Y-051253
X062694Y-051588
X062694Y-051922
X062694Y-052257
X062694Y-052592
X062694Y-052926
X062694Y-053261
X062694Y-053596
X062137Y-051253
X062137Y-051588
X062137Y-051922
X062137Y-052257
X062137Y-052592
X062137Y-052926
X062137Y-053261
X062137Y-053596
X020869Y-058199
X020869Y-058534
X020869Y-058868
X020869Y-059203
X020869Y-059537
X020869Y-059872
X020869Y-060207
X020869Y-060541
X020312Y-058199
X020312Y-058534
X020312Y-058868
X020312Y-059203
X020312Y-059537
X020312Y-059872
X020312Y-060207
X020312Y-060541
X041782Y-058199
X041782Y-058534
X041782Y-058868
X041782Y-059203
X041782Y-059537
X041782Y-059872
X041782Y-060207
X041782Y-060541
X041224Y-058199
X041224Y-058534
X041224Y-058868
X041224Y-059203
X041224Y-059537
X041224Y-059872
X041224Y-060207
X041224Y-060541
X062694Y-058199
X062694Y-058534
X062694Y-058868
X062694Y-059203
X062694Y-059537
X062694Y-059872
X062694Y-060207
X062694Y-060541
X062137Y-058199
X062137Y-058534
X062137Y-058868
X062137Y-059203
X062137Y-059537
X062137Y-059872
X062137Y-060207
X062137Y-060541
X020869Y-065145
X020869Y-065479
X020869Y-065814
X020869Y-066149
X020869Y-066483
X020869Y-066818
X020869Y-067152
X020869Y-067487
X020312Y-065145
X020312Y-065479
X020312Y-065814
X020312Y-066149
X020312Y-066483
X020312Y-066818
X020312Y-067152
X020312Y-067487
X041782Y-065145
X041782Y-065479
X041782Y-065814
X041782Y-066149
X041782Y-066483
X041782Y-066818
X041782Y-067152
X041782Y-067487
X041224Y-065145
X041224Y-065479
X041224Y-065814
X041224Y-066149
X041224Y-066483
X041224Y-066818
X041224Y-067152
X041224Y-067487
X062694Y-065145
X062694Y-065479
X062694Y-065814
X062694Y-066149
X062694Y-066483
X062694Y-066818
X062694Y-067152
X062694Y-067487
X062137Y-065145
X062137Y-065479
X062137Y-065814
X062137Y-066149
X062137Y-066483
X062137Y-066818
X062137Y-067152
X062137Y-067487
X020869Y-072090
X020869Y-072425
X020869Y-072760
X020869Y-073094
X020869Y-073429
X020869Y-073764
X020869Y-074098
X020869Y-074433
X020312Y-072090
X020312Y-072425
X020312Y-072760
X020312Y-073094
X020312Y-073429
X020312Y-073764
X020312Y-074098
X020312Y-074433
X041782Y-072090
X041782Y-072425
X041782Y-072760
X041782Y-073094
X041782Y-073429
X041782Y-073764
X041782Y-074098
X041782Y-074433
X041224Y-072090
X041224Y-072425
X041224Y-072760
X041224Y-073094
X041224Y-073429
X041224Y-073764
X041224Y-074098
X041224Y-074433
X062694Y-072090
X062694Y-072425
X062694Y-072760
X062694Y-073094
X062694Y-073429
X062694Y-073764
X062694Y-074098
X062694Y-074433
X062137Y-072090
X062137Y-072425
X062137Y-072760
X062137Y-073094
X062137Y-073429
X062137Y-073764
X062137Y-074098
X062137Y-074433
X008963Y006335
X009298Y006335
X009632Y006335
X009967Y006335
X010302Y006335
X010636Y006335
X010971Y006335
X011306Y006335
X008963Y-076456
X009298Y-076456
X009632Y-076456
X009967Y-076456
X010302Y-076456
X010636Y-076456
X010971Y-076456
X011306Y-076456
X029875Y006335
X030210Y006335
X030545Y006335
X030879Y006335
X031214Y006335
X031549Y006335
X031883Y006335
X032218Y006335
X029875Y-076456
X030210Y-076456
X030545Y-076456
X030879Y-076456
X031214Y-076456
X031549Y-076456
X031883Y-076456
X032218Y-076456
X050788Y006335
X051123Y006335
X051457Y006335
X051792Y006335
X052127Y006335
X052461Y006335
X052796Y006335
X053130Y006335
X050788Y-076456
X051123Y-076456
X051457Y-076456
X051792Y-076456
X052127Y-076456
X052461Y-076456
X052796Y-076456
X053130Y-076456
X071700Y006335
X072035Y006335
X072370Y006335
X072704Y006335
X073039Y006335
X073374Y006335
X073708Y006335
X074043Y006335
X071700Y-076456
X072035Y-076456
X072370Y-076456
X072704Y-076456
X073039Y-076456
X073374Y-076456
X073708Y-076456
X074043Y-076456
T02
X001962Y007717
X081044Y007717
X003930Y-077837
X079076Y-077837
M30
